<?xml version="1.0" encoding="UTF-8"?><svg id="a" xmlns="http://www.w3.org/2000/svg" viewBox="0 0 269.31 261.97"><defs><style>.b{fill:#2ca1db;}.b,.c,.d,.e{stroke-miterlimit:10;}.b,.d,.e{stroke:#fff;stroke-width:.41px;}.f{fill:#fff;}.c{fill:none;stroke:#13293b;stroke-width:.48px;}.d,.g{fill:#13293b;}.e{fill:#c39c5a;}</style></defs><g><path class="d" d="M130.64,79.58c11.14-7.07,24.36-11.17,38.53-11.17,12.04,0,23.38,2.96,33.35,8.18,.09-1.44,.14-2.89,.14-4.36C202.66,32.45,170.41,.21,130.64,.21S58.62,32.45,58.62,72.23c0,1.46,.05,2.92,.14,4.36,9.97-5.22,21.32-8.18,33.35-8.18,14.17,0,27.39,4.1,38.53,11.17Z"/><path class="d" d="M97.15,140.43c0-1.46,.05-2.92,.14-4.36-21.77-11.4-36.99-33.6-38.53-59.48-22.98,12.03-38.67,36.1-38.67,63.84,0,39.78,32.24,72.02,72.02,72.02,14.17,0,27.39-4.1,38.53-11.17-20.13-12.77-33.49-35.25-33.49-60.85Z"/><path class="b" d="M97.29,136.07c1.42-23.78,14.38-44.45,33.35-56.49-11.14-7.07-24.36-11.17-38.53-11.17-12.04,0-23.38,2.96-33.35,8.18,1.55,25.89,16.76,48.09,38.53,59.48Z"/><path class="d" d="M202.52,76.59c-1.55,25.89-16.76,48.09-38.53,59.48,.09,1.44,.14,2.89,.14,4.36,0,25.6-13.36,48.08-33.49,60.85,11.14,7.07,24.36,11.17,38.53,11.17,39.78,0,72.02-32.24,72.02-72.02,0-27.74-15.68-51.81-38.67-63.84Z"/><path class="b" d="M130.64,79.58c18.98,12.04,31.93,32.71,33.35,56.49,21.77-11.4,36.99-33.6,38.53-59.48-9.97-5.22-21.32-8.18-33.35-8.18-14.17,0-27.39,4.1-38.53,11.17Z"/><path class="b" d="M164.13,140.43c0-1.46-.05-2.92-.14-4.36-9.97,5.22-21.32,8.18-33.35,8.18s-23.38-2.96-33.35-8.18c-.09,1.44-.14,2.89-.14,4.36,0,25.6,13.36,48.08,33.49,60.85,20.13-12.77,33.49-35.25,33.49-60.85Z"/><path class="e" d="M130.64,79.58c-18.98,12.04-31.93,32.71-33.35,56.49,9.97,5.22,21.32,8.18,33.35,8.18s23.38-2.96,33.35-8.18c-1.42-23.78-14.38-44.45-33.35-56.49Z"/></g><g><path class="g" d="M47.76,11.04v7.02h-1.71v-4.21l-1.57,4.21h-1.38l-1.58-4.22v4.22h-1.71v-7.02h2.02l1.97,4.86,1.95-4.86h2.01Z"/><path class="g" d="M53.36,16.82h-2.62l-.42,1.24h-1.79l2.54-7.02h1.98l2.54,7.02h-1.81l-.42-1.24Zm-.44-1.32l-.87-2.57-.86,2.57h1.73Z"/><path class="g" d="M61.02,13.26c-.13-.23-.31-.41-.54-.54s-.51-.19-.83-.19c-.55,0-1,.18-1.33,.54-.33,.36-.5,.85-.5,1.46,0,.65,.18,1.15,.53,1.52,.35,.36,.83,.54,1.44,.54,.42,0,.77-.11,1.06-.32s.5-.52,.64-.92h-2.17v-1.26h3.72v1.59c-.13,.43-.34,.82-.65,1.19-.3,.37-.69,.66-1.15,.89-.47,.23-.99,.34-1.58,.34-.69,0-1.31-.15-1.85-.45-.54-.3-.97-.73-1.27-1.27-.3-.54-.46-1.16-.46-1.85s.15-1.31,.46-1.85c.3-.54,.72-.97,1.26-1.27s1.16-.46,1.85-.46c.84,0,1.55,.2,2.12,.61,.58,.41,.96,.97,1.15,1.69h-1.89Z"/><path class="g" d="M69.03,11.04v1.37h-1.86v5.65h-1.71v-5.65h-1.86v-1.37h5.43Z"/></g><g><path class="g" d="M212.92,77.23h2.24v1.32h-3.95v-7.02h1.71v5.7Z"/><path class="g" d="M217.69,72.9v1.42h2.29v1.32h-2.29v1.54h2.59v1.37h-4.3v-7.02h4.3v1.37h-2.59Z"/><path class="g" d="M226.04,73.75c-.13-.23-.31-.41-.54-.54s-.51-.19-.83-.19c-.55,0-1,.18-1.33,.54-.33,.36-.5,.85-.5,1.46,0,.65,.18,1.15,.53,1.52,.35,.36,.83,.54,1.44,.54,.42,0,.77-.11,1.06-.32s.5-.52,.64-.92h-2.17v-1.26h3.72v1.59c-.13,.43-.34,.82-.65,1.19-.3,.37-.69,.66-1.15,.89-.47,.23-.99,.34-1.58,.34-.69,0-1.31-.15-1.85-.45-.54-.3-.97-.73-1.27-1.27-.3-.54-.46-1.16-.46-1.85s.15-1.31,.46-1.85c.3-.54,.72-.97,1.26-1.27s1.16-.46,1.85-.46c.84,0,1.55,.2,2.12,.61,.58,.41,.96,.97,1.15,1.69h-1.89Z"/><path class="g" d="M230.72,71.53v7.02h-1.71v-7.02h1.71Z"/><path class="g" d="M237.01,71.53v1.37h-1.86v5.65h-1.71v-5.65h-1.86v-1.37h5.43Z"/><path class="g" d="M239.58,71.53v7.02h-1.71v-7.02h1.71Z"/><path class="g" d="M248.77,71.53v7.02h-1.71v-4.21l-1.57,4.21h-1.38l-1.58-4.22v4.22h-1.71v-7.02h2.02l1.97,4.86,1.95-4.86h2.01Z"/><path class="g" d="M251.71,71.53v7.02h-1.71v-7.02h1.71Z"/><path class="g" d="M258,71.53v1.37h-1.86v5.65h-1.71v-5.65h-1.86v-1.37h5.43Z"/><path class="g" d="M260.57,72.9v1.42h2.29v1.32h-2.29v1.54h2.59v1.37h-4.3v-7.02h4.3v1.37h-2.59Z"/><path class="g" d="M269.31,71.53v1.37h-1.86v5.65h-1.71v-5.65h-1.86v-1.37h5.43Z"/></g><g><path class="g" d="M1.71,215.83v4.2c0,.42,.1,.74,.31,.97s.51,.34,.91,.34,.71-.11,.92-.34,.32-.55,.32-.97v-4.2h1.71v4.19c0,.63-.13,1.16-.4,1.59-.27,.43-.62,.76-1.07,.98-.45,.22-.95,.33-1.5,.33s-1.05-.11-1.49-.33-.78-.54-1.03-.98c-.25-.44-.38-.97-.38-1.59v-4.19H1.71Z"/><path class="g" d="M8.58,222.46c-.55-.31-.99-.74-1.31-1.29s-.48-1.17-.48-1.86,.16-1.3,.48-1.85,.76-.97,1.31-1.28,1.15-.46,1.81-.46,1.27,.15,1.81,.46c.55,.31,.98,.73,1.3,1.28,.32,.55,.47,1.16,.47,1.85s-.16,1.31-.48,1.86c-.32,.55-.75,.98-1.3,1.29-.55,.31-1.15,.46-1.81,.46s-1.27-.15-1.81-.46Zm3.16-1.66c.34-.37,.5-.87,.5-1.48s-.17-1.11-.5-1.48c-.34-.37-.79-.56-1.35-.56s-1.02,.18-1.35,.55c-.34,.37-.5,.86-.5,1.49s.17,1.12,.5,1.49c.34,.37,.79,.55,1.35,.55s1.01-.19,1.35-.56Z"/><path class="g" d="M20.01,219.2c-.19,.34-.47,.61-.86,.81-.39,.21-.87,.31-1.44,.31h-1.06v2.52h-1.71v-7.02h2.77c.56,0,1.03,.1,1.42,.29,.39,.19,.68,.46,.87,.8,.19,.34,.29,.73,.29,1.17,0,.41-.09,.78-.28,1.12Zm-1.7-.47c.16-.15,.24-.37,.24-.65s-.08-.5-.24-.65c-.16-.15-.4-.23-.73-.23h-.93v1.76h.93c.33,0,.57-.08,.73-.23Z"/><path class="g" d="M22.34,222.67c-.41-.17-.73-.41-.97-.74-.24-.33-.37-.72-.39-1.18h1.82c.03,.26,.12,.46,.27,.59s.35,.21,.6,.21,.45-.06,.6-.17c.15-.12,.22-.28,.22-.49,0-.17-.06-.32-.18-.43s-.26-.21-.43-.28c-.17-.07-.41-.16-.73-.25-.45-.14-.82-.28-1.11-.42-.29-.14-.53-.35-.74-.62s-.31-.63-.31-1.07c0-.65,.24-1.17,.71-1.54,.47-.37,1.09-.55,1.85-.55s1.4,.19,1.87,.55c.47,.37,.73,.89,.76,1.55h-1.85c-.01-.23-.1-.41-.25-.54s-.35-.2-.59-.2c-.21,0-.37,.05-.5,.17s-.19,.27-.19,.47c0,.23,.11,.4,.32,.53s.55,.26,1,.41c.45,.15,.82,.3,1.1,.44,.28,.14,.53,.34,.74,.61,.21,.27,.31,.61,.31,1.03s-.1,.76-.31,1.09c-.2,.33-.5,.59-.89,.78s-.84,.29-1.37,.29-.97-.08-1.38-.25Z"/><path class="g" d="M33.24,217.18v1.44h2.23v1.3h-2.23v1.58h2.53v1.35h-4.24v-1.18h-2.31l-.6,1.18h-1.85l3.59-7.02h5.41v1.35h-2.53Zm-1.71,3.19v-3.27l-1.65,3.27h1.65Z"/><path class="g" d="M41.93,215.83v1.37h-1.86v5.65h-1.71v-5.65h-1.86v-1.37h5.43Z"/><path class="g" d="M47.84,215.83v1.37h-1.86v5.65h-1.71v-5.65h-1.86v-1.37h5.43Z"/><path class="g" d="M50.41,217.2v1.42h2.29v1.32h-2.29v1.54h2.59v1.37h-4.3v-7.02h4.3v1.37h-2.59Z"/><path class="g" d="M55.82,221.53h2.24v1.32h-3.95v-7.02h1.71v5.7Z"/><path class="g" d="M60.59,215.83v7.02h-1.71v-7.02h1.71Z"/><path class="g" d="M66.49,218.05c-.13-.23-.31-.41-.54-.54s-.51-.18-.83-.18c-.55,0-1,.18-1.33,.54s-.5,.85-.5,1.46c0,.65,.18,1.15,.53,1.51,.35,.36,.83,.54,1.44,.54,.42,0,.77-.11,1.06-.32,.29-.21,.5-.52,.64-.92h-2.17v-1.26h3.72v1.59c-.13,.43-.34,.82-.65,1.19-.3,.37-.69,.66-1.15,.89-.47,.23-.99,.34-1.58,.34-.69,0-1.31-.15-1.85-.46-.54-.3-.97-.72-1.27-1.26-.3-.54-.46-1.16-.46-1.85s.15-1.31,.46-1.86c.3-.54,.72-.97,1.26-1.27,.54-.3,1.16-.46,1.85-.46,.84,0,1.55,.2,2.12,.61,.58,.41,.96,.97,1.15,1.69h-1.89Z"/><path class="g" d="M75.53,215.83v7.02h-1.71v-2.89h-2.66v2.89h-1.71v-7.02h1.71v2.75h2.66v-2.75h1.71Z"/><path class="g" d="M78.47,217.2v1.42h2.29v1.32h-2.29v1.54h2.59v1.37h-4.3v-7.02h4.3v1.37h-2.59Z"/><path class="g" d="M86.74,216.27c.55,.29,.98,.71,1.29,1.24,.3,.53,.46,1.14,.46,1.83s-.15,1.3-.46,1.83c-.3,.53-.73,.95-1.29,1.24-.56,.29-1.2,.44-1.94,.44h-2.63v-7.02h2.63c.74,0,1.39,.15,1.94,.44Zm-.54,4.57c.36-.35,.54-.85,.54-1.5s-.18-1.15-.54-1.51c-.36-.36-.86-.54-1.51-.54h-.81v4.08h.81c.65,0,1.15-.18,1.51-.53Z"/></g><rect class="c" x="157.83" y="222.89" width="106.17" height="38.84"/><g><path class="f" d="M122.84,29.04v-1.75h3.05v8.03h-1.96v-6.28h-1.09Z"/><path class="f" d="M127.43,35.12c-.21-.19-.31-.43-.31-.72s.1-.54,.31-.74c.21-.2,.48-.3,.81-.3s.59,.1,.8,.3c.21,.2,.31,.44,.31,.74s-.1,.53-.31,.72-.47,.29-.8,.29-.6-.1-.81-.29Z"/><path class="f" d="M81.51,41.04v1.28h2.06v1.19h-2.06v1.39h2.33v1.23h-3.87v-6.32h3.87v1.23h-2.33Z"/><path class="f" d="M89.8,41.1v5.02h-1.54v-.68c-.16,.22-.37,.4-.63,.54-.27,.13-.56,.2-.89,.2-.38,0-.72-.09-1.02-.26s-.52-.42-.68-.74c-.16-.32-.24-.71-.24-1.14v-2.93h1.53v2.73c0,.34,.09,.6,.26,.78,.17,.19,.41,.28,.7,.28s.54-.09,.71-.28c.17-.19,.26-.45,.26-.78v-2.73h1.54Z"/><path class="f" d="M93.12,41.28c.27-.16,.57-.24,.9-.24v1.63h-.42c-.38,0-.67,.08-.86,.25-.19,.17-.29,.45-.29,.87v2.33h-1.54v-5.02h1.54v.84c.18-.28,.4-.49,.67-.65Z"/><path class="f" d="M95.72,45.88c-.39-.21-.7-.51-.93-.9-.23-.39-.34-.85-.34-1.37s.11-.97,.34-1.36c.23-.39,.54-.69,.94-.9s.84-.32,1.33-.32,.94,.11,1.33,.32,.71,.51,.94,.9,.34,.85,.34,1.36-.12,.97-.35,1.36-.55,.69-.94,.9c-.4,.21-.84,.31-1.34,.31s-.94-.1-1.33-.31Zm2.08-1.34c.21-.22,.31-.52,.31-.93s-.1-.71-.3-.93-.45-.32-.74-.32-.55,.11-.75,.32c-.2,.21-.3,.52-.3,.93s.1,.71,.29,.93,.44,.32,.73,.32,.54-.11,.75-.32Z"/><path class="f" d="M102.65,41.24c.26-.14,.57-.22,.93-.22,.41,0,.79,.11,1.12,.32s.6,.51,.8,.9,.29,.84,.29,1.36-.1,.97-.29,1.36c-.19,.39-.46,.7-.8,.91s-.71,.32-1.12,.32c-.35,0-.66-.07-.92-.22-.27-.14-.48-.33-.63-.56v3.1h-1.54v-7.42h1.54v.71c.15-.23,.36-.42,.62-.57Zm1.26,1.45c-.21-.22-.48-.33-.79-.33s-.57,.11-.78,.33c-.21,.22-.32,.52-.32,.91s.11,.69,.32,.91c.21,.22,.47,.33,.78,.33s.57-.11,.78-.34c.22-.23,.32-.53,.32-.91s-.11-.69-.32-.9Z"/><path class="f" d="M106.59,42.24c.19-.39,.46-.69,.8-.9s.71-.32,1.12-.32c.35,0,.66,.07,.93,.22s.47,.33,.62,.57v-.71h1.54v5.02h-1.54v-.71c-.15,.23-.36,.42-.63,.57-.27,.14-.58,.22-.93,.22-.41,0-.78-.11-1.12-.32s-.6-.52-.8-.91c-.19-.39-.29-.85-.29-1.36s.1-.97,.29-1.36Zm3.15,.46c-.21-.22-.47-.33-.78-.33s-.57,.11-.78,.33c-.21,.22-.32,.52-.32,.9s.11,.69,.32,.91c.21,.23,.47,.34,.78,.34s.57-.11,.78-.33c.21-.22,.32-.52,.32-.91s-.11-.69-.32-.91Z"/><path class="f" d="M116.78,41.24c.26-.14,.57-.22,.93-.22,.41,0,.79,.11,1.12,.32s.6,.51,.8,.9,.29,.84,.29,1.36-.1,.97-.29,1.36c-.19,.39-.46,.7-.8,.91s-.71,.32-1.12,.32c-.35,0-.66-.07-.92-.22-.27-.14-.48-.33-.63-.56v3.1h-1.54v-7.42h1.54v.71c.15-.23,.36-.42,.62-.57Zm1.26,1.45c-.21-.22-.48-.33-.79-.33s-.57,.11-.78,.33c-.21,.22-.32,.52-.32,.91s.11,.69,.32,.91c.21,.22,.47,.33,.78,.33s.57-.11,.78-.34c.22-.23,.32-.53,.32-.91s-.11-.69-.32-.9Z"/><path class="f" d="M120.72,42.24c.19-.39,.46-.69,.8-.9s.71-.32,1.12-.32c.35,0,.66,.07,.93,.22s.47,.33,.62,.57v-.71h1.54v5.02h-1.54v-.71c-.15,.23-.36,.42-.63,.57-.27,.14-.58,.22-.93,.22-.41,0-.78-.11-1.12-.32s-.6-.52-.8-.91c-.19-.39-.29-.85-.29-1.36s.1-.97,.29-1.36Zm3.15,.46c-.21-.22-.47-.33-.78-.33s-.57,.11-.78,.33c-.21,.22-.32,.52-.32,.9s.11,.69,.32,.91c.21,.23,.47,.34,.78,.34s.57-.11,.78-.33c.21-.22,.32-.52,.32-.91s-.11-.69-.32-.91Z"/><path class="f" d="M129.06,41.28c.27-.16,.57-.24,.9-.24v1.63h-.42c-.38,0-.67,.08-.86,.25-.19,.17-.29,.45-.29,.87v2.33h-1.54v-5.02h1.54v.84c.18-.28,.4-.49,.67-.65Z"/><path class="f" d="M132.24,39.46v6.66h-1.54v-6.66h1.54Z"/><path class="f" d="M133.34,42.24c.19-.39,.46-.69,.8-.9s.71-.32,1.12-.32c.35,0,.66,.07,.93,.22s.47,.33,.62,.57v-.71h1.54v5.02h-1.54v-.71c-.15,.23-.36,.42-.63,.57-.27,.14-.58,.22-.93,.22-.41,0-.78-.11-1.12-.32s-.6-.52-.8-.91c-.19-.39-.29-.85-.29-1.36s.1-.97,.29-1.36Zm3.15,.46c-.21-.22-.47-.33-.78-.33s-.57,.11-.78,.33c-.21,.22-.32,.52-.32,.9s.11,.69,.32,.91c.21,.23,.47,.34,.78,.34s.57-.11,.78-.33c.21-.22,.32-.52,.32-.91s-.11-.69-.32-.91Z"/><path class="f" d="M147.36,41.61c.37,.38,.55,.9,.55,1.57v2.93h-1.53v-2.73c0-.32-.09-.57-.26-.75-.17-.18-.41-.27-.71-.27s-.54,.09-.71,.27c-.17,.18-.26,.43-.26,.75v2.73h-1.53v-2.73c0-.32-.09-.57-.26-.75-.17-.18-.41-.27-.71-.27s-.54,.09-.71,.27c-.17,.18-.26,.43-.26,.75v2.73h-1.54v-5.02h1.54v.63c.16-.21,.36-.38,.61-.5s.54-.18,.85-.18c.38,0,.72,.08,1.01,.24,.3,.16,.53,.39,.7,.69,.17-.28,.41-.5,.71-.67,.3-.17,.63-.26,.98-.26,.62,0,1.12,.19,1.49,.57Z"/><path class="f" d="M153.7,43.98h-3.48c.02,.31,.12,.55,.3,.72,.18,.17,.39,.25,.65,.25,.38,0,.65-.16,.8-.49h1.64c-.08,.33-.24,.63-.45,.89-.22,.26-.49,.47-.82,.62s-.7,.22-1.11,.22c-.49,0-.93-.1-1.31-.31-.38-.21-.68-.51-.9-.9-.22-.39-.32-.85-.32-1.37s.11-.98,.32-1.37,.51-.69,.9-.9c.38-.21,.83-.32,1.32-.32s.92,.1,1.3,.31c.38,.2,.67,.5,.89,.87,.21,.38,.32,.82,.32,1.32,0,.14,0,.29-.03,.45Zm-1.55-.85c0-.26-.09-.47-.27-.63-.18-.16-.4-.23-.67-.23s-.48,.07-.65,.22c-.18,.15-.29,.36-.33,.64h1.93Z"/><path class="f" d="M159.01,41.62c.35,.38,.53,.9,.53,1.57v2.93h-1.53v-2.73c0-.34-.09-.6-.26-.78-.17-.19-.41-.28-.7-.28s-.53,.09-.7,.28-.26,.45-.26,.78v2.73h-1.54v-5.02h1.54v.67c.16-.22,.37-.4,.63-.53,.26-.13,.56-.19,.89-.19,.59,0,1.06,.19,1.41,.57Z"/><path class="f" d="M163.4,44.82v1.31h-.78c-.56,0-.99-.14-1.31-.41-.31-.27-.47-.72-.47-1.34v-2h-.61v-1.28h.61v-1.22h1.54v1.22h1.01v1.28h-1.01v2.02c0,.15,.04,.26,.11,.32,.07,.07,.19,.1,.36,.1h.55Z"/><path class="f" d="M168.96,43.98h-3.48c.02,.31,.12,.55,.3,.72,.18,.17,.39,.25,.65,.25,.38,0,.65-.16,.8-.49h1.64c-.08,.33-.24,.63-.45,.89-.22,.26-.49,.47-.82,.62s-.7,.22-1.11,.22c-.49,0-.93-.1-1.31-.31-.38-.21-.68-.51-.9-.9-.22-.39-.32-.85-.32-1.37s.11-.98,.32-1.37,.51-.69,.9-.9c.38-.21,.83-.32,1.32-.32s.92,.1,1.3,.31c.38,.2,.67,.5,.89,.87,.21,.38,.32,.82,.32,1.32,0,.14,0,.29-.03,.45Zm-1.55-.85c0-.26-.09-.47-.27-.63-.18-.16-.4-.23-.67-.23s-.48,.07-.65,.22c-.18,.15-.29,.36-.33,.64h1.93Z"/><path class="f" d="M172.6,44.82v1.31h-.78c-.56,0-.99-.14-1.31-.41-.31-.27-.47-.72-.47-1.34v-2h-.61v-1.28h.61v-1.22h1.54v1.22h1.01v1.28h-1.01v2.02c0,.15,.04,.26,.11,.32,.07,.07,.19,.1,.36,.1h.55Z"/></g><g><path class="f" d="M59.68,139.59c.72-.59,1.29-1.08,1.7-1.46,.41-.38,.76-.78,1.05-1.2s.43-.83,.43-1.22c0-.3-.07-.54-.21-.7-.14-.17-.35-.25-.63-.25s-.5,.1-.65,.31-.24,.5-.24,.89h-1.81c.01-.62,.15-1.14,.4-1.56s.59-.73,1-.92c.41-.2,.87-.3,1.38-.3,.87,0,1.53,.22,1.97,.67,.44,.45,.67,1.03,.67,1.75,0,.79-.27,1.51-.8,2.18s-1.22,1.33-2.05,1.96h2.97v1.53h-5.52v-1.4c.25-.2,.36-.29,.34-.28Z"/><path class="f" d="M65.94,141.17c-.21-.19-.31-.43-.31-.72s.1-.54,.31-.74,.48-.3,.81-.3,.59,.1,.8,.3,.31,.44,.31,.74-.1,.53-.31,.72-.47,.29-.8,.29-.6-.1-.81-.29Z"/><path class="f" d="M50.54,148.3c.19-.39,.46-.69,.8-.9s.71-.32,1.12-.32c.33,0,.63,.07,.9,.21,.27,.14,.49,.32,.64,.56v-2.33h1.54v6.66h-1.54v-.72c-.14,.24-.35,.43-.62,.58-.27,.14-.58,.22-.93,.22-.41,0-.79-.11-1.12-.32s-.6-.52-.8-.91-.29-.85-.29-1.36,.1-.97,.29-1.36Zm3.15,.46c-.21-.22-.47-.33-.78-.33s-.57,.11-.78,.33c-.21,.22-.32,.52-.32,.9s.11,.69,.32,.91c.21,.23,.47,.34,.78,.34s.57-.11,.78-.33,.32-.53,.32-.91-.11-.69-.32-.91Z"/><path class="f" d="M56.65,148.3c.19-.39,.46-.69,.8-.9s.71-.32,1.12-.32c.35,0,.66,.07,.93,.22,.27,.14,.47,.33,.62,.57v-.71h1.54v5.02h-1.54v-.71c-.15,.23-.36,.42-.63,.57-.27,.14-.58,.22-.93,.22-.41,0-.78-.11-1.12-.32s-.6-.52-.8-.91-.29-.85-.29-1.36,.1-.97,.29-1.36Zm3.15,.46c-.21-.22-.47-.33-.78-.33s-.57,.11-.78,.33c-.21,.22-.32,.52-.32,.9s.11,.69,.32,.91c.21,.23,.47,.34,.78,.34s.57-.11,.78-.33,.32-.53,.32-.91-.11-.69-.32-.91Z"/><path class="f" d="M65.57,150.87v1.3h-.78c-.56,0-.99-.14-1.31-.41s-.47-.72-.47-1.34v-2h-.61v-1.28h.61v-1.22h1.54v1.22h1.01v1.28h-1.01v2.02c0,.15,.04,.26,.11,.32,.07,.07,.19,.1,.36,.1h.55Z"/><path class="f" d="M66.42,148.3c.19-.39,.46-.69,.8-.9s.71-.32,1.12-.32c.35,0,.66,.07,.93,.22,.27,.14,.47,.33,.62,.57v-.71h1.54v5.02h-1.54v-.71c-.15,.23-.36,.42-.63,.57-.27,.14-.58,.22-.93,.22-.41,0-.78-.11-1.12-.32s-.6-.52-.8-.91-.29-.85-.29-1.36,.1-.97,.29-1.36Zm3.15,.46c-.21-.22-.47-.33-.78-.33s-.57,.11-.78,.33c-.21,.22-.32,.52-.32,.9s.11,.69,.32,.91c.21,.23,.47,.34,.78,.34s.57-.11,.78-.33,.32-.53,.32-.91-.11-.69-.32-.91Z"/><path class="f" d="M76.41,148.38v1.28h-3.96v-1.28h3.96Z"/><path class="f" d="M34.2,158.1c.27-.14,.58-.22,.93-.22,.41,0,.79,.11,1.12,.32s.6,.51,.8,.9c.19,.39,.29,.84,.29,1.36s-.1,.97-.29,1.36-.46,.7-.8,.91-.71,.32-1.12,.32c-.35,0-.66-.07-.93-.21-.26-.14-.47-.33-.62-.56v.7h-1.54v-6.66h1.54v2.35c.14-.23,.35-.42,.62-.57Zm1.26,1.45c-.21-.22-.48-.33-.79-.33s-.57,.11-.78,.33c-.21,.22-.32,.53-.32,.91s.11,.69,.32,.91c.21,.22,.47,.33,.78,.33s.57-.11,.78-.34c.22-.22,.32-.53,.32-.91s-.11-.69-.32-.9Z"/><path class="f" d="M42.85,160.83h-3.48c.02,.31,.12,.55,.3,.72,.18,.17,.39,.25,.65,.25,.38,0,.65-.16,.8-.49h1.64c-.08,.33-.24,.63-.45,.89-.22,.26-.49,.47-.82,.62-.33,.15-.7,.22-1.11,.22-.49,0-.93-.1-1.31-.32-.38-.21-.68-.51-.9-.9-.22-.39-.32-.85-.32-1.37s.11-.98,.32-1.37c.21-.39,.51-.69,.9-.9,.38-.21,.83-.32,1.32-.32s.92,.1,1.3,.31c.38,.2,.67,.5,.89,.87,.21,.38,.32,.82,.32,1.32,0,.14,0,.29-.03,.45Zm-1.55-.86c0-.26-.09-.47-.27-.63-.18-.16-.4-.23-.67-.23s-.48,.07-.65,.22c-.18,.15-.29,.36-.33,.64h1.93Z"/><path class="f" d="M44.56,162.82c-.34-.15-.61-.36-.81-.62-.2-.26-.31-.55-.33-.88h1.52c.02,.17,.1,.31,.24,.42,.14,.11,.32,.16,.53,.16,.19,0,.34-.04,.45-.11,.1-.08,.16-.17,.16-.29,0-.14-.08-.25-.23-.32s-.39-.15-.73-.23c-.36-.08-.66-.17-.9-.27-.24-.09-.45-.24-.62-.44-.17-.2-.26-.47-.26-.81,0-.29,.08-.55,.24-.79,.16-.24,.39-.42,.7-.56,.31-.14,.68-.21,1.1-.21,.63,0,1.13,.16,1.49,.47,.36,.31,.57,.73,.63,1.24h-1.42c-.02-.17-.1-.31-.23-.41-.13-.1-.3-.15-.51-.15-.18,0-.32,.04-.41,.1-.1,.07-.14,.16-.14,.28,0,.14,.08,.25,.23,.32,.15,.07,.39,.14,.72,.22,.37,.1,.67,.19,.91,.28,.23,.09,.44,.24,.62,.45,.18,.21,.27,.48,.27,.83,0,.29-.08,.56-.25,.79-.17,.23-.4,.41-.71,.54s-.67,.2-1.08,.2c-.44,0-.83-.08-1.17-.22Z"/><path class="f" d="M51.78,162.98l-1.53-2.11v2.11h-1.54v-6.66h1.54v3.68l1.52-2.04h1.9l-2.09,2.52,2.11,2.5h-1.91Z"/><path class="f" d="M59.4,157.95l-3.15,7.41h-1.66l1.15-2.56-2.04-4.85h1.72l1.16,3.14,1.15-3.14h1.67Z"/><path class="f" d="M62.76,161.67v1.3h-.78c-.56,0-.99-.14-1.31-.41s-.47-.72-.47-1.34v-2h-.61v-1.28h.61v-1.22h1.54v1.22h1.01v1.28h-1.01v2.02c0,.15,.04,.26,.11,.32,.07,.07,.19,.1,.36,.1h.55Z"/><path class="f" d="M66.42,161.67v1.3h-.78c-.56,0-.99-.14-1.31-.41s-.47-.72-.47-1.34v-2h-.61v-1.28h.61v-1.22h1.54v1.22h1.01v1.28h-1.01v2.02c0,.15,.04,.26,.11,.32,.07,.07,.19,.1,.36,.1h.55Z"/><path class="f" d="M71.98,160.83h-3.48c.02,.31,.12,.55,.3,.72,.18,.17,.39,.25,.65,.25,.38,0,.65-.16,.8-.49h1.64c-.08,.33-.24,.63-.45,.89-.22,.26-.49,.47-.82,.62-.33,.15-.7,.22-1.11,.22-.49,0-.93-.1-1.31-.32-.38-.21-.68-.51-.9-.9-.22-.39-.32-.85-.32-1.37s.11-.98,.32-1.37c.21-.39,.51-.69,.9-.9,.38-.21,.83-.32,1.32-.32s.92,.1,1.3,.31c.38,.2,.67,.5,.89,.87,.21,.38,.32,.82,.32,1.32,0,.14,0,.29-.03,.45Zm-1.55-.86c0-.26-.09-.47-.27-.63-.18-.16-.4-.23-.67-.23s-.48,.07-.65,.22c-.18,.15-.29,.36-.33,.64h1.93Z"/><path class="f" d="M74.35,156.31v6.66h-1.54v-6.66h1.54Z"/><path class="f" d="M76.34,162.82c-.34-.15-.61-.36-.81-.62-.2-.26-.31-.55-.33-.88h1.52c.02,.17,.1,.31,.24,.42,.14,.11,.32,.16,.53,.16,.19,0,.34-.04,.45-.11,.1-.08,.16-.17,.16-.29,0-.14-.08-.25-.23-.32s-.39-.15-.73-.23c-.36-.08-.66-.17-.9-.27-.24-.09-.45-.24-.62-.44-.17-.2-.26-.47-.26-.81,0-.29,.08-.55,.24-.79,.16-.24,.39-.42,.7-.56,.31-.14,.68-.21,1.1-.21,.63,0,1.13,.16,1.49,.47,.36,.31,.57,.73,.63,1.24h-1.42c-.02-.17-.1-.31-.23-.41-.13-.1-.3-.15-.51-.15-.18,0-.32,.04-.41,.1-.1,.07-.14,.16-.14,.28,0,.14,.08,.25,.23,.32,.15,.07,.39,.14,.72,.22,.37,.1,.67,.19,.91,.28,.23,.09,.44,.24,.62,.45,.18,.21,.27,.48,.27,.83,0,.29-.08,.56-.25,.79-.17,.23-.4,.41-.71,.54s-.67,.2-1.08,.2c-.44,0-.83-.08-1.17-.22Z"/><path class="f" d="M85.2,160.83h-3.48c.02,.31,.12,.55,.3,.72,.18,.17,.39,.25,.65,.25,.38,0,.65-.16,.8-.49h1.64c-.08,.33-.24,.63-.45,.89-.22,.26-.49,.47-.82,.62-.33,.15-.7,.22-1.11,.22-.49,0-.93-.1-1.31-.32-.38-.21-.68-.51-.9-.9-.22-.39-.32-.85-.32-1.37s.11-.98,.32-1.37c.21-.39,.51-.69,.9-.9,.38-.21,.83-.32,1.32-.32s.92,.1,1.3,.31c.38,.2,.67,.5,.89,.87,.21,.38,.32,.82,.32,1.32,0,.14,0,.29-.03,.45Zm-1.55-.86c0-.26-.09-.47-.27-.63-.18-.16-.4-.23-.67-.23s-.48,.07-.65,.22c-.18,.15-.29,.36-.33,.64h1.93Z"/><path class="f" d="M86.91,162.82c-.34-.15-.61-.36-.81-.62-.2-.26-.31-.55-.33-.88h1.52c.02,.17,.1,.31,.24,.42,.14,.11,.32,.16,.53,.16,.19,0,.34-.04,.45-.11,.1-.08,.16-.17,.16-.29,0-.14-.08-.25-.23-.32s-.39-.15-.73-.23c-.36-.08-.66-.17-.9-.27-.24-.09-.45-.24-.62-.44-.17-.2-.26-.47-.26-.81,0-.29,.08-.55,.24-.79,.16-.24,.39-.42,.7-.56,.31-.14,.68-.21,1.1-.21,.63,0,1.13,.16,1.49,.47,.36,.31,.57,.73,.63,1.24h-1.42c-.02-.17-.1-.31-.23-.41-.13-.1-.3-.15-.51-.15-.18,0-.32,.04-.41,.1-.1,.07-.14,.16-.14,.28,0,.14,.08,.25,.23,.32,.15,.07,.39,.14,.72,.22,.37,.1,.67,.19,.91,.28,.23,.09,.44,.24,.62,.45,.18,.21,.27,.48,.27,.83,0,.29-.08,.56-.25,.79-.17,.23-.4,.41-.71,.54s-.67,.2-1.08,.2c-.44,0-.83-.08-1.17-.22Z"/><path class="f" d="M94.93,159.18v1.28h-3.96v-1.28h3.96Z"/><path class="f" d="M52.88,167.12v6.66h-1.54v-6.66h1.54Z"/><path class="f" d="M54.95,173.53c-.39-.21-.7-.51-.93-.9-.23-.39-.34-.85-.34-1.37s.11-.97,.34-1.36c.23-.39,.54-.69,.94-.9s.84-.32,1.33-.32,.94,.11,1.33,.32,.71,.51,.94,.9c.23,.39,.34,.85,.34,1.36s-.12,.97-.35,1.36c-.23,.39-.55,.69-.94,.9-.4,.21-.84,.31-1.34,.31s-.94-.1-1.33-.31Zm2.08-1.34c.21-.22,.31-.53,.31-.93s-.1-.71-.3-.93-.45-.32-.74-.32-.55,.11-.75,.32c-.2,.21-.3,.52-.3,.93s.1,.71,.29,.93,.44,.32,.73,.32,.54-.11,.75-.32Z"/><path class="f" d="M61.99,172.34l1.09-3.58h1.64l-1.78,5.02h-1.9l-1.78-5.02h1.65l1.09,3.58Z"/><path class="f" d="M70.07,171.63h-3.48c.02,.31,.12,.55,.3,.72,.18,.17,.39,.25,.65,.25,.38,0,.65-.16,.8-.49h1.64c-.08,.33-.24,.63-.45,.89-.22,.26-.49,.47-.82,.62-.33,.15-.7,.22-1.11,.22-.49,0-.93-.1-1.31-.31-.38-.21-.68-.51-.9-.9-.22-.39-.32-.85-.32-1.37s.11-.98,.32-1.37c.21-.39,.51-.69,.9-.9,.38-.21,.83-.32,1.32-.32s.92,.1,1.3,.31,.67,.5,.89,.87c.21,.38,.32,.82,.32,1.32,0,.14,0,.29-.03,.45Zm-1.55-.85c0-.26-.09-.47-.27-.63-.18-.16-.4-.23-.67-.23s-.48,.08-.65,.22c-.18,.15-.29,.36-.33,.64h1.93Z"/><path class="f" d="M75.37,169.27c.35,.38,.53,.9,.53,1.57v2.93h-1.53v-2.73c0-.34-.09-.6-.26-.78-.17-.19-.41-.28-.7-.28s-.53,.09-.7,.28c-.17,.19-.26,.45-.26,.78v2.73h-1.54v-5.02h1.54v.67c.16-.22,.37-.4,.63-.53,.26-.13,.56-.19,.89-.19,.59,0,1.06,.19,1.41,.57Z"/></g><g><path class="f" d="M124.61,118.62v-1.52l3.48-4.97h2.1v4.86h.9v1.63h-.9v1.43h-1.88v-1.43h-3.7Zm3.83-4.42l-1.85,2.79h1.85v-2.79Z"/><path class="f" d="M132.27,119.85c-.21-.19-.31-.43-.31-.72s.1-.54,.31-.74c.21-.2,.48-.3,.81-.3s.59,.1,.8,.3c.21,.2,.31,.44,.31,.74s-.1,.53-.31,.72-.47,.29-.8,.29-.6-.1-.81-.29Z"/><path class="f" d="M105.34,124.93c.5,.26,.88,.63,1.16,1.11,.27,.48,.41,1.03,.41,1.65s-.14,1.17-.41,1.65c-.27,.48-.66,.85-1.16,1.12-.5,.26-1.08,.4-1.74,.4h-2.37v-6.32h2.37c.67,0,1.25,.13,1.75,.4Zm-.49,4.11c.32-.32,.49-.77,.49-1.35s-.16-1.03-.49-1.36c-.32-.32-.78-.49-1.36-.49h-.73v3.67h.73c.58,0,1.03-.16,1.36-.48Z"/><path class="f" d="M107.76,126.97c.19-.39,.46-.69,.8-.9s.71-.32,1.12-.32c.35,0,.66,.07,.93,.22s.47,.33,.62,.57v-.71h1.54v5.02h-1.54v-.71c-.15,.23-.36,.42-.63,.57-.27,.14-.58,.22-.93,.22-.41,0-.78-.11-1.12-.32s-.6-.52-.8-.91c-.19-.39-.29-.85-.29-1.36s.1-.97,.29-1.36Zm3.15,.46c-.21-.22-.47-.33-.78-.33s-.57,.11-.78,.33c-.21,.22-.32,.52-.32,.9s.11,.69,.32,.91c.21,.23,.47,.34,.78,.34s.57-.11,.78-.33c.21-.22,.32-.52,.32-.91s-.11-.69-.32-.91Z"/><path class="f" d="M116.68,129.55v1.31h-.78c-.56,0-.99-.14-1.31-.41-.31-.27-.47-.72-.47-1.34v-2h-.61v-1.28h.61v-1.22h1.54v1.22h1.01v1.28h-1.01v2.02c0,.15,.04,.26,.11,.32,.07,.07,.19,.1,.36,.1h.55Z"/><path class="f" d="M117.52,126.97c.19-.39,.46-.69,.8-.9s.71-.32,1.12-.32c.35,0,.66,.07,.93,.22s.47,.33,.62,.57v-.71h1.54v5.02h-1.54v-.71c-.15,.23-.36,.42-.63,.57-.27,.14-.58,.22-.93,.22-.41,0-.78-.11-1.12-.32s-.6-.52-.8-.91c-.19-.39-.29-.85-.29-1.36s.1-.97,.29-1.36Zm3.15,.46c-.21-.22-.47-.33-.78-.33s-.57,.11-.78,.33c-.21,.22-.32,.52-.32,.9s.11,.69,.32,.91c.21,.23,.47,.34,.78,.34s.57-.11,.78-.33c.21-.22,.32-.52,.32-.91s-.11-.69-.32-.91Z"/><path class="f" d="M126.45,129.55v1.31h-.78c-.56,0-.99-.14-1.31-.41-.31-.27-.47-.72-.47-1.34v-2h-.61v-1.28h.61v-1.22h1.54v1.22h1.01v1.28h-1.01v2.02c0,.15,.04,.26,.11,.32,.07,.07,.19,.1,.36,.1h.55Z"/><path class="f" d="M127.41,125.07c-.17-.16-.26-.36-.26-.59s.09-.44,.26-.6c.17-.16,.39-.24,.66-.24s.48,.08,.65,.24c.17,.16,.26,.36,.26,.6s-.09,.43-.26,.59c-.17,.16-.39,.24-.65,.24s-.49-.08-.66-.24Zm1.43,.76v5.02h-1.54v-5.02h1.54Z"/><path class="f" d="M131.49,124.19v6.66h-1.54v-6.66h1.54Z"/><path class="f" d="M133.48,130.7c-.34-.15-.61-.36-.81-.62-.2-.26-.31-.55-.33-.88h1.52c.02,.17,.1,.31,.24,.42,.14,.11,.32,.16,.53,.16,.19,0,.34-.04,.45-.11,.1-.08,.16-.17,.16-.29,0-.14-.08-.25-.23-.32-.15-.07-.39-.15-.73-.23-.36-.08-.66-.17-.9-.27-.24-.09-.45-.24-.62-.44-.17-.2-.26-.47-.26-.81,0-.29,.08-.55,.24-.79,.16-.24,.39-.42,.7-.56,.31-.14,.68-.21,1.1-.21,.63,0,1.13,.16,1.49,.47s.57,.73,.63,1.24h-1.42c-.02-.17-.1-.31-.23-.41s-.3-.15-.51-.15c-.18,0-.32,.03-.41,.1-.1,.07-.14,.16-.14,.28,0,.14,.08,.25,.23,.32,.15,.07,.39,.14,.72,.22,.37,.1,.67,.19,.91,.28,.23,.09,.44,.24,.62,.45,.18,.21,.27,.48,.27,.83,0,.29-.08,.56-.25,.79-.17,.23-.4,.41-.71,.54-.31,.13-.67,.2-1.08,.2-.44,0-.83-.07-1.17-.22Z"/><path class="f" d="M142.76,125.83l-3.15,7.41h-1.66l1.15-2.56-2.04-4.85h1.72l1.16,3.14,1.15-3.14h1.67Z"/><path class="f" d="M147.79,126.35c.35,.38,.53,.9,.53,1.57v2.93h-1.53v-2.73c0-.34-.09-.6-.26-.78-.17-.19-.41-.28-.7-.28s-.53,.09-.7,.28-.26,.45-.26,.78v2.73h-1.54v-5.02h1.54v.67c.16-.22,.37-.4,.63-.53,.26-.13,.56-.19,.89-.19,.59,0,1.06,.19,1.41,.57Z"/><path class="f" d="M154.09,128.71h-3.48c.02,.31,.12,.55,.3,.72,.18,.17,.39,.25,.65,.25,.38,0,.65-.16,.8-.49h1.64c-.08,.33-.24,.63-.45,.89-.22,.26-.49,.47-.82,.62-.33,.15-.7,.22-1.11,.22-.49,0-.93-.1-1.31-.31-.38-.21-.68-.51-.9-.9-.22-.39-.32-.85-.32-1.37s.11-.98,.32-1.37,.51-.69,.9-.9c.38-.21,.83-.32,1.32-.32s.92,.1,1.3,.31c.38,.2,.67,.5,.89,.87,.21,.38,.32,.82,.32,1.32,0,.14,0,.29-.03,.45Zm-1.55-.85c0-.26-.09-.47-.27-.63-.18-.16-.4-.23-.67-.23s-.48,.07-.65,.22c-.18,.15-.29,.36-.33,.64h1.93Z"/><path class="f" d="M157.73,129.55v1.31h-.78c-.56,0-.99-.14-1.31-.41-.31-.27-.47-.72-.47-1.34v-2h-.61v-1.28h.61v-1.22h1.54v1.22h1.01v1.28h-1.01v2.02c0,.15,.04,.26,.11,.32,.07,.07,.19,.1,.36,.1h.55Z"/></g><g><path class="g" d="M173.46,233.92h-3.43v1.52c.15-.16,.35-.29,.62-.4s.55-.15,.86-.15c.55,0,1.01,.12,1.37,.37,.36,.25,.63,.57,.8,.97,.17,.4,.25,.83,.25,1.29,0,.86-.24,1.54-.73,2.04-.48,.5-1.17,.75-2.05,.75-.59,0-1.1-.1-1.53-.3-.43-.2-.77-.48-1-.84-.23-.36-.36-.77-.39-1.24h1.84c.04,.23,.15,.42,.32,.57,.17,.15,.4,.23,.69,.23,.34,0,.6-.11,.77-.33,.17-.22,.25-.51,.25-.88s-.09-.63-.26-.83c-.18-.19-.43-.29-.77-.29-.25,0-.46,.06-.62,.18-.16,.12-.27,.28-.32,.48h-1.81v-4.79h5.14v1.65Z"/><path class="g" d="M175.21,240.11c-.21-.19-.31-.43-.31-.72s.1-.54,.31-.74c.21-.2,.48-.3,.81-.3s.59,.1,.8,.3c.21,.2,.31,.44,.31,.74s-.1,.53-.31,.72-.47,.29-.8,.29-.6-.1-.81-.29Z"/><path class="g" d="M181.85,240.12c-.45-.18-.8-.45-1.07-.81-.27-.36-.41-.79-.42-1.3h2c.03,.29,.13,.5,.3,.65,.17,.15,.39,.23,.66,.23s.5-.06,.66-.19c.16-.13,.24-.31,.24-.53,0-.19-.06-.35-.19-.47-.13-.12-.29-.23-.47-.31-.19-.08-.45-.17-.8-.28-.5-.15-.91-.31-1.22-.46-.32-.15-.59-.38-.81-.68-.23-.3-.34-.69-.34-1.18,0-.72,.26-1.28,.78-1.69,.52-.41,1.2-.61,2.03-.61s1.54,.2,2.06,.61c.52,.41,.8,.97,.84,1.7h-2.03c-.02-.25-.11-.45-.28-.59-.17-.14-.38-.21-.65-.21-.23,0-.41,.06-.55,.18-.14,.12-.21,.3-.21,.52,0,.25,.12,.44,.35,.58,.23,.14,.6,.29,1.1,.45,.5,.17,.9,.33,1.22,.48,.31,.15,.58,.38,.81,.67,.23,.29,.34,.67,.34,1.13s-.11,.84-.34,1.2-.55,.65-.97,.86c-.43,.21-.93,.32-1.51,.32s-1.07-.09-1.52-.28Z"/><path class="g" d="M189.22,232.18v8.14h-1.88v-8.14h1.88Z"/><path class="g" d="M196.65,234.18v6.14h-1.88v-.84c-.19,.27-.45,.49-.78,.65s-.69,.25-1.08,.25c-.47,0-.88-.1-1.24-.31s-.64-.51-.84-.91c-.2-.4-.3-.86-.3-1.4v-3.59h1.87v3.33c0,.41,.11,.73,.32,.96s.5,.34,.86,.34,.66-.11,.87-.34c.21-.23,.32-.55,.32-.96v-3.33h1.88Z"/><path class="g" d="M201.42,238.72v1.59h-.96c-.68,0-1.21-.17-1.6-.5s-.57-.88-.57-1.63v-2.44h-.75v-1.56h.75v-1.5h1.88v1.5h1.23v1.56h-1.23v2.46c0,.18,.04,.32,.13,.4,.09,.08,.23,.12,.44,.12h.67Z"/><path class="g" d="M205.11,234.35c.33-.18,.71-.26,1.13-.26,.51,0,.96,.13,1.38,.38s.73,.62,.97,1.1c.24,.48,.36,1.03,.36,1.66s-.12,1.19-.36,1.67c-.24,.48-.56,.85-.97,1.11-.41,.26-.87,.39-1.38,.39-.43,0-.81-.09-1.13-.26-.32-.17-.58-.4-.76-.69v.86h-1.88v-8.14h1.88v2.87c.18-.29,.43-.52,.76-.69Zm1.53,1.78c-.26-.27-.58-.4-.96-.4s-.69,.14-.95,.41-.39,.64-.39,1.11,.13,.84,.39,1.11c.26,.27,.58,.41,.95,.41s.69-.14,.96-.41c.26-.28,.4-.65,.4-1.12s-.13-.84-.39-1.11Z"/><path class="g" d="M212.64,234.4c.33-.19,.7-.29,1.1-.29v1.99h-.52c-.47,0-.82,.1-1.06,.3-.23,.2-.35,.56-.35,1.06v2.85h-1.88v-6.14h1.88v1.02c.22-.34,.5-.6,.83-.8Z"/><path class="g" d="M220.71,234.18v6.14h-1.88v-.84c-.19,.27-.45,.49-.78,.65s-.69,.25-1.08,.25c-.47,0-.88-.1-1.24-.31s-.64-.51-.84-.91c-.2-.4-.3-.86-.3-1.4v-3.59h1.87v3.33c0,.41,.11,.73,.32,.96s.5,.34,.86,.34,.66-.11,.87-.34c.21-.23,.32-.55,.32-.96v-3.33h1.88Z"/><path class="g" d="M225.53,234.35c.33,.18,.58,.41,.75,.69v-.87h1.88v6.13c0,.56-.11,1.08-.34,1.53-.22,.46-.56,.82-1.02,1.09-.46,.27-1.03,.41-1.71,.41-.91,0-1.65-.21-2.21-.64-.56-.43-.89-1.01-.97-1.74h1.86c.06,.23,.2,.42,.42,.55,.22,.14,.49,.2,.81,.2,.39,0,.7-.11,.93-.34s.35-.58,.35-1.07v-.87c-.18,.29-.44,.52-.76,.7s-.7,.27-1.13,.27c-.51,0-.96-.13-1.38-.39-.41-.26-.74-.63-.97-1.11s-.36-1.04-.36-1.67,.12-1.18,.36-1.66c.24-.48,.56-.84,.97-1.1,.41-.26,.87-.38,1.38-.38,.43,0,.81,.09,1.14,.26Zm.36,1.78c-.26-.27-.58-.41-.95-.41s-.69,.13-.95,.4c-.26,.27-.39,.64-.39,1.11s.13,.84,.39,1.12c.26,.27,.58,.41,.95,.41s.69-.14,.95-.41c.26-.27,.39-.64,.39-1.11s-.13-.84-.39-1.11Z"/><path class="g" d="M235.28,237.7h-4.26c.03,.38,.15,.67,.37,.88s.48,.3,.8,.3c.47,0,.8-.2,.98-.59h2c-.1,.4-.29,.77-.56,1.09-.27,.32-.6,.58-1.01,.76-.4,.18-.85,.27-1.35,.27-.6,0-1.14-.13-1.61-.38-.47-.26-.84-.62-1.1-1.1-.26-.48-.4-1.03-.4-1.67s.13-1.2,.39-1.67c.26-.48,.62-.84,1.09-1.1s1.01-.38,1.62-.38,1.12,.12,1.58,.37,.82,.6,1.08,1.07c.26,.46,.39,1,.39,1.62,0,.18-.01,.36-.03,.55Zm-1.89-1.04c0-.32-.11-.58-.33-.77-.22-.19-.5-.29-.82-.29s-.58,.09-.8,.28c-.22,.18-.35,.44-.4,.78h2.35Z"/><path class="g" d="M239.01,234.4c.33-.19,.7-.29,1.1-.29v1.99h-.52c-.47,0-.82,.1-1.06,.3-.23,.2-.35,.56-.35,1.06v2.85h-1.88v-6.14h1.88v1.02c.22-.34,.5-.6,.83-.8Z"/><path class="g" d="M246.47,234.81c.43,.47,.64,1.11,.64,1.92v3.59h-1.87v-3.33c0-.41-.11-.73-.32-.96-.21-.23-.5-.34-.86-.34s-.65,.11-.86,.34c-.21,.23-.32,.55-.32,.96v3.33h-1.88v-6.14h1.88v.81c.19-.27,.45-.49,.77-.64,.32-.16,.69-.24,1.09-.24,.72,0,1.29,.23,1.72,.7Z"/><path class="g" d="M254.18,237.7h-4.26c.03,.38,.15,.67,.37,.88s.48,.3,.8,.3c.47,0,.8-.2,.98-.59h2c-.1,.4-.29,.77-.56,1.09-.27,.32-.6,.58-1.01,.76-.4,.18-.85,.27-1.35,.27-.6,0-1.14-.13-1.61-.38-.47-.26-.84-.62-1.1-1.1-.26-.48-.4-1.03-.4-1.67s.13-1.2,.39-1.67c.26-.48,.62-.84,1.09-1.1s1.01-.38,1.62-.38,1.12,.12,1.58,.37,.82,.6,1.08,1.07c.26,.46,.39,1,.39,1.62,0,.18-.01,.36-.03,.55Zm-1.89-1.04c0-.32-.11-.58-.33-.77-.22-.19-.5-.29-.82-.29s-.58,.09-.8,.28c-.22,.18-.35,.44-.4,.78h2.35Z"/><path class="g" d="M180.67,245.85v.81h-2.09v6.85h-1v-6.85h-2.1v-.81h5.19Z"/><path class="g" d="M187.37,250.88h-4.82c.04,.59,.24,1.06,.61,1.39s.82,.5,1.35,.5c.43,0,.79-.1,1.08-.3,.29-.2,.49-.47,.61-.81h1.08c-.16,.58-.48,1.05-.97,1.41-.48,.36-1.08,.54-1.8,.54-.57,0-1.08-.13-1.53-.39-.45-.26-.8-.62-1.06-1.09-.26-.47-.38-1.02-.38-1.64s.12-1.17,.37-1.64c.25-.47,.6-.83,1.05-1.08s.97-.38,1.56-.38,1.08,.12,1.52,.37c.44,.25,.78,.59,1.02,1.03,.24,.44,.36,.93,.36,1.48,0,.19-.01,.39-.03,.61Zm-1.25-1.8c-.17-.27-.4-.48-.69-.63-.29-.14-.61-.21-.96-.21-.51,0-.94,.16-1.29,.48-.36,.32-.56,.77-.61,1.34h3.81c0-.38-.08-.71-.25-.98Z"/><path class="g" d="M189.61,253.38c-.37-.16-.66-.38-.87-.66-.21-.28-.33-.61-.35-.97h1.03c.03,.3,.17,.55,.42,.74,.25,.19,.58,.29,1,.29,.38,0,.68-.08,.9-.25,.22-.17,.33-.38,.33-.64s-.12-.46-.35-.59c-.23-.13-.6-.25-1.09-.38-.45-.12-.81-.24-1.09-.36s-.52-.3-.73-.54-.3-.55-.3-.94c0-.31,.09-.59,.27-.85,.18-.26,.44-.46,.78-.61s.72-.23,1.16-.23c.67,0,1.21,.17,1.62,.51,.41,.34,.63,.8,.66,1.39h-1c-.02-.32-.15-.57-.38-.76-.23-.19-.54-.29-.93-.29-.36,0-.65,.08-.86,.23-.21,.15-.32,.36-.32,.61,0,.2,.06,.36,.19,.49s.29,.23,.48,.31,.46,.16,.81,.26c.43,.12,.78,.23,1.06,.35,.27,.11,.5,.28,.7,.51,.19,.23,.3,.52,.3,.89,0,.33-.09,.63-.28,.89-.18,.26-.44,.47-.78,.62s-.72,.23-1.15,.23c-.46,0-.88-.08-1.24-.24Z"/><path class="g" d="M195.69,248.31v3.55c0,.29,.06,.5,.19,.62s.34,.18,.65,.18h.74v.85h-.9c-.56,0-.98-.13-1.25-.38s-.42-.68-.42-1.26v-3.55h-.78v-.82h.78v-1.52h1v1.52h1.57v.82h-1.57Z"/><path class="g" d="M200.35,247.73c.39-.23,.85-.35,1.37-.35s1.02,.13,1.46,.38c.44,.26,.78,.62,1.03,1.08,.25,.47,.37,1.01,.37,1.62s-.12,1.15-.37,1.63c-.25,.48-.59,.85-1.03,1.11-.44,.26-.92,.4-1.46,.4s-.97-.12-1.36-.35c-.39-.23-.69-.52-.9-.86v3.97h-1v-8.89h1v1.11c.2-.34,.49-.63,.89-.86Zm2.93,1.56c-.18-.34-.43-.59-.74-.77-.31-.18-.65-.26-1.03-.26s-.71,.09-1.02,.27-.56,.44-.75,.78-.28,.74-.28,1.18,.09,.85,.28,1.19,.44,.6,.75,.78,.65,.27,1.02,.27,.72-.09,1.03-.27,.56-.44,.74-.78c.18-.34,.27-.74,.27-1.21s-.09-.85-.27-1.19Z"/><path class="g" d="M211.37,250.88h-4.82c.04,.59,.24,1.06,.61,1.39s.82,.5,1.35,.5c.43,0,.79-.1,1.08-.3,.29-.2,.49-.47,.61-.81h1.08c-.16,.58-.48,1.05-.97,1.41-.48,.36-1.08,.54-1.8,.54-.57,0-1.08-.13-1.53-.39-.45-.26-.8-.62-1.06-1.09-.26-.47-.38-1.02-.38-1.64s.12-1.17,.37-1.64c.25-.47,.6-.83,1.05-1.08s.97-.38,1.56-.38,1.08,.12,1.52,.37c.44,.25,.78,.59,1.02,1.03,.24,.44,.36,.93,.36,1.48,0,.19-.01,.39-.03,.61Zm-1.25-1.8c-.17-.27-.4-.48-.69-.63-.29-.14-.61-.21-.96-.21-.51,0-.94,.16-1.29,.48-.36,.32-.56,.77-.61,1.34h3.81c0-.38-.08-.71-.25-.98Z"/><path class="g" d="M214.48,247.66c.33-.19,.72-.29,1.19-.29v1.03h-.26c-1.12,0-1.68,.61-1.68,1.83v3.28h-1v-6.03h1v.98c.18-.34,.43-.61,.75-.8Z"/><path class="g" d="M217.72,253.38c-.37-.16-.66-.38-.87-.66-.21-.28-.33-.61-.35-.97h1.03c.03,.3,.17,.55,.42,.74,.25,.19,.58,.29,1,.29,.38,0,.68-.08,.9-.25,.22-.17,.33-.38,.33-.64s-.12-.46-.35-.59c-.23-.13-.6-.25-1.09-.38-.45-.12-.81-.24-1.09-.36s-.52-.3-.73-.54-.3-.55-.3-.94c0-.31,.09-.59,.27-.85,.18-.26,.44-.46,.78-.61s.72-.23,1.16-.23c.67,0,1.21,.17,1.62,.51,.41,.34,.63,.8,.66,1.39h-1c-.02-.32-.15-.57-.38-.76-.23-.19-.54-.29-.93-.29-.36,0-.65,.08-.86,.23-.21,.15-.32,.36-.32,.61,0,.2,.06,.36,.19,.49s.29,.23,.48,.31,.46,.16,.81,.26c.43,.12,.78,.23,1.06,.35,.27,.11,.5,.28,.7,.51,.19,.23,.3,.52,.3,.89,0,.33-.09,.63-.28,.89-.18,.26-.44,.47-.78,.62s-.72,.23-1.15,.23c-.46,0-.88-.08-1.24-.24Z"/><path class="g" d="M223.66,253.23c-.46-.26-.82-.62-1.08-1.09-.26-.47-.39-1.02-.39-1.64s.13-1.16,.4-1.63,.63-.84,1.09-1.09c.46-.25,.98-.38,1.55-.38s1.09,.13,1.55,.38c.46,.25,.83,.61,1.09,1.08,.27,.47,.4,1.02,.4,1.64s-.14,1.17-.41,1.64c-.27,.47-.65,.84-1.12,1.09-.47,.26-.99,.39-1.56,.39s-1.08-.13-1.53-.39Zm2.55-.75c.32-.17,.57-.42,.76-.76,.19-.34,.29-.75,.29-1.23s-.1-.89-.29-1.23c-.19-.34-.44-.59-.75-.75-.31-.16-.64-.25-1-.25s-.7,.08-1.01,.25c-.3,.17-.55,.42-.73,.75-.18,.34-.27,.75-.27,1.23s.09,.91,.27,1.24c.18,.34,.42,.59,.72,.75s.63,.25,.99,.25,.7-.08,1.01-.25Z"/><path class="g" d="M234.33,248.04c.45,.44,.68,1.08,.68,1.92v3.55h-.99v-3.41c0-.6-.15-1.06-.45-1.38-.3-.32-.71-.48-1.23-.48s-.95,.17-1.26,.5-.47,.81-.47,1.44v3.33h-1v-6.03h1v.86c.2-.31,.47-.55,.81-.71,.34-.17,.72-.25,1.13-.25,.73,0,1.33,.22,1.78,.67Z"/><path class="g" d="M242.12,250.88h-4.82c.04,.59,.24,1.06,.61,1.39s.82,.5,1.35,.5c.43,0,.79-.1,1.08-.3,.29-.2,.49-.47,.61-.81h1.08c-.16,.58-.48,1.05-.97,1.41-.48,.36-1.08,.54-1.8,.54-.57,0-1.08-.13-1.53-.39-.45-.26-.8-.62-1.06-1.09-.26-.47-.38-1.02-.38-1.64s.12-1.17,.37-1.64c.25-.47,.6-.83,1.05-1.08s.97-.38,1.56-.38,1.08,.12,1.52,.37c.44,.25,.78,.59,1.02,1.03,.24,.44,.36,.93,.36,1.48,0,.19-.01,.39-.03,.61Zm-1.25-1.8c-.17-.27-.4-.48-.69-.63-.29-.14-.61-.21-.96-.21-.51,0-.94,.16-1.29,.48-.36,.32-.56,.77-.61,1.34h3.81c0-.38-.08-.71-.25-.98Z"/><path class="g" d="M245.22,247.66c.33-.19,.72-.29,1.19-.29v1.03h-.26c-1.12,0-1.68,.61-1.68,1.83v3.28h-1v-6.03h1v.98c.18-.34,.43-.61,.75-.8Z"/></g><g><path class="f" d="M196.01,139.2c.48-.42,1.14-.64,1.97-.64,.55,0,1.02,.1,1.41,.29,.39,.19,.69,.45,.89,.78s.3,.7,.3,1.11c0,.48-.12,.88-.36,1.18-.24,.3-.52,.51-.85,.62v.04c.42,.14,.75,.37,.99,.69,.24,.32,.36,.74,.36,1.24,0,.46-.1,.86-.31,1.21-.21,.35-.51,.62-.91,.82-.4,.2-.87,.3-1.42,.3-.88,0-1.58-.22-2.11-.65s-.8-1.08-.83-1.96h1.83c0,.32,.1,.58,.27,.76,.18,.19,.43,.28,.77,.28,.29,0,.51-.08,.67-.25s.24-.38,.24-.65c0-.35-.11-.61-.34-.76-.22-.16-.58-.24-1.07-.24h-.35v-1.53h.35c.37,0,.68-.06,.91-.19s.35-.36,.35-.69c0-.26-.07-.47-.22-.62-.15-.15-.35-.22-.6-.22-.28,0-.49,.08-.62,.25s-.21,.38-.24,.63h-1.84c.03-.79,.29-1.39,.77-1.82Z"/><path class="f" d="M202.09,146.58c-.21-.19-.31-.43-.31-.72s.1-.54,.31-.74c.21-.2,.48-.3,.81-.3s.59,.1,.8,.3c.21,.2,.31,.44,.31,.74s-.1,.53-.31,.72-.47,.29-.8,.29-.6-.1-.81-.29Z"/><path class="f" d="M192.68,151.26l-2.24,6.32h-1.93l-2.24-6.32h1.64l1.57,4.77,1.57-4.77h1.63Z"/><path class="f" d="M194.28,157.34c-.39-.21-.7-.51-.93-.9-.23-.39-.34-.85-.34-1.37s.11-.97,.34-1.36c.23-.39,.54-.69,.94-.9s.84-.32,1.33-.32,.94,.11,1.33,.32,.71,.51,.94,.9c.23,.39,.34,.85,.34,1.36s-.12,.97-.35,1.36c-.23,.39-.55,.69-.94,.9-.4,.21-.84,.31-1.34,.31s-.94-.1-1.33-.31Zm2.08-1.34c.21-.22,.31-.53,.31-.93s-.1-.71-.3-.93-.45-.32-.74-.32-.55,.11-.75,.32c-.2,.21-.3,.52-.3,.93s.1,.71,.29,.93,.44,.32,.73,.32,.54-.11,.75-.32Z"/><path class="f" d="M201.27,152.74c.27-.16,.57-.24,.9-.24v1.63h-.42c-.38,0-.67,.08-.86,.25-.19,.17-.29,.46-.29,.87v2.33h-1.54v-5.02h1.54v.84c.18-.28,.4-.49,.67-.65Z"/><path class="f" d="M207.62,155.44h-3.48c.02,.31,.12,.55,.3,.72,.18,.17,.39,.25,.65,.25,.38,0,.65-.16,.8-.49h1.64c-.08,.33-.24,.63-.45,.89-.22,.26-.49,.47-.82,.62-.33,.15-.7,.22-1.11,.22-.49,0-.93-.1-1.31-.31-.38-.21-.68-.51-.9-.9-.22-.39-.32-.85-.32-1.37s.11-.98,.32-1.37c.21-.39,.51-.69,.9-.9,.38-.21,.83-.32,1.32-.32s.92,.1,1.3,.31,.67,.5,.89,.87c.21,.38,.32,.82,.32,1.32,0,.14,0,.29-.03,.45Zm-1.55-.85c0-.26-.09-.47-.27-.63-.18-.16-.4-.23-.67-.23s-.48,.08-.65,.22c-.18,.15-.29,.36-.33,.64h1.93Z"/><path class="f" d="M209.33,157.43c-.34-.15-.61-.36-.81-.62-.2-.26-.31-.55-.33-.88h1.52c.02,.17,.1,.32,.24,.42,.14,.11,.32,.16,.53,.16,.19,0,.34-.04,.45-.11s.16-.17,.16-.29c0-.14-.08-.25-.23-.32-.15-.07-.39-.15-.73-.23-.36-.08-.66-.17-.9-.27-.24-.09-.45-.24-.62-.44s-.26-.47-.26-.81c0-.29,.08-.55,.24-.79,.16-.24,.39-.42,.7-.56,.31-.14,.68-.21,1.1-.21,.63,0,1.13,.16,1.49,.47,.36,.31,.57,.73,.63,1.24h-1.42c-.02-.17-.1-.31-.23-.41-.13-.1-.3-.15-.51-.15-.18,0-.32,.03-.41,.1-.1,.07-.14,.16-.14,.28,0,.14,.08,.25,.23,.32,.15,.07,.39,.14,.72,.22,.37,.1,.67,.19,.91,.28,.23,.09,.44,.24,.62,.45,.18,.21,.27,.49,.27,.83,0,.29-.08,.56-.25,.79-.17,.23-.4,.41-.71,.54s-.67,.2-1.08,.2c-.44,0-.83-.07-1.17-.22Z"/><path class="f" d="M174.52,166.94l1.09-3.58h1.64l-1.78,5.02h-1.9l-1.78-5.02h1.65l1.09,3.58Z"/><path class="f" d="M178.01,162.6c-.17-.16-.26-.36-.26-.59s.09-.44,.26-.6,.39-.24,.66-.24,.48,.08,.65,.24,.26,.36,.26,.6-.09,.43-.26,.59c-.17,.16-.39,.24-.65,.24s-.49-.08-.66-.24Zm1.43,.76v5.02h-1.54v-5.02h1.54Z"/><path class="f" d="M182.76,163.54c.27-.16,.57-.24,.9-.24v1.63h-.42c-.38,0-.67,.08-.86,.25-.19,.17-.29,.46-.29,.87v2.33h-1.54v-5.02h1.54v.84c.18-.28,.4-.49,.67-.65Z"/><path class="f" d="M187.47,168.38l-1.53-2.11v2.11h-1.54v-6.66h1.54v3.68l1.52-2.04h1.9l-2.09,2.52,2.11,2.5h-1.91Z"/><path class="f" d="M190.84,168.23c-.34-.15-.61-.36-.81-.62-.2-.26-.31-.55-.33-.88h1.52c.02,.17,.1,.32,.24,.42,.14,.11,.32,.16,.53,.16,.19,0,.34-.04,.45-.11s.16-.17,.16-.29c0-.14-.08-.25-.23-.32-.15-.07-.39-.15-.73-.23-.36-.08-.66-.17-.9-.27-.24-.09-.45-.24-.62-.44s-.26-.47-.26-.81c0-.29,.08-.55,.24-.79,.16-.24,.39-.42,.7-.56,.31-.14,.68-.21,1.1-.21,.63,0,1.13,.16,1.49,.47,.36,.31,.57,.73,.63,1.24h-1.42c-.02-.17-.1-.31-.23-.41-.13-.1-.3-.15-.51-.15-.18,0-.32,.03-.41,.1-.1,.07-.14,.16-.14,.28,0,.14,.08,.25,.23,.32,.15,.07,.39,.14,.72,.22,.37,.1,.67,.19,.91,.28,.23,.09,.44,.24,.62,.45,.18,.21,.27,.49,.27,.83,0,.29-.08,.56-.25,.79-.17,.23-.4,.41-.71,.54s-.67,.2-1.08,.2c-.44,0-.83-.07-1.17-.22Z"/><path class="f" d="M195.94,168.14c-.39-.21-.7-.51-.93-.9-.23-.39-.34-.85-.34-1.37s.11-.97,.34-1.36c.23-.39,.54-.69,.94-.9s.84-.32,1.33-.32,.94,.11,1.33,.32,.71,.51,.94,.9c.23,.39,.34,.85,.34,1.36s-.12,.97-.35,1.36c-.23,.39-.55,.69-.94,.9-.4,.21-.84,.31-1.34,.31s-.94-.1-1.33-.31Zm2.08-1.34c.21-.22,.31-.53,.31-.93s-.1-.71-.3-.93-.45-.32-.74-.32-.55,.11-.75,.32c-.2,.21-.3,.52-.3,.93s.1,.71,.29,.93,.44,.32,.73,.32,.54-.11,.75-.32Z"/><path class="f" d="M208.61,163.87c.37,.38,.55,.9,.55,1.57v2.93h-1.53v-2.73c0-.32-.09-.57-.26-.75-.17-.18-.41-.27-.71-.27s-.54,.09-.71,.27-.26,.43-.26,.75v2.73h-1.53v-2.73c0-.32-.09-.57-.26-.75s-.41-.27-.71-.27-.54,.09-.71,.27-.26,.43-.26,.75v2.73h-1.54v-5.02h1.54v.63c.16-.21,.36-.38,.61-.5s.54-.18,.85-.18c.38,0,.72,.08,1.01,.24,.3,.16,.53,.39,.7,.69,.17-.28,.41-.5,.71-.67,.3-.17,.63-.26,.98-.26,.62,0,1.12,.19,1.49,.57Z"/><path class="f" d="M214.72,163.87c.35,.38,.52,.9,.52,1.57v2.93h-1.53v-2.73c0-.34-.09-.6-.26-.78-.17-.19-.41-.28-.7-.28s-.53,.09-.7,.28c-.17,.19-.26,.45-.26,.78v2.73h-1.54v-6.66h1.54v2.31c.16-.22,.37-.4,.64-.53s.57-.2,.91-.2c.58,0,1.04,.19,1.39,.57Z"/><path class="f" d="M221.02,166.24h-3.48c.02,.31,.12,.55,.3,.72,.18,.17,.39,.25,.65,.25,.38,0,.65-.16,.8-.49h1.64c-.08,.33-.24,.63-.45,.89-.22,.26-.49,.47-.82,.62-.33,.15-.7,.22-1.11,.22-.49,0-.93-.1-1.31-.31-.38-.21-.68-.51-.9-.9-.22-.39-.32-.85-.32-1.37s.11-.98,.32-1.37c.21-.39,.51-.69,.9-.9,.38-.21,.83-.32,1.32-.32s.92,.1,1.3,.31,.67,.5,.89,.87c.21,.38,.32,.82,.32,1.32,0,.14,0,.29-.03,.45Zm-1.55-.85c0-.26-.09-.47-.27-.63-.18-.16-.4-.23-.67-.23s-.48,.08-.65,.22c-.18,.15-.29,.36-.33,.64h1.93Z"/><path class="f" d="M221.84,164.5c.19-.39,.46-.69,.8-.9s.71-.32,1.12-.32c.33,0,.63,.07,.9,.21,.27,.14,.49,.32,.64,.56v-2.33h1.54v6.66h-1.54v-.72c-.14,.24-.35,.43-.62,.58-.27,.14-.58,.22-.93,.22-.41,0-.79-.11-1.12-.32s-.6-.52-.8-.91c-.19-.39-.29-.85-.29-1.36s.1-.97,.29-1.36Zm3.15,.46c-.21-.22-.47-.33-.78-.33s-.57,.11-.78,.33c-.21,.22-.32,.52-.32,.9s.11,.69,.32,.91c.21,.22,.47,.34,.78,.34s.57-.11,.78-.33c.21-.22,.32-.52,.32-.91s-.11-.69-.32-.91Z"/></g><g><path class="f" d="M70.68,80.8h-1.82l-.34,.93h-.58l1.51-4.16h.63l1.51,4.16h-.58l-.34-.93Zm-.16-.44l-.76-2.11-.76,2.11h1.51Z"/><path class="f" d="M74.83,78.75c.25,.24,.37,.59,.37,1.05v1.94h-.54v-1.86c0-.33-.08-.58-.25-.75-.16-.17-.39-.26-.67-.26s-.52,.09-.69,.27c-.17,.18-.26,.44-.26,.79v1.82h-.55v-3.29h.55v.47c.11-.17,.26-.3,.44-.39,.19-.09,.39-.14,.61-.14,.4,0,.72,.12,.97,.36Z"/><path class="f" d="M76.09,79.19c.14-.25,.32-.45,.56-.59s.5-.21,.8-.21c.26,0,.49,.06,.71,.18,.22,.12,.39,.27,.5,.46v-1.74h.55v4.44h-.55v-.62c-.11,.2-.27,.36-.48,.48-.21,.13-.46,.19-.74,.19s-.56-.07-.79-.22-.42-.35-.56-.61c-.14-.26-.2-.56-.2-.89s.07-.63,.2-.89Zm2.43,.24c-.1-.18-.24-.33-.41-.42-.17-.1-.36-.15-.56-.15s-.39,.05-.56,.14c-.17,.1-.3,.24-.4,.42-.1,.18-.15,.4-.15,.65s.05,.47,.15,.66c.1,.19,.23,.33,.4,.43,.17,.1,.35,.15,.56,.15s.39-.05,.56-.15c.17-.1,.31-.24,.41-.43,.1-.19,.15-.4,.15-.65s-.05-.46-.15-.65Z"/><path class="f" d="M81.1,78.54c.18-.1,.4-.16,.65-.16v.56h-.14c-.61,0-.92,.33-.92,1v1.79h-.55v-3.29h.55v.53c.1-.19,.23-.33,.41-.44Z"/><path class="f" d="M85.37,80.29h-2.63c.02,.32,.13,.58,.33,.76,.2,.18,.45,.27,.73,.27,.24,0,.43-.05,.59-.17,.16-.11,.27-.26,.33-.44h.59c-.09,.32-.26,.57-.53,.77-.26,.2-.59,.3-.98,.3-.31,0-.59-.07-.84-.21-.25-.14-.44-.34-.58-.6-.14-.26-.21-.56-.21-.9s.07-.64,.2-.89c.14-.26,.33-.45,.57-.59,.25-.14,.53-.21,.85-.21s.59,.07,.83,.2c.24,.14,.43,.32,.56,.56,.13,.24,.19,.51,.19,.81,0,.1,0,.21-.02,.33Zm-.68-.98c-.09-.15-.22-.26-.38-.34-.16-.08-.33-.12-.52-.12-.28,0-.51,.09-.71,.26-.19,.18-.3,.42-.33,.73h2.08c0-.21-.05-.39-.14-.54Z"/><path class="f" d="M87.71,79.19c.14-.25,.32-.45,.56-.59s.5-.21,.8-.21c.26,0,.49,.06,.71,.18,.22,.12,.39,.27,.5,.46v-1.74h.55v4.44h-.55v-.62c-.11,.2-.27,.36-.48,.48-.21,.13-.46,.19-.74,.19s-.56-.07-.79-.22-.42-.35-.56-.61c-.14-.26-.2-.56-.2-.89s.07-.63,.2-.89Zm2.43,.24c-.1-.18-.24-.33-.41-.42-.17-.1-.36-.15-.56-.15s-.39,.05-.56,.14c-.17,.1-.3,.24-.4,.42-.1,.18-.15,.4-.15,.65s.05,.47,.15,.66c.1,.19,.23,.33,.4,.43,.17,.1,.35,.15,.56,.15s.39-.05,.56-.15c.17-.1,.31-.24,.41-.43,.1-.19,.15-.4,.15-.65s-.05-.46-.15-.65Z"/><path class="f" d="M91.76,79.19c.14-.25,.32-.45,.56-.59s.5-.21,.79-.21,.54,.06,.75,.19,.37,.28,.47,.47v-.6h.55v3.29h-.55v-.61c-.11,.19-.27,.35-.48,.48-.21,.13-.46,.19-.75,.19s-.56-.07-.79-.22-.42-.35-.56-.61c-.14-.26-.2-.56-.2-.89s.07-.63,.2-.89Zm2.43,.24c-.1-.18-.24-.33-.41-.42-.17-.1-.36-.15-.56-.15s-.39,.05-.56,.14c-.17,.1-.3,.24-.4,.42-.1,.18-.15,.4-.15,.65s.05,.47,.15,.66c.1,.19,.23,.33,.4,.43,.17,.1,.35,.15,.56,.15s.39-.05,.56-.15c.17-.1,.31-.24,.41-.43,.1-.19,.15-.4,.15-.65s-.05-.46-.15-.65Z"/><path class="f" d="M96.48,78.9v1.94c0,.16,.03,.27,.1,.34s.19,.1,.35,.1h.4v.46h-.49c-.3,0-.53-.07-.68-.21-.15-.14-.23-.37-.23-.69v-1.94h-.43v-.45h.43v-.83h.55v.83h.86v.45h-.86Z"/><path class="f" d="M98,79.19c.14-.25,.32-.45,.56-.59s.5-.21,.79-.21,.54,.06,.75,.19,.37,.28,.47,.47v-.6h.55v3.29h-.55v-.61c-.11,.19-.27,.35-.48,.48-.21,.13-.46,.19-.75,.19s-.56-.07-.79-.22-.42-.35-.56-.61c-.14-.26-.2-.56-.2-.89s.07-.63,.2-.89Zm2.43,.24c-.1-.18-.24-.33-.41-.42-.17-.1-.36-.15-.56-.15s-.39,.05-.56,.14c-.17,.1-.3,.24-.4,.42-.1,.18-.15,.4-.15,.65s.05,.47,.15,.66c.1,.19,.23,.33,.4,.43,.17,.1,.35,.15,.56,.15s.39-.05,.56-.15c.17-.1,.31-.24,.41-.43,.1-.19,.15-.4,.15-.65s-.05-.46-.15-.65Z"/><path class="f" d="M104.34,79.3v.46h-2.39v-.46h2.39Z"/><path class="f" d="M67.71,85.78c.22-.12,.46-.19,.74-.19,.3,0,.56,.07,.8,.21,.24,.14,.42,.34,.56,.59,.14,.25,.2,.55,.2,.89s-.07,.63-.2,.89c-.14,.26-.32,.46-.56,.61-.24,.14-.5,.22-.8,.22s-.53-.06-.75-.19c-.21-.12-.38-.28-.48-.47v.61h-.55v-4.44h.55v1.76c.11-.2,.28-.36,.49-.48Zm1.59,.85c-.1-.18-.23-.32-.4-.42-.17-.1-.36-.14-.56-.14s-.39,.05-.56,.15c-.17,.1-.31,.24-.41,.43s-.15,.4-.15,.65,.05,.46,.15,.65,.24,.33,.41,.43c.17,.1,.35,.15,.56,.15s.39-.05,.56-.15c.17-.1,.3-.24,.4-.43s.15-.4,.15-.66-.05-.46-.15-.65Z"/><path class="f" d="M73.71,87.49h-2.63c.02,.32,.13,.58,.33,.76,.2,.18,.45,.27,.73,.27,.24,0,.43-.05,.59-.17,.16-.11,.27-.26,.33-.44h.59c-.09,.32-.26,.57-.53,.77-.26,.2-.59,.3-.98,.3-.31,0-.59-.07-.84-.21-.25-.14-.44-.34-.58-.6-.14-.26-.21-.56-.21-.9s.07-.64,.2-.89c.14-.26,.33-.45,.57-.59,.25-.14,.53-.21,.85-.21s.59,.07,.83,.2c.24,.14,.43,.32,.56,.56,.13,.24,.19,.51,.19,.81,0,.1,0,.21-.02,.33Zm-.68-.98c-.09-.15-.22-.26-.38-.34-.16-.08-.33-.12-.52-.12-.28,0-.51,.09-.71,.26-.19,.18-.3,.42-.33,.73h2.08c0-.21-.05-.39-.14-.54Z"/><path class="f" d="M74.93,88.86c-.2-.09-.36-.21-.47-.36-.12-.15-.18-.33-.19-.53h.56c.02,.16,.09,.3,.23,.4,.14,.1,.32,.16,.54,.16,.21,0,.37-.05,.49-.14,.12-.09,.18-.21,.18-.35s-.06-.25-.19-.32c-.13-.07-.33-.14-.59-.21-.24-.06-.44-.13-.6-.2-.15-.07-.29-.16-.4-.29-.11-.13-.17-.3-.17-.51,0-.17,.05-.32,.15-.46,.1-.14,.24-.25,.43-.33,.18-.08,.39-.12,.63-.12,.36,0,.66,.09,.88,.28s.34,.44,.36,.76h-.55c-.01-.17-.08-.31-.21-.41s-.29-.16-.51-.16c-.2,0-.35,.04-.47,.13-.12,.08-.17,.19-.17,.33,0,.11,.04,.2,.1,.27,.07,.07,.16,.13,.26,.17,.11,.04,.25,.09,.44,.14,.24,.06,.43,.13,.58,.19s.28,.16,.38,.28,.16,.29,.17,.49c0,.18-.05,.34-.15,.49-.1,.14-.24,.26-.42,.34-.18,.08-.39,.12-.63,.12-.25,0-.48-.04-.68-.13Z"/><path class="f" d="M79.42,88.93l-1.29-1.45v1.45h-.55v-4.44h.55v2.61l1.27-1.46h.76l-1.55,1.64,1.55,1.65h-.74Z"/><path class="f" d="M83.5,85.65l-1.98,4.84h-.56l.65-1.58-1.33-3.25h.61l1.03,2.66,1.02-2.66h.56Z"/><path class="f" d="M84.71,86.1v1.94c0,.16,.03,.27,.1,.34s.19,.1,.35,.1h.4v.46h-.49c-.3,0-.53-.07-.68-.21-.15-.14-.23-.37-.23-.69v-1.94h-.43v-.45h.43v-.83h.55v.83h.86v.45h-.86Z"/><path class="f" d="M86.9,86.1v1.94c0,.16,.03,.27,.1,.34s.19,.1,.35,.1h.4v.46h-.49c-.3,0-.53-.07-.68-.21-.15-.14-.23-.37-.23-.69v-1.94h-.43v-.45h.43v-.83h.55v.83h.86v.45h-.86Z"/><path class="f" d="M91.4,87.49h-2.63c.02,.32,.13,.58,.33,.76,.2,.18,.45,.27,.73,.27,.24,0,.43-.05,.59-.17,.16-.11,.27-.26,.33-.44h.59c-.09,.32-.26,.57-.53,.77-.26,.2-.59,.3-.98,.3-.31,0-.59-.07-.84-.21-.25-.14-.44-.34-.58-.6-.14-.26-.21-.56-.21-.9s.07-.64,.2-.89c.14-.26,.33-.45,.57-.59,.25-.14,.53-.21,.85-.21s.59,.07,.83,.2c.24,.14,.43,.32,.56,.56,.13,.24,.19,.51,.19,.81,0,.1,0,.21-.02,.33Zm-.68-.98c-.09-.15-.22-.26-.38-.34-.16-.08-.33-.12-.52-.12-.28,0-.51,.09-.71,.26-.19,.18-.3,.42-.33,.73h2.08c0-.21-.05-.39-.14-.54Z"/><path class="f" d="M92.68,84.49v4.44h-.55v-4.44h.55Z"/><path class="f" d="M94.1,88.86c-.2-.09-.36-.21-.47-.36-.12-.15-.18-.33-.19-.53h.56c.02,.16,.09,.3,.23,.4,.14,.1,.32,.16,.54,.16,.21,0,.37-.05,.49-.14,.12-.09,.18-.21,.18-.35s-.06-.25-.19-.32c-.13-.07-.33-.14-.59-.21-.24-.06-.44-.13-.6-.2-.15-.07-.29-.16-.4-.29-.11-.13-.17-.3-.17-.51,0-.17,.05-.32,.15-.46,.1-.14,.24-.25,.43-.33,.18-.08,.39-.12,.63-.12,.36,0,.66,.09,.88,.28s.34,.44,.36,.76h-.55c-.01-.17-.08-.31-.21-.41s-.29-.16-.51-.16c-.2,0-.35,.04-.47,.13-.12,.08-.17,.19-.17,.33,0,.11,.04,.2,.1,.27,.07,.07,.16,.13,.26,.17,.11,.04,.25,.09,.44,.14,.24,.06,.43,.13,.58,.19s.28,.16,.38,.28,.16,.29,.17,.49c0,.18-.05,.34-.15,.49-.1,.14-.24,.26-.42,.34-.18,.08-.39,.12-.63,.12-.25,0-.48-.04-.68-.13Z"/><path class="f" d="M99.72,87.49h-2.63c.02,.32,.13,.58,.33,.76,.2,.18,.45,.27,.73,.27,.24,0,.43-.05,.59-.17,.16-.11,.27-.26,.33-.44h.59c-.09,.32-.26,.57-.53,.77-.26,.2-.59,.3-.98,.3-.31,0-.59-.07-.84-.21-.25-.14-.44-.34-.58-.6-.14-.26-.21-.56-.21-.9s.07-.64,.2-.89c.14-.26,.33-.45,.57-.59,.25-.14,.53-.21,.85-.21s.59,.07,.83,.2c.24,.14,.43,.32,.56,.56,.13,.24,.19,.51,.19,.81,0,.1,0,.21-.02,.33Zm-.68-.98c-.09-.15-.22-.26-.38-.34-.16-.08-.33-.12-.52-.12-.28,0-.51,.09-.71,.26-.19,.18-.3,.42-.33,.73h2.08c0-.21-.05-.39-.14-.54Z"/><path class="f" d="M100.95,88.86c-.2-.09-.36-.21-.47-.36-.12-.15-.18-.33-.19-.53h.56c.02,.16,.09,.3,.23,.4,.14,.1,.32,.16,.54,.16,.21,0,.37-.05,.49-.14,.12-.09,.18-.21,.18-.35s-.06-.25-.19-.32c-.13-.07-.33-.14-.59-.21-.24-.06-.44-.13-.6-.2-.15-.07-.29-.16-.4-.29-.11-.13-.17-.3-.17-.51,0-.17,.05-.32,.15-.46,.1-.14,.24-.25,.43-.33,.18-.08,.39-.12,.63-.12,.36,0,.66,.09,.88,.28s.34,.44,.36,.76h-.55c-.01-.17-.08-.31-.21-.41s-.29-.16-.51-.16c-.2,0-.35,.04-.47,.13-.12,.08-.17,.19-.17,.33,0,.11,.04,.2,.1,.27,.07,.07,.16,.13,.26,.17,.11,.04,.25,.09,.44,.14,.24,.06,.43,.13,.58,.19s.28,.16,.38,.28,.16,.29,.17,.49c0,.18-.05,.34-.15,.49-.1,.14-.24,.26-.42,.34-.18,.08-.39,.12-.63,.12-.25,0-.48-.04-.68-.13Z"/><path class="f" d="M105.88,86.5v.46h-2.39v-.46h2.39Z"/><path class="f" d="M71.14,92.94c.2,.11,.36,.27,.47,.48,.12,.21,.17,.47,.17,.77v1.94h-.54v-1.86c0-.33-.08-.58-.24-.75-.16-.17-.38-.26-.66-.26s-.51,.09-.68,.27-.25,.45-.25,.79v1.81h-.54v-1.86c0-.33-.08-.58-.24-.75-.16-.17-.38-.26-.66-.26s-.51,.09-.68,.27c-.17,.18-.25,.45-.25,.79v1.81h-.55v-3.29h.55v.47c.11-.17,.25-.3,.44-.4s.38-.14,.6-.14c.28,0,.52,.06,.73,.19s.37,.31,.47,.55c.09-.23,.24-.41,.46-.54,.21-.13,.45-.19,.71-.19s.48,.05,.68,.16Z"/><path class="f" d="M75.52,92.85l-1.98,4.84h-.56l.65-1.58-1.33-3.25h.61l1.03,2.66,1.02-2.66h.56Z"/><path class="f" d="M78.64,93.15c.25,.24,.37,.59,.37,1.05v1.94h-.54v-1.86c0-.33-.08-.58-.25-.75-.16-.17-.39-.26-.67-.26s-.52,.09-.69,.27c-.17,.18-.26,.44-.26,.79v1.82h-.55v-3.29h.55v.47c.11-.17,.26-.3,.44-.39,.19-.09,.39-.14,.61-.14,.4,0,.72,.12,.97,.36Z"/><path class="f" d="M79.9,93.59c.14-.25,.32-.45,.56-.59s.5-.21,.8-.21c.26,0,.49,.06,.71,.18,.22,.12,.39,.27,.5,.46v-1.74h.55v4.44h-.55v-.62c-.11,.2-.27,.36-.48,.48-.21,.13-.46,.19-.74,.19s-.56-.07-.79-.22-.42-.35-.56-.61c-.14-.26-.2-.56-.2-.89s.07-.63,.2-.89Zm2.43,.24c-.1-.18-.24-.33-.41-.42-.17-.1-.36-.15-.56-.15s-.39,.05-.56,.14c-.17,.1-.3,.24-.4,.42-.1,.18-.15,.4-.15,.65s.05,.47,.15,.66c.1,.19,.23,.33,.4,.43,.17,.1,.35,.15,.56,.15s.39-.05,.56-.15c.17-.1,.31-.24,.41-.43,.1-.19,.15-.4,.15-.65s-.05-.46-.15-.65Z"/><path class="f" d="M83.98,92.2c-.07-.07-.11-.16-.11-.26s.04-.19,.11-.26,.16-.11,.26-.11,.19,.04,.25,.11,.1,.16,.1,.26-.04,.19-.1,.26c-.07,.07-.16,.11-.25,.11s-.19-.04-.26-.11Zm.53,.64v3.29h-.55v-3.29h.55Z"/><path class="f" d="M87.54,92.98c.21,.12,.37,.28,.48,.47v-.6h.55v3.36c0,.3-.06,.57-.19,.8s-.31,.42-.55,.55c-.24,.13-.52,.2-.83,.2-.43,0-.79-.1-1.08-.31s-.46-.48-.51-.83h.54c.06,.2,.18,.36,.37,.48,.19,.12,.41,.18,.68,.18,.3,0,.54-.09,.73-.28s.29-.45,.29-.79v-.69c-.11,.19-.27,.35-.48,.48-.21,.13-.46,.19-.74,.19s-.56-.07-.79-.22-.42-.35-.56-.61c-.14-.26-.2-.56-.2-.89s.07-.63,.2-.89c.14-.25,.32-.45,.56-.59s.5-.21,.79-.21,.53,.06,.75,.19Zm.33,.86c-.1-.18-.24-.33-.41-.42-.17-.1-.36-.15-.56-.15s-.39,.05-.56,.14c-.17,.1-.3,.24-.4,.42-.1,.18-.15,.4-.15,.65s.05,.47,.15,.66c.1,.19,.23,.33,.4,.43,.17,.1,.35,.15,.56,.15s.39-.05,.56-.15c.17-.1,.31-.24,.41-.43,.1-.19,.15-.4,.15-.65s-.05-.46-.15-.65Z"/><path class="f" d="M91.8,92.94c.2,.11,.36,.27,.47,.48,.11,.21,.17,.47,.17,.77v1.94h-.54v-1.86c0-.33-.08-.58-.25-.75-.16-.17-.39-.26-.67-.26s-.52,.09-.69,.27c-.17,.18-.26,.44-.26,.79v1.82h-.55v-4.44h.55v1.62c.11-.17,.26-.3,.45-.39s.4-.14,.64-.14,.47,.05,.67,.16Z"/><path class="f" d="M96.31,94.69h-2.63c.02,.32,.13,.58,.33,.76,.2,.18,.45,.27,.73,.27,.24,0,.43-.05,.59-.17,.16-.11,.27-.26,.33-.44h.59c-.09,.32-.26,.57-.53,.77-.26,.2-.59,.3-.98,.3-.31,0-.59-.07-.84-.21-.25-.14-.44-.34-.58-.6-.14-.26-.21-.56-.21-.9s.07-.64,.2-.89c.14-.26,.33-.45,.57-.59,.25-.14,.53-.21,.85-.21s.59,.07,.83,.2c.24,.14,.43,.32,.56,.56,.13,.24,.19,.51,.19,.81,0,.1,0,.21-.02,.33Zm-.68-.98c-.09-.15-.22-.26-.38-.34-.16-.08-.33-.12-.52-.12-.28,0-.51,.09-.71,.26-.19,.18-.3,.42-.33,.73h2.08c0-.21-.05-.39-.14-.54Z"/><path class="f" d="M97.05,93.59c.14-.25,.32-.45,.56-.59s.5-.21,.8-.21c.26,0,.49,.06,.71,.18,.22,.12,.39,.27,.5,.46v-1.74h.55v4.44h-.55v-.62c-.11,.2-.27,.36-.48,.48-.21,.13-.46,.19-.74,.19s-.56-.07-.79-.22-.42-.35-.56-.61c-.14-.26-.2-.56-.2-.89s.07-.63,.2-.89Zm2.43,.24c-.1-.18-.24-.33-.41-.42-.17-.1-.36-.15-.56-.15s-.39,.05-.56,.14c-.17,.1-.3,.24-.4,.42-.1,.18-.15,.4-.15,.65s.05,.47,.15,.66c.1,.19,.23,.33,.4,.43,.17,.1,.35,.15,.56,.15s.39-.05,.56-.15c.17-.1,.31-.24,.41-.43,.1-.19,.15-.4,.15-.65s-.05-.46-.15-.65Z"/><path class="f" d="M104.09,94.69h-2.63c.02,.32,.13,.58,.33,.76,.2,.18,.45,.27,.73,.27,.24,0,.43-.05,.59-.17,.16-.11,.27-.26,.33-.44h.59c-.09,.32-.26,.57-.53,.77-.26,.2-.59,.3-.98,.3-.31,0-.59-.07-.84-.21-.25-.14-.44-.34-.58-.6-.14-.26-.21-.56-.21-.9s.07-.64,.2-.89c.14-.26,.33-.45,.57-.59,.25-.14,.53-.21,.85-.21s.59,.07,.83,.2c.24,.14,.43,.32,.56,.56,.13,.24,.19,.51,.19,.81,0,.1,0,.21-.02,.33Zm-.68-.98c-.09-.15-.22-.26-.38-.34-.16-.08-.33-.12-.52-.12-.28,0-.51,.09-.71,.26-.19,.18-.3,.42-.33,.73h2.08c0-.21-.05-.39-.14-.54Z"/><path class="f" d="M105.79,92.94c.18-.1,.4-.16,.65-.16v.56h-.14c-.61,0-.92,.33-.92,1v1.79h-.55v-3.29h.55v.53c.1-.19,.23-.33,.41-.44Z"/><path class="f" d="M74.62,99.4c-.07-.07-.11-.16-.11-.26s.04-.19,.11-.26,.16-.11,.26-.11,.19,.04,.25,.11,.1,.16,.1,.26-.04,.19-.1,.26c-.07,.07-.16,.11-.25,.11s-.19-.04-.26-.11Zm.53,.64v3.29h-.55v-3.29h.55Z"/><path class="f" d="M78.22,99.6v1.4h1.52v.45h-1.52v1.44h1.7v.45h-2.25v-4.19h2.25v.45h-1.7Z"/><path class="f" d="M81.29,99.15v2.65c0,.37,.09,.65,.27,.83s.44,.27,.76,.27,.57-.09,.75-.27c.18-.18,.27-.46,.27-.83v-2.65h.55v2.64c0,.35-.07,.64-.21,.88-.14,.24-.33,.42-.57,.53-.24,.12-.51,.17-.8,.17s-.56-.06-.8-.17c-.24-.12-.43-.29-.56-.53-.14-.24-.21-.53-.21-.88v-2.64h.55Z"/><path class="f" d="M86.84,97.68l-1.64,6.67h-.54l1.64-6.67h.55Z"/><path class="f" d="M88.21,99.6v1.4h1.52v.45h-1.52v1.44h1.7v.45h-2.25v-4.19h2.25v.45h-1.7Z"/><path class="f" d="M94.2,99.78c.17,.19,.3,.41,.4,.66,.09,.25,.14,.52,.14,.81,0,.41-.09,.78-.28,1.1-.18,.32-.44,.58-.76,.76-.32,.18-.68,.27-1.07,.27-.25,0-.49-.04-.72-.12-.23-.08-.43-.19-.61-.33l-.38,.41h-.44l.58-.64c-.17-.19-.3-.41-.39-.66-.09-.25-.14-.51-.14-.8,0-.41,.09-.77,.28-1.1,.19-.33,.44-.58,.76-.76,.32-.18,.67-.27,1.06-.27,.25,0,.49,.04,.72,.12,.23,.08,.43,.19,.61,.33l.38-.41h.44l-.58,.63Zm-2.78,2.54l2.2-2.4c-.27-.23-.6-.34-.99-.34-.3,0-.56,.07-.79,.2-.23,.14-.42,.33-.55,.58-.13,.25-.2,.54-.2,.88,0,.43,.11,.79,.33,1.08Zm2.43-2.16l-2.21,2.4c.27,.23,.6,.34,.99,.34,.29,0,.56-.07,.79-.2,.23-.14,.42-.33,.55-.58,.13-.25,.2-.54,.2-.88,0-.43-.11-.79-.32-1.08Z"/><path class="f" d="M96.04,103.23c-.22-.1-.39-.23-.51-.41-.12-.17-.19-.38-.19-.6h.58c.02,.2,.1,.36,.24,.5,.14,.13,.35,.2,.62,.2s.46-.06,.61-.2c.15-.13,.23-.3,.23-.5,0-.16-.04-.29-.13-.39s-.2-.18-.33-.23c-.13-.05-.31-.11-.53-.17-.28-.07-.5-.14-.66-.22-.17-.07-.31-.18-.43-.34-.12-.15-.18-.36-.18-.62,0-.23,.06-.43,.17-.61,.12-.18,.28-.31,.49-.41,.21-.1,.45-.14,.72-.14,.39,0,.71,.1,.96,.29s.39,.46,.42,.78h-.6c-.02-.16-.1-.3-.25-.42s-.34-.18-.59-.18c-.23,0-.41,.06-.56,.18-.14,.12-.22,.28-.22,.49,0,.15,.04,.28,.13,.37,.09,.1,.19,.17,.32,.22,.13,.05,.3,.11,.53,.17,.28,.08,.5,.15,.67,.23,.17,.07,.31,.19,.43,.34,.12,.15,.18,.36,.18,.63,0,.2-.05,.4-.16,.58s-.27,.33-.48,.44-.46,.17-.75,.17-.52-.05-.74-.15Z"/></g></svg>