<?xml version="1.0" encoding="UTF-8"?><svg id="a" xmlns="http://www.w3.org/2000/svg" width="100mm" height="100mm" xmlns:xlink="http://www.w3.org/1999/xlink" viewBox="0 0 283.4646 283.4646"><defs><style>.c,.d{fill:#fff;}.e{fill:#2ba0da;}.d{stroke:#fff;stroke-width:.7559px;}.d,.f{stroke-miterlimit:10;}.f{fill:none;stroke:#12293b;stroke-width:2.126px;}.g{fill:#c29b5a;}.h{clip-path:url(#b);}.i{fill:#12293b;}</style><clipPath id="b"><circle class="f" cx="140.9462" cy="-161.1656" r="137.4803"/></clipPath></defs><circle class="i" cx="142.0762" cy="141.7323" r="137.4803"/><g><path class="c" d="M157.7736,71.7795l9.4665-.0735-.0628-8.0725c-.0114-1.2469-.5251-2.461-1.4139-3.3343-.8902-.876-2.1101-1.3711-3.357-1.3618l-46.6732,.3645c-1.2413,.0114-2.4583,.5251-3.3343,1.4117-.8761,.8881-1.3669,2.1101-1.3583,3.3579l.0656,8.0724,9.4608-.0727-.0272-3.34,37.2067-.291,.0272,3.3392Z"/><path class="d" d="M77.0327,102.5095c-1.4911,.0129-2.9021,.6856-3.8481,1.8391-.9458,1.1528-1.3296,2.6688-1.0515,4.1318l20.9574,109.3751c.458,2.3835,2.5497,4.1004,4.9751,4.082l84.686-.6629c2.4125-.0185,4.4771-1.752,4.9079-4.1246l19.9844-109.6939c.2698-1.4661-.1384-2.9927-1.0971-4.1347-.9588-1.1428-2.3941-1.8035-3.8851-1.7906l-125.6292,.9787Zm36.1093,112.0032c-2.7208,.433-5.2803-1.4202-5.7098-4.1375l-14.3885-90.1526c-.4352-2.725,1.4166-5.2788,4.1431-5.7119,2.7195-.4345,5.2777,1.416,5.7098,4.1382l14.3874,90.1512c.4352,2.7186-1.4211,5.2783-4.1419,5.7126Zm27.5848,.3574c-2.7578,.0229-5.0106-2.1943-5.0278-4.9507l-.7162-91.2882c-.0172-2.7572,2.1985-5.0065,4.9494-5.0271,2.7607-.0229,5.0135,2.1928,5.0321,4.9487l.7162,91.289c.0172,2.7557-2.1986,5.0078-4.9536,5.0284Zm46.198-95.3815l-12.9749,90.3665c-.3952,2.7245-2.9205,4.6185-5.6498,4.2261-2.7294-.3895-4.6242-2.9191-4.229-5.6456l12.9749-90.3674c.3937-2.7258,2.922-4.6183,5.6513-4.2253,2.728,.3924,4.6227,2.917,4.2275,5.6457Z"/><path class="g" d="M65.8412,97.8397l147.9379-1.1549-.1185-15.0672-13.7223,.1064-.0599-7.9243c-.0101-.6192-.2612-1.2227-.7021-1.6528-.4408-.4358-1.0515-.6813-1.6649-.6777l-30.2712,.2368-9.4665,.0735-37.2067,.2918-9.4608,.0727-28.221,.2197c-.6162,.0051-1.2214,.2598-1.6506,.702-.4367,.438-.6836,1.0458-.6792,1.6651l.0599,7.9269-14.8924,.1156,.1185,15.0664Z"/><path class="g" d="M139.9321,113.6039c-2.7509,.0206-4.9666,2.2699-4.9494,5.0271l.7162,91.2882c.0172,2.7565,2.2701,4.9736,5.0278,4.9507,2.755-.0206,4.9709-2.2727,4.9536-5.0284l-.7162-91.289c-.0185-2.7559-2.2714-4.9716-5.0321-4.9487Z"/><path class="g" d="M177.0461,118.0681l-12.9749,90.3674c-.3952,2.7265,1.4996,5.2561,4.229,5.6456,2.7293,.3924,5.2546-1.5016,5.6498-4.2261l12.9749-90.3665c.3952-2.7287-1.4996-5.2533-4.2275-5.6457-2.7293-.393-5.2575,1.4996-5.6513,4.2253Z"/><path class="g" d="M97.1867,114.5106c-2.7265,.433-4.5783,2.9868-4.1431,5.7119l14.3885,90.1526c.4295,2.7173,2.989,4.5706,5.7098,4.1375,2.7208-.4344,4.5771-2.994,4.1419-5.7126l-14.3874-90.1512c-.4321-2.7222-2.9903-4.5727-5.7098-4.1382Z"/></g><g><g class="h"><g><g><ellipse class="i" cx="135.4104" cy="14.7016" rx="7.7973" ry="2.0886"/><g><path class="g" d="M147.1001-7.5719c0,4.8041-6.3906,16.2019-9.7818,21.9118-.9279,1.5624-3.1883,1.5624-4.1161,0-3.3911-5.7099-9.7818-17.1078-9.7818-21.9118,0-6.5389,5.3008-11.8398,11.8398-11.8398s11.8398,5.3009,11.8398,11.8398Z"/><path class="g" d="M135.2603-19.4117c-.3944,0-.7838,.0213-1.1683,.059,5.9904,.587,10.6716,5.6363,10.6716,11.7808,0,4.8041-6.3906,16.2019-9.7817,21.9119-.2288,.3852-.539,.6744-.8899,.8697,1.0721,.5966,2.5272,.3074,3.2263-.8697,3.3911-5.71,9.7818-17.1078,9.7818-21.9119,0-6.5389-5.3009-11.8398-11.8398-11.8398Z"/></g></g><circle class="e" cx="181.3707" cy="6.5625" r="3.1215"/></g></g><circle class="f" cx="140.9462" cy="-161.1656" r="137.4803"/></g></svg>