<?xml version="1.0" encoding="UTF-8"?><svg id="a" xmlns="http://www.w3.org/2000/svg" width="100mm" height="100mm" viewBox="0 0 283.4646 283.4646"><defs><style>.b{fill:#fff;}.c{fill:#2ba0da;}.d{fill:#feb85b;}.e{fill:none;stroke:#12293b;stroke-miterlimit:10;stroke-width:2.126px;}.f{fill:#c29b5a;}.g{fill:#792937;}.h{opacity:.3;}.i{opacity:.55;}.j{fill:#12293b;}</style></defs><circle class="e" cx="141.554" cy="143.0907" r="137.4803"/><g><path class="j" d="M66.7348,97.2761c-2.4742,0-4.4779,2.0072-4.4779,4.4836v92.7253c0,2.4742,2.0037,4.4783,4.4779,4.4783H217.4409c2.4734,0,4.4828-2.0041,4.4828-4.4783V101.7597c0-2.4764-2.0094-4.4836-4.4828-4.4836H66.7348Zm144.6341,91.6605H72.5144V107.0122H211.3689v81.9245Z"/><path class="j" d="M220.3226,200.8985H63.8565c-1.0333,0-2.0372,.4084-2.8392,1.1647l-15.763,14.8224c-3.2623,3.0631-1.3792,9.1359,2.8348,9.1359H236.0917c4.2125,0,6.0955-6.0728,2.8347-9.1359l-15.7688-14.8224c-.7963-.7564-1.801-1.1647-2.835-1.1647Z"/><path class="b" d="M211.3689,188.9366V107.0122H72.5144v81.9245H211.3689Zm-70.7638-29.4472h-30.0555v-3.7352h30.0555v3.7352Zm34.1487,20.589h-32.2651v-2.8341h32.2651v2.8341Zm29.6912-4.8647h-61.9562v-2.8318h61.9562v2.8318Zm0-4.8647h-61.9562v-2.829h61.9562v2.829Zm0-4.8588h-61.9562v-2.8347h61.9562v2.8347Zm-61.9562-6.0007v-3.7352h30.0606v3.7352h-30.0606Zm62.0003,0h-30.0605v-3.7352h30.0605v3.7352Zm-125.8791-45.5196h125.8791v38.4217H78.6099v-38.4217Zm0,41.7845h30.0568v3.7352h-30.0568v-3.7352Zm0,7.12h61.9576v18.8659h-61.9576v-18.8659Z"/><rect class="c" x="78.6099" y="113.9698" width="125.8791" height="38.4217"/><rect class="c" x="78.6099" y="155.7542" width="30.0568" height="3.7352"/><rect class="c" x="78.6099" y="162.8743" width="61.9576" height="18.8659"/><rect class="c" x="110.5496" y="155.7542" width="30.0555" height="3.7352"/><rect class="c" x="142.4887" y="155.7542" width="30.0606" height="3.7352"/><rect class="c" x="142.4887" y="162.6554" width="61.9562" height="2.8347"/><rect class="c" x="142.4887" y="167.52" width="61.9562" height="2.829"/><rect class="c" x="142.4887" y="172.3818" width="61.9562" height="2.8318"/><rect class="c" x="142.4887" y="177.2443" width="32.2651" height="2.8341"/><rect class="c" x="174.4285" y="155.7542" width="30.0605" height="3.7352"/></g><g><path class="f" d="M181.617,192.1244c-1.0811,11.3473-21.821,16.4659-46.5753,14.1075-24.7565-2.3586-44.1546-11.3012-43.0735-22.6485,.5699-5.9818,6.659-10.834,15.9165-13.7401,8.3042-2.608,19.1572-3.6501,30.8653-2.5347,10.7018,1.0196,20.3636,3.6747,27.7978,7.2778,9.7626,4.7295,15.6829,11.0967,15.0692,17.538Z"/><g><path class="d" d="M175.0939,180.8329c-1.9216-2.2388-4.8739-4.3655-8.6156-6.2531l.0695,.0066c2.1207,1.0275,4.0621,2.1329,5.7941,3.2998,1.0554,.9577,1.9771,1.9411,2.7521,2.9467Z"/><path class="j" d="M175.0083,180.9062c-1.9053-2.2201-4.7923-4.3148-8.5807-6.226l-.538-.2714,.7071,.0762c2.1221,1.0282,4.0762,2.1411,5.808,3.3079,1.0804,.9788,2.0108,1.9751,2.7784,2.9713l-.1748,.142Zm-3.361-3.3445c.3705,.271,.7253,.5448,1.0639,.821-.1456-.1382-.294-.2759-.445-.4131-.2031-.1366-.4094-.2725-.6189-.4078Z"/></g><path class="f" d="M181.617,192.1244c-1.0811,11.3473-21.821,16.4659-46.5753,14.1075-24.7565-2.3586-44.1546-11.3012-43.0735-22.6485,.5699-5.9818,6.659-10.834,15.9165-13.7401l.1395,.0314c-6.6039,2.2566-10.8061,5.6534-11.199,9.7772-.3664,3.8459,2.6916,7.1655,8.0698,9.8694,4.8953,2.0992,10.0368,3.7266,15.3956,4.9496l-.436-1.9421c-.1177-.5244,.1158-1.065,.5784-1.3388l1.6521-.9777c.3097-.1833,.6605-.2858,1.0201-.2981l2.5807-.0882c.2639-.009,.331,.362,.0806,.4459l-1.1954,.401c-.3791,.1272-.7127,.3624-.9599,.6767l-.72,.9158c-.3742,.4759-.3851,1.1429-.0267,1.6308l.9671,1.3168c6.0832,1.1676,12.428,1.8444,18.988,2.1143,19.1085,.9905,34.0078-1.9774,34.7703-9.9808,.4335-4.5497-3.8569-9.1061-11.1114-12.7667l.0695,.0066c9.7626,4.7295,15.6829,11.0967,15.0692,17.538Z"/><g class="h"><path class="j" d="M180.9416,191.6741c-1.0811,11.3473-21.821,16.4659-46.5753,14.1075-17.1476-1.6337-31.7236-6.426-38.7041-12.987,7.7794,5.0833,20.4733,8.742,35.0188,10.1278,24.7543,2.3584,45.4942-2.7602,46.5753-14.1075,.1362-1.4299-.049-2.8565-.528-4.2613l-.0018-.0047c-.3547-1.4043-1.1357-2.7972-2.2917-4.1467l-.0162-.0196c-1.9216-2.2388-4.8739-4.3655-8.6156-6.2531l.0695,.0066c2.1207,1.0275,4.0621,2.1329,5.7941,3.2998,6.2329,4.201,9.7553,9.1977,9.2751,14.2382Z"/></g><path class="f" d="M122.5787,175.8579l-3.0854-.294-2.0289-2.4424-6.6804,.4881-5.8447-2.7349-4.5351,1.6985,9.6013,2.0868,6.7217,.1519,2.9215,2.287,2.9666-.6768c.3171-.0723,.2873-.5334-.0365-.5643Z"/><path class="f" d="M151.7395,169.4432l-3.1931,2.6442-3.2519,.2687c-.6907,.0571-1.2685,.5475-1.437,1.2197l-.7052,2.8124c-.0619,.2467,.2717,.3873,.4052,.1708l1.9198-3.1151,5.259,.0972,4.9768-3.0509"/><g class="i"><path class="b" d="M180.6231,186.6992c-2.4716-3.7771-7.019-7.2973-13.0135-10.2024-7.4342-3.6031-17.096-6.2582-27.7978-7.2778-11.7081-1.1155-22.5611-.0733-30.8653,2.5347-9.2575,2.9061-15.3466,7.7583-15.9165,13.7401-.1601,1.6809,.1282,3.3073,.8183,4.8702-1.4346-2.1291-2.1067-4.4027-1.8802-6.7806,.5699-5.9818,6.659-10.834,15.9165-13.7401,8.3042-2.608,19.1572-3.6501,30.8653-2.5347,10.7018,1.0196,20.3636,3.6747,27.7978,7.2778,6.9955,3.3894,12.0182,7.6176,14.0753,12.1128Z"/></g><polyline class="f" points="148.9052 186.5202 156.3937 188.6279 157.7146 191.3799 162.299 192.3193 169.0027 196.4257 162.4609 197.7414 161.0463 193.5994 155.389 193.6342 155.4804 189.5105 148.6869 188.8108"/><path class="j" d="M146.5134,207.5803c-3.7137,0-7.5847-.1866-11.5473-.5641-12.4087-1.1823-23.598-4.0359-31.5064-8.035-8.5822-4.3402-12.8275-9.6904-12.2768-15.4727,.5538-5.8122,5.8945-10.765,15.0384-13.9458,8.9408-3.1103,20.5193-4.1887,32.6026-3.0379,12.0835,1.1513,23.2498,4.3971,31.4424,9.1396,8.3787,4.8503,12.6881,10.7225,12.1343,16.5347-.551,5.7821-5.73,10.2346-14.9775,12.876-5.8001,1.6566-12.9944,2.5052-20.9098,2.5052Zm-17.0251-39.9294c-8.4446,0-16.3073,1.1593-22.7492,3.4003-8.5279,2.9666-13.4955,7.4438-13.9873,12.6069-.6117,6.4202,5.8722,11.1117,11.4191,13.9167,7.7371,3.9127,18.7268,6.7086,30.9447,7.8725,12.2176,1.1643,23.538,.4938,31.8747-1.8876,5.9769-1.7072,13.2299-5.0899,13.8415-11.5101l.7845,.0748-.7845-.0748c.4921-5.163-3.5406-10.4977-11.3549-15.0213-8.0007-4.6314-18.9399-7.8044-30.8024-8.9346-3.1104-.2964-6.1851-.4428-9.1862-.4428Z"/><path class="j" d="M104.7944,189.7229c-1.1783-.3839-2.3094-.909-3.3844-1.5527-1.0706-.6482-2.0913-1.4201-2.9659-2.3726-.8678-.9506-1.6049-2.0843-1.9901-3.3753l-.1399-.4834c-.0342-.1646-.061-.3312-.091-.4967-.0312-.1655-.0596-.3313-.0643-.5002l-.0342-.5039c-.0066-.1679,.0087-.3357,.0128-.5035,.0098-.1675,.0054-.3367,.0381-.5013,.0561-.3299,.0838-.6667,.1875-.9854,.3357-1.2983,1.0154-2.4701,1.8514-3.455,.8384-.9895,1.8265-1.8114,2.8673-2.5226,1.0431-.7109,2.144-1.3132,3.2693-1.8486,1.1296-.5265,2.2873-.975,3.4558-1.3849,.352-.1235,.7374,.0618,.8609,.4137s-.0618,.7374-.4138,.8609l-.0106,.0037c-1.1278,.396-2.2415,.8276-3.3186,1.3296-1.0717,.51-2.1111,1.0801-3.0795,1.7399-.9664,.6595-1.8644,1.412-2.6004,2.2818-.7354,.8672-1.2989,1.8572-1.5738,2.9187-.0889,.2612-.105,.5362-.154,.8051-.0292,.1344-.0222,.2716-.0305,.4075-.0026,.136-.0175,.2726-.0118,.4083,.0275,.2701,.0211,.5443,.0887,.8092l.0781,.3999,.1213,.391c.3266,1.0467,.9957,1.9754,1.7485,2.8259,.762,.8506,1.6409,1.6264,2.5741,2.3551,.9324,.7325,1.9199,1.4155,2.9111,2.1337l.0019,.0014c.1019,.0738,.1246,.2162,.0508,.318-.0594,.082-.1636,.1125-.2549,.0829Z"/><path class="j" d="M126.6586,195.8887c-1.0204,.0519-2.0256-.0185-3.0249-.1277-.9985-.1148-1.9885-.2867-2.9696-.5018-.9812-.2139-1.9557-.4628-2.9167-.7615-.9596-.3039-1.912-.6351-2.833-1.0633-.1143-.0532-.1639-.189-.1108-.3034,.0419-.09,.1358-.1398,.2293-.131,1.0054,.0964,1.9887,.2553,2.9719,.4116,.9817,.1615,1.9571,.3428,2.931,.5328,.9742,.1888,1.9448,.3944,2.9111,.6336,.9655,.2448,1.9294,.5047,2.8815,.8659,.1188,.045,.1787,.1777,.1338,.2965-.0332,.088-.1151,.1437-.2034,.1484Z"/><path class="j" d="M166.7818,173.9777c2.1322,1.0809,4.2036,2.3152,6.0995,3.8244,.9452,.7564,1.8459,1.5824,2.6535,2.5108,.809,.924,1.5215,1.962,2.0345,3.121,.5118,1.1549,.7946,2.4558,.7062,3.755-.0058,.0809-.0086,.1621-.0174,.2428l-.0362,.2413-.0744,.4823c-.0281,.1601-.0808,.3156-.1208,.4735-.0476,.1558-.0771,.3178-.1409,.4679l-.1822,.4535c-.0317,.0749-.0591,.1521-.0945,.225l-.1149,.2144-.2318,.4278c-.0817,.1394-.1789,.2678-.2681,.4019-.7329,1.0622-1.6922,1.9143-2.7171,2.6061-1.0288,.6929-2.1298,1.2366-3.2517,1.6965-1.1238,.4562-2.2701,.8401-3.4308,1.1461-1.1595,.3109-2.3266,.584-3.5019,.7969-1.1739,.224-2.3529,.403-3.5341,.5594-1.182,.1457-2.3668,.2645-3.5524,.3489-.5927,.0475-1.1866,.069-1.7799,.0953-.5933,.0307-1.1867,.0397-1.7799,.0578-1.1867,.0225-2.373,.0143-3.5578-.0194-2.3695-.0673-4.7334-.2479-7.0818-.554-.1237-.0161-.2108-.1294-.1947-.2531,.0145-.1118,.1087-.1938,.218-.1966,4.7181-.1249,9.4087-.1943,14.0706-.5644,2.3295-.1752,4.6546-.414,6.9436-.8249,2.2867-.4074,4.5493-.9755,6.6688-1.8419,1.0574-.433,2.0803-.9408,3.0079-1.566,.9255-.6237,1.7539-1.3718,2.361-2.2532,.0735-.1112,.1564-.2176,.2233-.3323l.1883-.3501,.0952-.1745c.029-.0593,.0498-.122,.0753-.1828l.1481-.3665c.0535-.1208,.0734-.2526,.1126-.378,.0317-.1276,.0769-.252,.0989-.382l.0593-.3915,.0308-.1956c.0074-.0656,.0089-.132,.0139-.198,.0712-1.0576-.1545-2.128-.5952-3.1249-.4416-.9981-1.0739-1.9302-1.8168-2.7774-.7399-.8511-1.5828-1.626-2.4774-2.3419-1.7953-1.4297-3.7942-2.6246-5.8647-3.6736l-.0023-.0012c-.3328-.1686-.4659-.575-.2973-.9077,.1685-.3328,.575-.4658,.9077-.2973h.0002Z"/><g class="h"><path class="j" d="M106.7519,183.2392c2.5687,7.7079,18.6877,7.9224,12.8852,1.8872"/></g><g class="h"><path class="j" d="M117.3004,168.7987c2.5687,7.7079,18.6877,7.9224,12.8852,1.8872"/></g><g class="h"><path class="j" d="M140.4905,188.0299c2.5687,7.7079,16.4084,5.9031,10.6059-.1321"/></g><g class="h"><path class="j" d="M155.773,180.1381c2.5687,7.7079,14.3671,5.2449,8.5646-.7903"/></g><g class="h"><path class="j" d="M131.5142,179.2254c1.4926,4.4787,9.2377,3.5917,5.8662,.0849"/></g><g><path class="b" d="M163.4362,182.1903c1.098-.3175,1.5856-1.5963,1.0407-2.6011-1.884-3.4745-6.364-3.652-8.2997-1.6503-.6716,.6799-.6401,1.524,.0945,1.9023,.2253,.116,.4803,.1663,.7336,.1596,.3559-.0094,1.2497,.107,1.8774,1.3905,.2476,.5062,2.8006,1.3058,4.5534,.799Z"/><path class="j" d="M162.1641,182.4647c-1.5465,0-3.1638-.577-3.3826-1.0239-.5991-1.2246-1.4407-1.3355-1.7732-1.3274-.283,.0058-.5554-.0521-.7882-.1721-.3469-.1785-.5681-.4669-.6231-.8118-.0666-.4177,.1156-.8804,.5002-1.2696,.9711-1.0042,2.5908-1.49,4.2295-1.2657,1.822,.2491,3.3707,1.3213,4.2492,2.9415,.2847,.5249,.3162,1.1413,.0862,1.6908-.2199,.5254-.6552,.916-1.1947,1.072h0c-.4037,.1166-.8504,.1662-1.3033,.1662Zm-5.1221-2.5769c.4006,0,1.3075,.1569,1.9418,1.454,.2168,.4426,2.7137,1.2343,4.4212,.7403h0c.4736-.1369,.8561-.4805,1.0494-.9425,.2036-.4864,.1757-1.0319-.0763-1.4967-.844-1.5565-2.3318-2.5864-4.0819-2.8258-1.568-.2145-3.1148,.2457-4.038,1.2001-.3344,.3384-.494,.7306-.4388,1.0768,.044,.2763,.2183,.5001,.5039,.6472,.1994,.1027,.4336,.1568,.6789,.1471l.0398-.0004Z"/></g><g class="i"><path class="b" d="M164.5938,181.0899c-.0168-.0378-.0357-.0758-.055-.1115-1.8831-3.4745-6.3643-3.6527-8.2988-1.65-.1001,.1013-.1845,.2041-.2512,.3108-.4456-.4269-.3814-1.1242,.1891-1.7008,1.9342-2.0004,6.4158-1.8245,8.2988,1.65,.2615,.484,.2842,1.0289,.117,1.5015Z"/></g><g><path class="b" d="M117.8977,186.7894c1.6453-.4757,2.3759-2.3919,1.5595-3.8976-2.823-5.2063-9.536-5.4722-12.4366-2.4729-1.0063,1.0187-.9591,2.2837,.1416,2.8505,.3376,.1739,.7197,.2491,1.0993,.2391,.5332-.0141,1.8725,.1603,2.8132,2.0836,.371,.7586,4.1965,1.9566,6.823,1.1972Z"/><path class="j" d="M115.9765,187.1465c-2.2918,0-4.681-.8465-5.0029-1.5048-.9113-1.8636-2.2006-2.0354-2.7089-2.0205-.4164,.0089-.813-.0761-1.1538-.2516-.5037-.2593-.8247-.6768-.9043-1.1756-.0967-.6081,.1708-1.2839,.7341-1.8541,1.4436-1.4926,3.8526-2.2141,6.2898-1.8805,2.7122,.3708,5.0179,1.9668,6.3256,4.3788,.4186,.7716,.4648,1.6775,.1269,2.4853-.3228,.7713-.9621,1.345-1.754,1.574h0c-.6048,.1749-1.2743,.249-1.9524,.249Zm-7.6602-3.7513c.5883,0,1.9227,.2316,2.8595,2.1475,.3296,.674,4.1098,1.885,6.6906,1.1384h0c.7262-.2099,1.3126-.7364,1.6087-1.4445,.3115-.7447,.2689-1.5797-.117-2.2912-1.2732-2.3482-3.518-3.9021-6.1583-4.2631-2.3657-.3243-4.7028,.3717-6.0983,1.8148-.5132,.5194-.7581,1.1247-.6728,1.6613,.069,.4324,.3403,.7819,.7849,1.0109,.3074,.1582,.6677,.2366,1.045,.2266l.0576-.0008Z"/></g><g class="i"><path class="b" d="M119.5878,185.2536c-.0541-.263-.1467-.5251-.2812-.7754-2.824-5.206-9.5358-5.4723-12.4383-2.4718-.1753,.1778-.3196,.3631-.4302,.5515-.3024-.6236-.1093-1.4397,.5814-2.1383,2.9025-3.0005,9.6143-2.7342,12.4383,2.4718,.4136,.7631,.4306,1.6286,.13,2.3622Z"/></g><path class="j" d="M116.0165,187.6965c-2.4143,0-5.0805-.8503-5.5486-1.8076-.7678-1.5704-1.7782-1.7178-2.1885-1.7051-.5059,.0146-1.0017-.0951-1.4262-.3138-.6671-.3434-1.094-.9073-1.2024-1.5875-.1253-.787,.199-1.6392,.8896-2.3381,1.5612-1.615,4.1569-2.3994,6.7664-2.0426,2.8916,.3953,5.3499,2.0969,6.7442,4.6682,.5,.9222,.5551,2.005,.151,2.9709-.3887,.9293-1.1602,1.6209-2.1168,1.8974-.6196,.1792-1.3326,.2583-2.0687,.2583Zm-4.3473-2.426c.449,.5095,3.7334,1.537,6.0409,.8701h0c.5699-.1648,1.0122-.563,1.2457-1.1211,.2456-.5866,.2117-1.2447-.0923-1.8056-1.187-2.189-3.279-3.6374-5.7399-3.9739-2.1924-.2998-4.3444,.3321-5.6174,1.6485-.39,.395-.5782,.8237-.5213,1.1814,.04,.2518,.2038,.4535,.4866,.5991,.2234,.1149,.4916,.1705,.7724,.1643,.6638-.0173,2.3131,.1859,3.4254,2.437Z"/><path class="j" d="M162.1426,183.0284c-1.703,0-3.5164-.6252-3.8665-1.3402-.4558-.9315-1.0292-1.02-1.2528-1.0122-.3806,.0104-.7442-.0712-1.061-.2345-.5099-.2625-.8372-.6972-.921-1.2235-.0952-.5966,.1438-1.2358,.6556-1.7537,1.0892-1.1267,2.8962-1.6753,4.7059-1.4279,2.0016,.2736,3.7031,1.4513,4.6681,3.2308,.3663,.6755,.4065,1.4688,.1104,2.1764-.2858,.6833-.8535,1.192-1.5575,1.3955h0c-.4538,.1313-.9623,.1893-1.4812,.1893Zm1.2937-.8381h0Zm-3.9755-1.1534c.37,.3021,2.3721,.9137,3.788,.5046,.3135-.0907,.5573-.3105,.6864-.6191,.1374-.3285,.1185-.697-.0519-1.0111-.7574-1.3972-2.0928-2.3217-3.6633-2.5364-1.3935-.1906-2.7564,.2056-3.5571,1.0337-.2443,.2473-.3078,.4696-.2876,.5969,.0055,.0348,.0224,.1409,.2058,.2352,.1159,.0596,.2575,.0881,.4065,.085,.4802-.0132,1.6734,.1302,2.4732,1.7113Z"/><g><path class="b" d="M151.0965,187.8979c-.0749-5.9802-6.5727-5.9536-9.961-2.065-1.0472,1.2018-.5885,3.0455,.9004,3.6148,2.0958,.8014,4.96,1.0054,7.0283,.7738,1.1708-.1311,2.0471-1.1455,2.0324-2.3235Z"/><path class="j" d="M147.3776,190.4213c-1.7312,0-3.7589-.248-5.382-.8687-.744-.2844-1.28-.8848-1.4702-1.6472-.1902-.763,.0011-1.5454,.525-2.1466,1.9748-2.2665,5.0753-3.2992,7.3724-2.4552,1.7677,.6496,2.7573,2.2806,2.7863,4.5928h0c.0156,1.2512-.9012,2.2989-2.1324,2.4368-.5081,.0568-1.085,.0881-1.6991,.0881Zm-.6816-7.1862c-1.9,0-4.0059,.9848-5.4758,2.6717-.4749,.5449-.6484,1.2535-.4762,1.9441,.1721,.69,.6576,1.2336,1.3321,1.4915,2.1634,.8271,5.0632,.9816,6.9755,.767,1.1158-.125,1.9466-1.0751,1.9324-2.2101h0c-.0277-2.2122-.965-3.7692-2.6388-4.3843-.5151-.1892-1.0727-.2799-1.6492-.2799Z"/></g><g class="i"><path class="b" d="M150.8946,186.2981c-1.905-2.6737-6.4324-1.9879-9.0732,1.0421-.4162,.476-.5936,1.0561-.5632,1.6154-.8349-.8032-.9562-2.1649-.1231-3.1236,3.0545-3.5039,8.6325-3.8703,9.7595,.4662Z"/></g><path class="j" d="M147.344,190.9858c-1.7164,0-3.788-.2338-5.5493-.9074-.9184-.3511-1.5799-1.0935-1.8152-2.0368-.2355-.944,.0002-1.9107,.6466-2.6525,2.1225-2.4357,5.4822-3.5354,7.9908-2.6138,1.1595,.4261,3.1117,1.6572,3.155,5.1141h0c.0191,1.5418-1.1125,2.8329-2.6326,3.0032-.5195,.0582-1.131,.0932-1.7954,.0932Zm-.6613-7.1913c-1.7343,0-3.6741,.9167-5.0381,2.482-.3524,.4044-.4815,.9286-.3544,1.4382,.1269,.5091,.4868,.9107,.987,1.1019,2.0753,.7935,4.8664,.94,6.7119,.7335,.8135-.0911,1.4425-.8132,1.4322-1.6438h0c-.0248-1.9907-.81-3.3265-2.2701-3.8631-.4577-.1682-.9542-.2488-1.4684-.2488Z"/><g><path class="b" d="M130.1523,169.7654c-.2167-5.9937-8.143-6.1032-12.1951-2.2779-1.2523,1.1822-.6541,3.0392,1.1742,3.6409,2.5735,.8469,6.0719,1.1113,8.5903,.9226,1.4256-.1068,2.4733-1.1049,2.4307-2.2856Z"/><path class="j" d="M126.1141,172.2197c-2.1977,0-4.8868-.283-7.0179-.9843-.9797-.3225-1.6769-1.0185-1.8651-1.8618-.1585-.7117,.0781-1.429,.649-1.968,2.5148-2.3743,6.5411-3.2921,9.3656-2.1344,1.8699,.7665,2.9422,2.3612,3.0191,4.4901,.0453,1.2576-1.0443,2.2902-2.5348,2.4019-.4916,.0368-1.0369,.0565-1.616,.0565Zm-1.5839-7.2239c-2.2749,0-4.7545,.9299-6.4958,2.5737-.5118,.4831-.7244,1.1229-.5835,1.7551,.1706,.7651,.8119,1.3995,1.7156,1.6969,2.6634,.8766,6.2122,1.0918,8.5468,.9173,1.3673-.1025,2.3675-1.0351,2.3263-2.1692-.0941-2.6086-1.618-3.7727-2.8795-4.2899-.7988-.3275-1.6971-.4838-2.63-.4838Z"/></g><g class="i"><path class="b" d="M129.8063,167.965c-2.513-2.3698-7.7251-1.713-10.7595,1.1528-.5143,.4847-.7161,1.0829-.6513,1.6613-1.2293-.7933-1.5034-2.2849-.4372-3.2915,3.596-3.3958,10.2483-3.6915,11.8481,.4775Z"/></g><path class="j" d="M126.1233,172.7821c-2.2523,0-5.0119-.291-7.2031-1.0121-1.1701-.3851-2.0069-1.2351-2.2384-2.2739-.2029-.91,.093-1.8211,.8117-2.4997,2.666-2.5165,6.9493-3.4818,9.9656-2.2459,2.0865,.8553,3.2827,2.6277,3.368,4.9905h0c.0565,1.5661-1.2567,2.8487-3.055,2.9835-.5017,.0376-1.058,.0576-1.6489,.0576Zm-1.5606-7.2146c-2.1425,0-4.5203,.8804-6.1418,2.4112-.3694,.3487-.5189,.7831-.4206,1.2234,.1269,.5697,.6286,1.0499,1.342,1.2848,2.5897,.8523,6.0497,1.0616,8.3287,.8905,1.0421-.0781,1.8354-.7754,1.8062-1.5876h0c-.0833-2.3089-1.4223-3.3351-2.5306-3.7894-.7156-.2934-1.5311-.4329-2.3839-.4329Z"/><g><path class="b" d="M171.9162,187.6021c-1.4765,.7033-2.6614,1.4751-3.3941,2.3529-1.076,1.2893-.7077,3.2479,.715,4.14,2.0765,1.3021,4.1019,1.7023,6.0186,.1855,1.3679-1.0824,2.0428-2.8574,1.7344-4.5742-.2298-1.2795-.9248-2.2146-2.3756-2.4886-.9131-.1725-1.8595-.0152-2.6984,.3844Z"/><path class="j" d="M172.6198,195.3618c-1.0549,0-2.1968-.3903-3.4424-1.1713-.7262-.4554-1.22-1.2026-1.3546-2.0501-.1293-.8133,.0941-1.6361,.613-2.2575,.697-.8351,1.8196-1.6144,3.432-2.3824h0c.888-.423,1.8712-.563,2.7676-.3934,1.3752,.2598,2.2048,1.1276,2.4655,2.5794,.3131,1.7433-.3837,3.5812-1.7754,4.6824-.8363,.6618-1.7343,.993-2.7058,.993Zm-.6552-7.6582c-1.5826,.7539-2.6803,1.5138-3.3559,2.3235-.4841,.58-.6842,1.318-.5635,2.078,.1244,.7831,.5807,1.4737,1.2519,1.8945,2.3336,1.4636,4.205,1.5247,5.8887,.1926,1.3275-1.0504,1.9924-2.8033,1.6936-4.466-.2458-1.3695-.9935-2.154-2.2857-2.398-.8506-.1604-1.7839-.0269-2.6291,.3755h0Z"/></g><g class="i"><path class="b" d="M176.8984,189.3093c-.3626-.324-.8362-.5523-1.4405-.6664-.913-.1729-1.8576-.0142-2.6986,.3852-1.4759,.7029-2.6598,1.4744-3.3926,2.3522-.5819,.6954-.7414,1.5871-.543,2.3998-1.0712-.9818-1.2652-2.6716-.3027-3.826,.7327-.8778,1.9189-1.649,3.3948-2.352,.8386-.3996,1.7853-.5559,2.6986-.3852,1.2951,.2455,1.988,1.0194,2.2838,2.0924Z"/></g><g><path class="b" d="M134.2949,175.8976c-.9073,.4322-1.6355,.9064-2.0857,1.4459-.6612,.7923-.4349,1.9958,.4394,2.5441,1.276,.8002,2.5206,1.046,3.6985,.114,.8406-.6652,1.2553-1.7559,1.0658-2.8109-.1412-.7862-.5683-1.3609-1.4598-1.5293-.5611-.106-1.1427-.0093-1.6582,.2362Z"/><path class="j" d="M134.7277,180.7101c-.6561,0-1.3655-.2423-2.139-.7272-.4569-.2866-.7673-.7565-.8522-1.2896-.0813-.5122,.0594-1.0305,.3863-1.4221,.432-.5178,1.1266-1.0004,2.1236-1.4753h0c.554-.2639,1.167-.3512,1.7274-.2453,.8647,.1634,1.3862,.7084,1.5498,1.6199,.1952,1.0868-.2392,2.2326-1.1068,2.9191-.5226,.4136-1.083,.6203-1.6892,.6203Zm-.3845-4.7109c-.9669,.4607-1.6369,.924-2.0476,1.4163-.2893,.3467-.4089,.788-.3366,1.2424,.0743,.4689,.3476,.8823,.7493,1.1341,1.4166,.8887,2.551,.927,3.5688,.1211,.8034-.6356,1.2057-1.6966,1.025-2.7027-.1475-.8217-.5956-1.2922-1.3699-1.4385-.5136-.0967-1.0778-.0162-1.5889,.2272h0Z"/></g><g class="i"><path class="b" d="M137.4491,177.8774c-.2343-.4136-.6207-.7014-1.2115-.8143-.5621-.1056-1.1434-.0094-1.66,.2376-.905,.4317-1.6331,.9051-2.0849,1.4455-.1687,.2033-.2811,.4346-.338,.6757-.4372-.6093-.4551-1.4659,.0555-2.0776,.4495-.5406,1.1776-1.0141,2.0852-1.4478,.5141-.245,1.0977-.341,1.6575-.2356,.8908,.1685,1.32,.7432,1.4599,1.5299,.0414,.2301,.0535,.4597,.0364,.6865Z"/></g><path class="j" d="M172.6264,195.9356c-1.156,0-2.3993-.4227-3.748-1.2684-.8641-.5417-1.4513-1.4306-1.6114-2.4386-.1548-.9738,.1137-1.9603,.7368-2.7065,.7499-.8987,1.9348-1.7262,3.622-2.5299h0c1.0096-.4807,2.0867-.6323,3.1141-.4383,1.6052,.3032,2.6133,1.3519,2.9151,3.033,.3546,1.9747-.4041,3.9762-1.9803,5.2232-.948,.7502-1.9594,1.1255-3.0484,1.1255Zm-.4197-7.7238c-1.5078,.7182-2.5433,1.4299-3.1658,2.176-.3786,.4533-.5347,1.0318-.4397,1.6289,.0987,.6226,.4615,1.1716,.9949,1.5062,2.1331,1.3376,3.7493,1.408,5.2406,.228,1.1668-.9233,1.7512-2.464,1.4887-3.9252-.2025-1.1282-.786-1.746-1.836-1.9444-.7337-.1385-1.5443-.0212-2.2826,.3306h0Z"/><path class="j" d="M134.7337,181.2732c-.7627,0-1.5793-.2712-2.444-.8135-.5945-.3729-.9988-.9845-1.109-1.6781-.1069-.6727,.0789-1.3547,.5101-1.871,.485-.5813,1.2418-1.1122,2.3136-1.6228h0c.6708-.3197,1.3875-.4202,2.0739-.2901,1.1017,.2081,1.7932,.9252,1.9994,2.0735,.2348,1.3082-.2676,2.6339-1.3117,3.4599-.6251,.4947-1.3042,.742-2.0324,.742Zm-.1484-4.7658c-.8797,.4191-1.5047,.8459-1.8574,1.2687-.1838,.2202-.2594,.5019-.213,.7936,.049,.3082,.2284,.5801,.4925,.7457,1.2191,.7642,2.0924,.8117,2.9206,.1565,.6426-.5086,.9647-1.3572,.8201-2.1619-.1055-.5885-.3808-.8831-.9203-.985-.3968-.0748-.8381-.0101-1.2424,.1824h0Z"/><polygon class="f" points="124.8564 185.6836 126.6062 183.9162 129.8613 183.5667 132.7582 182.4292 130.2074 184.787 127.7514 184.9421 124.8564 185.6836"/></g><g><path class="f" d="M95.0987,122.0059c1.7805,11.3504,22.9594,15.2339,47.7205,11.3497,24.7634-3.8845,43.7336-14.066,41.9531-25.4165-.9386-5.9835-7.361-10.4934-16.8524-12.852-8.514-2.1168-19.4968-2.5027-31.2081-.6656-10.7048,1.6792-20.2633,4.9404-27.5229,9.0194-9.5334,5.3544-15.1009,12.1219-14.0902,18.565Z"/><g><path class="d" d="M100.9721,110.2473c1.7966-2.3698,4.6371-4.6897,8.2863-6.8172l-.0695,.0109c-2.0709,1.1633-3.9566,2.3939-5.6279,3.6737-1.0033,1.028-1.8707,2.0736-2.5889,3.1327Z"/><path class="j" d="M101.0625,110.3159l-.1844-.1323c.712-1.0496,1.5874-2.1089,2.6019-3.1483,1.6824-1.29,3.5805-2.5289,5.6534-3.6934l.0381-.0132,.6657-.1048-.5217,.3042c-3.6946,2.1539-6.4714,4.4377-8.2531,6.7878Zm3.1643-3.5593c-.2019,.1488-.4009,.2982-.5968,.4481-.1427,.1464-.2825,.2933-.4199,.4409,.3229-.2981,.6617-.5942,1.0167-.889Z"/></g><path class="f" d="M95.0987,122.0059c1.7805,11.3504,22.9594,15.2339,47.7205,11.3497,24.7634-3.8845,43.7336-14.066,41.9531-25.4165-.9386-5.9835-7.361-10.4934-16.8524-12.852l-.1384,.0401c6.7819,1.8671,11.2171,5.0281,11.8642,9.1531,.6035,3.847-2.2705,7.3735-7.5164,10.4222-4.7969,2.4109-9.8705,4.3622-15.1872,5.9197l.3201-1.9806c.0864-.5348-.1815-1.0644-.6636-1.3116l-1.7219-.8828c-.3228-.1655-.682-.2472-1.0445-.2376l-2.6018,.0688c-.266,.007-.3109,.3844-.0539,.4536l1.2272,.3304c.3892,.1048,.7392,.3211,1.007,.6222l.7803,.8774c.4055,.456,.4572,1.1263,.1265,1.6391l-.8926,1.3839c-6.049,1.5461-12.3911,2.6145-18.9746,3.2866-19.1645,2.1633-34.3358,.0869-35.5916-7.9187-.7139-4.5509,3.3244-9.3971,10.3997-13.523l-.0695,.0109c-9.5334,5.3544-15.1009,12.1219-14.0902,18.565Z"/><g class="h"><path class="j" d="M95.0987,122.0059c1.7805,11.3504,22.9594,15.2339,47.7205,11.3497,17.1523-2.6906,31.5246-8.4021,38.1471-15.4293-7.5165,5.5893-20.0643,10.0453-34.6139,12.3276-24.7612,3.8842-45.94,.0007-47.7205-11.3497-.2244-1.4303-.1251-2.8769,.271-4.3195l.0015-.0048c.2711-1.4345,.9718-2.8836,2.0525-4.3119l.0151-.0207c1.7966-2.3698,4.6371-4.6897,8.2863-6.8172l-.0695,.0109c-2.0709,1.1633-3.9566,2.3939-5.6279,3.6737-6.0144,4.6072-9.2532,9.8494-8.4623,14.8913Z"/></g><path class="f" d="M153.5036,102.0355l3.0862-.4841,1.8921-2.5811,6.7509,.0832,5.7134-3.1084,4.6664,1.4319-9.5324,2.6857-6.7534,.5632-2.7996,2.4793-3.026-.4998c-.3235-.0534-.3216-.5191,.0023-.5699Z"/><path class="f" d="M123.7735,97.3622l3.374,2.4653,3.2881,.0718c.6984,.0152,1.3096,.4733,1.5203,1.1394l.8813,2.7865c.0773,.2444-.2497,.4063-.3972,.1966l-2.1217-3.0168-5.2851,.4189-5.1934-2.7656"/><g class="i"><path class="b" d="M95.7674,116.4869c2.2561-3.951,6.6162-7.7704,12.4699-11.0591,7.2596-4.0789,16.8181-7.3402,27.5229-9.0194,11.7114-1.8371,22.6942-1.4513,31.2081,.6656,9.4914,2.3586,15.9138,6.8686,16.8524,12.852,.2638,1.6814,.073,3.3353-.526,4.9499,1.3133-2.2297,1.8508-4.5582,1.4776-6.9368-.9386-5.9835-7.361-10.4934-16.8524-12.852-8.514-2.1168-19.4968-2.5027-31.2081-.6656-10.7048,1.6792-20.2633,4.9404-27.5229,9.0194-6.8312,3.8372-11.6263,8.3978-13.4216,13.046Z"/></g><polyline class="f" points="127.6677 114.3702 120.2622 116.948 119.1013 119.7975 114.5463 121.0225 108.0525 125.5632 114.7145 126.4875 115.8849 122.2339 121.5787 121.9235 121.235 117.7802 128.0271 116.6615"/><path class="j" d="M125.0889,135.6079c-5.5191,0-10.58-.4796-14.919-1.439-9.4651-2.0929-14.9478-6.2563-15.8551-12.04-.9119-5.8139,3.0653-11.985,11.1989-17.3763,7.9528-5.2717,18.9891-9.219,31.076-11.1149,12.0871-1.8963,23.8019-1.5175,32.9867,1.0657,9.3939,2.6419,15.0695,7.2987,15.9816,13.1126,.907,5.7838-3.0373,11.426-11.407,16.3165-7.7124,4.5065-18.7956,8.0606-31.208,10.0077-6.2371,.9785-12.2795,1.4678-17.854,1.4678Zm26.3626-41.5736c-4.6981,0-9.6215,.3891-14.6159,1.1725-11.8657,1.8614-22.6779,5.7216-30.4444,10.8697-7.5858,5.0283-11.3173,10.6417-10.5071,15.8061,1.0074,6.4221,8.511,9.3825,14.6287,10.7352,8.5328,1.8868,19.9626,1.8701,32.184-.047,12.2212-1.9171,23.1072-5.401,30.6525-9.81,5.4097-3.1608,11.6466-8.2767,10.6391-14.6987-.81-5.1646-6.0811-9.3657-14.8421-11.8297-5.1945-1.4609-11.2308-2.1981-17.6949-2.1981Z"/><path class="j" d="M172.0148,114.5068c.9534-.7832,1.905-1.5306,2.7985-2.3245,.8944-.7901,1.7313-1.6243,2.446-2.5266,.7055-.9016,1.322-1.8769,1.5868-2.9499l.0981-.4008,.0541-.4071c.0519-.2707,.0287-.5461,.0398-.8195-.0024-.1369-.0257-.2733-.0367-.41-.0166-.1363-.0178-.2747-.0555-.4081-.0657-.2675-.0986-.5432-.2041-.8006-.3414-1.0512-.9686-2.0129-1.7616-2.8404-.7936-.8301-1.7429-1.5324-2.7556-2.1369-1.0146-.6047-2.0951-1.1148-3.2044-1.5625-1.1144-.4393-2.2612-.8055-3.4201-1.135l-.011-.0031c-.3617-.1028-.5714-.4793-.4687-.841,.1028-.3616,.4792-.5715,.8409-.4687,1.2006,.341,2.3927,.7216,3.5613,1.1824,1.165,.47,2.3093,1.0088,3.4021,1.6603,1.0905,.652,2.1349,1.4186,3.0388,2.363,.9013,.9399,1.6567,2.0773,2.0737,3.3631,.1239,.3143,.1723,.6515,.2489,.98,.0431,.1637,.049,.3342,.069,.5021,.0144,.1686,.0399,.3364,.0435,.5057l-.0037,.5091c.0055,.1703-.0129,.3388-.0341,.5072-.0201,.1684-.0369,.3377-.0613,.5053l-.1112,.4949c-.3087,1.3224-.9811,2.508-1.7961,3.5173-.8217,1.0117-1.8016,1.8506-2.8391,2.5681-1.0422,.7133-2.1482,1.3106-3.3103,1.7688-.1179,.0465-.2512-.0114-.2977-.1293-.0375-.0949-.0072-.1998,.0676-.2614l.0021-.0017Z"/><path class="j" d="M150.5247,121.9942c.9358-.4214,1.8898-.7419,2.8461-1.0471,.9576-.2997,1.9216-.5658,2.8902-.8153,.9682-.2506,1.9385-.4926,2.9162-.715,.9796-.2172,1.9592-.4372,2.9649-.5955,.1255-.02,.2435,.0656,.2635,.1912,.0157,.0988-.0347,.1933-.1178,.2387-.9005,.4871-1.8385,.8784-2.7853,1.2428-.9487,.3591-1.9139,.6691-2.8881,.9442-.9739,.2763-1.9595,.5097-2.957,.6861-.9989,.1709-2.0059,.3032-3.0356,.3132-.128,.0012-.2328-.1015-.234-.2296-.001-.0948,.0556-.177,.1368-.2137Z"/><path class="j" d="M109.6019,104.0191c-2.0189,1.1818-3.9571,2.506-5.676,4.0541-.8564,.7748-1.657,1.6059-2.3495,2.5074-.6957,.8977-1.275,1.8742-1.6583,2.9053-.3825,1.0298-.5443,2.1205-.408,3.1802,.009,.066,.0145,.1328,.0259,.1983l.0429,.1949,.0835,.3903c.03,.1294,.0832,.2518,.1229,.3783,.0471,.1238,.0751,.2551,.1363,.3735l.1714,.3597c.0294,.0596,.0542,.1213,.087,.1793l.1064,.1698,.2109,.3407c.0742,.1113,.1642,.2132,.245,.3207,.6645,.8497,1.5436,1.5517,2.5129,2.1228,.9713,.5723,2.0315,1.0208,3.1219,1.3918,2.1852,.7423,4.4963,1.1757,6.8217,1.446,2.3282,.2736,4.682,.3718,7.0365,.4059,4.7129,.0876,9.4363-.1289,14.1907-.2913,.1256-.0044,.231,.094,.2353,.2196,.0039,.1136-.0762,.2106-.1845,.2313-2.3439,.4513-4.7111,.7774-7.0911,.9898-1.19,.1063-2.3829,.187-3.5782,.2368-.598,.018-1.1956,.0452-1.7944,.0505-.5984,.0098-1.1972,.0244-1.7966,.0128-1.1979-.0125-2.3972-.0597-3.5954-.1341-1.1979-.0852-2.395-.1934-3.5898-.3471-1.1955-.1424-2.3863-.3459-3.572-.5879-1.1865-.2369-2.3631-.5532-3.5217-.9436-1.1568-.3942-2.2976-.8739-3.3751-1.5083-1.0735-.6335-2.0906-1.4322-2.8929-2.4561-.098-.1295-.2037-.2527-.2943-.388l-.2593-.4162-.1288-.2087c-.0401-.0712-.0724-.1472-.1088-.2206l-.2111-.4451c-.0732-.1471-.1129-.3083-.1702-.4622-.05-.1564-.1125-.3096-.1505-.469l-.1044-.4807-.0511-.2406c-.0137-.0806-.0215-.1621-.0324-.2432-.1682-1.3017,.0368-2.6278,.4812-3.821,.4453-1.1974,1.0988-2.2852,1.8563-3.2643,.7559-.9834,1.6117-1.8694,2.5165-2.6881,1.8153-1.6341,3.8239-3.0024,5.9032-4.2201,.3244-.19,.7415-.081,.9314,.2434,.19,.3245,.0811,.7415-.2433,.9315h-.0001l-.0024,.0014Z"/><g class="h"><path class="g" d="M169.8775,108.4955c-2.1138,7.9117-18.3178,9.1117-12.8485,2.6854"/><path class="j" d="M159.1833,115.4286c-1.6226,0-2.7889-.4356-3.214-1.2322-.291-.5455-.3583-1.5243,.9733-3.089l.1729,.1471c-.9886,1.1616-1.3157,2.1418-.9458,2.835,.4725,.8858,2.0853,1.2844,4.2074,1.04,3.9018-.4488,8.3803-2.8817,9.3906-6.6633l.2194,.0585c-1.0365,3.8797-5.606,6.3726-9.5841,6.8303-.4293,.0493-.8372,.0736-1.2197,.0736Z"/></g><g class="h"><path class="g" d="M158.383,94.6111c-2.1138,7.9117-18.3178,9.1117-12.8485,2.6854"/><path class="j" d="M147.6888,101.5441c-1.6224,0-2.7889-.4356-3.214-1.2322-.291-.5455-.3583-1.5243,.9733-3.089l.1729,.1471c-.9886,1.1614-1.3157,2.1418-.9458,2.835,.4722,.8855,2.0835,1.2841,4.2074,1.04,3.9018-.4486,8.3805-2.8816,9.3908-6.6633l.2194,.0585c-1.0367,3.8798-5.6062,6.3728-9.5843,6.8303-.4295,.0493-.8372,.0736-1.2197,.0736Z"/></g><g class="h"><path class="g" d="M136.2258,115.3754c-2.1138,7.9117-16.148,6.941-10.6786,.5147"/><path class="j" d="M128.1743,121.1257c-1.7959,0-3.2202-.5888-3.7602-1.6008-.3708-.6951-.4902-1.9026,1.0466-3.7084l.1729,.1471c-1.151,1.3522-1.5034,2.5468-1.0192,3.4544,.585,1.0966,2.4151,1.6684,4.5498,1.4224,2.6101-.3002,5.9967-1.9192,6.9518-5.4943l.2194,.0585c-.9846,3.6852-4.4645,5.3529-7.1453,5.6613-.3488,.0401-.6885,.0597-1.0159,.0597Z"/></g><g class="h"><path class="g" d="M120.3684,108.3686c-2.1138,7.9117-14.1344,6.1541-8.665-.2722"/><path class="j" d="M113.7401,113.75c-1.5255,0-2.7801-.5743-3.3006-1.55-.5908-1.1074-.1726-2.5908,1.1774-4.1772l.1729,.1471c-1.2855,1.5105-1.694,2.9037-1.1501,3.9232,.5578,1.0455,2.0516,1.5906,3.8085,1.3886,2.2127-.2545,4.9013-1.7391,5.8105-5.1424l.2194,.0585c-.9387,3.5135-3.717,5.0463-6.004,5.3094-.25,.0287-.4955,.0428-.734,.0428Z"/></g><g class="h"><path class="g" d="M144.7192,105.9691c-1.2282,4.5971-9.0747,4.1776-5.8967,.4436"/><path class="j" d="M140.1149,109.4285c-.9609,0-1.7268-.3212-2.0208-.8725-.2187-.4101-.285-1.1276,.642-2.2168l.1729,.1471c-.6684,.7852-.8809,1.4639-.6145,1.9629,.3023,.5668,1.2149,.8502,2.3258,.7227,1.4879-.1712,3.4254-1.1202,3.9894-3.2319l.2194,.0585c-.5937,2.2218-2.6243,3.2195-4.1828,3.3988-.1822,.0209-.3597,.0312-.5312,.0312Z"/></g><g><path class="b" d="M112.7837,110.9012c-1.1241-.2524-1.6927-1.5092-1.2059-2.5534,1.6833-3.6107,6.1798-4.0628,8.2495-2.1671,.7172,.643,.737,1.4942,.021,1.9197-.2196,.1305-.4731,.1966-.7283,.2053-.3586,.0123-1.2508,.1839-1.8039,1.5136-.2182,.5244-2.7379,1.4847-4.5324,1.0819Z"/><path class="j" d="M113.7237,111.1107c-.3335,0-.6597-.0302-.9649-.0987h0c-.5522-.124-1.0141-.4905-1.2674-1.0055-.2648-.5389-.2708-1.161-.0164-1.7066,.7849-1.6837,2.2777-2.8568,4.0955-3.2187,1.6328-.3255,3.294,.0638,4.3335,1.016,.4095,.3672,.6212,.8216,.5797,1.246-.0343,.3504-.2393,.654-.5773,.8549-.2271,.135-.4977,.2114-.7825,.2212-.3364,.0116-1.1754,.1754-1.7031,1.4439-.2074,.4984-2.0372,1.2478-3.6973,1.2478Zm-.9152-.3201c1.748,.3916,4.2121-.5562,4.4029-1.0147,.5782-1.3901,1.5247-1.5705,1.9047-1.5835,.2469-.0085,.4802-.074,.6744-.1895,.2786-.1654,.4401-.4012,.4676-.6819,.0343-.3517-.1502-.7365-.5064-1.0558-.9879-.9047-2.5726-1.2734-4.1367-.9616-1.7463,.3477-3.1801,1.4747-3.9342,3.0922-.2252,.483-.2198,1.0336,.0144,1.5106,.2227,.4531,.6285,.7753,1.1134,.8842h0Z"/></g><g class="i"><path class="b" d="M111.5519,109.8648c.0146-.039,.0313-.0784,.0485-.1156,1.6824-3.6106,6.1801-4.0635,8.2486-2.1668,.1069,.0958,.1981,.194,.2717,.2973,.4222-.4567,.3151-1.1543-.2941-1.6996-2.0682-1.8945-6.5663-1.4439-8.2486,2.1668-.2335,.5029-.2231,1.0526-.0261,1.5178Z"/></g><g><path class="b" d="M158.8805,112.7479c-1.6844-.3782-2.5364-2.2614-1.807-3.8261,2.5223-5.4104,9.26-6.0878,12.3614-3.2473,1.0747,.9635,1.1044,2.239,.0315,2.8765-.3291,.1955-.7088,.2946-1.0914,.3077-.5373,.0184-1.8742,.2756-2.7031,2.2681-.3269,.7858-4.1026,2.2248-6.7915,1.6211Z"/><path class="j" d="M160.3009,113.0064c-.4993,0-.9879-.0452-1.4451-.1478-.8109-.182-1.489-.7202-1.8606-1.4766-.3894-.792-.3982-1.7063-.0244-2.5083,1.1685-2.5064,3.3906-4.253,6.0966-4.7916,2.4312-.4837,4.9,.0944,6.4441,1.5087,.6006,.5384,.911,1.202,.8507,1.8197-.0494,.5067-.347,.9464-.8377,1.2379-.3322,.1975-.7284,.3094-1.1457,.3235-.5146,.0176-1.7986,.2671-2.6021,2.1982-.3058,.7348-3.013,1.836-5.4759,1.8361Zm4.4661-8.8657c-.5456,0-1.1012,.0537-1.6552,.164-2.6342,.5244-4.7976,2.2248-5.9353,4.6651-.3448,.7393-.3366,1.5821,.0222,2.3122,.3415,.6944,.9635,1.1884,1.7068,1.3552,2.6416,.5928,6.3714-.856,6.6617-1.554,.8541-2.0527,2.2455-2.3188,2.804-2.3378,.3792-.013,.738-.1139,1.0373-.2919,.4335-.2575,.685-.6257,.728-1.0649,.0532-.545-.2302-1.1391-.7774-1.6295-1.1426-1.0465-2.8129-1.6184-4.5921-1.6184Z"/></g><g class="i"><path class="b" d="M157.0864,111.3059c.0384-.2679,.1156-.5373,.2356-.7973,2.5233-5.4102,9.2598-6.0879,12.3632-3.2463,.1872,.1682,.3437,.3458,.4665,.5286,.2662-.6459,.0221-1.4552-.7155-2.1159-3.1034-2.8415-9.8398-2.1638-12.3632,3.2464-.3695,.793-.3338,1.6649,.0134,2.3845Z"/></g><path class="j" d="M160.2417,113.5639c-.5325,0-1.0447-.0472-1.5102-.1517h0c-.9793-.2198-1.7977-.8686-2.2455-1.7798-.4654-.947-.4762-2.0399-.0293-2.9982,1.2457-2.672,3.6149-4.534,6.5-5.1084,2.6034-.5188,5.2627,.1125,6.9381,1.6468,.732,.6562,1.1103,1.4939,1.0322,2.2933-.0676,.691-.4627,1.2842-1.1127,1.6705-.414,.246-.9035,.3853-1.4158,.4028-.4051,.014-1.4207,.2218-2.098,1.8492-.4459,1.072-3.4852,2.1755-6.0587,2.1756Zm4.5303-8.8566c-.5099,0-1.0303,.0504-1.5495,.1539-2.4552,.4888-4.4714,2.0736-5.532,4.3483-.2717,.5829-.2655,1.2471,.0173,1.8224,.269,.5474,.7384,.9209,1.3219,1.0519,2.3623,.5306,5.604-.7044,6.0246-1.2443,.9817-2.333,2.6318-2.6382,3.2975-2.6609,.2841-.0098,.5491-.0832,.767-.2126,.2755-.1638,.4279-.3765,.453-.6322,.0355-.3634-.1802-.7834-.5912-1.152-1.0422-.9545-2.5713-1.4742-4.2085-1.4742Z"/><path class="j" d="M113.7339,111.6779c-.3823,0-.7548-.035-1.0994-.1124h0c-.7207-.1619-1.3228-.6389-1.6521-1.3089-.3411-.6939-.3488-1.4944-.0215-2.1965,.862-1.8493,2.5019-3.138,4.4988-3.5355,1.8081-.3599,3.6574,.0824,4.8275,1.154,.5409,.4851,.8204,1.1136,.7612,1.7196-.0523,.5346-.355,.9919-.8523,1.2874-.3087,.1835-.6728,.2874-1.0529,.3004-.2267,.0079-.7973,.1301-1.1987,1.0948-.3326,.7991-2.3852,1.597-4.2108,1.597Zm-.8011-1.4409c1.4482,.3252,3.4263-.4123,3.7802-.7388,.708-1.6393,1.8998-1.8563,2.3838-1.8728,.1518-.0052,.2914-.0433,.4038-.1102,.1788-.1061,.1893-.2139,.1928-.2493,.0126-.1293-.0649-.3491-.3204-.5783-.8618-.789-2.2577-1.1048-3.6472-.8275-1.567,.3119-2.8539,1.3235-3.5309,2.7754-.1522,.3265-.1487,.6986,.0095,1.0206,.1487,.3026,.4073,.5089,.7284,.5809h0Zm3.8017-.7603h0Z"/><g><path class="b" d="M125.5472,115.8901c-.2897-6.0212,6.2492-6.3912,9.8957-2.6858,1.1269,1.1451,.778,3.0281-.6852,3.6918-2.0596,.9342-4.9288,1.3143-7.0239,1.2076-1.186-.0604-2.1295-1.0274-2.1866-2.2136Z"/><path class="j" d="M128.4192,118.2339c-.2411,0-.4722-.0058-.6912-.0168-1.2472-.0635-2.2334-1.0616-2.2941-2.3216h0c-.1121-2.328,.784-4.0295,2.523-4.7909,2.2591-.9891,5.4411-.1397,7.5668,2.0202,.5638,.573,.804,1.3485,.6593,2.1278-.1449,.7785-.6473,1.4153-1.3786,1.7469-1.9198,.8708-4.4634,1.2345-6.3852,1.2345Zm-2.7588-2.3493c.0552,1.1429,.9489,2.0482,2.0791,2.1057,1.938,.0989,4.8452-.2334,6.9713-1.1977,.6626-.3005,1.118-.877,1.249-1.5816,.1312-.7054-.0869-1.4078-.5979-1.9272-2.0618-2.0951-5.1371-2.9241-7.3141-1.9714-1.6465,.7211-2.4944,2.3448-2.3874,4.5722h0Z"/></g><g class="i"><path class="b" d="M125.6525,114.2683c1.7534-2.8064,6.3503-2.3927,9.1921,.4945,.4478,.4535,.6617,1.0263,.6653,1.5908,.7909-.8591,.8298-2.2365-.0669-3.1502-3.287-3.3387-8.9214-3.3668-9.7905,1.0649Z"/></g><path class="j" d="M128.4305,118.8014c-.2586,0-.5035-.0062-.7313-.0178-1.5397-.0783-2.7572-1.3083-2.8319-2.8607h0c-.1675-3.4808,1.7212-4.8385,2.8621-5.338,2.4671-1.08,5.9149-.1791,8.1988,2.1419,.6956,.7069,.9917,1.6653,.8124,2.6294-.1791,.9633-.7993,1.7506-1.7017,2.1598-2.1112,.9576-4.7262,1.2854-6.6083,1.2854Zm-2.2034-2.9442c.0403,.8365,.7173,1.5245,1.5413,1.5665,1.8695,.0943,4.6686-.2227,6.708-1.1477,.4915-.2229,.829-.649,.9257-1.1688,.0968-.5206-.0652-1.0401-.4445-1.4256-1.9029-1.9337-4.7129-2.7123-6.6821-1.8495-1.4365,.6289-2.1447,2.0208-2.0483,4.0252h0Z"/><g><path class="b" d="M145.5119,96.3683c-.1479-6.0434,7.82-6.6376,12.1304-3.0364,1.3321,1.113,.8436,3.0178-.959,3.7347-2.5375,1.0092-6.0411,1.4888-8.5863,1.4527-1.4408-.0204-2.5559-.9606-2.585-2.1511Z"/><path class="j" d="M148.3543,98.6346c-.088,0-.174-.0006-.2588-.0018-1.5067-.0215-2.6659-.9938-2.697-2.2618-.0525-2.1466,.9288-3.8163,2.7634-4.7017,2.771-1.3372,6.8778-.6597,9.553,1.5755,.6074,.5075,.8891,1.2147,.773,1.9405-.1376,.8598-.7967,1.6026-1.7629,1.9868-2.5604,1.0183-5.9929,1.4625-8.3708,1.4625Zm3.0469-7.4241c-1.1286,0-2.2119,.2148-3.1406,.663-1.2377,.5973-2.6996,1.8615-2.6351,4.4919h0c.0279,1.1436,1.0912,2.0208,2.4731,2.0404,2.3599,.0341,5.9165-.4002,8.5427-1.4448,.8911-.3543,1.4976-1.0316,1.6226-1.8117,.1033-.6448-.1498-1.2755-.6943-1.7304-1.7119-1.4301-4.0215-2.2084-6.1684-2.2084Z"/></g><g class="i"><path class="b" d="M145.7501,94.5359c2.3836-2.5377,7.6676-2.1951,10.8955,.5029,.5471,.4563,.7866,1.0458,.7567,1.6316,1.1884-.8732,1.373-2.3907,.2389-3.3383-3.8252-3.1969-10.5361-3.0883-11.8911,1.2038Z"/></g><path class="j" d="M148.3514,99.202c-.0897,0-.1775-.0007-.2642-.0019-1.8176-.0258-3.2173-1.2361-3.2559-2.8152h0c-.0583-2.3824,1.0369-4.2386,3.0839-5.2265,2.9587-1.4284,7.3279-.718,10.1636,1.6511,.7645,.6389,1.1178,1.5375,.9693,2.4655-.1697,1.0593-.9598,1.9655-2.1135,2.4243-2.6305,1.0463-6.1489,1.5027-8.5833,1.5027Zm3.0214-7.4132c-1.0391,0-2.0301,.1926-2.8658,.5958-1.0872,.5249-2.3714,1.6391-2.3145,3.9671h0c.0199,.8188,.8607,1.472,1.9142,1.4871,2.3098,.0297,5.7711-.389,8.3249-1.4047,.7034-.2798,1.179-.7936,1.272-1.3744,.0718-.449-.105-.877-.498-1.2053-1.5942-1.332-3.805-2.0656-5.8329-2.0656Z"/><g><path class="b" d="M104.5825,116.8637c1.5285,.6175,2.7677,1.3216,3.5584,2.16,1.1613,1.2315,.9104,3.2245-.4666,4.2089-2.0097,1.4368-4.023,1.9631-6.044,.5541-1.4423-1.0055-2.2297-2.7501-2.0243-4.4962,.1531-1.3013,.7952-2.2846,2.2381-2.6488,.9081-.2293,1.8699-.1288,2.7384,.222Z"/><path class="j" d="M104.0918,124.7215c-.8833,0-1.7219-.2808-2.5263-.8416-1.4673-1.0229-2.2808-2.8296-2.072-4.6027,.1737-1.4766,.9551-2.4002,2.3229-2.7455,.8917-.2253,1.8894-.1445,2.8086,.2268h0c1.6694,.6744,2.8463,1.3899,3.5982,2.1873,.56,.5937,.835,1.408,.7546,2.234-.0835,.8608-.5347,1.6427-1.2375,2.1452-1.3031,.9315-2.5126,1.3965-3.6485,1.3965Zm-1.2465-8.088c-.3326,0-.6599,.0392-.9735,.1183-1.2849,.3243-1.9891,1.1591-2.1531,2.552-.1988,1.6911,.5771,3.4142,1.9767,4.3899,1.7744,1.2375,3.6536,1.0615,5.9129-.5533,.6495-.4644,1.0664-1.1869,1.1437-1.9825,.0751-.7721-.1713-1.5024-.6936-2.0563-.7293-.7732-1.8801-1.4708-3.5185-2.1327-.5507-.2224-1.1302-.3354-1.6946-.3354Z"/></g><g class="i"><path class="b" d="M99.6741,118.8855c.3451-.3481,.8076-.6067,1.4085-.7584,.908-.2297,1.8681-.1277,2.7385,.2228,1.5278,.6171,2.7661,1.321,3.5568,2.1594,.6279,.6641,.8429,1.5515,.6928,2.3813,1.0178-1.0532,1.1098-2.7651,.0709-3.8678-.7908-.8384-2.0313-1.5419-3.5591-2.1591-.8681-.3508-1.8301-.4502-2.7385-.2228-1.288,.3261-1.9379,1.147-2.17,2.2446Z"/></g><g><path class="b" d="M141.7185,102.7908c.9392,.3794,1.7008,.8121,2.1867,1.3273,.7136,.7567,.5594,1.9815-.2867,2.5864-1.2349,.883-2.4721,1.2063-3.7141,.3405-.8863-.6179-1.3702-1.6899-1.244-2.763,.0941-.7996,.4886-1.4039,1.3753-1.6277,.558-.1409,1.1491-.0792,1.6827,.1364Z"/><path class="j" d="M141.4171,107.6641c-.5511,0-1.0748-.1755-1.5776-.526-.9146-.6376-1.4218-1.7638-1.292-2.8693,.1093-.9273,.6008-1.5075,1.4606-1.7245,.5571-.1405,1.1796-.0903,1.7529,.1413h0c1.032,.417,1.7602,.8601,2.2267,1.3548,.3526,.3739,.5259,.8868,.4753,1.407-.0527,.5415-.3366,1.0334-.7787,1.3495-.8091,.5785-1.5606,.8673-2.2673,.8673Zm-.7661-4.9711c-.2008,0-.3984,.0236-.5875,.0714-.7699,.1944-1.192,.6952-1.2906,1.5311-.1201,1.0234,.3495,2.0662,1.1965,2.6565,1.0732,.7486,2.2121,.6404,3.5829-.3397,.3889-.278,.6387-.7106,.685-1.1869,.0448-.4616-.1024-.8982-.4146-1.2293-.4434-.4704-1.1457-.8956-2.1467-1.3002h0c-.3331-.1345-.6837-.2029-1.0249-.2029Z"/></g><g class="i"><path class="b" d="M138.6659,104.9753c.2104-.4304,.5816-.7436,1.1692-.8932,.5591-.1405,1.1498-.0793,1.6846,.1377,.9369,.3791,1.6983,.8109,2.1859,1.327,.1821,.1943,.3094,.4201,.3814,.6591,.4027-.6397,.3684-1.5026-.1827-2.0869-.4853-.5165-1.2467-.9483-2.1863-1.3293-.5322-.2151-1.1252-.276-1.682-.1358-.886,.224-1.2827,.8283-1.3754,1.6284-.0276,.234-.0257,.4657,.0053,.6929Z"/></g><path class="j" d="M104.092,125.3001c-.9919,0-1.9384-.3186-2.851-.9548-1.6618-1.1585-2.5474-3.1259-2.3111-5.1343,.2012-1.7097,1.1512-2.8264,2.7475-3.2293,1.0221-.2577,2.1152-.1713,3.1601,.2507h0c1.7467,.7057,2.9893,1.466,3.7986,2.3242,.6724,.7128,1.0025,1.6889,.9064,2.6781-.0995,1.0238-.6362,1.9539-1.4721,2.5517-1.4123,1.0096-2.7311,1.5136-3.9783,1.5136Zm-1.2461-8.0995c-.2861,0-.5669,.0336-.8352,.1013-1.0442,.2636-1.5936,.9208-1.7285,2.0683-.1748,1.4861,.5073,3.0006,1.7376,3.8583,1.5719,1.0958,3.1942,.9268,5.2585-.5495,.5161-.3691,.8476-.9435,.909-1.5758,.0589-.6066-.1334-1.1792-.5418-1.6122-.6717-.7125-1.7571-1.3653-3.3181-1.9959-.4831-.1952-.9899-.2944-1.4814-.2944Z"/><path class="j" d="M141.4122,108.2319c-.6626,0-1.2962-.2093-1.8972-.6284-1.1005-.7671-1.6873-2.0703-1.5309-3.4008,.1376-1.1683,.7894-1.932,1.885-2.2084,.6821-.1725,1.4099-.1153,2.1042,.1652h.0002c1.1094,.4483,1.9032,.9363,2.4268,1.4916,.4652,.4931,.6939,1.1678,.6274,1.8511-.0685,.7046-.4379,1.3447-1.0136,1.7561-.9073,.6489-1.7771,.9735-2.6019,.9735Zm-.7606-4.9718c-.1542,0-.3052,.0179-.4492,.0543-.5365,.1354-.7956,.4486-.866,1.0474-.0962,.8183,.2797,1.6524,.9573,2.1248,.8725,.6083,1.7487,.5079,2.9285-.3358,.2557-.1827,.4197-.4671,.4503-.7803,.0288-.2962-.0645-.5751-.2628-.7852-.3807-.404-1.0356-.7953-1.9462-1.1633h0c-.2659-.1074-.5436-.1619-.812-.1619Z"/><polygon class="f" points="151.812 112.0602 149.9435 110.3888 146.6473 110.2359 143.6633 109.2684 146.3735 111.4848 148.854 111.4909 151.812 112.0602"/></g><g><path class="f" d="M185.2789,48.881c-1.0811,11.3473-21.821,16.4659-46.5753,14.1075-24.7565-2.3586-44.1546-11.3012-43.0735-22.6485,.5699-5.9818,6.659-10.834,15.9165-13.7401,8.3042-2.608,19.1572-3.6501,30.8653-2.5347,10.7018,1.0196,20.3636,3.6747,27.7978,7.2778,9.7626,4.7295,15.6829,11.0967,15.0692,17.538Z"/><g><path class="d" d="M178.7558,37.5895c-1.9216-2.2388-4.8739-4.3655-8.6156-6.2531l.0695,.0066c2.1207,1.0275,4.0621,2.1329,5.7941,3.2998,1.0554,.9577,1.9771,1.9411,2.7521,2.9467Z"/><path class="j" d="M178.6702,37.6628c-1.9053-2.2201-4.7923-4.3148-8.5807-6.226l-.538-.2714,.7071,.0762c2.1221,1.0282,4.0762,2.1411,5.808,3.3079,1.0804,.9788,2.0108,1.9751,2.7784,2.9713l-.1748,.142Zm-3.361-3.3445c.3705,.271,.7253,.5448,1.0639,.821-.1456-.1382-.294-.2759-.445-.4131-.2031-.1366-.4094-.2725-.6189-.4078Z"/></g><path class="f" d="M185.2789,48.881c-1.0811,11.3473-21.821,16.4659-46.5753,14.1075-24.7565-2.3586-44.1546-11.3012-43.0735-22.6485,.5699-5.9818,6.659-10.834,15.9165-13.7401l.1395,.0314c-6.6039,2.2566-10.8061,5.6534-11.199,9.7772-.3664,3.8459,2.6916,7.1655,8.0698,9.8694,4.8953,2.0992,10.0368,3.7266,15.3956,4.9496l-.436-1.9421c-.1177-.5244,.1158-1.065,.5784-1.3388l1.6521-.9777c.3097-.1833,.6605-.2858,1.0201-.2981l2.5807-.0882c.2639-.009,.331,.362,.0806,.4459l-1.1954,.401c-.3791,.1272-.7127,.3624-.9599,.6767l-.72,.9158c-.3742,.4759-.3851,1.1429-.0267,1.6308l.9671,1.3168c6.0832,1.1676,12.428,1.8444,18.988,2.1143,19.1085,.9905,34.0078-1.9774,34.7703-9.9808,.4335-4.5497-3.8569-9.1061-11.1114-12.7667l.0695,.0066c9.7626,4.7295,15.6829,11.0967,15.0692,17.538Z"/><g class="h"><path class="j" d="M184.6035,48.4307c-1.0811,11.3473-21.821,16.4659-46.5753,14.1075-17.1476-1.6337-31.7236-6.426-38.7041-12.987,7.7794,5.0833,20.4733,8.742,35.0188,10.1278,24.7543,2.3584,45.4942-2.7602,46.5753-14.1075,.1362-1.4299-.049-2.8565-.528-4.2613l-.0018-.0047c-.3547-1.4043-1.1357-2.7972-2.2917-4.1467l-.0162-.0196c-1.9216-2.2388-4.8739-4.3655-8.6156-6.2531l.0695,.0066c2.1207,1.0275,4.0621,2.1329,5.7941,3.2998,6.2329,4.201,9.7553,9.1977,9.2751,14.2382Z"/></g><path class="f" d="M126.2406,32.6145l-3.0854-.294-2.0289-2.4424-6.6804,.4881-5.8447-2.7349-4.5351,1.6985,9.6013,2.0868,6.7217,.1519,2.9215,2.287,2.9666-.6768c.3171-.0723,.2873-.5334-.0365-.5643Z"/><path class="f" d="M155.4014,26.1998l-3.1931,2.6442-3.2519,.2687c-.6907,.0571-1.2685,.5475-1.437,1.2197l-.7052,2.8124c-.0619,.2467,.2717,.3873,.4052,.1708l1.9198-3.1151,5.259,.0972,4.9768-3.0509"/><g class="i"><path class="b" d="M184.285,43.4558c-2.4716-3.7771-7.019-7.2973-13.0135-10.2024-7.4342-3.6031-17.096-6.2582-27.7978-7.2778-11.7081-1.1155-22.5611-.0733-30.8653,2.5347-9.2575,2.9061-15.3466,7.7583-15.9165,13.7401-.1601,1.6809,.1282,3.3073,.8183,4.8702-1.4346-2.1291-2.1067-4.4027-1.8802-6.7806,.5699-5.9818,6.659-10.834,15.9165-13.7401,8.3042-2.608,19.1572-3.6501,30.8653-2.5347,10.7018,1.0196,20.3636,3.6747,27.7978,7.2778,6.9955,3.3894,12.0182,7.6176,14.0753,12.1128Z"/></g><polyline class="f" points="152.5671 43.2767 160.0556 45.3844 161.3765 48.1365 165.9609 49.0759 172.6646 53.1823 166.1228 54.498 164.7082 50.356 159.0509 50.3908 159.1423 46.2671 152.3488 45.5674"/><path class="j" d="M150.1753,64.3369c-3.7137,0-7.5847-.1866-11.5473-.5641-12.4087-1.1823-23.598-4.0359-31.5064-8.035-8.5822-4.3402-12.8275-9.6904-12.2768-15.4727,.5538-5.8122,5.8945-10.765,15.0384-13.9458,8.9408-3.1103,20.5193-4.1887,32.6026-3.0379,12.0835,1.1513,23.2498,4.3971,31.4424,9.1396,8.3787,4.8503,12.6881,10.7225,12.1343,16.5347-.551,5.7821-5.73,10.2346-14.9775,12.876-5.8001,1.6566-12.9944,2.5052-20.9098,2.5052Zm-17.0251-39.9294c-8.4446,0-16.3073,1.1593-22.7492,3.4003-8.5279,2.9666-13.4955,7.4438-13.9873,12.6069-.6117,6.4202,5.8722,11.1117,11.4191,13.9167,7.7371,3.9127,18.7268,6.7086,30.9447,7.8725,12.2176,1.1643,23.538,.4938,31.8747-1.8876,5.9769-1.7072,13.2299-5.0899,13.8415-11.5101l.7845,.0748-.7845-.0748c.4921-5.163-3.5406-10.4977-11.3549-15.0213-8.0007-4.6314-18.9399-7.8044-30.8024-8.9346-3.1104-.2964-6.1851-.4428-9.1862-.4428Z"/><path class="j" d="M108.4563,46.4795c-1.1783-.3839-2.3094-.909-3.3844-1.5527-1.0706-.6482-2.0913-1.4201-2.9659-2.3726-.8678-.9506-1.6049-2.0843-1.9901-3.3753l-.1399-.4834c-.0342-.1646-.061-.3312-.091-.4967-.0312-.1655-.0596-.3313-.0643-.5002l-.0342-.5039c-.0066-.1679,.0087-.3357,.0128-.5035,.0098-.1675,.0054-.3367,.0381-.5013,.0561-.3299,.0838-.6667,.1875-.9854,.3357-1.2983,1.0154-2.4701,1.8514-3.455,.8384-.9895,1.8265-1.8114,2.8673-2.5226,1.0431-.7109,2.144-1.3132,3.2693-1.8486,1.1296-.5265,2.2873-.975,3.4558-1.3849,.352-.1235,.7374,.0618,.8609,.4137s-.0618,.7374-.4138,.8609l-.0106,.0037c-1.1278,.396-2.2415,.8276-3.3186,1.3296-1.0717,.51-2.1111,1.0801-3.0795,1.7399-.9664,.6595-1.8644,1.412-2.6004,2.2818-.7354,.8672-1.2989,1.8572-1.5738,2.9187-.0889,.2612-.105,.5362-.154,.8051-.0292,.1344-.0222,.2716-.0305,.4075-.0026,.136-.0175,.2726-.0118,.4083,.0275,.2701,.0211,.5443,.0887,.8092l.0781,.3999,.1213,.391c.3266,1.0467,.9957,1.9754,1.7485,2.8259,.762,.8506,1.6409,1.6264,2.5741,2.3551,.9324,.7325,1.9199,1.4155,2.9111,2.1337l.0019,.0014c.1019,.0738,.1246,.2162,.0508,.318-.0594,.082-.1636,.1125-.2549,.0829Z"/><path class="j" d="M130.3205,52.6453c-1.0204,.0519-2.0256-.0185-3.0249-.1277-.9985-.1148-1.9885-.2867-2.9696-.5018-.9812-.2139-1.9557-.4628-2.9167-.7615-.9596-.3039-1.912-.6351-2.833-1.0633-.1143-.0532-.1639-.189-.1108-.3034,.0419-.09,.1358-.1398,.2293-.131,1.0054,.0964,1.9887,.2553,2.9719,.4116,.9817,.1615,1.9571,.3428,2.931,.5328,.9742,.1888,1.9448,.3944,2.9111,.6336,.9655,.2448,1.9294,.5047,2.8815,.8659,.1188,.045,.1787,.1777,.1338,.2965-.0332,.088-.1151,.1437-.2034,.1484Z"/><path class="j" d="M170.4437,30.7343c2.1322,1.0809,4.2036,2.3152,6.0995,3.8244,.9452,.7564,1.8459,1.5824,2.6535,2.5108,.809,.924,1.5215,1.962,2.0345,3.121,.5118,1.1549,.7946,2.4558,.7062,3.755-.0058,.0809-.0086,.1621-.0174,.2428l-.0362,.2413-.0744,.4823c-.0281,.1601-.0808,.3156-.1208,.4735-.0476,.1558-.0771,.3178-.1409,.4679l-.1822,.4535c-.0317,.0749-.0591,.1521-.0945,.225l-.1149,.2144-.2318,.4278c-.0817,.1394-.1789,.2678-.2681,.4019-.7329,1.0622-1.6922,1.9143-2.7171,2.6061-1.0288,.6929-2.1298,1.2366-3.2517,1.6965-1.1238,.4562-2.2701,.8401-3.4308,1.1461-1.1595,.3109-2.3266,.584-3.5019,.7969-1.1739,.224-2.3529,.403-3.5341,.5594-1.182,.1457-2.3668,.2645-3.5524,.3489-.5927,.0475-1.1866,.069-1.7799,.0953-.5933,.0307-1.1867,.0397-1.7799,.0578-1.1867,.0225-2.373,.0143-3.5578-.0194-2.3695-.0673-4.7334-.2479-7.0818-.554-.1237-.0161-.2108-.1294-.1947-.2531,.0145-.1118,.1087-.1938,.218-.1966,4.7181-.1249,9.4087-.1943,14.0706-.5644,2.3295-.1752,4.6546-.414,6.9436-.8249,2.2867-.4074,4.5493-.9755,6.6688-1.8419,1.0574-.433,2.0803-.9408,3.0079-1.566,.9255-.6237,1.7539-1.3718,2.361-2.2532,.0735-.1112,.1564-.2176,.2233-.3323l.1883-.3501,.0952-.1745c.029-.0593,.0498-.122,.0753-.1828l.1481-.3665c.0535-.1208,.0734-.2526,.1126-.378,.0317-.1276,.0769-.252,.0989-.382l.0593-.3915,.0308-.1956c.0074-.0656,.0089-.132,.0139-.198,.0712-1.0576-.1545-2.128-.5952-3.1249-.4416-.9981-1.0739-1.9302-1.8168-2.7774-.7399-.8511-1.5828-1.626-2.4774-2.3419-1.7953-1.4297-3.7942-2.6246-5.8647-3.6736l-.0023-.0012c-.3328-.1686-.4659-.575-.2973-.9077,.1685-.3328,.575-.4658,.9077-.2973h.0002Z"/><g class="h"><path class="j" d="M110.4138,39.9957c2.5687,7.7079,18.6877,7.9224,12.8852,1.8872"/></g><g class="h"><path class="j" d="M120.9623,25.5553c2.5687,7.7079,18.6877,7.9224,12.8852,1.8872"/></g><g class="h"><path class="j" d="M144.1524,44.7865c2.5687,7.7079,16.4084,5.9031,10.6059-.1321"/></g><g class="h"><path class="j" d="M159.4349,36.8947c2.5687,7.7079,14.3671,5.2449,8.5646-.7903"/></g><g class="h"><path class="j" d="M135.1761,35.982c1.4926,4.4787,9.2377,3.5917,5.8662,.0849"/></g><g><path class="b" d="M167.0981,38.9469c1.098-.3175,1.5856-1.5963,1.0407-2.6011-1.884-3.4745-6.364-3.652-8.2997-1.6503-.6716,.6799-.6401,1.524,.0945,1.9023,.2253,.116,.4803,.1663,.7336,.1596,.3559-.0094,1.2497,.107,1.8774,1.3905,.2476,.5062,2.8006,1.3058,4.5534,.799Z"/><path class="j" d="M165.826,39.2213c-1.5465,0-3.1638-.577-3.3826-1.0239-.5991-1.2246-1.4407-1.3355-1.7732-1.3274-.283,.0058-.5554-.0521-.7882-.1721-.3469-.1785-.5681-.4669-.6231-.8118-.0666-.4177,.1156-.8804,.5002-1.2696,.9711-1.0042,2.5908-1.49,4.2295-1.2657,1.822,.2491,3.3707,1.3213,4.2492,2.9415,.2847,.5249,.3162,1.1413,.0862,1.6908-.2199,.5254-.6552,.916-1.1947,1.072h0c-.4037,.1166-.8504,.1662-1.3033,.1662Zm-5.1221-2.5769c.4006,0,1.3075,.1569,1.9418,1.454,.2168,.4426,2.7137,1.2343,4.4212,.7403h0c.4736-.1369,.8561-.4805,1.0494-.9425,.2036-.4864,.1757-1.0319-.0763-1.4967-.844-1.5565-2.3318-2.5864-4.0819-2.8258-1.568-.2145-3.1148,.2457-4.038,1.2001-.3344,.3384-.494,.7306-.4388,1.0768,.044,.2763,.2183,.5001,.5039,.6472,.1994,.1027,.4336,.1568,.6789,.1471l.0398-.0004Z"/></g><g class="i"><path class="b" d="M168.2557,37.8465c-.0168-.0378-.0357-.0758-.055-.1115-1.8831-3.4745-6.3643-3.6527-8.2988-1.65-.1001,.1013-.1845,.2041-.2512,.3108-.4456-.4269-.3814-1.1242,.1891-1.7008,1.9342-2.0004,6.4158-1.8245,8.2988,1.65,.2615,.484,.2842,1.0289,.117,1.5015Z"/></g><g><path class="b" d="M121.5596,43.546c1.6453-.4757,2.3759-2.3919,1.5595-3.8976-2.823-5.2063-9.536-5.4722-12.4366-2.4729-1.0063,1.0187-.9591,2.2837,.1416,2.8505,.3376,.1739,.7197,.2491,1.0993,.2391,.5332-.0141,1.8725,.1603,2.8132,2.0836,.371,.7586,4.1965,1.9566,6.823,1.1972Z"/><path class="j" d="M119.6384,43.9031c-2.2918,0-4.681-.8465-5.0029-1.5048-.9113-1.8636-2.2006-2.0354-2.7089-2.0205-.4164,.0089-.813-.0761-1.1538-.2516-.5037-.2593-.8247-.6768-.9043-1.1756-.0967-.6081,.1708-1.2839,.7341-1.8541,1.4436-1.4926,3.8526-2.2141,6.2898-1.8805,2.7122,.3708,5.0179,1.9668,6.3256,4.3788,.4186,.7716,.4648,1.6775,.1269,2.4853-.3228,.7713-.9621,1.345-1.754,1.574h0c-.6048,.1749-1.2743,.249-1.9524,.249Zm-7.6602-3.7513c.5883,0,1.9227,.2316,2.8595,2.1475,.3296,.674,4.1098,1.885,6.6906,1.1384h0c.7262-.2099,1.3126-.7364,1.6087-1.4445,.3115-.7447,.2689-1.5797-.117-2.2912-1.2732-2.3482-3.518-3.9021-6.1583-4.2631-2.3657-.3243-4.7028,.3717-6.0983,1.8148-.5132,.5194-.7581,1.1247-.6728,1.6613,.069,.4324,.3403,.7819,.7849,1.0109,.3074,.1582,.6677,.2366,1.045,.2266l.0576-.0008Z"/></g><g class="i"><path class="b" d="M123.2497,42.0102c-.0541-.263-.1467-.5251-.2812-.7754-2.824-5.206-9.5358-5.4723-12.4383-2.4718-.1753,.1778-.3196,.3631-.4302,.5515-.3024-.6236-.1093-1.4397,.5814-2.1383,2.9025-3.0005,9.6143-2.7342,12.4383,2.4718,.4136,.7631,.4306,1.6286,.13,2.3622Z"/></g><path class="j" d="M119.6784,44.4531c-2.4143,0-5.0805-.8503-5.5486-1.8076-.7678-1.5704-1.7782-1.7178-2.1885-1.7051-.5059,.0146-1.0017-.0951-1.4262-.3138-.6671-.3434-1.094-.9073-1.2024-1.5875-.1253-.787,.199-1.6392,.8896-2.3381,1.5612-1.615,4.1569-2.3994,6.7664-2.0426,2.8916,.3953,5.3499,2.0969,6.7442,4.6682,.5,.9222,.5551,2.005,.151,2.9709-.3887,.9293-1.1602,1.6209-2.1168,1.8974-.6196,.1792-1.3326,.2583-2.0687,.2583Zm-4.3473-2.426c.449,.5095,3.7334,1.537,6.0409,.8701h0c.5699-.1648,1.0122-.563,1.2457-1.1211,.2456-.5866,.2117-1.2447-.0923-1.8056-1.187-2.189-3.279-3.6374-5.7399-3.9739-2.1924-.2998-4.3444,.3321-5.6174,1.6485-.39,.395-.5782,.8237-.5213,1.1814,.04,.2518,.2038,.4535,.4866,.5991,.2234,.1149,.4916,.1705,.7724,.1643,.6638-.0173,2.3131,.1859,3.4254,2.437Z"/><path class="j" d="M165.8045,39.785c-1.703,0-3.5164-.6252-3.8665-1.3402-.4558-.9315-1.0292-1.02-1.2528-1.0122-.3806,.0104-.7442-.0712-1.061-.2345-.5099-.2625-.8372-.6972-.921-1.2235-.0952-.5966,.1438-1.2358,.6556-1.7537,1.0892-1.1267,2.8962-1.6753,4.7059-1.4279,2.0016,.2736,3.7031,1.4513,4.6681,3.2308,.3663,.6755,.4065,1.4688,.1104,2.1764-.2858,.6833-.8535,1.192-1.5575,1.3955h0c-.4538,.1313-.9623,.1893-1.4812,.1893Zm1.2937-.8381h0Zm-3.9755-1.1534c.37,.3021,2.3721,.9137,3.788,.5046,.3135-.0907,.5573-.3105,.6864-.6191,.1374-.3285,.1185-.697-.0519-1.0111-.7574-1.3972-2.0928-2.3217-3.6633-2.5364-1.3935-.1906-2.7564,.2056-3.5571,1.0337-.2443,.2473-.3078,.4696-.2876,.5969,.0055,.0348,.0224,.1409,.2058,.2352,.1159,.0596,.2575,.0881,.4065,.085,.4802-.0132,1.6734,.1302,2.4732,1.7113Z"/><g><path class="b" d="M154.7584,44.6545c-.0749-5.9802-6.5727-5.9536-9.961-2.065-1.0472,1.2018-.5885,3.0455,.9004,3.6148,2.0958,.8014,4.96,1.0054,7.0283,.7738,1.1708-.1311,2.0471-1.1455,2.0324-2.3235Z"/><path class="j" d="M151.0395,47.1779c-1.7312,0-3.7589-.248-5.382-.8687-.744-.2844-1.28-.8848-1.4702-1.6472-.1902-.763,.0011-1.5454,.525-2.1466,1.9748-2.2665,5.0753-3.2992,7.3724-2.4552,1.7677,.6496,2.7573,2.2806,2.7863,4.5928h0c.0156,1.2512-.9012,2.2989-2.1324,2.4368-.5081,.0568-1.085,.0881-1.6991,.0881Zm-.6816-7.1862c-1.9,0-4.0059,.9848-5.4758,2.6717-.4749,.5449-.6484,1.2535-.4762,1.9441,.1721,.69,.6576,1.2336,1.3321,1.4915,2.1634,.8271,5.0632,.9816,6.9755,.767,1.1158-.125,1.9466-1.0751,1.9324-2.2101h0c-.0277-2.2122-.965-3.7692-2.6388-4.3843-.5151-.1892-1.0727-.2799-1.6492-.2799Z"/></g><g class="i"><path class="b" d="M154.5566,43.0547c-1.905-2.6737-6.4324-1.9879-9.0732,1.0421-.4162,.476-.5936,1.0561-.5632,1.6154-.8349-.8032-.9562-2.1649-.1231-3.1236,3.0545-3.5039,8.6325-3.8703,9.7595,.4662Z"/></g><path class="j" d="M151.0059,47.7424c-1.7164,0-3.788-.2338-5.5493-.9074-.9184-.3511-1.5799-1.0935-1.8152-2.0368-.2355-.944,.0002-1.9107,.6466-2.6525,2.1225-2.4357,5.4822-3.5354,7.9908-2.6138,1.1595,.4261,3.1117,1.6572,3.155,5.1141h0c.0191,1.5418-1.1125,2.8329-2.6326,3.0032-.5195,.0582-1.131,.0932-1.7954,.0932Zm-.6613-7.1913c-1.7343,0-3.6741,.9167-5.0381,2.482-.3524,.4044-.4815,.9286-.3544,1.4382,.1269,.5091,.4868,.9107,.987,1.1019,2.0753,.7935,4.8664,.94,6.7119,.7335,.8135-.0911,1.4425-.8132,1.4322-1.6438h0c-.0248-1.9907-.81-3.3265-2.2701-3.8631-.4577-.1682-.9542-.2488-1.4684-.2488Z"/><g><path class="b" d="M133.8142,26.5219c-.2167-5.9937-8.143-6.1032-12.1951-2.2779-1.2523,1.1822-.6541,3.0392,1.1742,3.6409,2.5735,.8469,6.0719,1.1113,8.5903,.9226,1.4256-.1068,2.4733-1.1049,2.4307-2.2856Z"/><path class="j" d="M129.776,28.9762c-2.1977,0-4.8868-.283-7.0179-.9843-.9797-.3225-1.6769-1.0185-1.8651-1.8618-.1585-.7117,.0781-1.429,.649-1.968,2.5148-2.3743,6.5411-3.2921,9.3656-2.1344,1.8699,.7665,2.9422,2.3612,3.0191,4.4901,.0453,1.2576-1.0443,2.2902-2.5348,2.4019-.4916,.0368-1.0369,.0565-1.616,.0565Zm-1.5839-7.2239c-2.2749,0-4.7545,.9299-6.4958,2.5737-.5118,.4831-.7244,1.1229-.5835,1.7551,.1706,.7651,.8119,1.3995,1.7156,1.6969,2.6634,.8766,6.2122,1.0918,8.5468,.9173,1.3673-.1025,2.3675-1.0351,2.3263-2.1692-.0941-2.6086-1.618-3.7727-2.8795-4.2899-.7988-.3275-1.6971-.4838-2.63-.4838Z"/></g><g class="i"><path class="b" d="M133.4682,24.7216c-2.513-2.3698-7.7251-1.713-10.7595,1.1528-.5143,.4847-.7161,1.0829-.6513,1.6613-1.2293-.7933-1.5034-2.2849-.4372-3.2915,3.596-3.3958,10.2483-3.6915,11.8481,.4775Z"/></g><path class="j" d="M129.7852,29.5386c-2.2523,0-5.0119-.291-7.2031-1.0121-1.1701-.3851-2.0069-1.2351-2.2384-2.2739-.2029-.91,.093-1.8211,.8117-2.4997,2.666-2.5165,6.9493-3.4818,9.9656-2.2459,2.0865,.8553,3.2827,2.6277,3.368,4.9905h0c.0565,1.5661-1.2567,2.8487-3.055,2.9835-.5017,.0376-1.058,.0576-1.6489,.0576Zm-1.5606-7.2146c-2.1425,0-4.5203,.8804-6.1418,2.4112-.3694,.3487-.5189,.7831-.4206,1.2234,.1269,.5697,.6286,1.0499,1.342,1.2848,2.5897,.8523,6.0497,1.0616,8.3287,.8905,1.0421-.0781,1.8354-.7754,1.8062-1.5876h0c-.0833-2.3089-1.4223-3.3351-2.5306-3.7894-.7156-.2934-1.5311-.4329-2.3839-.4329Z"/><g><path class="b" d="M175.5781,44.3587c-1.4765,.7033-2.6614,1.4751-3.3941,2.3529-1.076,1.2893-.7077,3.2479,.715,4.14,2.0765,1.3021,4.1019,1.7023,6.0186,.1855,1.3679-1.0824,2.0428-2.8574,1.7344-4.5742-.2298-1.2795-.9248-2.2146-2.3756-2.4886-.9131-.1725-1.8595-.0152-2.6984,.3844Z"/><path class="j" d="M176.2817,52.1184c-1.0549,0-2.1968-.3903-3.4424-1.1713-.7262-.4554-1.22-1.2026-1.3546-2.0501-.1293-.8133,.0941-1.6361,.613-2.2575,.697-.8351,1.8196-1.6144,3.432-2.3824h0c.888-.423,1.8712-.563,2.7676-.3934,1.3752,.2598,2.2048,1.1276,2.4655,2.5794,.3131,1.7433-.3837,3.5812-1.7754,4.6824-.8363,.6618-1.7343,.993-2.7058,.993Zm-.6552-7.6582c-1.5826,.7539-2.6803,1.5138-3.3559,2.3235-.4841,.58-.6842,1.318-.5635,2.078,.1244,.7831,.5807,1.4737,1.2519,1.8945,2.3336,1.4636,4.205,1.5247,5.8887,.1926,1.3275-1.0504,1.9924-2.8033,1.6936-4.466-.2458-1.3695-.9935-2.154-2.2857-2.398-.8506-.1604-1.7839-.0269-2.6291,.3755h0Z"/></g><g class="i"><path class="b" d="M180.5603,46.0658c-.3626-.324-.8362-.5523-1.4405-.6664-.913-.1729-1.8576-.0142-2.6986,.3852-1.4759,.7029-2.6598,1.4744-3.3926,2.3522-.5819,.6954-.7414,1.5871-.543,2.3998-1.0712-.9818-1.2652-2.6716-.3027-3.826,.7327-.8778,1.9189-1.649,3.3948-2.352,.8386-.3996,1.7853-.5559,2.6986-.3852,1.2951,.2455,1.988,1.0194,2.2838,2.0924Z"/></g><g><path class="b" d="M137.9568,32.6541c-.9073,.4322-1.6355,.9064-2.0857,1.4459-.6612,.7923-.4349,1.9958,.4394,2.5441,1.276,.8002,2.5206,1.046,3.6985,.114,.8406-.6652,1.2553-1.7559,1.0658-2.8109-.1412-.7862-.5683-1.3609-1.4598-1.5293-.5611-.106-1.1427-.0093-1.6582,.2362Z"/><path class="j" d="M138.3896,37.4667c-.6561,0-1.3655-.2423-2.139-.7272-.4569-.2866-.7673-.7565-.8522-1.2896-.0813-.5122,.0594-1.0305,.3863-1.4221,.432-.5178,1.1266-1.0004,2.1236-1.4753h0c.554-.2639,1.167-.3512,1.7274-.2453,.8647,.1634,1.3862,.7084,1.5498,1.6199,.1952,1.0868-.2392,2.2326-1.1068,2.9191-.5226,.4136-1.083,.6203-1.6892,.6203Zm-.3845-4.7109c-.9669,.4607-1.6369,.924-2.0476,1.4163-.2893,.3467-.4089,.788-.3366,1.2424,.0743,.4689,.3476,.8823,.7493,1.1341,1.4166,.8887,2.551,.927,3.5688,.1211,.8034-.6356,1.2057-1.6966,1.025-2.7027-.1475-.8217-.5956-1.2922-1.3699-1.4385-.5136-.0967-1.0778-.0162-1.5889,.2272h0Z"/></g><g class="i"><path class="b" d="M141.111,34.6339c-.2343-.4136-.6207-.7014-1.2115-.8143-.5621-.1056-1.1434-.0094-1.66,.2376-.905,.4317-1.6331,.9051-2.0849,1.4455-.1687,.2033-.2811,.4346-.338,.6757-.4372-.6093-.4551-1.4659,.0555-2.0776,.4495-.5406,1.1776-1.0141,2.0852-1.4478,.5141-.245,1.0977-.341,1.6575-.2356,.8908,.1685,1.32,.7432,1.4599,1.5299,.0414,.2301,.0535,.4597,.0364,.6865Z"/></g><path class="j" d="M176.2883,52.6922c-1.156,0-2.3993-.4227-3.748-1.2684-.8641-.5417-1.4513-1.4306-1.6114-2.4386-.1548-.9738,.1137-1.9603,.7368-2.7065,.7499-.8987,1.9348-1.7262,3.622-2.5299h0c1.0096-.4807,2.0867-.6323,3.1141-.4383,1.6052,.3032,2.6133,1.3519,2.9151,3.033,.3546,1.9747-.4041,3.9762-1.9803,5.2232-.948,.7502-1.9594,1.1255-3.0484,1.1255Zm-.4197-7.7238c-1.5078,.7182-2.5433,1.4299-3.1658,2.176-.3786,.4533-.5347,1.0318-.4397,1.6289,.0987,.6226,.4615,1.1716,.9949,1.5062,2.1331,1.3376,3.7493,1.408,5.2406,.228,1.1668-.9233,1.7512-2.464,1.4887-3.9252-.2025-1.1282-.786-1.746-1.836-1.9444-.7337-.1385-1.5443-.0212-2.2826,.3306h0Z"/><path class="j" d="M138.3956,38.0298c-.7627,0-1.5793-.2712-2.444-.8135-.5945-.3729-.9988-.9845-1.109-1.6781-.1069-.6727,.0789-1.3547,.5101-1.871,.485-.5813,1.2418-1.1122,2.3136-1.6228h0c.6708-.3197,1.3875-.4202,2.0739-.2901,1.1017,.2081,1.7932,.9252,1.9994,2.0735,.2348,1.3082-.2676,2.6339-1.3117,3.4599-.6251,.4947-1.3042,.742-2.0324,.742Zm-.1484-4.7658c-.8797,.4191-1.5047,.8459-1.8574,1.2687-.1838,.2202-.2594,.5019-.213,.7936,.049,.3082,.2284,.5801,.4925,.7457,1.2191,.7642,2.0924,.8117,2.9206,.1565,.6426-.5086,.9647-1.3572,.8201-2.1619-.1055-.5885-.3808-.8831-.9203-.985-.3968-.0748-.8381-.0101-1.2424,.1824h0Z"/><polygon class="f" points="128.5183 42.4402 130.2681 40.6727 133.5232 40.3232 136.4201 39.1858 133.8693 41.5435 131.4133 41.6987 128.5183 42.4402"/></g></svg>