<?xml version="1.0" encoding="UTF-8"?><svg id="a" xmlns="http://www.w3.org/2000/svg" width="100mm" height="100mm" xmlns:xlink="http://www.w3.org/1999/xlink" viewBox="0 0 283.4646 283.4646"><defs><style>.c{fill:#fff;}.d{fill:#2ba0da;}.e{fill:#68a0bc;}.f{fill:none;stroke:#12293b;stroke-miterlimit:10;stroke-width:2.126px;}.g{fill:#063654;}.h{fill:#c29b5a;}.i{clip-path:url(#b);}.j{fill:#12293b;}</style><clipPath id="b"><circle class="f" cx="140.9462" cy="142.2989" r="137.4803"/></clipPath></defs><g class="i"><g><g><polygon class="j" points="125.4785 266.0545 121.2043 260.5398 116.9301 266.0545 125.4785 266.0545"/><g><g><rect class="j" x="59.9632" y="82.5113" width="1.5607" height="1.2486"/><path class="j" d="M77.3989,83.7599h-2.646v-1.2486h2.646v1.2486Zm-5.2916,0h-2.6459v-1.2486h2.6459v1.2486Zm-5.2915,0h-2.646v-1.2486h2.646v1.2486Z"/><polygon class="j" points="82.2299 83.7599 80.0449 83.7599 80.0449 82.5113 80.9813 82.5113 80.9813 81.5748 82.2299 81.5748 82.2299 83.7599"/><path class="j" d="M82.2299,78.3116h-1.2486v-3.2633h1.2486v3.2633Zm0-6.5265h-1.2486v-3.2633h1.2486v3.2633Zm0-6.5265h-1.2486v-3.2633h1.2486v3.2633Zm0-6.5265h-1.2486v-3.2633h1.2486v3.2633Zm0-6.5265h-1.2486v-3.2633h1.2486v3.2633Zm0-6.5265h-1.2486v-3.2632h1.2486v3.2632Z"/><polygon class="j" points="82.2299 39.1532 80.9813 39.1532 80.9813 36.9682 83.1663 36.9682 83.1663 38.2168 82.2299 38.2168 82.2299 39.1532"/><path class="j" d="M236.3838,38.2168h-3.0642v-1.2486h3.0642v1.2486Zm-6.1284,0h-3.0648v-1.2486h3.0648v1.2486Zm-6.1289,0h-3.0642v-1.2486h3.0642v1.2486Zm-6.129,0h-3.0642v-1.2486h3.0642v1.2486Zm-6.1284,0h-3.0641v-1.2486h3.0641v1.2486Zm-6.1289,0h-3.0642v-1.2486h3.0642v1.2486Zm-6.1284,0h-3.0648v-1.2486h3.0648v1.2486Zm-6.1289,0h-3.0642v-1.2486h3.0642v1.2486Zm-6.1289,0h-3.0642v-1.2486h3.0642v1.2486Zm-6.1284,0h-3.0642v-1.2486h3.0642v1.2486Zm-6.1289,0h-3.0642v-1.2486h3.0642v1.2486Zm-6.1284,0h-3.0648v-1.2486h3.0648v1.2486Zm-6.1289,0h-3.0642v-1.2486h3.0642v1.2486Zm-6.129,0h-3.0642v-1.2486h3.0642v1.2486Zm-6.1284,0h-3.0641v-1.2486h3.0641v1.2486Zm-6.1289,0h-3.0642v-1.2486h3.0642v1.2486Zm-6.1286,0h-3.0642v-1.2486h3.0642v1.2486Zm-6.1287,0h-3.0645v-1.2486h3.0645v1.2486Zm-6.1287,0h-3.0644v-1.2486h3.0644v1.2486Zm-6.1286,0h-3.0645v-1.2486h3.0645v1.2486Zm-6.1289,0h-3.0642v-1.2486h3.0642v1.2486Zm-6.1287,0h-3.0642v-1.2486h3.0642v1.2486Zm-6.1286,0h-3.0645v-1.2486h3.0645v1.2486Zm-6.1287,0h-3.0645v-1.2486h3.0645v1.2486Zm-6.1287,0h-3.0644v-1.2486h3.0644v1.2486Z"/><polygon class="j" points="241.6336 39.1532 240.385 39.1532 240.385 38.2168 239.4485 38.2168 239.4485 36.9682 241.6336 36.9682 241.6336 39.1532"/><path class="j" d="M241.6336,77.9275h-1.2486v-3.2312h1.2486v3.2312Zm0-6.4624h-1.2486v-3.2309h1.2486v3.2309Zm0-6.4621h-1.2486v-3.2312h1.2486v3.2312Zm0-6.4625h-1.2486v-3.2312h1.2486v3.2312Zm0-6.4624h-1.2486v-3.2312h1.2486v3.2312Zm0-6.4624h-1.2486v-3.2312h1.2486v3.2312Z"/><rect class="j" x="240.385" y="81.1588" width="1.2486" height="1.5607"/></g><g><rect class="j" x="63.8131" y="147.4381" width="1.5608" height="1.2486"/><path class="j" d="M60.6323,148.6867h-3.1809v-1.2486h3.1809v1.2486Zm-6.3619,0h-3.1809v-1.2486h3.1809v1.2486Zm-6.3618,0h-3.1809v-1.2486h3.1809v1.2486Z"/><polygon class="j" points="40.6099 149.6231 39.3614 149.6231 39.3614 147.4381 41.5464 147.4381 41.5464 148.6867 40.6099 148.6867 40.6099 149.6231"/><path class="j" d="M40.6099,217.4992h-1.2486v-3.0849h1.2486v3.0849Zm0-6.1704h-1.2486v-3.0855h1.2486v3.0855Zm0-6.1704h-1.2486v-3.0855h1.2486v3.0855Zm0-6.1704h-1.2486v-3.0855h1.2486v3.0855Zm0-6.171h-1.2486v-3.0849h1.2486v3.0849Zm0-6.1704h-1.2486v-3.0855h1.2486v3.0855Zm0-6.1704h-1.2486v-3.0855h1.2486v3.0855Zm0-6.171h-1.2486v-3.0849h1.2486v3.0849Zm0-6.1704h-1.2486v-3.0849h1.2486v3.0849Zm0-6.1704h-1.2486v-3.0855h1.2486v3.0855Zm0-6.1704h-1.2486v-3.0855h1.2486v3.0855Z"/><polygon class="j" points="41.5464 222.7697 39.3614 222.7697 39.3614 220.5847 40.6099 220.5847 40.6099 221.5211 41.5464 221.5211 41.5464 222.7697"/><path class="j" d="M86.3939,222.7697h-3.2035v-1.2486h3.2035v1.2486Zm-6.4069,0h-3.2032v-1.2486h3.2032v1.2486Zm-6.4067,0h-3.2035v-1.2486h3.2035v1.2486Zm-6.4066,0h-3.2035v-1.2486h3.2035v1.2486Zm-6.407,0h-3.2031v-1.2486h3.2031v1.2486Zm-6.4067,0h-3.2035v-1.2486h3.2035v1.2486Zm-6.4066,0h-3.2035v-1.2486h3.2035v1.2486Z"/><polygon class="j" points="91.7821 223.7062 90.5335 223.7062 90.5335 222.7697 89.5971 222.7697 89.5971 221.5211 91.7821 221.5211 91.7821 223.7062"/><path class="j" d="M91.7821,277.9217h-1.2486v-3.0117h1.2486v3.0117Zm0-6.0241h-1.2486v-3.0117h1.2486v3.0117Zm0-6.0235h-1.2486v-3.0123h1.2486v3.0123Zm0-6.0241h-1.2486v-3.0117h1.2486v3.0117Zm0-6.0241h-1.2486v-3.0117h1.2486v3.0117Zm0-6.0241h-1.2486v-3.0117h1.2486v3.0117Zm0-6.0235h-1.2486v-3.0123h1.2486v3.0123Zm0-6.0241h-1.2486v-3.0117h1.2486v3.0117Zm0-6.0241h-1.2486v-3.0117h1.2486v3.0117Z"/><polygon class="j" points="92.7186 283.1185 90.5335 283.1185 90.5335 280.9335 91.7821 280.9335 91.7821 281.87 92.7186 281.87 92.7186 283.1185"/><path class="j" d="M116.5985,283.1185h-2.9852v-1.2486h2.9852v1.2486Zm-5.9701,0h-2.9849v-1.2486h2.9849v1.2486Zm-5.9698,0h-2.9852v-1.2486h2.9852v1.2486Zm-5.9701,0h-2.9849v-1.2486h2.9849v1.2486Z"/><polygon class="j" points="121.7684 283.1185 119.5834 283.1185 119.5834 281.87 120.5199 281.87 120.5199 280.9335 121.7684 280.9335 121.7684 283.1185"/><path class="j" d="M121.7684,277.7285h-1.2486v-3.205h1.2486v3.205Zm0-6.4094h-1.2486v-3.205h1.2486v3.205Z"/><rect class="j" x="120.5199" y="263.3489" width="1.2486" height="1.5608"/></g><g><rect class="j" x="183.9899" y="263.1411" width="1.5607" height="1.2486"/><path class="j" d="M210.8925,264.3896h-3.1678v-1.2486h3.1678v1.2486Zm-6.3356,0h-3.1679v-1.2486h3.1679v1.2486Zm-6.335,0h-3.1679v-1.2486h3.1679v1.2486Zm-6.3357,0h-3.1678v-1.2486h3.1678v1.2486Z"/><polygon class="j" points="216.2454 264.3896 214.0603 264.3896 214.0603 263.1411 214.9968 263.1411 214.9968 262.2046 216.2454 262.2046 216.2454 264.3896"/><path class="j" d="M216.2454,259.1295h-1.2486v-3.0751h1.2486v3.0751Zm0-6.1503h-1.2486v-3.0751h1.2486v3.0751Zm0-6.1509h-1.2486v-3.0751h1.2486v3.0751Zm0-6.1503h-1.2486v-3.0751h1.2486v3.0751Z"/><rect class="j" x="214.9968" y="232.967" width="1.2486" height="1.5607"/></g><polygon class="j" points="236.6128 78.5576 240.8871 84.0721 245.1613 78.5576 236.6128 78.5576"/></g></g><g><path class="d" d="M118.224,212.6927c0-3.4305,2.8905-6.2114,6.4562-6.2114,.3602,0,.713,.0296,1.057,.0842,.4072-3.4337,3.4362-6.1016,7.1143-6.1016,1.5175,0,2.9239,.4553,4.0821,1.23,1.0074-3.1836,4.0824-5.5004,7.7209-5.5004,4.2293,0,7.6966,3.1308,8.0401,7.1145,3.1323,.4276,5.5417,3.0166,5.5417,6.1482l-.0002,.0049c.0673-.002,.1342-.0049,.2019-.0049,.1778,0,.3507,.0048,.5187,.0142,5.3039,.2947,4.9616,8.2969-.3504,8.2969h-35.1802c-2.7993,0-5.1729-2.2125-5.2018-5.0118l-.0003-.0629Z"/><polygon class="j" points="145.0296 219.9361 145.0296 209.0609 137.3392 209.0609 137.3392 219.9361 133.4219 219.9361 141.182 229.7783 148.942 219.9361 145.0296 219.9361"/></g><g><path class="d" d="M215.3162,111.3763c0-3.9247,3.307-7.1063,7.3864-7.1063,.4121,0,.8157,.0339,1.2093,.0964,.4659-3.9284,3.9311-6.9806,8.1393-6.9806,1.7361,0,3.3452,.521,4.6702,1.4072,1.1525-3.6422,4.6705-6.2928,8.8332-6.2928,4.8387,0,8.8055,3.5819,9.1983,8.1395,3.5837,.4891,6.3401,3.4512,6.3401,7.034l-.0003,.0056c.077-.0023,.1535-.0056,.231-.0056,.2034,0,.4012,.0055,.5935,.0162,6.068,.3372,5.6764,9.4922-.4009,9.4922h-40.2485c-3.2026,0-5.9182-2.5313-5.9512-5.7338l-.0004-.0719Z"/><polygon class="j" points="236.6887 119.0957 236.6887 108.6781 229.322 108.6781 229.322 119.0957 225.5695 119.0957 233.0031 128.5237 240.4365 119.0957 236.6887 119.0957"/><polygon class="j" points="247.0208 118.106 247.0208 128.5237 254.3875 128.5237 254.3875 118.106 258.14 118.106 250.7064 108.6781 243.273 118.106 247.0208 118.106"/></g><g><path class="d" d="M218.0177,63.6785h-31.0976c-2.859,0-5.1767,2.3177-5.1767,5.1768v17.6365c0,2.8589,2.3176,5.1766,5.1766,5.1766h9.7511c.502,0,.9962,.1249,1.438,.3635l9.6956,5.2366,.908-3.363c.3565-1.3201,1.554-2.2371,2.9214-2.2371h6.3835c2.859,0,5.1767-2.3177,5.1767-5.1767v-17.6365c0-2.8589-2.3177-5.1766-5.1766-5.1766Z"/><g><path class="c" d="M209.8362,77.6017c0,1.3331,1.0807,2.4139,2.4138,2.4139s2.4138-1.0807,2.4138-2.4139-1.0807-2.4138-2.4138-2.4138-2.4138,1.0807-2.4138,2.4138Z"/><path class="c" d="M199.515,77.6017c0,1.3331,1.0807,2.4139,2.4138,2.4139s2.4138-1.0807,2.4138-2.4139-1.0807-2.4138-2.4138-2.4138-2.4138,1.0807-2.4138,2.4138Z"/><path class="c" d="M189.194,77.6017c0,1.3331,1.0807,2.4139,2.4138,2.4139s2.4137-1.0807,2.4137-2.4139-1.0806-2.4138-2.4137-2.4138-2.4138,1.0807-2.4138,2.4138Z"/></g></g><g><path class="d" d="M52.0612,170.5372H18.8158c-3.0565,0-5.5343,2.4777-5.5343,5.5343v18.8546c0,3.0564,2.4777,5.5342,5.5341,5.5342h10.4246c.5367,0,1.065,.1336,1.5373,.3886l10.3653,5.5983,.9707-3.5953c.3811-1.4113,1.6613-2.3917,3.1231-2.3917h6.8244c3.0565,0,5.5343-2.4778,5.5343-5.5343v-18.8546c0-3.0564-2.4778-5.5341-5.5342-5.5341Z"/><g><path class="c" d="M43.3145,185.422c0,1.4252,1.1554,2.5806,2.5806,2.5806s2.5806-1.1554,2.5806-2.5806-1.1554-2.5805-2.5806-2.5805-2.5806,1.1554-2.5806,2.5805Z"/><path class="c" d="M32.2805,185.422c0,1.4252,1.1554,2.5806,2.5806,2.5806s2.5806-1.1554,2.5806-2.5806-1.1554-2.5805-2.5806-2.5805-2.5806,1.1554-2.5806,2.5805Z"/><path class="c" d="M21.2466,185.422c0,1.4252,1.1553,2.5806,2.5806,2.5806s2.5805-1.1554,2.5805-2.5806-1.1553-2.5805-2.5805-2.5805-2.5806,1.1554-2.5806,2.5805Z"/></g></g><g><path class="j" d="M127.3175,53.973h30.5218c5.4006,0,8.7684-5.8552,6.0527-10.5234l-15.2608-26.2335c-2.7003-4.6418-9.4053-4.6418-12.1056,0l-15.2608,26.2335c-2.7157,4.6682,.652,10.5234,6.0527,10.5234Z"/><path class="h" d="M127.3175,50.2555c-1.715,0-2.5627-1.1519-2.8476-1.6471-.2846-.4952-.8539-1.8072,.0083-3.2895l15.2609-26.2336c.8575-1.4739,2.2714-1.6333,2.8396-1.6333,.5678,0,1.9815,.1594,2.8389,1.6333l15.2605,26.2336c.8625,1.4823,.2933,2.7939,.0087,3.2891-.2846,.4956-1.1327,1.6474-2.8476,1.6474h-30.5217Z"/><path class="h" d="M160.6781,45.319l-15.2605-26.2336c-.8575-1.4739-2.2711-1.6333-2.8389-1.6333-.2596,0-.6984,.0404-1.1775,.2172,.5692,.2101,1.1964,.6157,1.662,1.416l15.2605,26.2336c.8625,1.4823,.2933,2.7939,.0087,3.2891-.2847,.4956-1.1327,1.6474-2.8476,1.6474h2.3544c1.7149,0,2.563-1.1519,2.8476-1.6474,.2846-.4952,.8538-1.8068-.0087-3.2891Z"/><g><polygon class="c" points="142.641 25.3828 142.5158 25.3828 139.4251 25.3828 140.511 42.1312 142.5158 42.1312 142.641 42.1312 144.6458 42.1312 145.7317 25.3828 142.641 25.3828"/><polygon class="c" points="142.6463 43.1123 142.521 43.1123 140.4953 43.1123 140.5163 46.2944 142.521 46.2944 142.6463 46.2944 144.651 46.2944 144.6615 43.1395 142.6463 43.1123"/></g></g><g><path class="j" d="M4.0223,140.8151c0-1.2135-3.6728-2.1973-8.2033-2.1973s-8.2033,.9838-8.2033,2.1973,3.6727,2.1973,8.2033,2.1973,8.2033-.9837,8.2033-2.1973Z"/><g><path class="h" d="M8.1174,117.3818c0,5.0542-6.7234,17.0455-10.291,23.0527-.9762,1.6437-3.3542,1.6437-4.3305,0-3.5676-6.0072-10.291-17.9985-10.291-23.0527,0-6.8793,5.5768-12.4562,12.4562-12.4562s12.4562,5.5769,12.4562,12.4562Z"/><path class="h" d="M-4.3388,104.9256c-.4149,0-.8246,.0225-1.2291,.0621,6.3022,.6175,11.2272,5.9297,11.2272,12.3941,0,5.0542-6.7234,17.0455-10.291,23.0527-.2407,.4053-.5671,.7096-.9362,.915,1.1279,.6277,2.6588,.3234,3.3943-.915,3.5677-6.0072,10.291-17.9985,10.291-23.0527,0-6.8793-5.5769-12.4562-12.4562-12.4562Z"/><circle class="j" cx="-4.3388" cy="117.3818" r="6.7943"/></g></g><g><rect class="d" x="12.6625" y="66.956" width="52.2631" height="32.238" rx="3.0816" ry="3.0816"/><g><rect class="j" x="17.3718" y="74.6036" width="16.7859" height="16.7859"/><path class="c" d="M28.0573,87.0034c.9971-.7152,1.649-1.8812,1.649-3.2021,0-2.1767-1.7647-3.9415-3.9415-3.9415s-3.9415,1.7647-3.9415,3.9415c0,1.3208,.6519,2.4868,1.649,3.2021-1.443,.8324-2.5603,2.4275-3.0578,4.3862h10.7006c-.4974-1.9586-1.6147-3.5537-3.0578-4.3862Z"/></g><g><path class="j" d="M51.861,77.6821h-10.4601c-.6592,0-1.1936-.5344-1.1936-1.1936h0c0-.6592,.5344-1.1937,1.1936-1.1937h10.4601c.6592,0,1.1936,.5344,1.1936,1.1937h0c0,.6592-.5344,1.1936-1.1936,1.1936Z"/><rect class="j" x="40.2073" y="81.9917" width="16.7806" height="2.3873" rx="1.1937" ry="1.1937"/><rect class="j" x="40.2073" y="88.6885" width="20.3718" height="2.3873" rx="1.1936" ry="1.1936"/></g></g><g><path class="h" d="M47.9068,31.0187H29.3411c-1.6899,0-3.0598,1.3699-3.0598,3.0598v18.5657c0,1.6899,1.37,3.0598,3.0598,3.0598h18.5657c1.6899,0,3.0598-1.37,3.0598-3.0598v-18.5657c0-1.6899-1.3699-3.0598-3.0598-3.0598Zm-.4474,21.1779H29.7885v-17.6705h17.6709v17.6705Z"/><path class="j" d="M55.0315,28.9337l-15.1804,14.473c-.2867,.2734-.7521,.2149-.9622-.1209l-2.6062-4.1637c-.6282-1.0035-1.9917-1.2332-2.9139-.4909h0c-.7798,.6277-.9671,1.7393-.436,2.5878l3.4432,5.5009,.7615,1.2166c.747,1.1933,2.4009,1.4011,3.4199,.4297l.9466-.9024,16.3408-15.5792c.7445-.7098,.8435-1.8631,.2309-2.6894h0c-.7298-.9844-2.157-1.1069-3.044-.2613Z"/></g><g><path class="h" d="M257.7691,254.3974h-19.6717c-1.7905,0-3.242,1.4515-3.242,3.2421v19.6717c0,1.7905,1.4515,3.242,3.242,3.242h19.6717c1.7905,0,3.2421-1.4515,3.2421-3.242v-19.6717c0-1.7906-1.4516-3.2421-3.2421-3.2421Zm-.4741,22.4394h-18.7236v-18.7232h18.7236v18.7232Z"/><path class="j" d="M265.3182,252.1882l-16.0848,15.3351c-.3038,.2897-.7968,.2277-1.0195-.1281l-2.7615-4.4118c-.6655-1.0632-2.1103-1.3066-3.0875-.5201h0c-.8263,.665-1.0247,1.8429-.462,2.7419l3.6483,5.8286,.8068,1.289c.7915,1.2645,2.5439,1.4847,3.6236,.4553l1.003-.9562,17.3142-16.5073c.7889-.7521,.8938-1.974,.2446-2.8495h0c-.7733-1.043-2.2856-1.1729-3.2253-.2769Z"/></g><g><g><path class="d" d="M184.0705,298.0283h-32.385c-2.2283,0-4.0346-1.8064-4.0346-4.0347v-40.3602c0-2.2283,1.8064-4.0347,4.0346-4.0347h25.1131l11.3065,10.5513v33.8436c0,2.2283-1.8064,4.0347-4.0347,4.0347Z"/><path class="j" d="M176.7898,256.764v-7.1736l11.4133,10.6508h-7.9361c-1.9204,0-3.4772-1.5568-3.4772-3.4772Z"/></g><path class="j" d="M152.6246,283.9627h0c0,.708,.574,1.2819,1.282,1.2819h26.1821c.708,0,1.2819-.574,1.2819-1.2819h0c0-.708-.574-1.282-1.2819-1.282h-26.1821c-.708,0-1.282,.574-1.282,1.282Z"/><path class="j" d="M152.6246,274.0986h0c0,.708,.574,1.282,1.282,1.282h26.1821c.708,0,1.2819-.574,1.2819-1.282h0c0-.708-.574-1.282-1.2819-1.282h-26.1821c-.708,0-1.282,.574-1.282,1.282Z"/><rect class="j" x="152.6246" y="263.3942" width="15.277" height="2.5641" rx="1.282" ry="1.282"/></g><g><path class="j" d="M82.4784,17.4806c-4.3623,0-7.8988,3.6734-7.8988,8.2046v3.4361h2.5891v-3.4362c0-3.0963,2.3821-5.6155,5.3098-5.6155s5.3095,2.5192,5.3095,5.6155v3.4362h2.5892v-3.4361c0-4.5313-3.5364-8.2046-7.8988-8.2046Z"/><rect class="h" x="70.7457" y="29.0935" width="22.8154" height="16.8288" rx="1.598" ry="1.598"/><path class="j" d="M81.2513,37.5925l-.6407,3.3893h3.5354l-.6973-3.3894c.8384-.4091,1.4209-1.2619,1.4209-2.2576,0-1.3915-1.128-2.5195-2.5195-2.5195s-2.5196,1.128-2.5196,2.5195c0,.9958,.5825,1.8485,1.4209,2.2577Z"/></g><g><path class="j" d="M122.3249,232.6118c-3.8208,0-6.9181,3.2173-6.9181,7.1861v3.0095h2.2677v-3.0096c0-2.7118,2.0863-4.9183,4.6506-4.9183s4.6503,2.2065,4.6503,4.9183v3.0096h2.2677v-3.0095c0-3.9687-3.0973-7.1861-6.9181-7.1861Z"/><rect class="h" x="112.0488" y="242.7829" width="19.9828" height="14.7394" rx="1.3996" ry="1.3996"/><path class="h" d="M130.6319,242.7829h-3.0435c.773,0,1.3997,.6266,1.3997,1.3996v11.9402c0,.773-.6266,1.3996-1.3997,1.3996h3.0435c.773,0,1.3997-.6266,1.3997-1.3996v-11.9402c0-.773-.6266-1.3996-1.3997-1.3996Z"/><path class="j" d="M121.2501,250.2267l-.5612,2.9685h3.0964l-.6108-2.9685c.7344-.3583,1.2445-1.1052,1.2445-1.9773,0-1.2187-.988-2.2067-2.2067-2.2067s-2.2068,.988-2.2068,2.2067c0,.8721,.5102,1.619,1.2445,1.9773Z"/></g><g><path class="j" d="M201.6441,233.7703h26.0232c4.6046,0,7.476-4.9922,5.1606-8.9723l-13.0115-22.3669c-2.3023-3.9576-8.019-3.9576-10.3213,0l-13.0115,22.3669c-2.3154,3.9802,.5559,8.9723,5.1605,8.9723Z"/><path class="d" d="M201.6441,230.6007c-1.4622,0-2.185-.9821-2.4279-1.4043-.2426-.4222-.728-1.5408,.0071-2.8046l13.0115-22.367c.7311-1.2567,1.9367-1.3925,2.4211-1.3925,.4841,0,1.6894,.1359,2.4205,1.3925l13.0112,22.367c.7354,1.2638,.2501,2.3821,.0074,2.8043-.2426,.4225-.9657,1.4046-2.4279,1.4046h-26.0231Z"/><path class="c" d="M230.0877,226.3918l-13.0112-22.367c-.7311-1.2567-1.9364-1.3925-2.4205-1.3925-.2214,0-.5954,.0344-1.0039,.1852,.4853,.1792,1.02,.525,1.4171,1.2074l13.0112,22.367c.7354,1.2638,.2501,2.3821,.0074,2.8043-.2427,.4225-.9658,1.4046-2.4279,1.4046h2.0074c1.4622,0,2.1853-.9821,2.4279-1.4046,.2426-.4222,.728-1.5405-.0074-2.8043Z"/><path class="j" d="M217.7873,216.1948c0-1.7722-1.4367-3.2089-3.2089-3.2089s-3.209,1.4367-3.209,3.2089c0,1.2682,.7419,2.3543,1.8097,2.8754l-1.1353,6.0053h5.1694l-1.2356-6.0054c1.0678-.5211,1.8097-1.6071,1.8097-2.8753Z"/></g><g><path class="d" d="M78.7445,197.59h22.6299c.9334,0,1.6912,.7578,1.6912,1.6912v20.0551h-26.0123v-20.0551c0-.9334,.7578-1.6912,1.6912-1.6912Z"/><g><path class="h" d="M103.6931,211.5119h-14.3191c-1.3093,0-2.417-.968-2.5924-2.2655l-.2033-1.5035c-.0484-.2754-.2877-.4762-.5673-.4762h-9.6679c-1.0414,0-1.8857,.8443-1.8857,1.8857v21.5242c0,.6873,.5571,1.2444,1.2444,1.2444h27.9914c.6873,0,1.2444-.5571,1.2444-1.2444v-17.9202c0-.6873-.5571-1.2444-1.2445-1.2444Z"/><path class="h" d="M74.4574,223.4218v6.9355c.009,.0002,.0173,.0028,.0262,.0028h29.2991c.5566,0,1.0203-.412,1.1548-.9678v-16.6236h-26.4666c-1.0494,0-1.9547,.7367-2.168,1.7641l-1.8456,8.8888Z"/><path class="h" d="M103.7828,231.9209h-28.1272c-.6617,0-1.1981-.5795-1.1981-1.2943l3.0173-14.5329c.2134-1.0275,1.1187-1.7641,2.1681-1.7641h26.0004c1.4039,0,2.4534,1.2898,2.168,2.6644l-2.8305,13.6326c0,.7148-.5364,1.2943-1.1981,1.2943Z"/></g></g><g><path class="j" d="M66.5459,278.6061c0-.4782-.0495-.9441-.1344-1.3975l1.6729-.9658-2.4405-4.227-1.6428,.9486c-.7402-.6572-1.6081-1.1704-2.5649-1.4975v-2.0124h-4.8809v2.0124c-.9181,.3139-1.7557,.7972-2.476,1.4167l-1.846-1.0658-2.4404,4.2269,1.8059,1.0426c-.1002,.4907-.153,.9986-.153,1.5189,0,.4358,.045,.8604,.1159,1.276l-1.8832,1.0872,2.4404,4.227,1.7827-1.0292c.7004,.6419,1.5202,1.1518,2.425,1.4945v2.0962h4.8809v-1.9324c.9696-.2967,1.8558-.7829,2.616-1.416l1.7062,.985,2.4404-4.227-1.6064-.9273c.1163-.5267,.1823-1.0723,.1823-1.634Zm-7.5501,3.4566c-1.9091,0-3.4566-1.5476-3.4566-3.4566s1.5475-3.4567,3.4566-3.4567,3.4566,1.5476,3.4566,3.4567-1.5476,3.4566-3.4566,3.4566Z"/><g><path class="h" d="M55.7195,252.1552c0-1.1311-.1171-2.2337-.3181-3.3064l3.9583-2.2854-5.7744-10.0016-3.8871,2.2443c-1.7513-1.555-3.8049-2.7692-6.0689-3.5432v-4.7618h-11.5489v4.7618c-2.1724,.7426-4.1545,1.8864-5.8586,3.3519l-4.3681-2.5219-5.7744,10.0016,4.2729,2.4669c-.2372,1.1609-.362,2.3627-.362,3.5937,0,1.0313,.1064,2.0358,.2742,3.0192l-4.4558,2.5727,5.7744,10.0016,4.2182-2.4354c1.6571,1.5189,3.5969,2.7254,5.7379,3.5361v4.96h11.5488v-4.5723c2.294-.702,4.391-1.8524,6.1897-3.3505l4.0371,2.3308,5.7744-10.0014-3.8009-2.1945c.2753-1.2463,.4313-2.5372,.4313-3.8663Z"/><path class="j" d="M41.5047,249.5022c0-2.1652-1.7553-3.9205-3.9204-3.9205s-3.9206,1.7553-3.9206,3.9205c0,1.5494,.9064,2.8762,2.211,3.5128l-1.387,7.3369h6.3156l-1.5095-7.337c1.3045-.6366,2.2109-1.9634,2.2109-3.5128Z"/></g><g><path class="d" d="M83.2509,256.2962c0-.6298-.0652-1.2438-.1771-1.8411l2.2041-1.2726-3.2153-5.5691-2.1644,1.2497c-.9753-.8659-2.1187-1.542-3.3794-1.973v-2.6515h-6.4307v2.6515c-1.2097,.4135-2.3133,1.0504-3.2623,1.8665l-2.4323-1.4044-3.2153,5.5692,2.3792,1.3736c-.132,.6465-.2015,1.3156-.2015,2.0011,0,.5743,.0593,1.1336,.1527,1.6812l-2.4812,1.4325,3.2153,5.5692,2.3489-1.356c.9227,.8457,2.0029,1.5176,3.195,1.969v2.7618h6.4307v-2.5459c1.2773-.3908,2.4449-1.0315,3.4466-1.8656l2.248,1.2978,3.2153-5.5692-2.1164-1.2219c.1533-.694,.2401-1.4128,.2401-2.1529Zm-9.9475,5.5139c-3.0453,0-5.5139-2.4687-5.5139-5.5139s2.4686-5.5139,5.5139-5.5139,5.5139,2.4687,5.5139,5.5139-2.4687,5.5139-5.5139,5.5139Z"/><path class="j" d="M76.2215,256.2962c0-1.6949-1.374-3.0688-3.0689-3.0688s-3.0688,1.3739-3.0688,3.0688,1.3739,3.0688,3.0688,3.0688,3.0689-1.3739,3.0689-3.0688Z"/></g></g><g><g><path class="h" d="M131.0232,75.2337c.0005-.833-.0852-1.6449-.2327-2.4349l2.9157-1.6811-4.2474-7.3672-2.8633,1.6508c-1.2889-1.1458-2.8006-2.0409-4.4672-2.6118l.0022-3.5064-8.5039-.0053-.0022,3.5064c-1.6,.5458-3.0599,1.3872-4.3156,2.4656l-3.2153-1.859-4.2565,7.362,3.1451,1.8184c-.1752,.8548-.2676,1.7396-.2682,2.6461-.0004,.7594,.0775,1.4991,.2006,2.2233l-3.2823,1.8923,4.2474,7.3672,3.1072-1.7913c1.2195,1.1191,2.6473,2.0085,4.2235,2.6064l-.0023,3.6522,8.504,.0053,.0021-3.3667c1.6894-.5158,3.2339-1.3621,4.5592-2.4643l2.9716,1.7181,4.2565-7.362-2.7977-1.6175c.2033-.9176,.3187-1.8681,.3194-2.8467Zm-13.1591,7.2834c-4.0271-.0025-7.2895-3.269-7.287-7.2961,.0025-4.027,3.269-7.2895,7.2961-7.287,4.027,.0025,7.2895,3.2691,7.287,7.2961-.0025,4.0271-3.2691,7.2895-7.2961,7.287Z"/><path class="j" d="M121.7275,75.2279c.0013-2.2413-1.8145-4.0593-4.0557-4.0607-2.2413-.0013-4.0593,1.8144-4.0607,4.0557-.0014,2.2413,1.8144,4.0593,4.0557,4.0607,2.2413,.0013,4.0593-1.8144,4.0607-4.0557Z"/></g><path class="d" d="M160.4413,75.9235l.0025-4.0328-1.7798-.0011c-.2302-1.0184-.6318-1.9699-1.1719-2.8272l1.2613-1.2599-2.8498-2.8532-1.2613,1.2597c-.8568-.5412-1.8077-.944-2.826-1.1753l.0012-1.7799-4.0328-.0025-.0011,1.7799c-1.0184,.2301-1.9699,.6317-2.8274,1.1718l-1.2596-1.2612-2.8533,2.8496,1.2597,1.2615c-.5411,.8566-.944,1.8076-1.1753,2.8258l-1.7799-.0012-.0025,4.0328,1.7799,.0011c.2301,1.0186,.6318,1.9699,1.1718,2.8274l-1.2612,1.2596,2.8497,2.8533,1.2613-1.2597c.8566,.5413,1.8077,.9441,2.8258,1.1754l-.0011,1.7798,4.0328,.0025,.0011-1.7798c1.0186-.2301,1.97-.6317,2.8275-1.1719l1.2595,1.2612,2.8534-2.8497-1.2598-1.2613c.5412-.8568,.944-1.8076,1.1754-2.8258l1.7798,.0011Zm-10.6494,2.4123c-2.4495-.0015-4.4339-1.9886-4.4325-4.4381,.0015-2.4495,1.9884-4.4339,4.4379-4.4325,2.4495,.0015,4.4341,1.9884,4.4326,4.4379-.0015,2.4495-1.9886,4.4341-4.4381,4.4326Z"/></g><path class="d" d="M41.6114,129.431l.0022-3.5343-1.5599-.001c-.2017-.8926-.5537-1.7265-1.0271-2.4778l1.1055-1.1042-2.4976-2.5006-1.1054,1.104c-.7509-.4743-1.5842-.8273-2.4767-1.03l.001-1.56-3.5343-.0022-.001,1.5599c-.8926,.2016-1.7265,.5537-2.478,1.027l-1.104-1.1054-2.5007,2.4975,1.104,1.1055c-.4742,.7508-.8273,1.5842-1.03,2.4766l-1.56-.001-.0022,3.5344,1.56,.001c.2016,.8927,.5537,1.7264,1.0269,2.4779l-1.1054,1.104,2.4976,2.5007,1.1054-1.104c.7508,.4744,1.5843,.8274,2.4766,1.0302l-.001,1.5598,3.5344,.0022,.001-1.5599c.8927-.2016,1.7266-.5536,2.478-1.0271l1.104,1.1054,2.5007-2.4975-1.1042-1.1054c.4743-.7509,.8274-1.5842,1.0302-2.4767l1.5598,.001Zm-9.3334,2.1143c-2.1468-.0013-3.886-1.7428-3.8846-3.8896,.0013-2.1468,1.7427-3.886,3.8894-3.8846,2.1468,.0013,3.8862,1.7427,3.8848,3.8894-.0013,2.1468-1.7428,3.8861-3.8896,3.8848Z"/><path class="d" d="M224.7708,278.4492l.0026-4.2694-1.8843-.0012c-.2437-1.0782-.6689-2.0855-1.2407-2.9932l1.3354-1.3338-3.0171-3.0207-1.3353,1.3336c-.9071-.5729-1.9137-.9994-2.9917-1.2443l.0012-1.8844-4.2694-.0026-.0012,1.8844c-1.0782,.2435-2.0855,.6687-2.9933,1.2405l-1.3336-1.3353-3.0207,3.017,1.3336,1.3354c-.5728,.907-.9994,1.9137-1.2443,2.9916l-1.8844-.0012-.0026,4.2694,1.8844,.0012c.2435,1.0784,.6688,2.0855,1.2406,2.9933l-1.3353,1.3336,3.017,3.0207,1.3353-1.3336c.9069,.5731,1.9138,.9995,2.9917,1.2444l-.0012,1.8843,4.2694,.0026,.0012-1.8843c1.0784-.2436,2.0856-.6688,2.9935-1.2407l1.3335,1.3353,3.0208-3.017-1.3338-1.3353c.5729-.9071,.9995-1.9137,1.2444-2.9917l1.8843,.0012Zm-11.2746,2.5539c-2.5933-.0016-4.6942-2.1052-4.6926-4.6985,.0016-2.5933,2.1051-4.6942,4.6984-4.6926,2.5933,.0016,4.6944,2.1051,4.6928,4.6985-.0016,2.5933-2.1053,4.6943-4.6986,4.6927Z"/><g><rect class="j" x="199.3926" y="14.0927" width="32.4633" height="27.1049"/><polygon class="d" points="216.9249 17.1621 193.4098 17.1621 193.4098 44.267 225.8732 44.267 225.8732 26.1104 216.9249 17.1621"/><path class="c" d="M219.2612,26.1104h6.612l-8.9483-8.9483v6.6119c0,1.2903,1.046,2.3364,2.3363,2.3364Z"/><path class="h" d="M223.1535,31.0215h-15.7518c-.7494,0-1.3913-.5362-1.5248-1.2736l-.5564-3.0748c-.0806-.4458-.4787-.7709-.9441-.7709h-13.8515c-.7951,0-1.4396,.6445-1.4396,1.4396v26.0121c0,.8009,.6492,1.4501,1.4501,1.4501h32.6182c.8009,0,1.4502-.6493,1.4502-1.4502v-20.8822c0-.8009-.6492-1.4502-1.4502-1.4502Z"/><path class="h" d="M200.0418,54.8041h23.1118c.8009,0,1.4502-.6493,1.4502-1.4502v-20.8822c0-.8009-.6492-1.4502-1.4502-1.4502h-2.774c-2.9253,1.4341-8.7325,3.8185-13.9116,3.1527,0,0,.1398,14.8811-6.4262,20.6299Z"/><g><path class="j" d="M239.7197,36.3848c-5.8774,0-13.5554-5.0026-13.5968-5.0529-.0414,.0504-7.7195,5.0529-13.5969,5.0529-.8299,0-1.6435-.0413-2.4372-.1177v9.4649c0,8.763,4.3472,16.8772,11.439,21.351l4.595,2.8988,4.595-2.8988c7.0918-4.4739,11.439-12.588,11.439-21.351v-9.4649c-.7937,.0764-1.6072,.1177-2.4372,.1177Z"/><path class="d" d="M222.9647,64.8052c-6.2809-3.9623-10.1827-11.2705-10.1827-19.073v-6.6566c2.7919-.054,6.1145-.9829,9.8818-2.7633,.0293-.0138,1.8825-.913,3.459-1.8209,1.5764,.9079,3.4297,1.8071,3.459,1.8209,3.7673,1.7806,7.09,2.7096,9.8818,2.7633v6.6566c0,7.8024-3.9018,15.1106-10.183,19.073l-3.1578,1.9924-3.1582-1.9924Z"/><path class="c" d="M237.9132,38.9616v4.9767c0,8.602-4.3017,16.6592-11.2266,21.0275l-1.7335,1.0938,1.1699,.7379,3.1578-1.9924c6.2812-3.9623,10.183-11.2705,10.183-19.073v-6.6566c-.4998-.0096-1.0173-.0485-1.5506-.1141Z"/><path class="c" d="M230.6228,45.0015l-5.7574,5.3864-1.6602-2.7325c-.0737-.1213-.2373-.1499-.3479-.0609l-2.1101,1.6984c-.0922,.0742-.1148,.2053-.0527,.306l2.8974,4.7035c.3484,.5656,1.128,.6692,1.612,.2142l7.4078-6.963c.1247-.1172,.1418-.3092,.0399-.4466l-1.5275-2.06c-.12-.1619-.3542-.183-.5013-.0454Z"/></g></g><g><g><polygon class="j" points="149.7152 169.071 137.486 169.1439 135.8991 169.1534 123.6698 169.2262 121.5176 179.1392 135.958 179.0531 137.5449 179.0437 151.9854 178.9576 149.7152 169.071"/><polygon class="g" points="149.7152 169.071 143.8675 169.1059 146.1296 178.9576 131.6892 179.0437 130.1024 179.0531 121.5252 179.1042 121.5177 179.1391 135.958 179.0531 137.5449 179.0437 151.9854 178.9576 149.7152 169.071"/><path class="d" d="M163.7416,184.7919c-.3962-3.4176-2.3676-6.0155-4.7305-6.0015l-44.5929,.2656c-2.2888,.0136-4.1842,2.4718-4.6242,5.7358h53.9477Z"/><path class="d" d="M155.8615,184.7919h7.8801c-.3962-3.4176-2.3676-6.0155-4.7305-6.0015l-7.3525,.0438c2.1237,.3429,3.8368,2.7991,4.203,5.9576Z"/><path class="d" d="M188.8811,170.1776l-103.8359,.6187c-1.4759,.0087-2.6796-1.1806-2.6884-2.6566l-.3914-67.7794c-.0088-1.476,1.1806-2.6797,2.6566-2.6885l103.8357-.6186c1.476-.0088,2.6797,1.1806,2.6885,2.6566l.3914,67.7794c.0088,1.476-1.1806,2.6796-2.6565,2.6884Z"/><path class="j" d="M191.5191,161.239l-109.1808,.6504-.3674-61.6613c-.0083-1.403,1.1222-2.5472,2.5253-2.5555l104.1-.6201c1.4031-.0084,2.5472,1.1222,2.5555,2.5252l.3674,61.6614Z"/><rect class="d" x="89.9505" y="103.8765" width="93.5609" height="50.9854" transform="translate(-.7683 .8169) rotate(-.3414)"/><polygon class="d" points="180.9026 151.7978 90.1116 152.3387 90.1283 155.1402 183.6876 154.5828 183.3838 103.5982 180.6155 103.6147 180.9026 151.7978"/><path class="j" d="M138.9178,165.6014c.0071,1.1932-.9572,2.1663-2.1539,2.1735-1.1966,.0071-2.1724-.9545-2.1795-2.1476-.0071-1.1933,.9572-2.1664,2.1538-2.1734,1.1965-.0072,2.1724,.9543,2.1796,2.1476Z"/><g><g><path class="d" d="M109.1585,130.0989h8.3273v10.8829c-1.3497,.4403-2.6203,.7489-3.8119,.9259-1.1919,.177-2.4098,.2657-3.654,.2657-3.1682,0-5.5874-.9307-7.2575-2.7925-1.6704-1.8615-2.5056-4.5346-2.5056-8.0186,0-3.3883,.9693-6.03,2.9074-7.9252,1.9383-1.8952,4.6253-2.8428,8.0616-2.8428,2.1538,0,4.2306,.4308,6.2311,1.2923l-1.4788,3.5604c-1.5314-.7657-3.1251-1.1484-4.7809-1.1484-1.9238,0-3.4652,.6459-4.623,1.9381-1.1584,1.2922-1.7373,3.0293-1.7373,5.2117,0,2.2781,.4665,4.0178,1.3998,5.219,.9333,1.2013,2.2899,1.8017,4.0704,1.8017,.9282,0,1.8712-.0955,2.8283-.2872v-4.3788h-3.9769v-3.7043Z"/><path class="d" d="M139.8975,131.1901c0,3.4554-.9833,6.1017-2.9503,7.9395-1.967,1.8377-4.8075,2.7567-8.5213,2.7567h-5.9439v-20.9905h6.59c3.4265,0,6.0874,.9044,7.9827,2.7135,1.8952,1.8091,2.8428,4.3359,2.8428,7.5808Zm-4.623,.1147c0-4.5081-1.9909-6.7622-5.9727-6.7622h-2.3689v13.6682h1.9095c4.2878,0,6.4321-2.3019,6.4321-6.906Z"/><path class="d" d="M158.7491,127.4428c0,2.2591-.7062,3.9866-2.1175,5.1828-1.4123,1.1967-3.4194,1.7948-6.0233,1.7948h-1.9095v7.4658h-4.4508v-20.9905h6.7048c2.5457,0,4.4823,.548,5.8077,1.644,1.3254,1.0961,1.9887,2.7301,1.9887,4.903Zm-10.0503,3.3308h1.4639c1.3694,0,2.3934-.2703,3.073-.8112,.6796-.5406,1.0189-1.328,1.0189-2.3617,0-1.0431-.2841-1.8137-.8533-2.3116-.5703-.4974-1.4624-.7465-2.6785-.7465h-2.024v6.2311Z"/><path class="d" d="M167.1617,133.8318v8.0544h-4.4506v-20.9905h6.1164c2.8522,0,4.9625,.5194,6.3314,1.5577,1.3689,1.0388,2.0531,2.6157,2.0531,4.7309,0,1.2347-.3398,2.333-1.0194,3.295-.6796,.9619-1.6417,1.7158-2.8859,2.2613,3.1588,4.7188,5.2165,7.7673,6.174,9.1456h-4.9391l-5.0106-8.0544h-2.3693Zm0-3.6182h1.4359c1.4072,0,2.4455-.2343,3.1159-.7034,.6699-.4688,1.0046-1.2062,1.0046-2.2109,0-.9954-.3423-1.7036-1.0266-2.1249-.6842-.4213-1.7439-.6318-3.1797-.6318h-1.35v5.671Z"/></g><g><path class="c" d="M108.0635,128.7183h8.3273v10.8829c-1.3498,.4402-2.6203,.7489-3.8119,.9259-1.1919,.1771-2.4098,.2657-3.654,.2657-3.1682,0-5.5874-.9307-7.2575-2.7925-1.6704-1.8615-2.5056-4.5346-2.5056-8.0187,0-3.3882,.9693-6.0299,2.9074-7.9252,1.9384-1.8952,4.6253-2.8428,8.0616-2.8428,2.1538,0,4.2306,.4308,6.2311,1.2923l-1.4788,3.5604c-1.5314-.7657-3.1251-1.1484-4.7809-1.1484-1.9238,0-3.4652,.6459-4.623,1.9381-1.1584,1.2922-1.7373,3.0293-1.7373,5.2116,0,2.2782,.4665,4.0178,1.3998,5.2191,.9333,1.2013,2.2899,1.8017,4.0704,1.8017,.9282,0,1.8712-.0956,2.8283-.2872v-4.3788h-3.9769v-3.7043Z"/><path class="c" d="M138.8025,129.8095c0,3.4555-.9833,6.1018-2.9503,7.9395-1.967,1.8377-4.8075,2.7567-8.5213,2.7567h-5.9439v-20.9905h6.59c3.4265,0,6.0874,.9044,7.9826,2.7135,1.8952,1.8091,2.8428,4.3359,2.8428,7.5808Zm-4.623,.1147c0-4.5081-1.9909-6.7622-5.9727-6.7622h-2.3689v13.6682h1.9095c4.2878,0,6.4321-2.3019,6.4321-6.9061Z"/><path class="c" d="M157.654,126.0623c0,2.259-.7062,3.9866-2.1175,5.1828-1.4123,1.1967-3.4194,1.7948-6.0233,1.7948h-1.9095v7.4658h-4.4508v-20.9905h6.7048c2.5457,0,4.4822,.548,5.8077,1.644,1.3254,1.096,1.9887,2.7301,1.9887,4.903Zm-10.0503,3.3308h1.464c1.3694,0,2.3934-.2704,3.073-.8112,.6796-.5406,1.0189-1.328,1.0189-2.3617,0-1.0431-.2841-1.8137-.8533-2.3116-.5703-.4974-1.4624-.7465-2.6785-.7465h-2.024v6.2311Z"/><path class="c" d="M166.0667,132.4512v8.0544h-4.4506v-20.9905h6.1164c2.8522,0,4.9625,.5194,6.3314,1.5577,1.3689,1.0388,2.0531,2.6157,2.0531,4.7308,0,1.2348-.3398,2.3331-1.0194,3.295-.6796,.9619-1.6417,1.7158-2.886,2.2613,3.1589,4.7188,5.2165,7.7673,6.1741,9.1456h-4.9391l-5.0106-8.0544h-2.3693Zm0-3.6182h1.4359c1.4072,0,2.4455-.2343,3.1159-.7034,.6699-.4688,1.0046-1.2062,1.0046-2.211,0-.9953-.3424-1.7036-1.0266-2.1248-.6842-.4213-1.7439-.6318-3.1797-.6318h-1.35v5.671Z"/></g></g></g><g><path class="j" d="M216.5129,145.0854c-9.0029,0-20.7642-7.6629-20.8276-7.7401-.0635,.0771-11.8247,7.7401-20.8276,7.7401-1.2714,0-2.5175-.0632-3.7333-.1802v14.4984c0,13.4231,6.6591,25.8524,17.5222,32.7055l7.0387,4.4404,7.0387-4.4404c10.8631-6.8531,17.5222-19.2824,17.5222-32.7055v-14.4984c-1.2158,.117-2.4619,.1802-3.7333,.1802Z"/><path class="h" d="M190.8477,188.6197c-9.621-6.0695-15.5978-17.2642-15.5978-29.2159v-10.1966c4.2766-.0826,9.3661-1.5055,15.137-4.2328,.0448-.0212,2.8836-1.3986,5.2985-2.7893,2.4148,1.3907,5.2536,2.7681,5.2985,2.7893,5.7709,2.7275,10.8603,4.1505,15.137,4.2328v10.1966c0,11.9516-5.9768,23.1464-15.5982,29.2159l-4.8372,3.0519-4.8377-3.0519Z"/><path class="h" d="M213.7457,149.0326v7.6234c0,13.1764-6.5894,25.5184-17.1968,32.2099l-2.6554,1.6754,1.7919,1.1304,4.8372-3.0519c9.6214-6.0695,15.5982-17.2642,15.5982-29.2159v-10.1966c-.7655-.0148-1.5583-.0742-2.3751-.1747Z"/><path class="c" d="M202.5783,158.2845l-8.8191,8.2508-2.5431-4.1855c-.1129-.1858-.3635-.2297-.5328-.0934l-3.2323,2.6015c-.1411,.1136-.1757,.3145-.0807,.4688l4.4381,7.2047c.5337,.8663,1.7278,1.025,2.4692,.3282l11.3472-10.6659c.191-.1795,.2173-.4736,.0612-.6841l-2.3398-3.1556c-.1838-.2478-.5425-.2804-.7679-.0695Z"/></g><g><rect class="j" x="64.9106" y="128.2001" width="30.617" height="57.103" rx="4.6712" ry="4.6712"/><g><path class="j" d="M83.1255,181.1942c0,1.6052-1.3012,2.9063-2.9064,2.9063s-2.9063-1.3012-2.9063-2.9063,1.3013-2.9063,2.9063-2.9063,2.9064,1.3012,2.9064,2.9063Z"/><path class="c" d="M82.7163,181.1942c0,1.3791-1.118,2.4972-2.4972,2.4972s-2.4971-1.118-2.4971-2.4972,1.118-2.4972,2.4971-2.4972,2.4972,1.1181,2.4972,2.4972Z"/></g><rect class="c" x="74.8574" y="131.0063" width="10.7235" height=".902" rx=".4369" ry=".4369"/><path class="g" d="M90.8565,128.2001h-4.5782c2.5798,0,4.6711,2.0914,4.6711,4.6711v47.7608c0,2.5799-2.0914,4.6711-4.6711,4.6711h4.5782c2.5798,0,4.6711-2.0913,4.6711-4.6711v-47.7608c0-2.5798-2.0913-4.6711-4.6711-4.6711Z"/><rect class="d" x="67.4778" y="136.0968" width="25.2212" height="39.9549"/><polygon class="d" points="90.8261 174.0228 67.4778 174.0228 67.4778 176.0517 92.6989 176.0517 92.6989 136.0968 90.8261 136.0968 90.8261 174.0228"/></g></g><g><rect class="h" x="251.9248" y="148.6771" width="42.0969" height="53.1394" rx="3.2045" ry="3.2045"/><rect class="c" x="255.2891" y="151.9562" width="35.3682" height="43.3905"/><g><path class="j" d="M284.3804,165.3259h-22.8143c-.688,0-1.2457-.5577-1.2457-1.2456h0c0-.688,.5577-1.2456,1.2457-1.2456h22.8143c.6879,0,1.2456,.5577,1.2456,1.2456h0c0,.688-.5577,1.2456-1.2456,1.2456Z"/><path class="j" d="M284.3804,172.3145h-22.8143c-.688,0-1.2457-.5577-1.2457-1.2456h0c0-.688,.5577-1.2456,1.2457-1.2456h22.8143c.6879,0,1.2456,.5577,1.2456,1.2456h0c0,.688-.5577,1.2456-1.2456,1.2456Z"/><path class="j" d="M284.3804,179.303h-22.8143c-.688,0-1.2457-.5577-1.2457-1.2456h0c0-.688,.5577-1.2456,1.2457-1.2456h22.8143c.6879,0,1.2456,.5577,1.2456,1.2456h0c0,.688-.5577,1.2456-1.2456,1.2456Z"/><rect class="j" x="260.3204" y="183.8003" width="15.5562" height="2.4914" rx="1.2456" ry="1.2456"/></g><g><circle class="d" cx="285.7768" cy="171.5636" r="8.0289" transform="translate(-13.6546 317.999) rotate(-57.0388)"/><path class="j" d="M295.7067,175.0778c1.9409-5.4841-.9314-11.5032-6.4157-13.4441-5.4842-1.9408-11.5033,.9316-13.4442,6.4158-1.9408,5.4841,.9316,11.5032,6.4158,13.4441,5.4842,1.9409,11.5034-.9315,13.4441-6.4157Zm-12.3229,3.2477c-3.7346-1.3217-5.6907-5.4205-4.369-9.155,1.3217-3.7345,5.4205-5.6906,9.1551-4.3689,3.7344,1.3215,5.6905,5.4205,4.3689,9.155-1.3218,3.7345-5.4206,5.6905-9.155,4.3689Z"/></g><path class="d" d="M280.2541,146.3907c-.6285-3.4537-3.6458-6.0743-7.2809-6.0743s-6.6525,2.6207-7.281,6.0743h-5.4692c-.7677,0-1.39,.6223-1.39,1.39v5.7303c0,.7676,.6223,1.39,1.39,1.39h25.5003c.7676,0,1.39-.6223,1.39-1.39v-5.7303c0-.7676-.6223-1.39-1.39-1.39h-5.4693Zm-7.2809,1.9639c-1.2293,0-2.2258-.9965-2.2258-2.2258s.9966-2.2258,2.2258-2.2258,2.2257,.9966,2.2257,2.2258-.9965,2.2258-2.2257,2.2258Z"/></g><path class="e" d="M191.9588,134.2458l.1237-.0618c.0409-.0205,.0409-.0788,0-.0993l-.1237-.0618c-.035-.0175-.0634-.0459-.0808-.0808l-.0619-.1237c-.0205-.041-.0788-.041-.0993,0l-.0618,.1237c-.0175,.035-.0458,.0633-.0808,.0808l-.1238,.0618c-.0409,.0205-.0409,.0788,0,.0993l.1238,.0618c.035,.0175,.0633,.0458,.0808,.0808l.0618,.1238c.0205,.0409,.0788,.0409,.0993,0l.0619-.1238c.0174-.035,.0459-.0633,.0808-.0808Z"/><path class="d" d="M191.7446,140.0673l.0766-.0383c.0253-.0127,.0253-.0489,0-.0615l-.0766-.0383c-.0217-.0108-.0393-.0284-.05-.0501l-.0384-.0766c-.0126-.0253-.0488-.0253-.0615,0l-.0383,.0766c-.0108,.0217-.0284,.0393-.05,.0501l-.0767,.0383c-.0253,.0126-.0253,.0488,0,.0615l.0766,.0383c.0216,.0108,.0392,.0284,.05,.05l.0383,.0767c.0127,.0253,.0489,.0253,.0615,0l.0384-.0767c.0108-.0216,.0284-.0392,.05-.05Z"/><circle class="d" cx="233.3196" cy="172.7627" r="3.1215"/><path class="d" d="M203.9907,116.2693c0,1.2642-1.0249,2.289-2.289,2.289s-2.2891-1.0249-2.2891-2.289,1.0249-2.2891,2.2891-2.2891,2.289,1.0249,2.289,2.2891Z"/><circle class="d" cx="275.9929" cy="85.6788" r="4.4339"/><path class="d" d="M173.5237,1.9773c0,1.9793-1.6045,3.5839-3.5839,3.5839s-3.5838-1.6045-3.5838-3.5839,1.6045-3.5838,3.5838-3.5838,3.5839,1.6045,3.5839,3.5838Z"/><path class="d" d="M208.0487,47.5967c0,1.724-1.3976,3.1215-3.1215,3.1215s-3.1215-1.3976-3.1215-3.1215,1.3976-3.1215,3.1215-3.1215,3.1215,1.3976,3.1215,3.1215Z"/><path class="d" d="M66.8927,55.704c0,2.3329-1.8912,4.2241-4.2242,4.2241s-4.2242-1.8912-4.2242-4.2241,1.8912-4.2242,4.2242-4.2242,4.2242,1.8912,4.2242,4.2242Z"/><circle class="d" cx="4.9478" cy="157.4953" r="4.2435"/><path class="d" d="M11.447,212.9242c0,1.8389-1.4906,3.3296-3.3295,3.3296s-3.3296-1.4907-3.3296-3.3296,1.4907-3.3295,3.3296-3.3295,3.3295,1.4907,3.3295,3.3295Z"/><path class="d" d="M139.8963,271.3028c0,2.0687-1.677,3.7458-3.7457,3.7458s-3.7458-1.6771-3.7458-3.7458,1.677-3.7458,3.7458-3.7458,3.7457,1.677,3.7457,3.7458Z"/><circle class="d" cx="179.0189" cy="217.7674" r="2.7053"/><circle class="d" cx="278.4901" cy="230.6332" r="3.7458"/><path class="d" d="M120.6073,8.6826c0,1.724-1.3976,3.1215-3.1215,3.1215s-3.1215-1.3976-3.1215-3.1215,1.3976-3.1215,3.1215-3.1215,3.1215,1.3976,3.1215,3.1215Z"/><path class="d" d="M15.2022,56.7366c0,1.4768-1.1972,2.674-2.674,2.674s-2.674-1.1972-2.674-2.674,1.1972-2.674,2.674-2.674,2.674,1.1972,2.674,2.674Z"/><path class="d" d="M73.4584,11.8042c0,1.4768-1.1972,2.674-2.674,2.674s-2.674-1.1972-2.674-2.674,1.1972-2.674,2.674-2.674,2.674,1.1972,2.674,2.674Z"/><circle class="d" cx="243.8604" cy="217.4256" r="3.4924"/><circle class="d" cx="279.3225" cy="126.0499" r="2.081"/><path class="d" d="M72.3953,104.4077c0,1.3007-1.0544,2.3551-2.3551,2.3551s-2.3552-1.0544-2.3552-2.3551,1.0544-2.3552,2.3552-2.3552,2.3551,1.0544,2.3551,2.3552Z"/></g></g><circle class="f" cx="140.9462" cy="142.2989" r="137.4803"/></svg>