<?xml version="1.0" encoding="UTF-8"?><svg id="a" xmlns="http://www.w3.org/2000/svg" width="100mm" height="100mm" xmlns:xlink="http://www.w3.org/1999/xlink" viewBox="0 0 283.4646 283.4646"><defs><style>.c{fill:#f7cebb;}.d{fill:#f7bba1;}.e{fill:#2ba0da;}.f{stroke:#12293b;stroke-miterlimit:10;stroke-width:2.126px;}.f,.g{fill:none;}.h{fill:#d1a588;}.i{fill:#c29b5a;}.j{clip-path:url(#b);}.k{fill:#f9e8d5;}.l{fill:#12293b;}</style><clipPath id="b"><circle class="f" cx="142.0762" cy="141.7323" r="137.4803"/></clipPath></defs><g><path class="i" d="M164.0411,157.1795c2.6806,3.7829,2.8789,6.6816,7.1972,10.4384,5.3244,3.2034,12.2378,1.483,15.443-3.838,3.1268-5.197,1.5584-11.9163-3.4823-15.2086-.1111-.0831-.2286-.1574-.3625-.2322-3.2614-1.9623-7.6199-1.1282-12.3271-1.905l12.4727-20.7307,52.6525,31.678-12.4281,20.6527c4.6192,.7104,8.8773-.061,12.085,1.8689,.1279,.0723,.2465,.147,.362,.232,5.0364,3.2918,6.6089,10.0045,3.4792,15.2066-3.2033,5.3244-10.1162,7.0431-15.4393,3.8383-4.2445-3.687-4.5082-6.5512-7.0513-10.2301l-12.6865,21.083-20.9056-12.5765c-.9377,4.9157,.0373,9.4837-2.0011,12.8746-.0719,.13-.1475,.2475-.2314,.359-3.294,5.0386-10.0069,6.6085-15.2087,3.4809-5.3246-3.2028-7.0404-10.115-3.8362-15.4397,3.905-4.4949,6.884-4.5282,10.8876-7.5292l-21.3568-12.8464,12.7376-21.1763Z"/><path class="g" d="M150.993,106.7097c.7071-4.6142-.061-8.8772,1.8695-12.0847,.0677-.1261,.1464-.2435,.2296-.3623,3.292-5.0325,10.007-6.6046,15.2052-3.4773,5.326,3.2041,7.0449,10.1164,3.8415,15.4394-3.6884,4.2433-6.5533,4.5131-10.2294,7.0528l21.0821,12.6842-12.5795,20.905c4.9171,.939,9.4861-.0369,12.8771,2.0029,.127,.07,.2474,.148,.3578,.2328,5.0395,3.2905,6.6105,10.0051,3.4795,15.2061-3.2015,5.3245-10.1126,7.0407-15.4375,3.8372-4.4914-3.9042-4.5275-6.8824-7.5271-10.8881l-12.8469,21.3565-21.1767-12.741c3.7779-2.6795,6.6818-2.8763,10.439-7.197,3.2033-5.3212,1.4838-12.235-3.839-15.4377-5.2022-3.1296-11.9131-1.5583-15.2083,3.4772-.082,.1161-.1602,.2351-.2303,.3626-1.9665,3.2667-1.1293,7.6194-1.9069,12.3302l-20.7351-12.4759,31.6786-52.6522,20.6572,12.4293Z"/><path class="l" d="M131.1153,189.1882c4.4918,3.9063,4.5286,6.8861,7.5294,10.8903l12.8451-21.3553,21.1795,12.739c-3.78,2.6799-6.6813,2.8753-10.4413,7.1979-3.2017,5.3219-1.4837,12.235,3.8404,15.4389,5.1997,3.128,11.916,1.5545,15.2098-3.4791,.0787-.1156,.1566-.2328,.2284-.3609,1.965-3.2661,1.1301-7.623,1.9044-12.3319l20.7337,12.4746-31.6771,52.6503-20.6528-12.4262c-.7119,4.6135,.0598,8.8755-1.8727,12.0847-.0692,.1267-.1463,.2449-.2288,.362-3.2938,5.0337-10.0083,6.6059-15.2063,3.4768-5.3253-3.2044-7.0429-10.1135-3.841-15.4359,3.6876-4.2429,6.5529-4.5152,10.2308-7.0561l-21.0813-12.6845,12.5754-20.9016c-4.9181-.9413-9.4846,.035-12.8746-2.0025-.1254-.0737-.2483-.1503-.3578-.2328-5.0392-3.2911-6.611-10.0085-3.4802-15.2103,3.2031-5.3238,10.1166-7.0397,15.437-3.8374Z"/><path class="i" d="M78.8736,157.5954c4.2441,3.6894,4.5135,6.5509,7.0542,10.2307l12.6838-21.0842,20.9044,12.5792c.9396-4.9168-.0372-9.4855,2.0027-12.8752,.0711-.1252,.1468-.246,.2326-.3604,3.2915-5.0372,10.0052-6.606,15.2068-3.4767,5.3238,3.2019,7.0408,10.1126,3.8379,15.4359-3.9071,4.4953-6.886,4.5299-10.8877,7.5279l21.3558,12.8485-12.7401,21.1746c-2.6794-3.7798-2.8762-6.6791-7.198-10.435-5.3232-3.2048-12.2351-1.4896-15.4371,3.836-3.1303,5.202-1.5574,11.9168,3.4794,15.2092,.1107,.0811,.2301,.1599,.3621,.2301,3.2598,1.9616,7.6185,1.1315,12.3283,1.9054l-12.4728,20.7338-52.655-31.6797,12.4266-20.6552c-4.6118-.7099-8.8734,.0626-12.0823-1.8684-.1285-.0693-.2468-.1478-.3606-.2276-5.0354-3.2958-6.6048-10.0097-3.4783-15.2088,3.205-5.3237,10.1159-7.0425,15.4373-3.8404Z"/></g><path class="l" d="M130.7381,54.3625c-.0622-.1312-.1109-.2632-.1541-.3973-2.073-5.6495,.6751-11.9723,6.2862-14.2783,5.7491-2.3589,12.3195,.3869,14.6791,6.1313,1.2026,5.4945-.2894,7.951-.4457,12.4197l22.7595-9.3455,9.2658,22.5703c3.688-3.3855,5.6311-7.6349,9.2906-9.1352,.1319-.0588,.2653-.1105,.4018-.1508,5.6476-2.0779,11.9711,.6704,14.2772,6.2866,2.358,5.747-.3885,12.317-6.1343,14.6746-5.8186,1.2757-8.229-.4733-13.2293-.4589l9.4667,23.0573-22.86,9.3851c.1053-4.6297,1.6778-7.0749,.4518-12.6688-2.3566-5.7481-8.9267-8.4978-14.6745-6.1357-5.6168,2.3044-8.3618,8.6317-6.2868,14.2799,.041,.1318,.0904,.2642,.1525,.3998,1.4452,3.5205,5.437,5.4551,8.7546,8.8879l-22.3816,9.1907-23.3397-56.8454,22.299-9.1555c-3.2767-3.3226-7.1581-5.2453-8.5786-8.7121Z"/><g><g class="j"><g><path class="h" d="M107.2505,34.071l9.6297,7.015,14.3022-2.4447,9.5718,.8007-21.0109,16.3145s-9.4212,1.6805-12.9292,4.4678c0,0-3.8732-19.3887,.4364-26.1533"/><g><g><path class="k" d="M147.4395,127.1364s3.3285,.8681,3.8457,2.013c0,0-.6223,.8418-3.5513,.3334,0,0-1.2607-1.8432-.2944-2.3465"/><path class="c" d="M147.4395,127.1364s1.6106,2.2311,.2944,2.3465c0,0-6.0021,.1903-10.8026-1.6168,0,0,3.0083-4.0783,10.5082-.7297"/><path class="k" d="M181.9786,42.5528s2.8486,.6039,1.9652,1.8131c0,0-3.7149,1.196-6.0161,.1826l4.0509-1.9957Z"/><path class="c" d="M173.5664,39.2378l8.4123,3.315s.3616,1.8631-2.4925,2.2501c0,0-4.7441,.1428-5.9197-5.5651"/><path class="d" d="M13.9858,119.5261L93.5516,40.422s9.4858-10.706,14.8382-5.5516c5.3533,5.1549-1.5038,11.28-1.5038,11.28,0,0,34.4843-22.9434,36.2054-22.4088,1.7213,.5345,30.475,15.4961,30.475,15.4961,0,0,.8641,7.5708,10.3775,5.1281,0,0,1.1632,4.4882-5.4208,6.5712-6.5833,2.082-17.2128-5.3458-17.2128-5.3458,0,0-7.5021-.2266-19.4464-7.3095,0,0-21.0405,22.0381-27.9839,28.4543,0,0-19.0067,23.622-10.746,34.7602,8.2616,11.1371,25.0458,7.4605,37.9197,13.6808,12.8728,6.221,10.2323,13.973,10.2323,13.973,0,0-9.6554-6.4923-14.3546-1.2841,0,0-20.4412-1.9042-29.8215-5.1345,0,0-30.8335-11.163-48.8897-5.3412-18.0554,5.8218-26.4657,21.306-26.4657,21.306l-17.7686-19.1703Z"/></g><polygon class="i" points="3.4955 183.0947 37.4439 144.6109 9.7777 118.3056 3.4955 123.7541 3.4955 183.0947 3.4955 183.0947"/><polygon class="e" points="34.6148 138.8574 13.6637 118.8442 11.9781 120.3978 33.1262 140.5056 34.6148 138.8574"/></g></g></g><circle class="f" cx="142.0762" cy="141.7323" r="137.4803"/></g></svg>