<?xml version="1.0" encoding="UTF-8"?><svg id="a" xmlns="http://www.w3.org/2000/svg" width="100mm" height="100mm" xmlns:xlink="http://www.w3.org/1999/xlink" viewBox="0 0 283.4646 283.4646"><defs><style>.c{fill:#fff;}.d{fill:#f7cebb;}.e{fill:#f7bba1;}.f{fill:#2ba0da;}.g{fill:none;stroke:#12293b;stroke-miterlimit:10;stroke-width:2.126px;}.h{fill:#d1a588;}.i{fill:#c29b5a;}.j{clip-path:url(#b);}.k{fill:#f9e8d5;}.l{fill:#12293b;}</style><clipPath id="b"><circle class="g" cx="140.5388" cy="143.0907" r="137.4803"/></clipPath></defs><g class="j"><g><g><g><g><path class="l" d="M269.7,131.6022l-105.7913-51.729c-4.4527-2.177-9.7963-.2708-11.9363,4.2583l-26.0388,55.1045c-2.14,4.5289-.266,9.9654,4.1863,12.1423l105.7917,51.7294c4.452,2.1764,9.7959,.2698,11.9362-4.259l26.0388-55.1049c2.1398-4.5286,.2658-9.9648-4.1866-12.1417Zm-33.6217,67.1168l-95.2796-46.5895,30.3567-64.2429,95.2799,46.5891-30.357,64.2433Z"/><polygon class="c" points="140.7987 152.1294 236.0783 198.719 266.4353 134.4757 171.1554 87.8865 140.7987 152.1294"/></g><path class="c" d="M140.7299,128.6672c-.4739,1.0025-.0583,2.2065,.9273,2.6881h0c.9855,.4822,2.1695,.0599,2.6427-.9422l12.539-26.5351c.4737-1.0033,.0587-2.2075-.9271-2.6893h0c-.9852-.4816-2.1693-.0597-2.6434,.9436l-12.5385,26.535Z"/><path class="c" d="M249.1038,180.4541c-.292,.6179-.0366,1.3584,.5698,1.6552h0c.6076,.2972,1.3349,.0374,1.627-.5805l9.1068-19.2732c.292-.6163,.037-1.3568-.5718-1.6544h0c-.6056-.296-1.3333-.0366-1.625,.5805l-9.1068,19.2723Z"/><path class="c" d="M259.5436,154.7841c-.6199,1.311-.0772,2.8855,1.2111,3.5157,1.2895,.6303,2.8369,.078,3.4568-1.233,.6199-1.3106,.0764-2.8851-1.2128-3.5153-1.2883-.6302-2.8357-.078-3.4552,1.2327Z"/><path class="c" d="M262.4334,148.6674c-.6191,1.311-.0764,2.8851,1.2124,3.5153,1.2888,.6302,2.8365,.0784,3.4564-1.2331,.6195-1.3106,.0764-2.885-1.2128-3.5153-1.2887-.6299-2.8361-.078-3.456,1.233Z"/></g><path class="l" d="M208.0449,137.9715c-2.8616-1.3994-6.2961-.1731-7.6716,2.7367-1.3751,2.9107-.1703,6.404,2.6913,7.8029,2.8604,1.3989,6.2949,.1743,7.67-2.7367,1.3755-2.9099,.1707-6.4042-2.6897-7.8029Zm16.3053,1.4853l-4.1452-2.0268c-.5694-.2789-.9712-1.0285-.8913-1.6671l.4747-3.7946c.0788-.6376-.3219-1.3872-.8924-1.6661l-11.7424-5.7417c-.5698-.2787-1.397-.1293-1.8362,.3328l-2.6173,2.7466c-.4404,.4617-1.2657,.6117-1.8362,.3326l-4.144-2.026c-1.9003-.9292-4.2009-.1082-5.1144,1.8243l-7.4707,15.8098c-.9131,1.9325-.1058,4.2733,1.7945,5.2023l27.63,13.5102c1.8991,.9287,4.2001,.1078,5.1132-1.8247l7.4703-15.8098c.9135-1.9325,.1063-4.2733-1.7925-5.2018Zm-22.946,12.5676c-4.7695-2.3316-6.7764-8.1545-4.485-13.0053,2.2926-4.8506,8.0166-6.893,12.7856-4.561,4.7671,2.3312,6.776,8.1545,4.4838,13.0053-2.2922,4.8506-8.0174,6.8926-12.7844,4.5609Zm18.9158-7.189c-.6673-.3263-.9494-1.1409-.6283-1.8207,.3211-.6786,1.1228-.9648,1.7901-.6384,.668,.3263,.9485,1.1425,.6279,1.8209-.3207,.6796-1.122,.9648-1.7897,.6382Z"/></g><g><path class="h" d="M116.8064,72.0255l10.4912,7.6426,15.5818-2.6634,10.4282,.8724-22.8907,17.7741s-10.264,1.8308-14.0859,4.8675c0,0-4.2198-21.1234,.4755-28.4931"/><g><g><path class="k" d="M160.5911,173.4171s3.6263,.9457,4.1897,2.1931c0,0-.678,.9171-3.869,.3633,0,0-1.3735-2.0081-.3207-2.5564"/><path class="d" d="M160.5911,173.4171s1.7547,2.4307,.3207,2.5564c0,0-6.539,.2073-11.7691-1.7615,0,0,3.2774-4.4432,11.4484-.7949"/><path class="k" d="M198.2203,81.2661s3.1035,.6579,2.141,1.9753c0,0-4.0473,1.3031-6.5544,.199l4.4133-2.1743Z"/><path class="d" d="M189.0554,77.6545l9.1649,3.6116s.3939,2.0298-2.7155,2.4514c0,0-5.1685,.1556-6.4493-6.0629"/><path class="e" d="M15.1977,165.126L101.882,78.9447s10.3345-11.6638,16.1657-6.0482c5.8322,5.6161-1.6383,12.2892-1.6383,12.2892,0,0,37.5695-24.9961,39.4445-24.4136,1.8753,.5823,33.2015,16.8825,33.2015,16.8825,0,0,.9414,8.2481,11.3059,5.5869,0,0,1.2672,4.8898-5.9058,7.1592-7.1723,2.2683-18.7527-5.8241-18.7527-5.8241,0,0-8.1733-.2469-21.1862-7.9635,0,0-22.9229,24.0098-30.4875,31,0,0-20.7072,25.7354-11.7074,37.8701,9.0008,12.1335,27.2866,8.128,41.3122,14.9048,14.0245,6.7776,11.1477,15.2231,11.1477,15.2231,0,0-10.5193-7.0732-15.6389-1.399,0,0-22.27-2.0746-32.4895-5.5939,0,0-33.592-12.1618-53.2637-5.8191-19.6708,6.3427-28.8335,23.2122-28.8335,23.2122l-19.3583-20.8854Z"/></g><polygon class="i" points="3.7689 234.3818 40.7545 192.4551 10.6131 163.7962 3.7689 169.7323 3.7689 234.3818 3.7689 234.3818"/><polygon class="f" points="37.6723 186.1868 14.8468 164.3831 13.0103 166.0757 36.0505 187.9825 37.6723 186.1868"/></g></g></g></g><circle class="g" cx="140.5388" cy="143.0907" r="137.4803"/></svg>