<?xml version="1.0" encoding="UTF-8"?><svg xmlns="http://www.w3.org/2000/svg" width="100mm" height="100mm" viewBox="0 0 283.4646 283.4646"><defs><style>.b{opacity:.21;}.b,.c{fill:#ffaf10;mix-blend-mode:multiply;}.d{fill:#fff;}.c{opacity:.43;}.e{isolation:isolate;}.f{fill:#c29b5a;}.g{fill:#12293b;}</style></defs><g class="e"><g id="a"><circle class="g" cx="141.7323" cy="141.7323" r="137.4803"/><g><path class="d" d="M61.0357,217.4912c-8.7044,0-16.5376-4.4789-20.9523-11.9808-4.4147-7.5019-4.5276-16.5246-.3012-24.1345L118.6627,39.3364c4.3498-7.8323,12.295-12.5085,21.2536-12.5085s16.9046,4.6762,21.2536,12.5085l78.8822,142.0395c4.2255,7.6107,4.1119,16.6326-.302,24.1345-4.4155,7.5019-12.2479,11.9808-20.9523,11.9808H61.0357Z"/><path class="f" d="M44.143,183.7985L123.0241,41.7582c7.3612-13.2552,26.4237-13.2552,33.7849,0l78.8811,142.0403c7.1523,12.879-2.1607,28.7036-16.8924,28.7036H61.0354c-14.7317,0-24.0447-15.8246-16.8924-28.7036Z"/><path class="b" d="M147.3367,206.1371c21.6316-21.5619,43.2031-43.184,64.763-64.8175l-25.8149-46.4845c-18.1133,18.1133-36.2266,36.2266-54.34,54.3399-19.762,19.7621-39.5239,39.524-59.2859,59.286l-4.0411,4.0411h72.3067c2.1341-2.1249,4.2792-4.2389,6.4122-6.365Z"/><path class="c" d="M214.6142,145.8475c-9.4827,9.5146-18.9556,19.039-28.4482,28.5437-12.7029,12.7191-25.4208,25.4235-38.1554,38.1108h70.787c14.7318,0,24.0448-15.8246,16.8924-28.7036l-21.0758-37.951Z"/><path class="g" d="M127.273,158.2101l-5.0673-56.0715v-1.0574c0-2.6874,2.1785-4.8659,4.8659-4.8659h25.6898c2.6874,0,4.8659,2.1786,4.8659,4.8659v1.0574l-5.1786,56.0806c-.2207,2.3903-2.226,4.2189-4.6264,4.2189h-15.9221c-2.4039,0-4.4108-1.8337-4.6272-4.2279Zm-.8026,26.4373v-11.9589c0-2.0627,1.6721-3.7348,3.7348-3.7348h19.3037c2.0627,0,3.7348,1.6722,3.7348,3.7348v11.9589c0,2.0627-1.6722,3.7348-3.7348,3.7348h-19.3037c-2.0627,0-3.7348-1.6721-3.7348-3.7348Z"/></g></g></g></svg>