<?xml version="1.0" encoding="UTF-8"?><svg id="a" xmlns="http://www.w3.org/2000/svg" width="100mm" height="100mm" viewBox="0 0 283.4646 283.4646"><defs><style>.b{fill:#fff;}.c{fill:none;stroke:#12293b;stroke-width:2.126px;}.c,.d{stroke-miterlimit:10;}.d{fill:#2ba0da;stroke:#fff;stroke-width:.677px;}.e{fill:#12293b;}</style></defs><g><path class="d" d="M279.0349,142.2048c0,75.9298-61.5517,137.4813-137.4814,137.4813-2.5369,0-5.057-.0694-7.5604-.2061-44.3441-2.4023-83.0968-25.8197-106.4784-60.4641v-66.5584c0-3.8833-23.2786-17.9814-22.9652-21.7827C10.4081,60.1429,69.5091,4.7254,141.5535,4.7254c72.4168,0,131.7574,55.9896,137.0901,127.0412,.2587,3.4458,.3913,6.9273,.3913,10.4382Z"/><path class="e" d="M279.0349,142.2048c0,75.9298-61.5517,137.4813-137.4814,137.4813-2.5369,0-5.057-.0694-7.5604-.2061L27.5147,219.0138l80.6482-69.3119,26.1688-103.6785,144.3118,85.7432c.2587,3.4458,.3913,6.9273,.3913,10.4382Z"/><path class="b" d="M175.8359,166.7161c1.2455,2.701,5.5727,7.9662,3.7572,13.4987-2.0994,6.4012-8.8688,7.2469-8.8688,10.3708,0,1.5546,.9487,7.7097-.0989,10.1899-2.2719,5.3768-10.396,10.4591-19.9022,11.3785-13.541,1.3105-35.6162,3.7169-85.7493-5.3664h-.0022c-.3787,.0315-1.8155,.0946-6.4244,.1746-2.8715,.0483,1.5629,11.8096,1.5629,11.8096-8.5132,.1578-20.5123,.2272-32.5954,.2439v-.002c-14.801-21.9301-23.4404-48.3599-23.4404-76.809,0-3.8833,.1619-7.7287,.4752-11.53,17.7903,.0526,37.3433,.0274,49.5381-.244,0,0-3.3132,5.3642,.5679,5.2696,11.1891-.2735,10.6464-.5176,11.616-.6711,3.8287-.6036,9.0919-2.8334,14.1027-14.2835,9.4116-21.5052,10.3056-27.7782,18.3729-33.155,4.2052-2.8041,8.1683-6.0962,11.063-13.0592,2.2949-5.524,3.9167-13.3557,4.4511-25.0876,.082-1.8259,1.8847-7.4784,4.0348-7.9391,5.2989-1.1338,14.5969,.5554,18.8377,14.1321,.9088,2.9051,2.4339,13.4694-.5069,21.6041-2.0595,5.9216-5.3579,13.0761-9.6473,20.6574-6.4411,9.7019,1.2664,12.0958,2.3078,12.0958h39.8086s4.4535-.4985,8.3093,2.2004c3.7465,2.621,6.8999,8.3744,6.8032,12.6847-.1978,8.749-7.4974,11.8119-7.4974,14.6875,0,1.4599,7.7161,6.7862,7.4994,13.3096-.2104,6.3297-9.7018,10.9703-8.3746,13.8397Z"/></g><circle class="c" cx="141.5546" cy="142.2057" r="137.4803"/></svg>