<?xml version="1.0" encoding="UTF-8"?><svg id="a" xmlns="http://www.w3.org/2000/svg" width="100mm" height="100mm" viewBox="0 0 283.4646 283.4646"><defs><style>.b{fill:#fff;}.c{fill:#2ba0da;}.d{fill:none;stroke:#12293b;stroke-miterlimit:10;stroke-width:2.126px;}.e{fill:#c29b5a;}.f{fill:#e1e1e1;}.g{fill:#f9fbfc;}.h{fill:#12293b;}</style></defs><g><path class="h" d="M121.7036,132.3812c-.2241,.4043-.5684,.7295-1.0322,.9775s-1.04,.3721-1.728,.3721h-1.272v3.0244h-2.0518v-8.4238h3.3237c.6724,0,1.2402,.1152,1.7041,.3477s.812,.5518,1.0439,.96,.3481,.876,.3481,1.4043c0,.4873-.1123,.9336-.3359,1.3379Zm-2.04-.5586c.1919-.1836,.2881-.4434,.2881-.7793s-.0962-.5967-.2881-.7803-.4844-.2764-.876-.2764h-1.1162v2.1123h1.1162c.3916,0,.6841-.0918,.876-.2764Z"/><path class="h" d="M127.4033,136.7552l-1.752-3.1807h-.4922v3.1807h-2.0518v-8.4238h3.4438c.6641,0,1.23,.1152,1.6982,.3477,.4678,.2324,.8179,.5498,1.0498,.9541s.3481,.8535,.3481,1.3496c0,.5605-.1582,1.0605-.4741,1.5-.3164,.4404-.7822,.752-1.3979,.9365l1.9438,3.3359h-2.3159Zm-2.2441-4.6318h1.272c.376,0,.6582-.0918,.8462-.2764,.188-.1836,.2817-.4443,.2817-.7803,0-.3193-.0938-.5713-.2817-.7559-.188-.1836-.4702-.2764-.8462-.2764h-1.272v2.0889Z"/><path class="h" d="M132.7373,136.2875c-.6597-.3682-1.1841-.8828-1.5718-1.542-.3882-.6602-.582-1.4023-.582-2.2266s.1938-1.5635,.582-2.2197c.3877-.6562,.9121-1.168,1.5718-1.5361,.6602-.3682,1.3862-.5518,2.1782-.5518s1.5181,.1836,2.1777,.5518c.6602,.3682,1.1802,.8799,1.5601,1.5361s.5703,1.3955,.5703,2.2197-.1919,1.5664-.5762,2.2266c-.3838,.6592-.9043,1.1738-1.5601,1.542-.6558,.3672-1.3799,.5518-2.1719,.5518s-1.5181-.1846-2.1782-.5518Zm3.792-1.9922c.4043-.4482,.6064-1.04,.6064-1.7764,0-.7441-.2021-1.3379-.6064-1.7822-.4038-.4434-.9419-.666-1.6138-.666-.6802,0-1.2222,.2207-1.626,.6602-.4043,.4404-.606,1.0361-.606,1.7881,0,.7441,.2017,1.3379,.606,1.7822,.4038,.4443,.9458,.666,1.626,.666,.6719,0,1.21-.2236,1.6138-.6719Z"/><path class="h" d="M145.6431,128.3314v5.7354c0,.8887-.25,1.5723-.75,2.0518-.5,.4805-1.1738,.7207-2.022,.7207-.8882,0-1.6001-.252-2.1357-.7559-.5361-.5039-.8042-1.2207-.8042-2.1484h2.04c0,.3525,.0718,.6182,.2158,.7979,.144,.1807,.3521,.2705,.624,.2705,.248,0,.4399-.0801,.5762-.2402,.1357-.1602,.2041-.3916,.2041-.6963v-5.7354h2.0518Z"/><path class="h" d="M149.3511,129.975v1.7041h2.748v1.584h-2.748v1.8477h3.1079v1.6445h-5.1597v-8.4238h5.1597v1.6436h-3.1079Z"/><path class="h" d="M158.6748,136.7552l-2.832-3.7207v3.7207h-2.0518v-8.4238h2.0518v3.6953l2.8081-3.6953h2.4121l-3.2642,4.1279,3.3843,4.2959h-2.5083Z"/><path class="h" d="M168.2148,128.3314v1.6436h-2.2324v6.7803h-2.0518v-6.7803h-2.2319v-1.6436h6.5161Z"/></g><g><path class="h" d="M104.6982,148.9828c-.2246,.4043-.5684,.7305-1.0322,.9775-.4639,.249-1.04,.3721-1.7275,.3721h-1.2725v3.0244h-2.0518v-8.4238h3.3242c.6719,0,1.2393,.1162,1.7041,.3477,.4639,.2324,.8115,.5518,1.0439,.96,.2314,.4082,.3477,.876,.3477,1.4043,0,.4883-.1123,.9336-.3359,1.3379Zm-2.04-.5576c.1924-.1846,.2881-.4443,.2881-.7803s-.0957-.5957-.2881-.7803c-.1924-.1836-.4844-.2754-.876-.2754h-1.1162v2.1113h1.1162c.3916,0,.6836-.0918,.876-.2754Z"/><path class="h" d="M108.1543,151.7728h2.6885v1.584h-4.7402v-8.4238h2.0518v6.8398Z"/><path class="h" d="M117.0703,151.8685h-3.1445l-.5039,1.4883h-2.1475l3.0479-8.4238h2.376l3.0479,8.4238h-2.1719l-.5039-1.4883Zm-.5283-1.584l-1.0439-3.084-1.0322,3.084h2.0762Z"/><path class="h" d="M128.2061,153.3568h-2.0527l-3.4316-5.1963v5.1963h-2.0518v-8.4238h2.0518l3.4316,5.2197v-5.2197h2.0527v8.4238Z"/><path class="h" d="M131.7461,151.7728h2.6885v1.584h-4.7402v-8.4238h2.0518v6.8398Z"/><path class="h" d="M142.5098,146.5531v1.7275h2.6758v1.5605h-2.6758v1.8955h3.0361v1.6201h-5.0879v-1.416h-2.7725l-.7197,1.416h-2.2197l4.3076-8.4238h6.4922v1.6201h-3.0361Zm-2.0518,3.8281v-3.9248l-1.9805,3.9248h1.9805Z"/><path class="h" d="M152.4697,147.597c-.1523-.2803-.3701-.4941-.6543-.6426-.2842-.1475-.6172-.2217-1.002-.2217-.6641,0-1.1953,.2178-1.5957,.6543-.4004,.4355-.5996,1.0176-.5996,1.7461,0,.7754,.21,1.3818,.6299,1.8174,.4199,.4365,.998,.6543,1.7334,.6543,.5039,0,.9307-.1279,1.2783-.3838s.6016-.624,.7617-1.1045h-2.6035v-1.5117h4.4639v1.9082c-.1523,.5117-.4102,.9883-.7744,1.4277-.3633,.4404-.8262,.7959-1.3857,1.0684-.5596,.2715-1.1924,.4072-1.8955,.4072-.832,0-1.5742-.1816-2.2266-.5459-.6523-.3633-1.1602-.8701-1.5234-1.5176-.3643-.6484-.5459-1.3877-.5459-2.2197s.1816-1.5742,.5459-2.2266c.3633-.6514,.8691-1.1602,1.5176-1.5234,.6484-.3643,1.3877-.5459,2.2197-.5459,1.0088,0,1.8584,.2441,2.5508,.7314,.6914,.4883,1.1494,1.1641,1.373,2.0283h-2.2676Z"/><path class="h" d="M163.5576,153.3568h-2.0527l-3.4316-5.1963v5.1963h-2.0518v-8.4238h2.0518l3.4316,5.2197v-5.2197h2.0527v8.4238Z"/><path class="h" d="M167.0977,144.933v8.4238h-2.0518v-8.4238h2.0518Z"/><path class="h" d="M176.1221,153.3568h-2.0527l-3.4316-5.1963v5.1963h-2.0518v-8.4238h2.0518l3.4316,5.2197v-5.2197h2.0527v8.4238Z"/><path class="h" d="M183.2012,147.597c-.1523-.2803-.3701-.4941-.6543-.6426-.2842-.1475-.6172-.2217-1.002-.2217-.6641,0-1.1953,.2178-1.5957,.6543-.4004,.4355-.5996,1.0176-.5996,1.7461,0,.7754,.21,1.3818,.6299,1.8174,.4199,.4365,.998,.6543,1.7334,.6543,.5039,0,.9307-.1279,1.2783-.3838s.6016-.624,.7617-1.1045h-2.6035v-1.5117h4.4639v1.9082c-.1523,.5117-.4102,.9883-.7744,1.4277-.3633,.4404-.8262,.7959-1.3857,1.0684-.5596,.2715-1.1924,.4072-1.8955,.4072-.832,0-1.5742-.1816-2.2266-.5459-.6523-.3633-1.1602-.8701-1.5234-1.5176-.3643-.6484-.5459-1.3877-.5459-2.2197s.1816-1.5742,.5459-2.2266c.3633-.6514,.8691-1.1602,1.5176-1.5234,.6484-.3643,1.3877-.5459,2.2197-.5459,1.0088,0,1.8584,.2441,2.5508,.7314,.6914,.4883,1.1494,1.1641,1.373,2.0283h-2.2676Z"/></g><circle class="d" cx="142.3752" cy="141.9007" r="137.4803"/><g><rect class="b" x="126.8374" y="37.0239" width="31.0757" height="27.1912"/><rect class="h" x="126.8374" y="33.1394" width="31.0757" height="3.8845"/><g><rect class="e" x="129.2651" y="39.6945" width="13.1101" height="6.9596"/><rect class="c" x="129.2651" y="49.2438" width="26.2201" height="2.185"/><rect class="c" x="129.2651" y="54.0184" width="26.2201" height="2.185"/><rect class="c" x="129.2651" y="58.793" width="13.1101" height="2.185"/><rect class="c" x="144.5602" y="44.4691" width="10.9251" height="2.185"/><rect class="f" x="144.5602" y="39.6945" width="10.9251" height="2.185"/></g><polygon class="b" points="156.4308 34.378 156.0875 34.0346 155.3638 34.7582 154.6403 34.0346 154.297 34.378 155.0206 35.1016 154.297 35.8252 154.6403 36.1685 155.3638 35.4449 156.0875 36.1685 156.4308 35.8252 155.7072 35.1016 156.4308 34.378"/></g><g><g><polygon class="c" points="63.9735 199.7687 61.7289 199.7687 61.7289 191.0758 70.4223 191.0758 70.4223 193.3204 63.9735 193.3204 63.9735 199.7687"/><polygon class="c" points="92.3648 199.7687 90.1202 199.7687 90.1202 193.3204 83.6718 193.3204 83.6718 191.0758 92.3648 191.0758 92.3648 199.7687"/><polygon class="c" points="70.4223 221.7117 61.7289 221.7117 61.7289 213.0182 63.9735 213.0182 63.9735 219.4671 70.4223 219.4671 70.4223 221.7117"/><polygon class="c" points="92.3648 221.7117 83.6718 221.7117 83.6718 219.4671 90.1202 219.4671 90.1202 213.0182 92.3648 213.0182 92.3648 221.7117"/></g><circle class="f" cx="77.047" cy="206.3936" r="11.3566" transform="translate(-123.3757 114.9317) rotate(-45)"/><circle class="g" cx="77.047" cy="206.3936" r="9.4638" transform="translate(-141.5741 233.585) rotate(-76.6192)"/><circle class="e" cx="77.047" cy="206.3936" r="7.571" transform="translate(-141.5647 233.6605) rotate(-76.639)"/><g><rect class="g" x="76.2053" y="204.2349" width="1.6835" height="4.3177"/><rect class="g" x="74.888" y="205.5518" width="4.3179" height="1.6835"/></g><g><rect class="h" x="79.0958" y="198.1906" width="10.0641" height="2.2443" transform="translate(-116.295 117.8647) rotate(-45)"/><polygon class="h" points="84.8397 203.9932 79.4473 203.9932 79.4473 198.6009 81.6919 198.6009 81.6919 201.7486 84.8397 201.7486 84.8397 203.9932"/></g></g><g><path class="e" d="M207.7034,95.3191c-10.7972,0-19.5817-8.7844-19.5817-19.5819s8.7844-19.5819,19.5817-19.5819,19.5822,8.7844,19.5822,19.5819-8.7844,19.5819-19.5822,19.5819Zm0-36.9193c-9.5599,0-17.3371,7.7775-17.3371,17.3373s7.7772,17.3373,17.3371,17.3373,17.3376-7.7774,17.3376-17.3373-7.7778-17.3373-17.3376-17.3373Z"/><circle class="f" cx="207.7034" cy="75.7371" r="15.7122"/><circle class="b" cx="207.7034" cy="75.7371" r="4.4892"/><rect class="h" x="207.7034" y="74.6149" width="6.7338" height="2.2446"/><rect class="h" x="206.5811" y="66.7588" width="2.2446" height="8.9784"/><rect class="b" x="206.5811" y="62.2695" width="2.2446" height="2.2446"/><rect class="b" x="218.9265" y="74.6148" width="2.2446" height="2.2446" transform="translate(295.7859 -144.3116) rotate(90)"/><rect class="b" x="194.2358" y="74.6148" width="2.2446" height="2.2446" transform="translate(119.621 271.0952) rotate(-90)"/><rect class="b" x="206.5811" y="86.9602" width="2.2446" height="2.2446" transform="translate(415.4069 176.1649) rotate(180)"/><rect class="b" x="197.8517" y="65.8853" width="2.2446" height="2.2446" transform="translate(10.8966 160.3219) rotate(-45)"/><rect class="b" x="215.3106" y="65.8853" width="2.2446" height="2.2446" transform="translate(110.7733 -133.4151) rotate(45)"/><rect class="b" x="197.8517" y="83.3443" width="2.2446" height="2.2446" transform="translate(279.943 284.8893) rotate(-135)"/><rect class="b" x="215.3106" y="83.3443" width="2.2446" height="2.2446" transform="translate(429.201 -8.8477) rotate(135)"/><circle class="e" cx="207.7034" cy="75.7371" r="2.2446"/></g><g><rect class="b" x="33.7138" y="126.8582" width="32.5468" height="28.4784"/><rect class="c" x="33.7138" y="126.8582" width="32.5468" height="6.8654"/><rect class="h" x="48.8648" y="124.6089" width="2.2446" height="4.4985"/><rect class="h" x="54.9674" y="124.6089" width="2.2446" height="4.4985"/><rect class="h" x="61.0699" y="124.6089" width="2.2446" height="4.4985"/><rect class="h" x="42.7623" y="124.6089" width="2.2446" height="4.4985"/><rect class="h" x="36.6598" y="124.6089" width="2.2446" height="4.4985"/><g><rect class="e" x="36.765" y="135.8425" width="4.0683" height="4.0683"/><rect class="f" x="44.2236" y="135.8425" width="4.0683" height="4.0683"/><rect class="f" x="51.6823" y="135.8425" width="4.0683" height="4.0683"/><rect class="f" x="59.1409" y="135.8425" width="4.0683" height="4.0683"/></g><g><rect class="e" x="36.765" y="148.3018" width="4.0683" height="4.0683"/><rect class="f" x="44.2236" y="148.3018" width="4.0683" height="4.0683"/><rect class="f" x="51.6823" y="148.3018" width="4.0683" height="4.0683"/><rect class="f" x="59.1409" y="148.3018" width="4.0683" height="4.0683"/></g><g><rect class="e" x="36.765" y="142.0722" width="4.0683" height="4.0683"/><rect class="f" x="44.2236" y="142.0722" width="4.0683" height="4.0683"/><rect class="f" x="51.6823" y="142.0722" width="4.0683" height="4.0683"/><rect class="f" x="59.1409" y="142.0722" width="4.0683" height="4.0683"/></g></g><g><path class="h" d="M223.4157,197.4151h-2.2446v-4.4892h-4.4892v-2.2446c0-1.2396-1.0049-2.2446-2.2446-2.2446s-2.2446,1.005-2.2446,2.2446v2.2446h-4.4892v13.4676h13.4676v-4.4892h2.2446c1.2397,0,2.2446-1.0049,2.2446-2.2446s-1.0049-2.2446-2.2446-2.2446Z"/><path class="e" d="M209.948,197.4151h-2.2446v-4.4892h-4.4892v-2.2446c0-1.2396-1.0049-2.2446-2.2446-2.2446s-2.2446,1.005-2.2446,2.2446v2.2446h-4.4892v4.4892h2.2446c1.2397,0,2.2446,1.005,2.2446,2.2446s-1.0049,2.2446-2.2446,2.2446h-2.2446v4.4892h13.4676v-4.4892h2.2446c1.2397,0,2.2446-1.0049,2.2446-2.2446s-1.0049-2.2446-2.2446-2.2446Z"/><path class="f" d="M203.2142,206.3935v-2.2446c0-1.2396-1.0049-2.2446-2.2446-2.2446s-2.2446,1.005-2.2446,2.2446v2.2446h-4.4892v4.4892h-2.2446c-1.2396,0-2.2446,1.005-2.2446,2.2446s1.005,2.2446,2.2446,2.2446h2.2446v4.4892h4.4892v2.2446c0,1.2397,1.005,2.2446,2.2446,2.2446s2.2446-1.0049,2.2446-2.2446v-2.2446h4.4892v-13.4676h-4.4892Z"/><path class="c" d="M218.9265,210.8828h2.2446v-4.4892h-4.4892v-2.2446c0-1.2396-1.0049-2.2446-2.2446-2.2446s-2.2446,1.005-2.2446,2.2446v2.2446h-4.4892v4.4892h-2.2446c-1.2396,0-2.2446,1.005-2.2446,2.2446s1.005,2.2446,2.2446,2.2446h2.2446v4.4892h4.4892v2.2446c0,1.2397,1.005,2.2446,2.2446,2.2446s2.2446-1.0049,2.2446-2.2446v-2.2446h4.4892v-4.4892h-2.2446c-1.2396,0-2.2446-1.0049-2.2446-2.2446s1.005-2.2446,2.2446-2.2446Z"/></g><g><path class="e" d="M142.3752,233.4534h0c-4.9587,0-8.9784-4.0198-8.9784-8.9784v-8.9784h17.9569v8.9784c0,4.9587-4.0198,8.9784-8.9784,8.9784Z"/><path class="c" d="M142.3752,231.2088c-3.713,0-6.7338-3.0206-6.7338-6.7338v-4.4892h13.4676v4.4892c0,3.7133-3.0206,6.7338-6.7338,6.7338Z"/><path class="e" d="M142.3752,233.4534h0c-4.9587,0-8.9784,4.0198-8.9784,8.9784v8.9784h17.9569v-8.9784c0-4.9586-4.0198-8.9784-8.9784-8.9784Z"/><rect class="c" x="135.6414" y="242.4318" width="13.4676" height="4.4892"/><rect class="c" x="141.2529" y="230.0865" width="2.2446" height="12.3453"/><rect class="h" x="133.3968" y="215.4966" width="17.9569" height="2.2446"/><rect class="h" x="133.3968" y="249.1657" width="17.9569" height="2.2446"/><g><rect class="f" x="153.5983" y="219.9855" width="2.2446" height="13.4676"/><polygon class="f" points="154.7206 235.0402 150.5601 230.8797 152.1472 229.2927 154.7206 231.8661 157.2939 229.2927 158.881 230.8797 154.7206 235.0402"/></g><g><rect class="f" x="128.9076" y="233.4531" width="2.2446" height="13.4676"/><polygon class="f" points="132.6033 237.6136 130.0299 235.0402 127.4565 237.6136 125.8694 236.0266 130.0299 231.8661 134.1903 236.0266 132.6033 237.6136"/></g></g><g><path class="e" d="M223.5403,123.1085h22.4461c2.4777,0,4.4892,2.0115,4.4892,4.4892v26.9353c0,2.4777-2.0115,4.4892-4.4892,4.4892h-22.4461v-35.9137h0Z"/><polygon class="c" points="230.2741 163.5114 228.0295 161.2668 225.7849 163.5114 225.7849 154.533 230.2741 154.533 230.2741 163.5114"/><path class="f" d="M221.2956,123.1085h22.4461c2.4777,0,4.4892,2.0115,4.4892,4.4892v26.9353c0,2.4777-2.0115,4.4892-4.4892,4.4892h-22.4461v-35.9137h0Z"/><rect class="h" x="221.2956" y="123.1085" width="4.4892" height="35.9137"/><rect class="b" x="228.7255" y="127.9421" width="15.9227" height="8.634"/></g><g><g><rect class="h" x="61.8959" y="88.769" width="30.3022" height="1.8939"/><rect class="h" x="61.8959" y="75.5118" width="4.7347" height="11.3633"/><rect class="e" x="70.4184" y="71.7241" width="4.7347" height="15.1511"/><rect class="f" x="78.9409" y="67.9363" width="4.7347" height="18.9389"/><rect class="c" x="87.4634" y="60.3607" width="4.7347" height="26.5144"/></g><g><rect class="h" x="66.0899" y="62.4873" width="13.3918" height="2.2443" transform="translate(-23.6602 70.0981) rotate(-45)"/><polygon class="h" points="78.6429 64.5564 76.3983 64.5564 76.3983 59.997 71.8389 59.997 71.8389 57.7524 78.6429 57.7524 78.6429 64.5564"/></g></g><g><polygon class="f" points="196.1723 53.1549 189.8835 40.7759 163.9308 35.1444 164.0503 34.5958 190.2627 40.2838 196.6721 52.9007 196.1723 53.1549"/><polygon class="f" points="184.0029 87.9781 164.5818 81.8967 164.7687 81.5903 189.9493 40.1936 243.8571 57.974 233.3585 70.8846 232.9234 70.5306 242.9079 58.2519 190.197 40.866 165.4345 81.5756 184.1706 87.4427 184.0029 87.9781"/><polygon class="f" points="169.0408 95.1185 164.7226 81.7654 164.7292 81.7057 167.6544 54.8233 168.2123 54.8841 165.2936 81.7068 169.5746 94.9459 169.0408 95.1185"/><rect class="f" x="225.4941" y="69.6439" width="25.6875" height=".5613" transform="translate(80.4781 261.6917) rotate(-66.8902)"/><polygon class="f" points="189.7937 40.5536 188.987 31.0839 161.661 32.1876 161.6379 31.627 189.501 30.5015 190.3526 40.506 189.7937 40.5536"/><rect class="f" x="202.9955" y="23.2853" width=".5612" height="33.7347" transform="translate(57.0716 186.9779) rotate(-56.2951)"/><polygon class="f" points="250.2703 121.2449 226.314 95.6044 220.3216 120.4032 219.7758 120.2712 226.0126 94.4601 250.6802 120.8619 250.2703 121.2449"/><polygon class="f" points="208.5555 140.0528 194.2357 127.81 197.253 100.5856 197.8109 100.6476 194.8265 127.5765 208.9204 139.6265 208.5555 140.0528"/><rect class="f" x="187.6132" y="111.0822" width="45.468" height=".5611" transform="translate(-15.9468 185.1098) rotate(-45.9481)"/><polygon class="f" points="234.0682 208.2213 233.5125 208.1446 238.0176 175.6093 190.5241 166.6495 190.6283 166.0982 238.6467 175.1566 234.0682 208.2213"/><polygon class="f" points="183.4714 183.2363 183.3946 182.6807 238.1974 175.1183 250.2731 162.5532 250.6775 162.9423 238.4669 175.6476 238.3705 175.6608 183.4714 183.2363"/><rect class="f" x="203.2704" y="139.792" width=".5609" height="16.3633" transform="translate(-25.2719 252.708) rotate(-60.6097)"/><polygon class="f" points="167.9317 240.0327 167.8802 239.4737 189.9219 237.434 145.9854 196.9445 151.21 209.5239 150.6916 209.7387 144.4872 194.8008 191.2305 237.8768 167.9317 240.0327"/><polygon class="f" points="175.2897 204.1305 150.5596 195.5833 150.7426 195.0528 174.5543 203.2822 171.4674 187.3316 172.0187 187.2252 175.2897 204.1305"/><polygon class="f" points="190.5674 238.5262 184.2435 219.3089 184.7761 219.1336 190.5849 236.7847 193.2959 229.0792 193.8252 229.2656 190.5674 238.5262"/><polygon class="f" points="181.5418 205.3454 174.8661 203.9814 174.9779 203.4312 181.6536 204.7952 181.5418 205.3454"/></g><g><circle class="f" cx="189.2438" cy="30.7927" r="1.3327"/><path class="f" d="M189.244,32.406c-.8894,0-1.6133-.7237-1.6133-1.6133s.7239-1.6133,1.6133-1.6133,1.6133,.7237,1.6133,1.6133-.7239,1.6133-1.6133,1.6133Zm0-2.6655c-.5803,0-1.0522,.4721-1.0522,1.0522s.4718,1.0522,1.0522,1.0522,1.0522-.4721,1.0522-1.0522-.4719-1.0522-1.0522-1.0522Z"/></g><g><circle class="f" cx="190.0731" cy="40.5298" r="1.3327"/><path class="f" d="M190.0731,42.1432c-.8894,0-1.6133-.7237-1.6133-1.6133s.7239-1.6133,1.6133-1.6133,1.6133,.7236,1.6133,1.6133-.7239,1.6133-1.6133,1.6133Zm0-2.6655c-.5803,0-1.0522,.4721-1.0522,1.0522s.4718,1.0522,1.0522,1.0522,1.0522-.4722,1.0522-1.0522-.4718-1.0522-1.0522-1.0522Z"/></g><g><circle class="f" cx="243.3825" cy="58.1128" r="1.3327"/><path class="f" d="M243.3825,59.7262c-.8894,0-1.6133-.7236-1.6133-1.6133s.7239-1.6133,1.6133-1.6133,1.6133,.7237,1.6133,1.6133-.7239,1.6133-1.6133,1.6133Zm0-2.6655c-.5803,0-1.0522,.4721-1.0522,1.0522s.4718,1.0522,1.0522,1.0522,1.0522-.4721,1.0522-1.0522-.4718-1.0522-1.0522-1.0522Z"/></g><g><circle class="f" cx="238.3321" cy="175.3828" r="1.3327"/><path class="f" d="M238.3321,176.9963c-.8894,0-1.6133-.7239-1.6133-1.6133s.7239-1.6133,1.6133-1.6133,1.6133,.7239,1.6133,1.6133-.7239,1.6133-1.6133,1.6133Zm0-2.6655c-.5803,0-1.0522,.4718-1.0522,1.0522s.4718,1.0522,1.0522,1.0522,1.0522-.4718,1.0522-1.0522-.4718-1.0522-1.0522-1.0522Z"/></g><g><circle class="f" cx="190.576" cy="237.6557" r="1.3327"/><path class="f" d="M190.5762,239.2687c-.8894,0-1.6133-.7239-1.6133-1.6133s.7239-1.6133,1.6133-1.6133,1.6133,.7239,1.6133,1.6133-.7239,1.6133-1.6133,1.6133Zm0-2.6655c-.5803,0-1.0522,.4719-1.0522,1.0522s.4718,1.0522,1.0522,1.0522,1.0522-.4718,1.0522-1.0522-.4718-1.0522-1.0522-1.0522Z"/></g><g><circle class="f" cx="174.922" cy="203.7062" r="1.3327"/><path class="f" d="M174.922,205.3196c-.8894,0-1.6133-.7239-1.6133-1.6133s.7239-1.6133,1.6133-1.6133,1.6133,.7239,1.6133,1.6133-.7239,1.6133-1.6133,1.6133Zm0-2.6655c-.5804,0-1.0522,.4718-1.0522,1.0522s.4718,1.0522,1.0522,1.0522,1.0522-.4718,1.0522-1.0522-.4718-1.0522-1.0522-1.0522Z"/></g><g><circle class="f" cx="165.0083" cy="81.7361" r="1.3327"/><path class="f" d="M165.0081,83.3494c-.8894,0-1.6133-.7237-1.6133-1.6133s.7239-1.6133,1.6133-1.6133,1.6133,.7236,1.6133,1.6133-.7239,1.6133-1.6133,1.6133Zm0-2.6655c-.5804,0-1.0522,.4721-1.0522,1.0522s.4718,1.0522,1.0522,1.0522,1.0522-.4721,1.0522-1.0522-.4718-1.0522-1.0522-1.0522Z"/></g><g><polygon class="f" points="88.7403 53.1549 88.2405 52.9007 94.6499 40.2838 120.8629 34.5958 120.9824 35.1444 95.0292 40.7759 88.7403 53.1549"/><polygon class="f" points="100.9097 87.9781 100.742 87.4427 119.4781 81.5756 94.7157 40.866 42.0047 58.2519 51.9895 70.5306 51.5544 70.8846 41.0556 57.974 94.9634 40.1936 95.079 40.3841 120.3308 81.8967 100.9097 87.9781"/><polygon class="f" points="115.8717 95.1185 115.338 94.9459 119.619 81.7068 116.7003 54.8841 117.2582 54.8233 120.19 81.7654 120.1713 81.8224 115.8717 95.1185"/><rect class="f" x="46.2941" y="57.0808" width=".5613" height="25.6875" transform="translate(-23.7212 23.9124) rotate(-23.1268)"/><polygon class="f" points="95.119 40.5536 94.56 40.506 95.4122 30.5015 123.2747 31.627 123.2517 32.1876 95.9262 31.0839 95.119 40.5536"/><rect class="f" x="64.7695" y="39.8721" width="33.735" height=".5611" transform="translate(-8.5623 52.0237) rotate(-33.6875)"/><polygon class="f" points="34.6421 121.2449 34.2321 120.8619 58.9001 94.4601 65.1366 120.2715 64.5913 120.4029 58.5992 95.6044 34.6421 121.2449"/><polygon class="f" points="76.3569 140.0528 75.9924 139.6265 90.0862 127.5765 87.1018 100.6476 87.6596 100.5856 90.6769 127.81 76.3569 140.0528"/><rect class="f" x="74.285" y="88.6288" width=".5612" height="45.4678" transform="translate(-56.4723 83.2425) rotate(-44.083)"/><polygon class="f" points="50.8442 208.2213 46.2659 175.1566 46.5284 175.1073 94.2844 166.0982 94.3885 166.6495 46.895 175.6093 51.3998 208.1446 50.8442 208.2213"/><polygon class="f" points="101.4418 183.2363 46.4457 175.6476 34.2349 162.9423 34.6393 162.5532 46.7153 175.1183 101.5185 182.6807 101.4418 183.2363"/><rect class="f" x="73.1804" y="147.6931" width="16.3631" height=".561" transform="translate(-62.1905 59.0429) rotate(-29.418)"/><polygon class="f" points="116.9809 240.0327 93.6822 237.8768 140.4254 194.8008 134.221 209.7387 133.7025 209.5239 138.9272 196.9445 94.9908 237.434 117.0324 239.4737 116.9809 240.0327"/><polygon class="f" points="109.6229 204.1305 112.8945 187.2252 113.4458 187.3316 110.3583 203.2822 134.17 195.0528 134.353 195.5833 109.6229 204.1305"/><polygon class="f" points="94.3452 238.5262 91.0873 229.2656 91.6167 229.0792 94.3277 236.7847 100.137 219.1336 100.6697 219.3089 94.3452 238.5262"/><rect class="f" x="103.2465" y="204.1075" width="6.8131" height=".5615" transform="translate(-38.8901 25.5961) rotate(-11.5905)"/></g><g><circle class="f" cx="95.6689" cy="30.7927" r="1.3327"/><path class="f" d="M95.6692,32.406c-.8894,0-1.6133-.7237-1.6133-1.6133s.7239-1.6133,1.6133-1.6133,1.6133,.7237,1.6133,1.6133-.7239,1.6133-1.6133,1.6133Zm0-2.6655c-.5803,0-1.0522,.4721-1.0522,1.0522s.4718,1.0522,1.0522,1.0522,1.0522-.4721,1.0522-1.0522-.4718-1.0522-1.0522-1.0522Z"/></g><g><circle class="f" cx="94.8396" cy="40.5298" r="1.3327"/><path class="f" d="M94.8395,42.1432c-.8894,0-1.6133-.7237-1.6133-1.6133s.7239-1.6133,1.6133-1.6133,1.6133,.7236,1.6133,1.6133-.7239,1.6133-1.6133,1.6133Zm0-2.6655c-.5803,0-1.0522,.4721-1.0522,1.0522s.4718,1.0522,1.0522,1.0522,1.0522-.4722,1.0522-1.0522-.4719-1.0522-1.0522-1.0522Z"/></g><g><circle class="f" cx="41.5302" cy="58.1128" r="1.3327"/><path class="f" d="M41.5301,59.7262c-.8897,0-1.6133-.7236-1.6133-1.6133s.7236-1.6133,1.6133-1.6133,1.6133,.7237,1.6133,1.6133-.7237,1.6133-1.6133,1.6133Zm0-2.6655c-.5801,0-1.0522,.4721-1.0522,1.0522s.4721,1.0522,1.0522,1.0522,1.0522-.4721,1.0522-1.0522-.4721-1.0522-1.0522-1.0522Z"/></g><g><circle class="f" cx="46.5806" cy="175.3828" r="1.3327"/><path class="f" d="M46.5805,176.9963c-.8897,0-1.6133-.7239-1.6133-1.6133s.7236-1.6133,1.6133-1.6133,1.6133,.7239,1.6133,1.6133-.7237,1.6133-1.6133,1.6133Zm0-2.6655c-.5801,0-1.0522,.4718-1.0522,1.0522s.4721,1.0522,1.0522,1.0522,1.0522-.4718,1.0522-1.0522-.4721-1.0522-1.0522-1.0522Z"/></g><g><circle class="f" cx="94.3367" cy="237.6557" r="1.3327"/><path class="f" d="M94.3365,239.2687c-.8894,0-1.6133-.7239-1.6133-1.6133s.7239-1.6133,1.6133-1.6133,1.6133,.7239,1.6133,1.6133-.7239,1.6133-1.6133,1.6133Zm0-2.6655c-.5803,0-1.0522,.4719-1.0522,1.0522s.4718,1.0522,1.0522,1.0522,1.0522-.4718,1.0522-1.0522-.4718-1.0522-1.0522-1.0522Z"/></g><g><circle class="f" cx="109.9907" cy="203.7062" r="1.3327"/><path class="f" d="M109.9906,205.3196c-.8894,0-1.6133-.7239-1.6133-1.6133s.7239-1.6133,1.6133-1.6133,1.6133,.7239,1.6133,1.6133-.7239,1.6133-1.6133,1.6133Zm0-2.6655c-.5803,0-1.0522,.4718-1.0522,1.0522s.4718,1.0522,1.0522,1.0522,1.0522-.4718,1.0522-1.0522-.4719-1.0522-1.0522-1.0522Z"/></g><g><circle class="f" cx="119.9044" cy="81.7361" r="1.3327"/><path class="f" d="M119.9045,83.3494c-.8894,0-1.6133-.7237-1.6133-1.6133s.7239-1.6133,1.6133-1.6133,1.6133,.7236,1.6133,1.6133-.7239,1.6133-1.6133,1.6133Zm0-2.6655c-.5803,0-1.0522,.4721-1.0522,1.0522s.4718,1.0522,1.0522,1.0522,1.0522-.4721,1.0522-1.0522-.4719-1.0522-1.0522-1.0522Z"/></g><g><path class="h" d="M142.3752,196.5089c-30.111,0-54.6082-24.4972-54.6082-54.6082s24.4972-54.6082,54.6082-54.6082,54.6082,24.4972,54.6082,54.6082-24.4973,54.6082-54.6082,54.6082Zm0-108.0941c-29.4922,0-53.4859,23.9937-53.4859,53.4859s23.9937,53.4859,53.4859,53.4859,53.4859-23.9937,53.4859-53.4859-23.9937-53.4859-53.4859-53.4859Z"/><path class="h" d="M142.3752,76.1796c-14.7045,0-26.6673-11.9628-26.6673-26.667s11.9629-26.667,26.6673-26.667,26.6673,11.9629,26.6673,26.667-11.9629,26.667-26.6673,26.667Zm0-52.2117c-14.0858,0-25.545,11.4592-25.545,25.5447s11.4592,25.5447,25.545,25.5447,25.545-11.4592,25.545-25.5447-11.4592-25.5447-25.545-25.5447Z"/><rect class="h" x="141.8141" y="75.6185" width="1.1223" height="12.2352"/><path class="h" d="M77.0468,103.227c-6.8286,0-13.6575-2.5991-18.8561-7.798-10.3975-10.3975-10.3975-27.3153,0-37.7128,10.3975-10.398,27.3153-10.3975,37.7125,0,10.3977,10.3975,10.3977,27.3153,0,37.7128-5.1989,5.1988-12.0275,7.798-18.8564,7.798Zm0-52.1991c-6.8231,0-13.2377,2.6572-18.0626,7.4818-4.8246,4.8248-7.4818,11.2398-7.4818,18.0629s2.6572,13.2381,7.4818,18.0629c4.8248,4.8246,11.2395,7.4818,18.0626,7.4818s13.2384-2.6572,18.0629-7.4818c4.8246-4.8248,7.4818-11.2398,7.4818-18.0629s-2.6572-13.238-7.4818-18.0629c-4.8246-4.8246-11.2395-7.4818-18.0629-7.4818Z"/><rect class="h" x="99.2713" y="93.2403" width="1.1222" height="12.2353" transform="translate(-41.0165 99.6962) rotate(-45.0011)"/><path class="h" d="M49.9871,168.568c-14.7042,0-26.667-11.9629-26.667-26.6673s11.9629-26.667,26.667-26.667,26.667,11.9629,26.667,26.667-11.9628,26.6673-26.667,26.6673Zm0-52.2121c-14.0855,0-25.5447,11.4592-25.5447,25.5447s11.4592,25.545,25.5447,25.545,25.5447-11.4592,25.5447-25.545-11.4592-25.5447-25.5447-25.5447Z"/><rect class="h" x="76.093" y="141.3396" width="12.2352" height="1.1223"/><path class="h" d="M77.0468,233.8836c-6.8286,0-13.6575-2.5992-18.8561-7.798-10.3975-10.3972-10.3975-27.3156,0-37.7128,10.3975-10.3983,27.3153-10.3972,37.7125,0,10.3977,10.3972,10.3977,27.3156,0,37.7128-5.1989,5.1988-12.0275,7.798-18.8564,7.798Zm0-52.1992c-6.8231,0-13.2377,2.6572-18.0626,7.4818-4.8246,4.8246-7.4818,11.2395-7.4818,18.0631s2.6572,13.2381,7.4818,18.0626c4.8248,4.8246,11.2395,7.4818,18.0626,7.4818s13.2384-2.6572,18.0629-7.4818c4.8246-4.8246,7.4818-11.2395,7.4818-18.0626s-2.6572-13.2386-7.4818-18.0631c-4.8246-4.8246-11.2395-7.4818-18.0629-7.4818Z"/><rect class="h" x="93.7146" y="183.8825" width="12.2355" height="1.1222" transform="translate(-101.1811 124.6144) rotate(-45)"/><path class="h" d="M142.3752,260.9558c-14.7045,0-26.6673-11.9628-26.6673-26.6673s11.9629-26.6667,26.6673-26.6667,26.6673,11.9628,26.6673,26.6667-11.9629,26.6673-26.6673,26.6673Zm0-52.2117c-14.0858,0-25.545,11.4592-25.545,25.5444s11.4592,25.545,25.545,25.545,25.545-11.4592,25.545-25.545-11.4592-25.5444-25.545-25.5444Z"/><rect class="h" x="141.8141" y="195.9478" width="1.1223" height="12.2352"/><path class="h" d="M207.7039,233.8836c-6.8292,0-13.6578-2.5992-18.8567-7.798-10.3978-10.3972-10.3978-27.3156,0-37.7128,10.3972-10.3972,27.3145-10.3977,37.7128,0,10.3977,10.3972,10.3977,27.3156,0,37.7128-5.1989,5.1988-12.0275,7.798-18.8562,7.798Zm0-52.1992c-6.8237,0-13.2386,2.6572-18.0631,7.4818-4.8246,4.8246-7.4818,11.2395-7.4818,18.0631s2.6572,13.2381,7.4818,18.0626c4.8246,4.8246,11.2395,7.4818,18.0631,7.4818s13.2381-2.6572,18.0626-7.4818c4.8246-4.8246,7.4818-11.2395,7.4818-18.0626s-2.6572-13.2386-7.4818-18.0631c-4.8246-4.8246-11.2395-7.4818-18.0626-7.4818Z"/><rect class="h" x="184.357" y="178.3258" width="1.1222" height="12.2355" transform="translate(-76.2601 184.7785) rotate(-44.9999)"/><path class="h" d="M234.763,116.356c-14.0852,0-25.5444,11.4592-25.5444,25.5447s11.4592,25.545,25.5444,25.545,25.545-11.4592,25.545-25.545-11.4592-25.5447-25.545-25.5447Zm0,52.2121c-14.7039,0-26.6667-11.9629-26.6667-26.6673s11.9628-26.667,26.6667-26.667,26.6673,11.9629,26.6673,26.667-11.9628,26.6673-26.6673,26.6673Z"/><rect class="h" x="196.4223" y="141.3396" width="12.2352" height="1.1223"/><path class="h" d="M207.7039,103.227c-6.8292,0-13.6578-2.5991-18.8567-7.798-10.3978-10.3975-10.3978-27.3153,0-37.7128,10.3972-10.3969,27.3145-10.398,37.7128,0,10.3977,10.3975,10.3977,27.3153,0,37.7128-5.1989,5.1988-12.0275,7.798-18.8562,7.798Zm0-52.1991c-6.8237,0-13.2386,2.6572-18.0631,7.4818-4.8246,4.8248-7.4818,11.2398-7.4818,18.0629s2.6572,13.2381,7.4818,18.0629c4.8246,4.8246,11.2395,7.4818,18.0631,7.4818s13.2381-2.6572,18.0626-7.4818c9.9599-9.9599,9.9599-26.1659,0-36.1258-4.8246-4.8246-11.2395-7.4818-18.0626-7.4818Z"/><rect class="h" x="178.8004" y="98.7969" width="12.2353" height="1.1222" transform="translate(-16.0955 159.8581) rotate(-45)"/></g></svg>