<?xml version="1.0" encoding="UTF-8"?><svg id="a" xmlns="http://www.w3.org/2000/svg" width="100mm" height="100mm" xmlns:xlink="http://www.w3.org/1999/xlink" viewBox="0 0 283.4646 283.4646"><defs><style>.c{fill:#fff;}.d{fill:#2ba0da;}.e{fill:#f5f5f5;}.f{fill:#feb85b;}.g{fill:#c29b5a;}.h{opacity:.3;}.i{clip-path:url(#b);}.j{fill:#ffc19d;}.k{opacity:.55;}.l{fill:#ff9c6a;}.m{fill:none;}.n{fill:#12293b;}</style><clipPath id="b"><circle class="m" cx="140.9894" cy="140.8611" r="137.4803"/></clipPath></defs><g class="i"><g><g><path class="j" d="M77.9641,219.9607s-4.3763-4.1083-6.059-5.1998-5.4574-2.5923-6.8672-2.7287c-1.4098-.1365-8.0042,1.7737-8.0042,1.7737,0,0-9.7324-.8641-11.3696,.2729-1.6372,1.1369-1.5008,2.3194-.8186,3.1835,.6822,.8641,3.3199,.5912,6.2305,.6367,2.9106,.0455,3.6837,.3184,3.6837,.3184l-4.2295,4.5023,10.9603,3.047,6.6853-.2504,2.4108,3.0313,7.3774-8.5868Z"/><path class="j" d="M44.5975,209.7897l.2645,9.6979,.4694,1.2051,4.7834,5.8322,11.6715-.7694-9.2982-3.623-3.3061-2.5126-1.2784-4.1437s.3967-6.3918-3.3061-5.6865Z"/><path class="j" d="M45.4178,220.9147h-2.8422s-3.7087-6.0997-7.103-4.0279l.7801,1.205s-1.5295-.6922-2.4993,.5943l9.3558,8.2072h.4303l9.9689-.6421-8.0906-5.3365Z"/><path class="l" d="M47.1108,222.7688c-.0033,.0291-.3005,.0148-.8046,.034-.4962,.0283-1.2326,.0606-1.9698,.3957l-.0953,.0433-.0618-.0872c-.2881-.4069-.6448-.8453-1.0106-1.3021-.7573-.9348-1.4423-1.7804-2.018-2.491-.5128-.6412-.8281-1.0378-.8017-1.0627,.0273-.0257,.395,.3295,.9453,.9403,.551,.6104,1.2934,1.4693,2.0822,2.446,.3686,.4606,.7171,.8979,1.0103,1.3329l-.1569-.0438c.8182-.3468,1.5686-.3351,2.0766-.3232,.5133,.0239,.808,.091,.8044,.1178Z"/><path class="l" d="M67.3321,217.1303c.0241,.0867-1.5747,.4117-3.2893,1.3921-1.7196,.9731-2.8157,2.1811-2.8779,2.116-.024-.0219,.2202-.348,.6905-.8082,.4693-.4593,1.1796-1.0402,2.0554-1.5398,.8768-.4973,1.739-.8109,2.3736-.9796,.6359-.169,1.0411-.2123,1.0477-.1806Z"/><path class="l" d="M58.0077,214.6185c.0529,.0551-.5919,.7503-1.3388,1.6445-.7499,.8923-1.3213,1.6487-1.3848,1.6063-.0596-.0385,.4195-.8723,1.1802-1.7777,.7579-.9071,1.495-1.5251,1.5434-1.4731Z"/><path class="l" d="M48.2612,224.1248c-.007,.0059-.0836-.0707-.2234-.2221-.1563-.1743-.3556-.3965-.6017-.6709-.2652-.3028-.5793-.6614-.9399-1.0732-.1834-.2112-.3783-.4357-.5843-.6729-.2028-.238-.4366-.4847-.6327-.7883-.3918-.5976-.6613-1.3748-.6644-2.2211-.016-.8267-.0331-1.708-.051-2.6349-.0307-1.8608-.0644-3.9022-.0998-6.0497l-.0019-.118,.1104-.0151,.3088-.0422c.6884-.077,1.4244,.1645,1.8866,.669,.4658,.4945,.726,1.1073,.9027,1.7038,.3394,1.2076,.3939,2.3949,.3509,3.4943l-.005-.0421c.4738,1.5721,.8956,2.972,1.2511,4.152l-.0314-.0449c1.0024,.7833,1.8139,1.4173,2.4032,1.8777l.6378,.5145c.1436,.1194,.2159,.185,.2107,.1919-.0052,.0069-.0878-.0452-.2413-.1516-.1741-.1246-.3944-.2821-.6665-.4768-.6013-.4444-1.4296-1.0566-2.4526-1.8128l-.0225-.0167-.009-.0284c-.371-1.1752-.8112-2.5694-1.3055-4.1352l-.0057-.0183,.0007-.0239c.0329-1.068-.0306-2.2479-.3633-3.4064-.1714-.5733-.4246-1.1499-.8444-1.5925-.4176-.4482-1.0425-.6531-1.672-.5878l-.2835,.0386,.1084-.1329c.0275,2.1476,.0536,4.1892,.0774,6.05,.0769,1.8418-.2111,3.5969,.6285,4.7587,.1796,.2898,.4022,.5345,.6034,.7804,.2005,.2419,.3903,.4708,.5688,.6862,.3475,.4229,.6501,.7912,.9056,1.1022l.5639,.703c.1266,.1625,.1897,.2506,.1828,.2565Z"/><path class="l" d="M43.5395,226.8933c.0037,.0129-.1998,.0234-.4969-.142-.297-.159-.6758-.4624-1.0974-.8767-.8455-.8291-1.8732-2.0959-2.9316-3.5447-1.0576-1.4509-1.9542-2.8056-2.5836-3.798-.3144-.4965-.5615-.9029-.7261-1.1876s-.2469-.4476-.2313-.4575c.0156-.0098,.1273,.1341,.3186,.4012,.2226,.3186,.4876,.698,.7962,1.1397,.6686,.9643,1.588,2.2993,2.6417,3.7449,1.0544,1.4436,2.0523,2.72,2.8509,3.57,.3983,.425,.7488,.7413,1.016,.9196,.2657,.1836,.4457,.2066,.4436,.2312Z"/><path class="j" d="M60.5687,220.6337l-5.1503-.3474-1.5392-4.22-.2837-2.8373c-.1387-1.3869-1.2984-2.4815-2.692-2.4607l-.05,.001,.2891,6.955,1.0579,4.32,4.1845,2.4685h5.1168l-.933-3.8792Z"/><g><path class="j" d="M60.5687,220.6337l-5.1503-.3474-1.5392-4.22-.2837-2.8373c-.1387-1.3869-1.2984-2.4815-2.692-2.4607l-.05,.001,.2891,6.955,1.0579,4.32,4.1845,2.4685"/><path class="l" d="M56.385,224.5129c-.0047,.0079-.1085-.0428-.3023-.147-.2168-.1204-.4959-.2755-.8425-.4679-.7553-.4335-1.8015-1.0339-3.0877-1.7722l-.0339-.0195-.0099-.0395c-.3109-1.2385-.6781-2.701-1.0829-4.3138l-.0028-.0112-.0006-.0125c-.0909-2.091-.1937-4.4559-.3023-6.9544l-.0057-.1328,.1356-.0062c.0465-.0021,.0988,.0006,.1508,.0023,1.2949,.0091,2.397,1.0195,2.6521,2.1743,.0733,.2923,.0861,.5775,.1152,.8494l.0797,.8176,.1524,1.5747-.0068-.0295c.5634,1.5712,1.0736,2.9942,1.5161,4.2284l-.0845-.0635c1.5648,.1236,2.8428,.2246,3.7652,.2974,.4214,.0391,.7609,.0706,1.023,.0949,.2337,.0248,.3561,.0424,.3555,.0519-.0006,.0096-.1243,.0106-.3592,.0037-.263-.0111-.6037-.0255-1.0265-.0434-.9237-.0517-2.2037-.1233-3.771-.211l-.0624-.0035-.0223-.0601c-.456-1.2293-.9817-2.6465-1.5623-4.2115l-.0052-.0139-.0016-.0158c-.0527-.5105-.1069-1.0356-.1624-1.5737l-.0838-.8172c-.0305-.2779-.0456-.556-.1123-.8128-.236-1.0509-1.24-1.9633-2.4046-1.9698-.0469-.0015-.0934-.0043-.1381-.0023l.1297-.1389c.0991,2.4988,.1929,4.8641,.2758,6.9555l-.0033-.0235c.3862,1.6174,.7364,3.084,1.033,4.326l-.0437-.0588c1.2682,.7688,2.2998,1.394,3.0445,1.8454l.817,.5111c.185,.1192,.2796,.1855,.2749,.1934Z"/></g></g><g><path class="n" d="M170.8832,138.5763c-4.4148-16.8237-8.4897-36.4014-33.087-34.6415,0,0-15.1588,2.9168-22.3574,14.104-4.2345,6.5806-7.903,34.9479-8.6326,57.3529l-.0002-.0003-.0002,.0114c-.0298,.9124,.3501,7.2717,.3246,8.1642l65.111,5.42h11.7296s-.7355-11.8861-4.2709-23.415c-3.4389-11.2141-7.2543-21.0406-8.817-26.9957Z"/><path class="j" d="M134.5233,110.3452l1.5391-1.4668,16.6297,6.702c2.4061,.133,4.3102,2.0852,4.3834,4.494l-.146,54.1837c.0211,3.6743-.7152,6.8564-2.9337,9.7852l-2.3355,3.0836c-5.3252,7.0305-16.2798,6.452-20.4958-1.2945-.2948-.5412-.4993-1.0162-.5879-1.4013-.0892-.4829-.2207-.8008-.2476-1.2117-.4949-4.3594-.5232-8.1392-.5232-8.1392-.2963-4.7861-.394-6.75-.3948-6.7053,0,0-10.1854-1.1709-12.9389-14.2453-1.3693-6.5022-1.1112-15.4475-.7262-24.2518,.5327-12.1841,8.9841-19.5446,18.7777-19.5327Z"/><path class="n" d="M138.8044,138.5705c.0132,.8944,.7813,1.6204,1.7152,1.6236,.9322,.0035,1.6792-.7167,1.6661-1.6111-.0134-.8941-.7816-1.6213-1.7134-1.6245-.9344-.0037-1.6813,.7181-1.6679,1.612Z"/><path class="n" d="M121.4406,139.0238c.0132,.8944,.7814,1.6204,1.7153,1.6237,.9321,.0034,1.6791-.7167,1.666-1.6111-.0134-.8941-.7816-1.6213-1.7133-1.6245-.9344-.0037-1.6813,.7181-1.668,1.6119Z"/><path class="n" d="M117.4849,133.3602c.2206,.21,1.4537-.8016,3.2729-.8883,1.8157-.1124,3.1976,.7567,3.3836,.5239,.0922-.1035-.1416-.4906-.7436-.8847-.5933-.3925-1.5899-.7532-2.7225-.692-1.1327,.0631-2.0648,.5282-2.5911,.9823-.5375,.4572-.7073,.8653-.5992,.9589Z"/><path class="n" d="M135.5252,132.7406c.2416,.186,1.3657-.9472,3.165-1.2195,1.7943-.2988,3.2582,.4236,3.4194,.1734,.0803-.1126-.1892-.4738-.8311-.8036-.6306-.33-1.6584-.5865-2.779-.4091-1.1201,.1792-1.9993,.7375-2.4767,1.2435-.4863,.5096-.6143,.9334-.4977,1.0153Z"/><path class="n" d="M129.5883,146.7886c.0035-.1037-1.1368-.2422-2.9808-.3849-.4667-.0249-.9111-.0949-1.0052-.4079-.1263-.3303,.0428-.8403,.2409-1.392,.3805-1.1459,.7784-2.3469,1.1964-3.6055,1.6547-5.1306,2.8281-9.3406,2.621-9.4051-.2073-.065-1.7173,4.0413-3.372,9.1721-.3968,1.2646-.7767,2.4702-1.1374,3.6236-.1495,.5367-.4216,1.1506-.1496,1.835,.1426,.3409,.496,.5755,.7979,.641,.3022,.0759,.5636,.0676,.7942,.0698,1.8484,.0069,2.9928-.0422,2.9944-.146Z"/><path class="l" d="M129.411,168.3748s8.8949,.1272,17.4145-5.5929c0,0-3.9805,9.3458-17.2331,8.7737l-.1814-3.1808Z"/><path class="l" d="M135.2727,150.487c-.5116-.6189-1.3285-.9594-2.1219-1.0049-1.1441-.0656-1.949,.0789-2.5598,.9765-.2867,.4954-.2617,1.2597-.1281,1.4692,.1333,.2099,.0337,.2146,.2377,.3623,.7384,.5337,1.59,.8765,2.4707,1.0798,.8803,.2033,1.8977-.0074,2.3542-.7222,.405-.6346,.2589-1.5423-.2529-2.1607Z"/><path class="n" d="M135.0882,124.3856c.2333,.4651,1.801-.0126,3.7234-.0468,1.9214-.0775,3.5351,.3078,3.7177-.1695,.0793-.2272-.2559-.6469-.9428-1.0266-.6813-.3797-1.7218-.6804-2.8743-.6482-1.1522,.0345-2.1568,.3947-2.795,.8128-.6435,.4186-.9326,.8564-.829,1.0783Z"/><path class="n" d="M117.7467,130.0691c.3404,.3968,1.5721-.0943,3.0778-.1903,1.5021-.1484,2.7965,.138,3.0683-.3087,.1186-.2162-.1035-.6198-.6804-.9831-.569-.3621-1.5039-.6346-2.5378-.5514-1.0335,.0849-1.9118,.504-2.4145,.9534-.5113,.4513-.6647,.8856-.5135,1.0801Z"/><path class="n" d="M156.7433,143.1983s-6.9996,1.6926-16.9342-19.701c-3.3817-7.2822-9.9497-14.6189-9.9497-14.6189l6.1621-.8891s18.3701,5.1753,18.6791,5.407c.3089,.2317,4.6345,9.5008,4.6345,9.5008l-2.5919,20.3012Z"/><path class="j" d="M154.4478,142.342c-.0466-.9814,.9716-3.3522,1.9335-3.5522,2.568-.5332,7.2438-.5592,7.6169,6.012,.5097,8.9828-8.6142,7.6416-8.6446,7.3849-.0238-.2005-.7438-6.4553-.9057-9.8447Z"/><path class="l" d="M157.9047,148.6279c.0377-.0311,.1626,.1005,.4337,.2068,.2649,.1032,.7131,.1599,1.1714-.0424,.9292-.402,1.6426-1.9539,1.5944-3.5756-.0233-.819-.2387-1.5877-.565-2.216-.3114-.6415-.7625-1.0766-1.2453-1.134-.4812-.0832-.8035,.222-.8992,.4808-.1062,.2584-.0387,.4347-.0856,.4522-.0237,.0243-.2012-.1392-.15-.5139,.0272-.1808,.1202-.3988,.3218-.5835,.2055-.1873,.5172-.2947,.8524-.2778,.6956,.009,1.355,.6108,1.7134,1.3003,.3968,.6905,.6584,1.5536,.6846,2.4729,.0452,1.8134-.7851,3.5597-2.0627,4.0089-.6222,.2003-1.1605,.0399-1.4448-.1567-.2907-.2056-.3493-.4041-.319-.422Z"/><path class="n" d="M136.4315,150.8505c-.0272,.2304-1.5622,.1966-3.3843,.5494-1.8263,.334-3.2436,.9237-3.3527,.7189-.1118-.1779,1.2351-1.1414,3.2046-1.5056,1.9665-.3768,3.5719,.0308,3.5324,.2373Z"/></g><g><path class="j" d="M206.6346,220.4677s7.5237-6.4447,9.7038-6.6168c2.1801-.1721,7.9147,.8938,7.9147,.8938,0,0,3.6219,.0314,5.4221-.1937,2.7111-.3389,4.5655-.0566,5.6525,.2751,.5432,.1657,1.222,1.5162-.3756,2.436-.6762,.3894-7.2546,.8341-7.2546,.8341l16.4601,4.7017-2.1384,1.7638c-.2842,.2344-.6378,.3685-1.0061,.3816l-23.6996,.8404-1.0853,2.6493-9.5938-7.9654Z"/><path class="j" d="M224.5996,220.4719h7.6876s2.6963-3.5804,3.6716-5.072c.8527-1.3042,1.881-1.6874,2.7778-1.3795,.2331,.08,.4231,.2544,.5453,.4684h0c.1812,.317,.1865,.7051,.014,1.027l-3.3797,6.3095,1.7714-.5983s3.5492-3.4749,4.2377-4.2781c.6884-.8032,3.2127-4.188,5.4501-1.7211l-3.098,3.4422,3.098-2.18s2.4669-2.1227,3.7864,.4015l-9.2117,7.7682"/><path class="l" d="M216.5972,217.2877c-.0026-.0078,.1025-.0437,.3072-.1055,.2059-.0556,.5047-.1731,.9146-.2106,.8049-.1362,2.0351-.1145,3.4529,.3592,.7049,.2394,1.4559,.5748,2.2172,1.0203,.3791,.2249,.7658,.4686,1.1516,.7387,.1915,.1365,.386,.2751,.5834,.4157,.1852,.1327,.4159,.3093,.5681,.3886,1.9452,.1518,4.1719,.2824,6.5039,.4466l-.1084,.0454c.7179-.8542,1.429-1.7845,2.1155-2.7571,.2679-.378,.5233-.7599,.7735-1.1399,.2473-.3787,.4824-.7719,.7561-1.1353,.2708-.3638,.5626-.7105,.905-1.0054,.168-.1501,.3566-.2796,.5591-.3866,.2113-.0981,.4139-.1946,.7057-.1559l-.0451-.0035c.4062-.0404,.869,.003,1.2123,.2916,.343,.2974,.4363,.746,.4028,1.1496l-.0018,.0212-.0125,.0225c-1.4641,2.626-2.7382,4.9113-3.7267,6.6844l.0075-.0187c-.2236,.757-.832,1.2002-1.3563,1.4342-.5429,.2361-1.0482,.2839-1.4477,.3065-.4022,.0181-.7107,.0024-.9184-.0081-.2078-.0119-.3155-.0231-.3153-.0311,.0002-.0083,.1084-.0129,.3162-.0163,.2076-.0049,.5156-.0043,.9115-.0364,.3927-.0359,.8864-.0986,1.3986-.3359,.4982-.2346,1.0582-.6702,1.2473-1.3576l.0027-.0098,.005-.0091c.9708-1.7827,2.2221-4.0807,3.66-6.7211l-.0142,.0436c.0258-.3291-.0623-.7138-.3229-.9267-.2585-.2177-.6461-.267-1.0225-.2269l-.0107,.0011-.0346-.0047c-.1341-.0181-.3536,.0472-.5227,.1381-.1773,.0949-.3498,.2123-.5068,.3539-.3194,.2763-.6008,.6108-.8627,.9643-.5074,.7143-.9775,1.5193-1.5239,2.2717-.6919,.98-1.4049,1.911-2.1345,2.7748l-.0425,.0503-.0661-.0048c-2.3481-.1722-4.5319-.3065-6.5393-.4842-.293-.1407-.4388-.2886-.6481-.432l-.5757-.4179c-.3795-.2712-.7586-.5155-1.1302-.7417-.7459-.4478-1.48-.7871-2.1689-1.0333-1.385-.4867-2.5874-.5351-3.385-.4296-.406,.0223-.705,.1241-.9136,.1642-.2074,.0464-.3176,.067-.3203,.0592Z"/><path class="l" d="M247.3754,215.2277c.0138,.0122-.0939,.1622-.3002,.4227-.2064,.2606-.5115,.6318-.8928,1.0866-.7625,.9096-1.8292,2.1536-3.0201,3.517-1.2113,1.3417-2.2181,2.6531-3.1035,3.4633-.4362,.4092-.8219,.7076-1.1093,.8821-.2883,.1744-.4675,.232-.4731,.2187-.0096-.0201,.1512-.1083,.4146-.3045,.2633-.1968,.6226-.5107,1.0358-.9311,.8385-.8318,1.8121-2.1488,3.0292-3.4977,1.1927-1.3655,2.284-2.5924,3.0838-3.4713,.3999-.4395,.7269-.7921,.9574-1.0316,.2304-.2396,.3644-.3663,.3782-.3541Z"/><path class="l" d="M243.1585,215.5879c.0264,.0257-.3323,.4434-.9336,1.0979-.6013,.6545-1.4452,1.5458-2.3892,2.5186-.7738,.7976-1.4947,1.5263-2.0716,2.0967l-.02,.0197-.0225,.0071c-1.1416,.3595-1.8889,.5524-1.9039,.492-.0015-.0147,.1736-.0827,.4933-.2036l1.3424-.4901-.0422,.0267c.5527-.594,1.2592-1.3366,2.033-2.1342,.9439-.9729,1.8092-1.8434,2.4452-2.4642,.636-.6209,1.0426-.9921,1.0691-.9665Z"/></g><g><path class="g" d="M181.13,182.228s11.0488,2.8472,12.1324,17.8636c.6174,8.5553-3.936,36.0383-3.936,36.0383l16.3162-16.7573,14.5407,10.1176s-19.7822,24.1874-24.3473,27.8234c-4.5651,3.636-11.8355,9.4852-14.2025,9.0109-2.3671-.4743-2.3671-11.3823-2.3671-11.3823v-60.2312l1.8636-12.483Z"/><path class="g" d="M101.7035,184.0667s-9.8301,3.2316-9.4288,22.4314c.4012,19.1998,.0862,25.6646,.0862,25.6646l-14.731-15.5895-12.2374,13.4969s13.6904,20.3399,23.2712,30.2254c9.0276,9.3148,17.0522,1.2258,19.6602-5.3227,2.1131-5.3059,3.8117-25.473,3.8117-25.473l-10.4319-45.4332Z"/><g class="h"><path d="M181.9887,216.8187c.887-5.6179,1.1234-11.7417-1.4414-16.8984-6.3001,15.5708-6.0164,33.4477-3.7614,49.9446l4.9928,14.2695c3.1448-9.5621,.1543-19.7478,.2234-29.7436,.0393-5.6776-.9003-11.9541-.0133-17.5721Z"/></g><path class="g" d="M99.6562,196.2925s6.5714,44.195,7.8433,48.0646c1.2719,3.8696,1.2719,15.2747,1.2719,15.2747,0,0-6.8969,12.8387-7.3209,21.7646l83.0524,.1708-5.3967-36.6718c-.1855-1.3692-.1976-5.5837-.1231-6.9626,.3488-6.4581,.8482-20.3132,2.6991-28.8274,2.1521-9.9003-.7452-26.8432-.7452-26.8432l-24.8081-6.1105c-5.8716,8.4375-20.5211,8.5512-26.2997,0l-27.9976,7.9147-2.1754,12.2258Z"/><path class="n" d="M180.7343,243.1401c-.0144-.0114,.0746-.151,.248-.3938,.1724-.2436,.4333-.5874,.763-1.0068,.6662-.8309,1.6118-1.9755,2.8501-3.0516,1.2388-1.0782,2.5443-1.816,3.5168-2.2577,.4887-.2185,.8897-.3813,1.1736-.4751,.2825-.0978,.4414-.1436,.448-.1264,.0584,.1049-2.515,.9301-4.9638,3.061-1.2178,1.058-2.1784,2.1726-2.8795,2.9703-.6951,.8047-1.1256,1.3045-1.1562,1.2801Z"/><path class="n" d="M103.83,242.2049c-.0501,.0143-.2434-.899-.8708-2.248-.6177-1.3436-1.7468-3.1097-3.476-4.5759-1.7293-1.4674-3.6563-2.2932-5.0826-2.6833-1.4333-.3988-2.3657-.4405-2.3597-.4923,.001-.016,.2336-.02,.6525,.0135,.4189,.0325,1.0235,.1176,1.7555,.2964,1.4585,.3483,3.4403,1.1628,5.207,2.6622,1.7668,1.4979,2.8938,3.3199,3.4755,4.7021,.2958,.693,.4785,1.2757,.5789,1.6837,.1014,.408,.1354,.638,.1198,.6417Z"/><path class="n" d="M104.3604,218.2569c-.0105,.0151-.1436-.0583-.3761-.2047-.2338-.1443-.5599-.3712-.9536-.6648-.7869-.5872-1.8212-1.4746-2.8525-2.5635-1.0305-1.0903-1.8729-2.1548-2.4595-2.9391-.5854-.786-.9194-1.2918-.8913-1.313,.0307-.0232,.4181,.4425,1.0397,1.1964,.6229,.7526,1.4834,1.7915,2.5047,2.8721,1.0223,1.0791,2.0245,1.9783,2.7759,2.5991,.7511,.6213,1.2366,.9832,1.2127,1.0176Z"/><path class="n" d="M162.3365,242.1779c.0036,.0029-.0193,.0373-.0674,.1019l-.2189,.2825c-.2004,.2416-.4732,.6185-.8753,1.0599-.7761,.9074-1.9804,2.1544-3.5955,3.5537-1.6121,1.403-3.6648,2.9187-6.0608,4.4144-2.3952,1.4977-5.1379,2.9607-8.0731,4.3694-2.9393,1.4034-5.7797,2.6475-8.3501,3.803-2.5718,1.1528-4.8736,2.2199-6.7769,3.1766-1.9042,.9541-3.4187,1.7785-4.4507,2.3736-.5209,.2893-.9135,.5342-1.1876,.6872l-.3114,.175c-.071,.0381-.1085,.0558-.111,.0519-.0025-.0038,.0303-.0292,.0965-.075l.2976-.1976c.2652-.1679,.6496-.4274,1.1632-.7309,1.0174-.6235,2.5212-1.4749,4.4181-2.4524,1.8959-.9799,4.1933-2.0666,6.7609-3.2323,2.5663-1.1685,5.4023-2.4189,8.3361-3.8196,2.9291-1.4058,5.666-2.8574,8.0588-4.3376,2.3935-1.4783,4.4477-2.9709,6.068-4.3491,1.6233-1.3745,2.843-2.5958,3.6405-3.4793,.4128-.4295,.6977-.7946,.9112-1.0248l.2392-.2654c.055-.0589,.0851-.0876,.0887-.0848Z"/><path class="n" d="M101.6436,280.7019c-.0034-.0001-.004-.0368-.0019-.1088l.0142-.3211c.0187-.2977,.0447-.7144,.0781-1.249,.1477-1.0824,.3764-2.6728,.9376-4.6192,1.0729-3.902,3.1798-9.2736,6.3932-15.2433l-.0152,.0674c-.33-4.8089-.8284-10.1793-1.4035-15.8273-1.0952-10.6656-2.2452-20.3039-3.0837-27.279-.4221-3.4763-.7642-6.2943-1.0028-8.2592-.1147-.9639-.2044-1.7179-.2672-2.2463l-.0635-.5849c-.0129-.132-.0173-.1999-.0128-.2005,.0046-.0006,.018,.0661,.0398,.1969l.0898,.5815c.0746,.5269,.1809,1.2788,.3169,2.24,.2586,1.9625,.6295,4.7771,1.087,8.2493,.8866,6.97,2.0664,16.6061,3.1619,27.2752,.5753,5.65,1.0656,11.0236,1.3808,15.8383l.0023,.0353-.0175,.0324c-3.2205,5.9387-5.3559,11.289-6.4645,15.164-.5796,1.9345-.8296,3.5129-1.0015,4.5889l-.1157,1.2417-.0339,.3197c-.0087,.0718-.0149,.1083-.0182,.1082Z"/><path class="n" d="M182.7058,197.3259c.0046,0,.0079,.0742,.0099,.219,.0006,.1572,.0014,.3703,.0024,.643-.0066,.5651,.0096,1.3998-.0436,2.4724-.0593,2.1473-.2804,5.2491-.6613,9.0693-.3759,3.8211-.9308,8.3583-1.4913,13.4004-.558,5.0412-1.1177,10.5946-1.2947,16.4422-.1889,5.851,.3833,11.4154,1.1343,16.4279,.7378,5.0179,1.6082,9.5057,2.2819,13.284,.6872,3.7763,1.1923,6.843,1.4775,8.9713,.1543,1.0624,.2411,1.8919,.3025,2.4537l.066,.6395c.0134,.1442,.018,.2184,.0134,.2188-.0046,.0005-.0182-.0726-.0405-.2157l-.0922-.6361c-.0787-.5594-.182-1.3859-.3519-2.4453-.3166-2.122-.8495-5.1808-1.5603-8.9521-.6973-3.7733-1.5872-8.2585-2.3395-13.2821-.7653-5.0154-1.3475-10.6017-1.1578-16.4711,.1774-5.8616,.7454-11.4204,1.317-16.4624,.5741-5.043,1.1483-9.5764,1.5479-13.3924,.4047-3.8151,.6541-6.9109,.7452-9.0543,.0691-1.0709,.0696-1.9041,.0936-2.4687,.0102-.2725,.0182-.4854,.0241-.6424,.007-.1448,.0128-.2189,.0174-.2189Z"/><g class="h"><path d="M103.4587,206.7932c-1.4833,13.887,.2922,28.6916,4.8149,41.905l-4.8149-41.905Z"/></g><g class="h"><path d="M154.8316,255.7558c-6.2933,5.7805-12.6069,10.7203-20.3478,13.4716,5.8357,.4958,11.7232-1.7358,16.235-5.4702,4.5117-3.7343,7.7209-7.671,9.7878-13.1509l-5.675,5.1495Z"/></g><path class="n" d="M147.6635,262.1234c-.0492-.0549,3.8659-3.6461,8.7436-8.02,4.8794-4.3756,8.8735-7.877,8.9226-7.8221,.0492,.0548-3.8651,3.6452-8.7445,8.0208-4.8777,4.374-8.8726,7.8762-8.9218,7.8214Z"/></g><path class="d" d="M161.5827,153.6713c0,1.7731-1.4374,3.2105-3.2105,3.2105s-3.2105-1.4374-3.2105-3.2105,1.4374-3.2105,3.2105-3.2105,3.2105,1.4374,3.2105,3.2105Z"/><g><path class="n" d="M180.7009,195.8703c-.9467-7.8491-1.8934-15.6982-2.8401-23.5474l-20.3174-6.1326c-.3925,14.0202-2.8468,29.7661-6.3738,43.3411,7.487,2.4281,15.4872,3.2608,23.3138,2.4268,.3461-3.7921,.6921-7.5841,1.0381-11.3762,.5077,2.8583,1.0154,5.7165,1.5231,8.5748,2.1328-1.195,3.3897-3.575,3.8153-5.9824,.4256-2.4074,.1337-4.8769-.159-7.3041Z"/><path class="c" d="M164.7996,212.0222s.0157-.1015,.0592-.2964c.0473-.2043,.1137-.4909,.1999-.8635,.1814-.7681,.4448-1.8839,.783-3.3162,.664-2.8829,1.6485-7.0517,2.6066-12.2534,.9639-5.1965,1.9035-11.44,2.2115-18.4234,.3072-6.9714-.1189-14.7166-2.0494-22.5511-1.901-7.8338-5.2275-14.9184-9.4203-20.4979-.5309-.692-1.0349-1.392-1.6032-2.0253-.558-.641-1.0789-1.2999-1.6595-1.8895-.2834-.301-.5647-.5998-.8438-.8964l-.8612-.8543c-.5625-.5723-1.1499-1.1014-1.7133-1.636-2.2808-2.1109-4.5089-3.9657-6.5009-5.7078-1.9949-1.7387-3.7742-3.3457-5.2466-4.8502-.3747-.3692-.7132-.7487-1.0516-1.1016-.3403-.3514-.6543-.7013-.9449-1.0462-.2941-.3413-.5755-.668-.844-.9797-.2532-.3237-.4943-.6317-.7227-.9237-.4697-.5734-.8261-1.1282-1.1548-1.5938-.3347-.4621-.5823-.8764-.7798-1.2127l-.4528-.7623c-.1007-.1724-.1463-.2641-.1463-.2641,0,0,.0615,.0826,.1698,.2504l.4749,.7475c.2045,.3312,.4586,.7399,.7995,1.1961,.3349,.4598,.6967,1.0081,1.1715,1.5751,.2306,.2888,.474,.5934,.7298,.9135,.2705,.3084,.554,.6317,.8503,.9694,.2926,.3413,.6084,.6877,.9505,1.0356,.3402,.3494,.6801,.7253,1.0565,1.0911,1.4786,1.4906,3.2631,3.0846,5.2643,4.8128,1.9984,1.7319,4.2341,3.5786,6.5273,5.6877,.5667,.5343,1.157,1.063,1.7233,1.636l.8666,.8551,.8499,.8983c.5846,.5908,1.1099,1.2518,1.6722,1.8949,.5725,.6355,1.0806,1.3377,1.6156,2.0323,4.2254,5.6,7.5745,12.7172,9.4827,20.5815,1.938,7.8649,2.3574,15.6387,2.036,22.6257-.3223,6.9998-1.2831,13.2502-2.2717,18.4474-.9829,5.2025-1.9958,9.3666-2.691,12.2428-.3524,1.4373-.6346,2.5512-.8318,3.305l-.2257,.8571c-.0523,.1927-.0857,.2898-.0857,.2898Z"/></g></g></g><g><path class="n" d="M128.3652,97.7644c-3.1529,.0796-5.9169-.7873-8.2156-2.5772-2.9094-2.2602-4.4353-5.3718-4.5332-9.2468-.0965-3.8214,1.1711-7.2205,3.7679-10.1023,2.5478-2.827,5.9095-4.5909,9.9922-5.2435,.8574-.1375,1.6996-.217,2.5033-.2373,3.1141-.0786,5.8379,.7194,8.0963,2.3724,2.9458,2.1605,4.4891,5.2681,4.5892,9.2378,.0944,3.7375-1.1825,7.1479-3.7952,10.1363-2.5827,2.9541-5.9689,4.7843-10.0654,5.4393-.7986,.128-1.5858,.2022-2.3395,.2212Zm-8.1339-26.7815c-.5862,.0147-1.1622-.1824-1.6183-.5619-.5403-.4492-.8603-1.1093-.8781-1.8115-.1008-3.9923,.7221-7.5073,2.4455-10.4473,1.572-2.6826,3.8879-5.7405,6.883-9.0881,1.9093-2.1396,3.3273-3.9157,4.2125-5.2765,.6883-1.0582,1.0108-2.0569,.9857-3.052-.0302-1.196-.4526-1.9083-1.4583-2.4591-.9022-.4919-2.0597-.7248-3.4375-.6901-.558,.0141-1.1609,.0726-1.7916,.1734-2.4155,.3861-4.6204,1.3245-6.5535,2.7886-1.9599,1.4853-3.5516,3.404-4.7304,5.7015-.4177,.8147-1.2385,1.3018-2.1063,1.3238-.3039,.0076-.6133-.0417-.9135-.1539l-16.0205-5.9879c-.6506-.2433-1.1662-.7525-1.4177-1.3996-.2511-.6476-.2143-1.3714,.1017-1.9897,2.947-5.7683,7.2528-10.6352,12.7973-14.4651,5.509-3.8063,12.2696-6.3709,20.0944-7.622,2.5048-.4007,4.9131-.6324,7.1581-.6891,5.7402-.1449,10.7166,.8477,14.7907,2.9501,6.0419,3.1193,9.1978,8.3732,9.3806,15.615,.0813,3.2195-.4086,6.2139-1.4562,8.9003-1.0153,2.6012-2.2764,4.8914-3.7484,6.8081-1.3763,1.7931-3.1893,3.8822-5.3885,6.2084-2.2598,2.3471-3.909,4.2921-4.9171,5.7983-.8151,1.2178-1.194,2.4971-1.1583,3.911,.0308,1.2198-.8456,2.2738-2.0501,2.4663l-18.8818,3.0189c-.1078,.0174-.2158,.0272-.3232,.03Z"/><path class="c" d="M134.0451,17.7113c5.3519-.1351,9.8887,.7581,13.6121,2.6797,5.2151,2.6925,7.9036,7.1972,8.063,13.5121,.0735,2.9104-.3573,5.5607-1.2906,7.954-.9345,2.3938-2.0707,4.4642-3.411,6.2095-1.3406,1.7469-3.0843,3.7526-5.2267,6.0187-2.3529,2.4434-4.0771,4.4823-5.1712,6.1168-1.0952,1.6361-1.6174,3.4111-1.569,5.3272l-18.8818,3.0189c-.0895-3.5472,.6135-6.5982,2.1117-9.1541,1.4967-2.5538,3.6965-5.4538,6.5971-8.6958,2.0018-2.2434,3.4808-4.0997,4.439-5.5725,.9562-1.4703,1.4164-2.9512,1.3788-4.4416-.0519-2.0571-.9601-3.5684-2.7237-4.5339-1.291-.7044-2.8469-1.0345-4.6684-.9885-.6691,.0169-1.3737,.0845-2.1145,.2029-2.8294,.4525-5.3764,1.5379-7.6398,3.2522-2.2649,1.7168-4.0737,3.8943-5.4268,6.5317l-16.0205-5.9879c2.774-5.4297,6.7783-9.9535,12.0126-13.5688,5.2335-3.6162,11.598-6.0224,19.0949-7.2213,2.4094-.3851,4.6877-.6049,6.8348-.6591m-2.1037,55.0806c2.576-.0651,4.7742,.5695,6.5961,1.9033,2.3138,1.697,3.5125,4.1405,3.593,7.3338,.0789,3.1231-.9868,5.9468-3.194,8.4719-2.2095,2.5274-5.0812,4.0718-8.6164,4.6373-.6951,.1112-1.3676,.175-2.0164,.1914-2.5867,.0653-4.8057-.6223-6.6576-2.0642-2.3189-1.8012-3.5159-4.2633-3.5947-7.3864-.0807-3.1933,.9665-5.9956,3.1424-8.4107,2.1756-2.4136,5.0304-3.9033,8.5676-4.4688,.7544-.1206,1.4814-.1898,2.1802-.2075m1.9808-59.9502c-2.3527,.0594-4.8696,.3012-7.4808,.7186-8.1869,1.3092-15.2841,4.0088-21.095,8.0238-5.8794,4.061-10.449,9.2291-13.5814,15.3603-.6319,1.2369-.7057,2.6847-.2029,3.9794s1.5343,2.3134,2.8354,2.7997l16.0205,5.9879c.6001,.2243,1.2192,.3229,1.8266,.3075,1.7359-.0438,3.3772-1.0179,4.213-2.647,1.0249-1.9979,2.3447-3.5919,4.035-4.873,1.6325-1.2365,3.4212-1.9971,5.4666-2.3242,.5236-.0837,1.0178-.1319,1.4681-.1434,.9441-.0238,1.6884,.1091,2.2125,.395,.0796,.0437,.1297,.0789,.1578,.101,.0105,.0454,.0256,.1343,.0293,.2798,.0046,.1789,.0183,.7233-.5928,1.6629-.818,1.2575-2.1606,2.9348-3.99,4.985-3.1423,3.5122-5.4874,6.6134-7.1651,9.476-1.9562,3.337-2.8911,7.287-2.7787,11.74,.0355,1.4043,.6754,2.725,1.7558,3.623,.4618,.384,.985,.6746,1.5408,.8642-.3518,.334-.6923,.6836-1.0213,1.0485-3.0286,3.3616-4.5066,7.3298-4.3938,11.7951,.1155,4.5755,2.0091,8.4174,5.4761,11.1105,2.7503,2.1414,6.0384,3.181,9.7688,3.0869,.8616-.0217,1.7575-.1062,2.6628-.251,4.6735-.7476,8.5475-2.8474,11.5146-6.2413,3.0274-3.4633,4.5066-7.4337,4.3963-11.8009-.1185-4.6957-2.0486-8.5475-5.5817-11.1388-.2882-.2111-.5824-.4104-.8825-.5981,2.0327-.6486,3.4406-2.5724,3.3853-4.7629-.0228-.906,.2146-1.6986,.7474-2.4945,.9286-1.3873,2.4871-3.2201,4.632-5.4476l.0308-.0322c2.2882-2.4203,4.1042-4.5136,5.5516-6.3996,1.611-2.0979,2.9854-4.5893,4.0842-7.4037,1.1664-2.991,1.7121-6.3038,1.6227-9.8484-.2041-8.0829-3.9033-14.2095-10.698-17.7176-4.4425-2.2927-9.8153-3.3763-15.9698-3.2209h0Z"/></g><path class="n" d="M141.7322,281.2637C65.3391,281.2637,3.1888,219.1133,3.1888,142.7202S65.3391,4.1772,141.7322,4.1772s138.5435,62.1499,138.5435,138.543-62.1504,138.5435-138.5435,138.5435Zm0-274.9604C66.5115,6.3032,5.3147,67.4995,5.3147,142.7202s61.1968,136.4175,136.4175,136.4175,136.4175-61.1968,136.4175-136.4175S216.9529,6.3032,141.7322,6.3032Z"/><g><path class="n" d="M194.9311,144.9771c-1.726-1.2998-2.8402-2.942-3.3117-4.8814-.599-2.4519-.093-4.7715,1.5045-6.8928,1.5754-2.0919,3.7031-3.3764,6.3238-3.8172,2.5711-.4323,5.1264,.0525,7.5953,1.4407,.5187,.2913,1.0046,.6073,1.4445,.9386,1.7047,1.2838,2.8267,2.8719,3.3349,4.7207,.661,2.4138,.1659,4.7388-1.4706,6.9118-1.5408,2.046-3.6782,3.3326-6.353,3.8239-2.6439,.4856-5.2406,.026-7.718-1.3668-.4831-.2714-.9372-.5668-1.3498-.8775Zm7.0386-17.8365c-.3208-.2417-.546-.5928-.6292-.9906-.0987-.4711,.0106-.9616,.3001-1.3461,1.6459-2.1855,3.5843-3.7215,5.761-4.5655,1.986-.7703,4.5309-1.4253,7.5637-1.9465,1.9357-.3353,3.453-.6847,4.5075-1.038,.82-.2749,1.4184-.6735,1.8286-1.2182,.4931-.6547,.5697-1.2169,.2645-1.9407-.2747-.6482-.7968-1.2661-1.551-1.8341-.3055-.2301-.6539-.4554-1.0353-.6699-1.4608-.8213-3.0436-1.2566-4.7045-1.294-1.6843-.0374-3.3555,.3145-4.9665,1.0456-.5711,.2594-1.219,.1713-1.6941-.1865-.1664-.1253-.3114-.2835-.4248-.4716l-6.0481-10.0352c-.2455-.4076-.3055-.9004-.1649-1.3548,.141-.4545,.469-.8273,.9018-1.0245,4.0378-1.8409,8.421-2.6193,13.0274-2.3138,4.5773,.3031,9.2976,1.8055,14.0297,4.4659,1.5149,.8515,2.906,1.7526,4.135,2.6782,3.1423,2.3665,5.3904,5.0182,6.6816,7.8813,1.9143,4.2468,1.3708,8.4102-1.6147,12.3746-1.3273,1.7624-2.8652,3.1608-4.5714,4.1565-1.6525,.9636-3.3045,1.6558-4.9106,2.0576-1.5021,.3762-3.3647,.7255-5.5355,1.0374-2.2122,.2974-3.9255,.639-5.1079,1.018-.956,.3065-1.704,.8317-2.287,1.6057-.5029,.6678-1.422,.8602-2.1504,.4507l-11.4189-6.4199c-.0653-.0365-.1274-.0773-.1862-.1215Z"/><path class="c" d="M232.0668,104.4331c2.9297,2.2064,4.9842,4.6176,6.1643,7.2343,1.6523,3.6656,1.177,7.228-1.4264,10.6849-1.1999,1.5932-2.5596,2.8321-4.0795,3.7192-1.5208,.8868-3.0122,1.5141-4.4747,1.8801-1.4633,.3667-3.2532,.7006-5.3679,1.0045-2.3032,.3094-4.0967,.6695-5.3799,1.0807-1.2844,.4117-2.3205,1.1419-3.1104,2.1908l-11.4189-6.4199c1.4624-1.9418,3.1388-3.2799,5.0312-4.0136,1.8907-.7332,4.3061-1.3529,7.2433-1.8577,2.0296-.3516,3.6138-.718,4.7551-1.1004,1.1393-.3819,2.0168-.9807,2.6313-1.7966,.8481-1.1261,1.0042-2.3239,.4689-3.593-.3929-.9277-1.0873-1.7675-2.0845-2.5184-.3663-.2758-.7732-.5396-1.2212-.7915-1.7111-.9619-3.5402-1.464-5.4849-1.5078-1.9465-.043-3.8445,.3553-5.6937,1.1946l-6.0481-10.0352c3.8008-1.7328,7.876-2.4555,12.2247-2.167,4.3485,.2877,8.7888,1.7064,13.3227,4.2553,1.4571,.8192,2.7734,1.6714,3.9487,2.5566m-24.583,28.6646c1.4102,1.0619,2.3197,2.3386,2.7295,3.8301,.5192,1.896,.122,3.7177-1.1945,5.4658-1.2875,1.7097-3.0618,2.7713-5.3216,3.1866-2.262,.4156-4.4608,.0216-6.5989-1.1802-.4204-.2363-.8085-.4884-1.1637-.7559-1.416-1.0664-2.3141-2.3803-2.694-3.9427-.4775-1.9541-.0715-3.7851,1.216-5.4948,1.3165-1.7481,3.0717-2.8062,5.2678-3.1758,2.1953-.3689,4.3618,.0472,6.5009,1.2498,.4562,.2565,.8758,.5289,1.2584,.817m26.5905-31.3304c-1.2879-.97-2.7416-1.9119-4.3208-2.7997-4.9512-2.7835-9.9096-4.3567-14.7378-4.6763-4.8845-.3241-9.5376,.5037-13.8294,2.4604-.8658,.3948-1.5219,1.1403-1.8034,2.0493s-.1616,1.8948,.3296,2.7099l6.0481,10.0352c.2265,.3759,.5168,.6924,.8494,.9429,.9503,.7157,2.2459,.8918,3.3881,.3734,1.4008-.6358,2.7878-.9293,4.2405-.8971,1.4027,.0315,2.6865,.385,3.9235,1.0804,.3167,.178,.6024,.3626,.8489,.5482,.5168,.3892,.8597,.7775,1.0192,1.1541,.0241,.0573,.036,.0975,.0417,.1214-.0137,.0288-.0434,.083-.1034,.1626-.0737,.098-.2982,.396-1.0262,.64-.9744,.3265-2.4092,.655-4.264,.9764-3.1819,.5469-5.761,1.2126-7.8803,2.0345-2.4708,.958-4.6545,2.6797-6.4903,5.1173-.5789,.7688-.7979,1.7501-.6004,2.692,.0844,.4027,.2413,.7815,.4589,1.1199-.3311,.0295-.6626,.0721-.9946,.1278-3.0568,.5145-5.5397,2.0148-7.3806,4.4592-1.8863,2.5047-2.506,5.3729-1.7921,8.2945,.5642,2.3203,1.8862,4.2784,3.9282,5.8163,.4717,.3552,.9884,.6914,1.5359,.9992,2.8265,1.5888,5.7997,2.1115,8.8372,1.5535,3.0995-.5696,5.5839-2.0705,7.3844-4.4613,1.9359-2.5705,2.5402-5.4596,1.7475-8.3547-.0648-.236-.1378-.4682-.2189-.6968,1.3671,.5175,2.9419,.0845,3.8449-1.1147,.3735-.4959,.8384-.8202,1.4633-1.0205,1.0891-.3491,2.7059-.6691,4.8056-.9512l.0303-.0042c2.2586-.3245,4.1246-.6747,5.7044-1.0706,1.7579-.4399,3.5564-1.1917,5.3444-2.2343,1.8996-1.1085,3.6031-2.6541,5.0644-4.5944,3.3323-4.4248,3.9557-9.288,1.803-14.0639-1.4079-3.1221-3.83-5.9914-7.1991-8.5287h0Z"/></g><g><path class="n" d="M63.0736,155.8662c-1.3516,.6912-2.7315,.8906-4.1018,.5927-1.7332-.3749-3.0434-1.4073-3.8929-3.0685-.8377-1.6382-.9956-3.3772-.4689-5.1685,.5168-1.7574,1.6083-3.2229,3.244-4.3564,.3434-.2382,.6923-.4481,1.0369-.6243,1.335-.6827,2.6831-.9036,4.0074-.6567,1.7282,.324,3.0451,1.3512,3.9153,3.0529,.8193,1.6022,.9755,3.348,.4641,5.189-.5055,1.8197-1.5938,3.3192-3.235,4.4566-.3199,.2219-.6461,.418-.9691,.5832Zm-9.1072-9.9276c-.2513,.1285-.5423,.1629-.8193,.0932-.328-.0824-.6043-.3022-.7583-.6032-.8752-1.7114-1.2501-3.4081-1.1146-5.0428,.1235-1.4915,.4916-3.3007,1.0941-5.3771,.3829-1.3261,.6283-2.3921,.7291-3.167,.0783-.6026,.0103-1.1031-.2079-1.5297-.2622-.5127-.5938-.7338-1.1449-.7634-.494-.0256-1.0448,.1144-1.6354,.4165-.2392,.1223-.4887,.2733-.7414,.4483-.9678,.6706-1.7291,1.537-2.263,2.5749-.5412,1.0527-.8323,2.2168-.8653,3.4593-.0116,.4405-.2663,.8229-.6383,1.0131-.1303,.0666-.2748,.1096-.4285,.1235l-8.199,.7381c-.333,.0299-.6628-.0837-.9067-.3121-.2438-.2287-.3786-.5505-.3703-.8846,.0775-3.1169,.9324-6.1255,2.5407-8.9422,1.5979-2.799,3.9975-5.3199,7.1324-7.4924,1.0035-.6955,2.0003-1.2976,2.9627-1.7898,2.4607-1.2583,4.8269-1.864,7.0326-1.8002,3.2715,.0953,5.7351,1.7179,7.3226,4.8224,.7058,1.3801,1.1168,2.7815,1.2217,4.1655,.1011,1.3402,.0309,2.5966-.2087,3.735-.2238,1.0647-.5754,2.3489-1.0453,3.8163-.4918,1.4891-.8024,2.6766-.9262,3.5401-.1001,.6982,.0019,1.3322,.3119,1.9384,.2674,.5229,.1066,1.1628-.376,1.4972l-7.5648,5.2424c-.0431,.03-.088,.0568-.134,.0803Z"/><path class="c" d="M48.8663,119.9451c2.2942-1.1732,4.449-1.7305,6.4649-1.6721,2.8238,.0823,4.9286,1.4771,6.3129,4.1842,.638,1.2476,1.003,2.4874,1.0965,3.7203,.093,1.2334,.0312,2.3684-.1869,3.4049-.2179,1.0372-.5569,2.2708-1.0146,3.7003-.5121,1.5503-.8357,2.7942-.9701,3.7313-.1345,.938,.0086,1.817,.4286,2.6384l-7.5648,5.2424c-.7776-1.5206-1.1079-2.991-.9901-4.4121,.1176-1.4199,.4682-3.1365,1.0517-5.1474,.4014-1.3904,.6567-2.5039,.7657-3.3426,.1087-.8372,0-1.5756-.3267-2.2146-.4509-.8819-1.1598-1.3485-2.1261-1.4002-.7069-.0368-1.4508,.144-2.2317,.5433-.2868,.1467-.5785,.3228-.8753,.5284-1.1335,.7856-2.0127,1.787-2.6379,3.0023-.6253,1.2167-.9567,2.5383-.9946,3.9646l-8.199,.7381c.0729-2.9339,.8684-5.7309,2.3869-8.3898,1.5179-2.6591,3.7786-5.0288,6.7821-7.1104,.9653-.6689,1.9082-1.2388,2.8286-1.7094m10.5583,24.3398c1.1043-.5647,2.1903-.7471,3.2587-.5478,1.3575,.2545,2.3865,1.0652,3.0865,2.4341,.6846,1.3388,.8103,2.7861,.3783,4.3415-.4324,1.5569-1.3569,2.8252-2.7732,3.8068-.2785,.193-.557,.3607-.8351,.503-1.1089,.567-2.215,.7308-3.3189,.4908-1.3814-.2987-2.4135-1.1178-3.0982-2.4566-.7-1.3689-.8293-2.803-.388-4.3042,.4414-1.5005,1.37-2.7415,2.7871-3.7235,.3022-.2095,.6033-.3909,.9029-.5441m-11.6258-26.4273c-1.0086,.5157-2.0504,1.1448-3.0966,1.8698-3.28,2.2731-5.7975,4.9227-7.4829,7.8751-1.7055,2.9867-2.6122,6.181-2.6946,9.4939-.0166,.6683,.2529,1.312,.7407,1.7691s1.1476,.6843,1.8135,.6244l8.199-.7381c.3071-.0277,.5963-.1138,.8567-.247,.7442-.3805,1.2535-1.1451,1.2769-2.026,.0287-1.0804,.2694-2.047,.7361-2.9549,.4509-.8766,1.0687-1.5791,1.8881-2.1471,.2098-.1454,.4142-.2692,.6072-.368,.4047-.2069,.7554-.3043,1.0424-.2894,.0436,.0024,.0727,.0072,.0895,.0109,.014,.0175,.0391,.0529,.071,.1153,.0392,.0767,.1586,.3101,.0891,.8451-.0931,.716-.3264,1.7235-.6932,2.9942-.6321,2.1785-1.0039,4.0126-1.1357,5.6042-.1539,1.8555,.263,3.7642,1.2392,5.6731,.3079,.602,.8606,1.0418,1.5164,1.2065,.2804,.0704,.5679,.0876,.8486,.0541-.0831,.2182-.1581,.4408-.2248,.6677-.6141,2.0895-.4291,4.1192,.5498,6.0334,1.003,1.9614,2.6248,3.2342,4.6902,3.6808,1.6394,.3565,3.2828,.1228,4.8819-.6949,.3694-.1889,.7405-.4121,1.1032-.6635,1.8723-1.2977,3.1161-3.0157,3.6968-5.1064,.5924-2.1334,.4074-4.1643-.55-6.0365-1.0294-2.013-2.6691-3.2825-4.7419-3.6711-.169-.0316-.3382-.0568-.5075-.0758,.747-.7048,.9573-1.8328,.4771-2.7718-.1986-.3884-.2606-.7818-.1952-1.2381,.1141-.7954,.4086-1.9153,.8755-3.3286l.0067-.0204c.4889-1.5268,.841-2.8134,1.0763-3.9332,.2622-1.2459,.3397-2.6132,.2304-4.0633-.1168-1.5408-.5699-3.0921-1.3469-4.6115-1.7719-3.465-4.6531-5.3532-8.3322-5.4604-2.4053-.0697-4.9624,.5791-7.6007,1.9282h0Z"/></g><g><path class="g" d="M218.2525,63.8092c-.5947,6.2424-12.0042,9.0583-25.6221,7.7609-13.6191-1.2975-24.2904-6.217-23.6957-12.4594,.3135-3.2907,3.6632-5.96,8.756-7.5587,4.5683-1.4347,10.5388-2.008,16.9797-1.3944,5.8873,.5609,11.2025,2.0215,15.2922,4.0037,5.3706,2.6018,8.6275,6.1046,8.2899,9.648Z"/><g><path class="f" d="M214.664,57.5975c-1.0571-1.2316-2.6812-2.4016-4.7396-3.44l.0382,.0036c1.1666,.5653,2.2346,1.1734,3.1874,1.8153,.5806,.5268,1.0877,1.0678,1.514,1.621Z"/><path class="n" d="M214.6169,57.6378c-1.0482-1.2214-2.6363-2.3736-4.7204-3.4251l-.296-.1493,.389,.0419c1.1674,.5656,2.2424,1.1779,3.1951,1.8198,.5943,.5385,1.1062,1.0866,1.5284,1.6346l-.0962,.0781Zm-1.849-1.8399c.2038,.1491,.399,.2997,.5853,.4516-.0801-.076-.1617-.1518-.2448-.2273-.1118-.0752-.2252-.1499-.3405-.2244Z"/></g><path class="g" d="M218.2525,63.8092c-.5947,6.2424-12.0042,9.0583-25.6221,7.7609-13.6191-1.2975-24.2904-6.217-23.6957-12.4594,.3135-3.2907,3.6632-5.96,8.756-7.5587l.0767,.0173c-3.633,1.2414-5.9447,3.1101-6.1608,5.3787-.2016,2.1157,1.4807,3.9419,4.4394,5.4293,2.693,1.1548,5.5215,2.0501,8.4694,2.7229l-.2399-1.0684c-.0648-.2885,.0637-.5859,.3182-.7365l.9089-.5379c.1704-.1008,.3633-.1572,.5612-.164l1.4197-.0485c.1452-.005,.1821,.1991,.0444,.2453l-.6576,.2206c-.2086,.07-.3921,.1994-.5281,.3723l-.3961,.5038c-.2058,.2618-.2119,.6287-.0147,.8971l.532,.7244c3.3465,.6423,6.8369,1.0146,10.4457,1.1631,10.512,.5449,18.7084-1.0878,19.1279-5.4907,.2385-2.5029-2.1217-5.0095-6.1127-7.0233l.0382,.0036c5.3706,2.6018,8.6275,6.1046,8.2899,9.648Z"/><g class="h"><path class="n" d="M217.8809,63.5615c-.5947,6.2424-12.0042,9.0583-25.6221,7.7609-9.4333-.8987-17.4519-3.5351-21.292-7.1444,4.2796,2.7965,11.2628,4.8092,19.2646,5.5715,13.6179,1.2974,25.0274-1.5184,25.6221-7.7608,.0749-.7866-.0269-1.5714-.2905-2.3443l-.001-.0026c-.1951-.7725-.6248-1.5388-1.2607-2.2812l-.0089-.0108c-1.0571-1.2316-2.6812-2.4016-4.7396-3.44l.0382,.0036c1.1666,.5653,2.2346,1.1734,3.1874,1.8153,3.4289,2.3111,5.3666,5.0598,5.1024,7.8327Z"/></g><path class="g" d="M185.7742,54.8606l-1.6973-.1617-1.1161-1.3436-3.675,.2685-3.2153-1.5045-2.4949,.9344,5.2819,1.148,3.6977,.0836,1.6072,1.2581,1.632-.3723c.1745-.0398,.158-.2934-.0201-.3104Z"/><path class="g" d="M201.8162,51.3318l-1.7566,1.4546-1.789,.1478c-.38,.0314-.6978,.3012-.7905,.671l-.388,1.5472c-.034,.1357,.1495,.2131,.2229,.094l1.0561-1.7137,2.8931,.0535,2.7378-1.6784"/><g class="k"><path class="c" d="M217.7057,60.8247c-1.3597-2.0779-3.8613-4.0144-7.159-5.6126-4.0897-1.9821-9.4049-3.4428-15.2922-4.0037-6.4409-.6136-12.4114-.0403-16.9797,1.3944-5.0928,1.5987-8.4425,4.268-8.756,7.5587-.0881,.9247,.0705,1.8194,.4502,2.6792-.7892-1.1713-1.159-2.422-1.0343-3.7302,.3135-3.2907,3.6632-5.96,8.756-7.5587,4.5683-1.4347,10.5388-2.008,16.9797-1.3944,5.8873,.5609,11.2025,2.0215,15.2922,4.0037,3.8484,1.8646,6.6115,4.1906,7.7432,6.6635Z"/></g><polyline class="g" points="200.257 60.7262 204.3766 61.8857 205.1032 63.3997 207.6252 63.9164 211.3131 66.1755 207.7143 66.8992 206.936 64.6206 203.8239 64.6398 203.8741 62.3712 200.1369 61.9863"/><path class="n" d="M198.9412,72.3119c-2.043,0-4.1725-.1026-6.3524-.3103-6.8263-.6504-12.9818-2.2202-17.3324-4.4202-4.7213-2.3876-7.0567-5.3309-6.7537-8.5119,.3047-3.1974,3.2427-5.9221,8.273-7.6719,4.9185-1.711,11.2881-2.3043,17.9354-1.6712,6.6474,.6334,12.7902,2.4189,17.2972,5.0279,4.6093,2.6683,6.98,5.8987,6.6753,9.0961-.3031,3.1809-3.1522,5.6303-8.2395,7.0834-3.1908,.9114-7.1485,1.3782-11.5029,1.3782Zm-9.3659-21.966c-4.6456,0-8.971,.6378-12.5148,1.8706-4.6914,1.632-7.4242,4.095-7.6947,6.9353-.3365,3.5319,3.2305,6.1128,6.2819,7.6559,4.2563,2.1525,10.302,3.6905,17.0233,4.3309,6.7212,.6405,12.9488,.2717,17.535-1.0384,3.288-.9392,7.278-2.8001,7.6145-6.332l.4316,.0411-.4316-.0411c.2707-2.8403-1.9478-5.775-6.2466-8.2635-4.4014-2.5478-10.4192-4.2934-16.9451-4.9151-1.7111-.163-3.4026-.2436-5.0535-.2436Z"/><path class="n" d="M175.9907,62.4881c-.6482-.2112-1.2705-.5-1.8618-.8541-.589-.3566-1.1505-.7812-1.6316-1.3052-.4774-.5229-.8829-1.1466-1.0948-1.8568l-.077-.2659c-.0188-.0905-.0336-.1822-.0501-.2733-.0172-.091-.0328-.1822-.0354-.2752l-.0188-.2772c-.0036-.0924,.0048-.1847,.007-.277,.0054-.0921,.003-.1852,.021-.2758,.0308-.1815,.0461-.3668,.1032-.5421,.1847-.7142,.5586-1.3588,1.0185-1.9007,.4612-.5444,1.0048-.9965,1.5774-1.3878,.5738-.3911,1.1794-.7224,1.7985-1.017,.6214-.2896,1.2583-.5364,1.9011-.7619,.1936-.0679,.4057,.034,.4736,.2276s-.034,.4057-.2276,.4736l-.0058,.002c-.6204,.2178-1.2331,.4553-1.8256,.7314-.5896,.2806-1.1614,.5942-1.6941,.9572-.5316,.3628-1.0257,.7768-1.4305,1.2553-.4046,.4771-.7146,1.0217-.8658,1.6056-.0489,.1437-.0578,.295-.0847,.4429-.0161,.074-.0122,.1494-.0168,.2242-.0015,.0748-.0096,.1499-.0065,.2246,.0151,.1486,.0116,.2994,.0488,.4452l.0429,.22,.0667,.2151c.1797,.5758,.5478,1.0867,.9619,1.5546,.4192,.4679,.9027,.8947,1.4161,1.2956,.513,.403,1.0562,.7787,1.6014,1.1738l.001,.0008c.0561,.0406,.0685,.1189,.0279,.175-.0327,.0451-.09,.0619-.1402,.0456Z"/><path class="n" d="M188.0187,65.8801c-.5613,.0286-1.1143-.0102-1.6641-.0703-.5493-.0631-1.0939-.1577-1.6337-.276-.5398-.1177-1.0758-.2546-1.6045-.4189-.5279-.1672-1.0518-.3494-1.5585-.5849-.0629-.0293-.0902-.104-.061-.1669,.023-.0495,.0747-.0769,.1261-.0721,.5531,.053,1.0941,.1405,1.6349,.2264,.54,.0888,1.0766,.1886,1.6124,.2931,.5359,.1039,1.0699,.217,1.6014,.3486,.5312,.1346,1.0614,.2777,1.5852,.4763,.0654,.0247,.0983,.0978,.0736,.1631-.0183,.0484-.0633,.079-.1119,.0816Z"/><path class="n" d="M210.0913,53.8263c1.173,.5947,2.3125,1.2737,3.3555,2.1039,.52,.4161,1.0155,.8705,1.4597,1.3812,.445,.5083,.837,1.0793,1.1192,1.7169,.2816,.6353,.4371,1.351,.3885,2.0657-.0032,.0445-.0047,.0892-.0096,.1336l-.0199,.1327-.0409,.2653c-.0155,.0881-.0445,.1736-.0665,.2605-.0262,.0857-.0424,.1748-.0775,.2574l-.1002,.2495c-.0174,.0412-.0325,.0837-.052,.1238l-.0632,.1179-.1275,.2353c-.0449,.0767-.0984,.1473-.1475,.2211-.4032,.5843-.9309,1.0531-1.4948,1.4337-.566,.3812-1.1716,.6803-1.7889,.9333-.6182,.251-1.2488,.4622-1.8874,.6305-.6379,.171-1.2799,.3213-1.9265,.4384-.6458,.1232-1.2944,.2217-1.9442,.3078-.6502,.0801-1.302,.1455-1.9542,.1919-.3261,.0261-.6528,.0379-.9792,.0524-.3264,.0169-.6528,.0218-.9792,.0318-.6528,.0124-1.3054,.0079-1.9572-.0107-1.3035-.037-2.6039-.1364-3.8959-.3048-.068-.0089-.116-.0712-.1071-.1392,.008-.0615,.0598-.1066,.1199-.1081,2.5955-.0687,5.1759-.1069,7.7406-.3105,1.2815-.0964,2.5606-.2277,3.8198-.4538,1.2579-.2241,2.5027-.5367,3.6687-1.0133,.5817-.2382,1.1444-.5176,1.6547-.8615,.5091-.3431,.9649-.7547,1.2988-1.2396,.0405-.0612,.0861-.1197,.1228-.1828l.1036-.1926,.0524-.096c.016-.0326,.0274-.0671,.0414-.1005l.0815-.2016c.0294-.0665,.0404-.1389,.0619-.2079,.0174-.0702,.0423-.1386,.0544-.2102l.0326-.2154,.0169-.1076c.0041-.0361,.0049-.0726,.0076-.1089,.0392-.5818-.085-1.1706-.3274-1.7191-.2429-.5491-.5908-1.0619-.9995-1.5279-.4071-.4682-.8707-.8945-1.3629-1.2883-.9876-.7865-2.0873-1.4438-3.2263-2.0209l-.0013-.0007c-.1831-.0927-.2563-.3163-.1635-.4994,.0927-.1831,.3163-.2563,.4993-.1635h.0001Z"/><g class="h"><path class="n" d="M177.0676,58.9212c1.4131,4.2403,10.2805,4.3583,7.0884,1.0382"/></g><g class="h"><path class="n" d="M182.8705,50.9772c1.4131,4.2403,10.2805,4.3583,7.0884,1.0382"/></g><g class="h"><path class="n" d="M195.6279,61.5567c1.4131,4.2403,9.0266,3.2475,5.8346-.0726"/></g><g class="h"><path class="n" d="M204.0351,57.2153c1.4131,4.2403,7.9036,2.8853,4.7116-.4348"/></g><g class="h"><path class="n" d="M190.6898,56.7132c.8211,2.4638,5.0819,1.9758,3.2271,.0467"/></g><g><path class="c" d="M208.2508,58.3443c.6041-.1746,.8723-.8781,.5725-1.4309-1.0364-1.9114-3.501-2.009-4.5659-.9079-.3695,.374-.3521,.8384,.052,1.0465,.1239,.0638,.2642,.0915,.4036,.0878,.1958-.0052,.6875,.0589,1.0328,.765,.1362,.2785,1.5406,.7183,2.5049,.4395Z"/><path class="n" d="M207.551,58.4952c-.8508,0-1.7405-.3174-1.8608-.5633-.3296-.6737-.7926-.7347-.9755-.7302-.1557,.0032-.3055-.0287-.4336-.0947-.1909-.0982-.3125-.2568-.3428-.4466-.0366-.2298,.0636-.4843,.2752-.6984,.5342-.5524,1.4253-.8197,2.3267-.6963,1.0023,.137,1.8543,.7268,2.3376,1.6182,.1566,.2888,.1739,.6279,.0474,.9302-.1209,.289-.3604,.5039-.6572,.5898h0c-.2221,.0642-.4678,.0914-.717,.0914Zm-2.8178-1.4176c.2204,0,.7193,.0863,1.0682,.7999,.1193,.2435,1.4929,.679,2.4322,.4072h0c.2605-.0753,.471-.2643,.5773-.5185,.112-.2676,.0966-.5677-.042-.8234-.4643-.8563-1.2828-1.4229-2.2456-1.5545-.8626-.118-1.7135,.1352-2.2214,.6602-.184,.1861-.2718,.4019-.2414,.5924,.0242,.152,.1201,.2751,.2772,.356,.1097,.0565,.2385,.0862,.3735,.0809l.0219-.0002Z"/></g><g class="k"><path class="c" d="M208.8877,57.7389c-.0092-.0208-.0197-.0417-.0302-.0614-1.0359-1.9114-3.5011-2.0094-4.5653-.9077-.0551,.0557-.1015,.1123-.1382,.171-.2451-.2349-.2098-.6184,.1041-.9356,1.0641-1.1005,3.5294-1.0037,4.5653,.9077,.1438,.2663,.1563,.566,.0644,.826Z"/></g><g><path class="c" d="M183.1991,60.8743c.9051-.2617,1.307-1.3158,.8579-2.1441-1.553-2.8641-5.246-3.0104-6.8416-1.3604-.5536,.5604-.5276,1.2563,.0779,1.5681,.1857,.0956,.3959,.137,.6047,.1315,.2933-.0077,1.0301,.0882,1.5476,1.1462,.2041,.4173,2.3086,1.0764,3.7535,.6586Z"/><path class="n" d="M182.1422,61.0708c-1.2608,0-2.5751-.4657-2.7522-.8278-.5013-1.0252-1.2106-1.1197-1.4902-1.1115-.2291,.0049-.4473-.0418-.6347-.1384-.2771-.1427-.4537-.3723-.4975-.6467-.0532-.3345,.094-.7063,.4039-1.02,.7942-.8211,2.1194-1.218,3.4601-1.0345,1.492,.204,2.7604,1.082,3.4799,2.4089,.2303,.4245,.2557,.9228,.0698,1.3672-.1776,.4243-.5293,.7399-.9649,.8659h0c-.3327,.0962-.701,.137-1.074,.137Zm-4.214-2.0636c.3237,0,1.0577,.1274,1.5731,1.1814,.1813,.3708,2.2609,1.037,3.6806,.6263h0c.3995-.1154,.7221-.4051,.885-.7946,.1714-.4097,.1479-.869-.0643-1.2604-.7004-1.2918-1.9353-2.1466-3.3878-2.3452-1.3014-.1784-2.5871,.2045-3.3548,.9984-.2823,.2857-.417,.6187-.3701,.9139,.038,.2378,.1872,.4302,.4318,.5561,.1691,.087,.3673,.1301,.5749,.1246l.0317-.0004Z"/></g><g class="k"><path class="c" d="M184.1289,60.0294c-.0298-.1447-.0807-.2889-.1547-.4265-1.5535-2.864-5.2459-3.0104-6.8426-1.3598-.0964,.0978-.1758,.1997-.2367,.3034-.1664-.3431-.0602-.792,.3198-1.1763,1.5967-1.6506,5.289-1.5041,6.8426,1.3598,.2275,.4198,.2369,.896,.0715,1.2995Z"/></g><path class="n" d="M182.1642,61.3733c-1.3281,0-2.7949-.4678-3.0524-.9944-.4224-.8639-.9782-.945-1.2039-.938-.2783,.008-.551-.0523-.7846-.1727-.367-.1889-.6018-.4991-.6615-.8733-.0689-.4329,.1095-.9017,.4894-1.2862,.8589-.8884,2.2868-1.32,3.7224-1.1237,1.5907,.2175,2.9431,1.1536,3.7101,2.5681,.275,.5073,.3054,1.103,.0831,1.6343-.2138,.5113-.6383,.8917-1.1645,1.0438-.3408,.0986-.7331,.1421-1.138,.1421Zm-2.3915-1.3346c.247,.2803,2.0539,.8456,3.3232,.4787h0c.3135-.0907,.5569-.3097,.6853-.6167,.1351-.3227,.1165-.6848-.0508-.9933-.653-1.2042-1.8038-2.001-3.1576-2.1861-1.2061-.1649-2.39,.1827-3.0903,.9069-.2146,.2173-.3181,.4531-.2868,.6499,.022,.1385,.1121,.2495,.2677,.3296,.1229,.0632,.2704,.0938,.4249,.0904,.3651-.0095,1.2725,.1023,1.8844,1.3407Z"/><path class="n" d="M207.5391,58.8053c-.9369,0-1.9345-.3439-2.127-.7373-.2507-.5125-.5662-.5611-.6892-.5569-.2094,.0057-.4094-.0392-.5837-.129-.2805-.1444-.4606-.3835-.5067-.6731-.0524-.3282,.0791-.6799,.3607-.9648,.5992-.6198,1.5933-.9216,2.5888-.7855,1.1011,.1505,2.0372,.7984,2.568,1.7774,.2015,.3716,.2236,.808,.0607,1.1973-.1572,.3759-.4695,.6557-.8568,.7677h0c-.2496,.0722-.5294,.1041-.8148,.1041Zm.7117-.4611h0Zm-2.187-.6345c.2036,.1662,1.3049,.5027,2.0838,.2776,.1725-.0499,.3066-.1708,.3776-.3406,.0756-.1807,.0652-.3834-.0285-.5562-.4167-.7686-1.1513-1.2772-2.0153-1.3953-.7666-.1049-1.5164,.1131-1.9569,.5686-.1344,.1361-.1693,.2583-.1582,.3284,.003,.0192,.0123,.0775,.1132,.1294,.0637,.0328,.1416,.0484,.2236,.0467,.2642-.0073,.9205,.0716,1.3606,.9414Z"/><g><path class="c" d="M201.4625,61.4841c-.0412-3.2898-3.6158-3.2752-5.4798-1.136-.5761,.6611-.3237,1.6754,.4953,1.9886,1.1529,.4409,2.7286,.5531,3.8664,.4257,.6441-.0721,1.1262-.6301,1.118-1.2782Z"/><path class="n" d="M199.4166,62.8723c-.9524,0-2.0679-.1364-2.9607-.4779-.4093-.1564-.7042-.4868-.8088-.9062-.1046-.4198,.0006-.8502,.2888-1.1809,1.0864-1.2469,2.792-1.815,4.0557-1.3506,.9724,.3573,1.5168,1.2546,1.5328,2.5266h0c.0086,.6883-.4958,1.2647-1.1731,1.3405-.2795,.0313-.5969,.0484-.9347,.0484Zm-.3749-3.9533c-1.0453,0-2.2037,.5417-3.0124,1.4698-.2613,.2998-.3567,.6896-.262,1.0695,.0947,.3796,.3618,.6787,.7328,.8205,1.1901,.455,2.7854,.54,3.8374,.4219,.6138-.0688,1.0709-.5914,1.063-1.2158h0c-.0152-1.217-.5309-2.0735-1.4516-2.4119-.2834-.1041-.5901-.154-.9072-.154Z"/></g><g class="k"><path class="c" d="M201.3514,60.604c-1.048-1.4709-3.5386-1.0936-4.9914,.5733-.229,.2619-.3266,.581-.3098,.8887-.4593-.4419-.526-1.191-.0677-1.7184,1.6803-1.9276,4.7489-2.1291,5.3689,.2565Z"/></g><path class="n" d="M199.3981,63.1828c-.9443,0-2.0838-.1286-3.0528-.4992-.5052-.1932-.8691-.6015-.9986-1.1205-.1295-.5193,.0001-1.0511,.3557-1.4592,1.1677-1.3399,3.0159-1.9449,4.3959-1.4379,.6379,.2344,1.7118,.9117,1.7356,2.8134h0c.0105,.8482-.612,1.5584-1.4483,1.6521-.2858,.032-.6222,.0513-.9877,.0513Zm-.3638-3.9561c-.9541,0-2.0212,.5043-2.7716,1.3654-.1939,.2225-.2649,.5108-.195,.7912,.0698,.2801,.2678,.501,.5429,.6062,1.1416,.4365,2.6771,.5171,3.6924,.4035,.4475-.0501,.7936-.4473,.7879-.9043h0c-.0137-1.0951-.4456-1.83-1.2488-2.1251-.2518-.0925-.5249-.1369-.8078-.1369Z"/><g><path class="c" d="M189.9406,51.509c-.1192-3.2972-4.4796-3.3575-6.7088-1.2531-.6889,.6504-.3598,1.672,.6459,2.0029,1.4158,.4659,3.3403,.6113,4.7257,.5075,.7842-.0588,1.3606-.6078,1.3372-1.2573Z"/><path class="n" d="M187.7191,52.8592c-1.209,0-2.6884-.1557-3.8607-.5415-.539-.1774-.9225-.5603-1.026-1.0242-.0872-.3915,.0429-.7861,.357-1.0826,1.3834-1.3061,3.5984-1.811,5.1522-1.1742,1.0287,.4217,1.6186,1.2989,1.6609,2.4701,.0249,.6918-.5745,1.2599-1.3944,1.3213-.2704,.0203-.5704,.0311-.889,.0311Zm-.8713-3.9741c-1.2515,0-2.6155,.5116-3.5735,1.4158-.2816,.2658-.3985,.6178-.321,.9655,.0939,.4209,.4467,.7699,.9438,.9335,1.4652,.4822,3.4174,.6006,4.7018,.5046,.7522-.0564,1.3024-.5694,1.2798-1.1934-.0518-1.4351-.8901-2.0754-1.5841-2.36-.4394-.1802-.9336-.2661-1.4468-.2661Z"/></g><g class="k"><path class="c" d="M189.7503,50.5186c-1.3824-1.3037-4.2498-.9424-5.9191,.6342-.2829,.2667-.3939,.5957-.3583,.9139-.6763-.4364-.827-1.257-.2405-1.8107,1.9782-1.8681,5.6378-2.0308,6.5179,.2627Z"/></g><path class="n" d="M187.7242,53.1686c-1.239,0-2.7572-.1601-3.9626-.5568-.6437-.2118-1.104-.6794-1.2314-1.2509-.1116-.5006,.0512-1.0018,.4465-1.3751,1.4666-1.3844,3.823-1.9154,5.4823-1.2355,1.1478,.4705,1.8059,1.4455,1.8528,2.7454h0c.0311,.8615-.6913,1.5671-1.6806,1.6413-.276,.0207-.582,.0317-.9071,.0317Zm-.8585-3.9689c-1.1787,0-2.4867,.4843-3.3787,1.3265-.2032,.1918-.2854,.4308-.2314,.673,.0698,.3134,.3458,.5776,.7383,.7068,1.4247,.4689,3.3281,.584,4.5818,.4899,.5733-.0429,1.0097-.4266,.9936-.8734h0c-.0458-1.2702-.7824-1.8347-1.3921-2.0846-.3937-.1614-.8423-.2382-1.3115-.2382Z"/><g><path class="c" d="M212.9159,61.3214c-.8123,.3869-1.4641,.8115-1.8671,1.2944-.5919,.7093-.3893,1.7867,.3933,2.2775,1.1423,.7163,2.2565,.9365,3.311,.1021,.7525-.5955,1.1238-1.5719,.9542-2.5164-.1264-.7039-.5087-1.2183-1.3068-1.3691-.5023-.0949-1.023-.0084-1.4845,.2115Z"/><path class="n" d="M213.3029,65.5902c-.5803,0-1.2085-.2147-1.8937-.6444-.3995-.2505-.6712-.6616-.7452-1.1278-.0711-.4474,.0518-.9,.3372-1.2419,.3834-.4594,1.001-.8881,1.888-1.3106h0c.4885-.2327,1.0294-.3097,1.5225-.2164,.7565,.1429,1.2129,.6203,1.3563,1.419,.1722,.959-.2111,1.9701-.9767,2.5759-.4601,.3641-.9541,.5463-1.4885,.5463Zm-.3604-4.2129c-.8706,.4147-1.4745,.8328-1.8462,1.2782-.2663,.3191-.3764,.725-.31,1.1432,.0685,.4308,.3194,.8107,.6887,1.0422,1.2838,.8052,2.3133,.8388,3.2395,.106,.7303-.5778,1.096-1.5422,.9317-2.4569-.1352-.7534-.5466-1.1849-1.2574-1.3192-.468-.0882-.9814-.0148-1.4463,.2066h0Z"/></g><g class="k"><path class="c" d="M215.6567,62.2605c-.1995-.1783-.46-.3038-.7924-.3666-.5023-.0951-1.0219-.0078-1.4845,.2119-.8119,.3867-1.4632,.8111-1.8663,1.294-.3201,.3826-.4079,.8731-.2987,1.3202-.5893-.5401-.696-1.4697-.1665-2.1048,.4031-.4829,1.0556-.9072,1.8676-1.2939,.4614-.2198,.9821-.3058,1.4845-.2119,.7125,.1351,1.0937,.5608,1.2564,1.1511Z"/></g><g><path class="c" d="M192.2195,54.8825c-.4991,.2378-.8997,.4987-1.1474,.7954-.3638,.4359-.2393,1.098,.2417,1.3996,.702,.4402,1.3867,.5755,2.0346,.0627,.4624-.3659,.6906-.9659,.5863-1.5463-.0777-.4325-.3126-.7487-.8031-.8413-.3087-.0583-.6286-.0051-.9122,.13Z"/><path class="n" d="M192.4577,57.53c-.3609,0-.7512-.1333-1.1767-.4-.2513-.1577-.4221-.4162-.4688-.7094-.0448-.2818,.0327-.5669,.2125-.7823,.2377-.2848,.6197-.5503,1.1683-.8116h0c.3048-.1452,.642-.1932,.9503-.1349,.4757,.0899,.7626,.3897,.8526,.8912,.1074,.5979-.1316,1.2282-.6089,1.6059-.2875,.2275-.5958,.3413-.9293,.3413Zm-.2115-2.5916c-.5319,.2535-.9005,.5083-1.1264,.7792-.1592,.1907-.225,.4335-.1852,.6835,.0409,.2579,.1912,.4854,.4122,.6239,.7793,.4889,1.4034,.51,1.9633,.0666,.442-.3497,.6633-.9333,.5639-1.4868-.0812-.4521-.3277-.7109-.7536-.7914-.2825-.0532-.5929-.0089-.8741,.125h0Z"/></g><g class="k"><path class="c" d="M193.9547,55.9716c-.1289-.2275-.3414-.3859-.6665-.4479-.3092-.0581-.629-.0052-.9132,.1307-.4979,.2375-.8984,.4979-1.1469,.7952-.0928,.1118-.1547,.2391-.186,.3717-.2405-.3352-.2504-.8064,.0305-1.1429,.2473-.2974,.6478-.5579,1.1471-.7964,.2828-.1348,.6039-.1876,.9119-.1296,.4901,.0927,.7262,.4088,.8031,.8417,.0228,.1266,.0294,.2529,.02,.3776Z"/></g><path class="n" d="M213.3065,65.9059c-.636,0-1.3199-.2325-2.0618-.6978-.4753-.298-.7984-.787-.8864-1.3415-.0851-.5357,.0625-1.0784,.4053-1.4889,.4126-.4944,1.0644-.9496,1.9925-1.3918h0c.5554-.2645,1.1479-.3479,1.7131-.2411,.8831,.1668,1.4376,.7437,1.6037,1.6685,.1951,1.0863-.2223,2.1874-1.0894,2.8734-.5215,.4127-1.0779,.6191-1.677,.6191Zm-.2309-4.249c-.8295,.3951-1.3991,.7866-1.7416,1.197-.2083,.2494-.2942,.5676-.2419,.8961,.0543,.3425,.2539,.6445,.5473,.8286,1.1735,.7359,2.0626,.7746,2.883,.1254,.6419-.5079,.9634-1.3555,.819-2.1593-.1114-.6207-.4324-.9605-1.0101-1.0697-.4036-.0762-.8496-.0117-1.2557,.1818h0Z"/><path class="n" d="M192.4609,57.8397c-.4196,0-.8688-.1492-1.3445-.4475-.327-.2051-.5495-.5416-.6101-.9231-.0588-.37,.0434-.7452,.2806-1.0293,.2668-.3198,.6831-.6118,1.2728-.8927h0c.369-.1759,.7633-.2311,1.1409-.1596,.6061,.1145,.9865,.509,1.0999,1.1407,.1292,.7197-.1472,1.449-.7216,1.9034-.3439,.2721-.7175,.4082-1.1181,.4082Zm-.0816-2.6218c-.4839,.2305-.8278,.4654-1.0218,.6979-.1011,.1211-.1427,.2761-.1172,.4366,.027,.1696,.1257,.3191,.2709,.4102,.6707,.4204,1.1511,.4465,1.6067,.0861,.3535-.2798,.5307-.7466,.4511-1.1893-.0581-.3237-.2095-.4858-.5063-.5419-.2183-.0411-.4611-.0056-.6835,.1003h0Z"/><polygon class="g" points="187.0272 60.266 187.9898 59.2937 189.7805 59.1014 191.3742 58.4756 189.9709 59.7727 188.6198 59.858 187.0272 60.266"/></g><g><g><path class="g" d="M71.5196,65.4304l-11.0181,12.1662c-.8537,.8324-1.1279,2.094-.6968,3.2056l2.4815,6.3987c2.217,5.7166,6.0093,10.7628,11.2311,14.4912,3.9198,2.7987,9.0486,6.3301,15.5498,6.9648l2.4544-.9518c5.3367-4.1932,7.9464-10.8659,9.0764-16.1456,1.3429-6.2742,.7413-12.5577-1.4756-18.2744l-2.606-6.7198c-.4311-1.1116-1.4843-1.8585-2.6759-1.8976l-18.1569-.5965c-.8094-.0266-3.5838,.794-4.1637,1.3593Z"/><path class="h" d="M71.5196,65.4304l-11.0181,12.1662c-.8537,.8324-1.1279,2.094-.6968,3.2056l2.4815,6.3987c2.217,5.7166,6.0093,10.7628,11.2311,14.4912,3.9198,2.7987,9.0486,6.3301,15.5498,6.9648l2.4544-.9518c5.3367-4.1932,7.9464-10.8659,9.0764-16.1456,1.3429-6.2742,.7413-12.5577-1.4756-18.2744l-2.606-6.7198c-.4311-1.1116-1.4843-1.8585-2.6759-1.8976l-18.1569-.5965c-.8094-.0266-3.5838,.794-4.1637,1.3593Z"/><path class="g" d="M71.0545,65.8661l-13.0073,12.6822c-.8537,.8324-1.1279,2.094-.6968,3.2056l2.4815,6.3987c2.217,5.7166,6.0093,10.7628,11.2311,14.4912,4.3942,3.1374,10.3518,5.8121,18.0042,6.013,5.3367-4.1932,7.9464-10.8659,9.0764-16.1456,1.3429-6.2742,.7413-12.5577-1.4756-18.2744l-2.606-6.7198c-.4311-1.1116-1.4843-1.8585-2.6759-1.8976l-18.1569-.5965c-.8094-.0266-1.5946,.2779-2.1745,.8433Z"/><path class="n" d="M95.9455,72.5231c.0029-.0013,.016,.0227,.039,.0708l.0977,.2153c.0884,.2055,.2083,.4841,.3595,.8354,.1551,.3634,.3493,.8065,.5248,1.3401l.298,.8484,.1622,.4635,.142,.4974c.1898,.6807,.4245,1.42,.5844,2.2368,.0856,.4067,.1912,.8243,.2684,1.2603l.2142,1.3496c.2479,1.852,.397,3.9118,.2863,6.07-.1141,2.1579-.446,4.1951-.8762,6.0151-.2459,.9025-.4602,1.7657-.7466,2.5475-.1372,.3924-.2507,.7783-.3946,1.1364l-.4166,1.0286c-.2497,.662-.5503,1.2281-.7867,1.7371-.1232,.2521-.2298,.4908-.343,.7027l-.32,.5745-.4478,.7915-.1204,.2034c-.028,.0453-.0437,.0677-.0464,.0661-.0028-.0016,.0075-.0271,.0302-.0755l.1045-.2123,.417-.8067,.3051-.5805c.1084-.2138,.21-.454,.3285-.7075,.2268-.5115,.5182-1.0795,.7592-1.742,.1288-.328,.2636-.6713,.404-1.0287,.1398-.3579,.2493-.7432,.3828-1.1348,.279-.7803,.4866-1.6408,.7268-2.5396,.4189-1.8127,.7438-3.8387,.8573-5.9843,.11-2.1459-.0332-4.194-.2706-6.0378-.0703-.4597-.1388-.9082-.2055-1.3441-.0741-.4344-.1762-.8506-.2583-1.2562-.1526-.8145-.3792-1.5526-.5603-2.2331l-.1353-.4974-.1554-.4639-.2837-.8503c-.1659-.5352-.3498-.981-.4945-1.3478l-.3272-.8473-.081-.2224c-.0173-.0505-.0247-.0771-.0218-.0783Z"/></g><g><path class="e" d="M87.1476,85.828l-1.6617,.6444-3.5076-9.0447c-.8256-2.1289-3.2293-3.1892-5.3581-2.3636s-3.1892,3.2293-2.3636,5.3581l3.5076,9.0447-1.6617,.6444-3.5076-9.0447c-1.1809-3.0451,.3358-6.4834,3.3809-7.6643s6.4834,.3358,7.6643,3.3809l3.5076,9.0447Z"/><rect class="c" x="73.5234" y="81.4068" width="15.9651" height="12.5125" rx="2.0434" ry="2.0434" transform="translate(-26.182 35.4009) rotate(-21.1966)"/><path class="g" d="M82.7663,87.5239c.1773-.4063,.2013-.8787,.0281-1.3255-.3506-.9041-1.3678-1.3528-2.2719-1.0021s-1.3528,1.3678-1.0022,2.2718c.2901,.7482,1.0371,1.1764,1.7983,1.1059l.2513,1.692,1.5583-.6043-.9164-1.4341c.2456-.1858,.4349-.4297,.5545-.7036"/></g></g><g><path class="g" d="M245.386,152.9184l-13.3581-2.3238c-.958-.2287-1.96,.1366-2.5459,.9282l-3.3727,4.5568c-3.0132,4.0711-4.8629,8.9464-5.1616,14.2381-.2242,3.9723-.4263,9.1121,1.9998,13.9318l1.7479,1.2937c5.2833,1.8757,11.0945,.7528,15.2798-.7884,4.9737-1.8315,9.0957-5.0248,12.109-9.096l3.542-4.7855c.5859-.7917,.6426-1.8567,.144-2.706l-7.5973-12.9416c-.3387-.5769-2.1362-2.152-2.7868-2.3074Z"/><path class="h" d="M245.386,152.9184l-13.3581-2.3238c-.958-.2287-1.96,.1366-2.5459,.9282l-3.3727,4.5568c-3.0132,4.0711-4.8629,8.9464-5.1616,14.2381-.2242,3.9723-.4263,9.1121,1.9998,13.9318l1.7479,1.2937c5.2833,1.8757,11.0945,.7528,15.2798-.7884,4.9737-1.8315,9.0957-5.0248,12.109-9.096l3.542-4.7855c.5859-.7917,.6426-1.8567,.144-2.706l-7.5973-12.9416c-.3387-.5769-2.1362-2.152-2.7868-2.3074Z"/><path class="g" d="M244.8764,152.786l-14.5964-3.485c-.958-.2287-1.96,.1366-2.5459,.9282l-3.3727,4.5568c-3.0132,4.0711-4.8629,8.9464-5.1616,14.2381-.2513,4.453,.5105,9.7935,3.7477,15.2255,5.2833,1.8757,11.0945,.7528,15.2798-.7884,4.9737-1.8315,9.0957-5.0248,12.109-9.096l3.542-4.7855c.5859-.7917,.6426-1.8567,.144-2.706l-7.5973-12.9416c-.3387-.5769-.8979-.9908-1.5485-1.1461Z"/><g><circle class="n" cx="235.3715" cy="167.2471" r="9.0501" transform="translate(11.9113 350.1046) rotate(-74.6898)"/><circle class="c" cx="237.3096" cy="164.6286" r="3.7572"/><path class="c" d="M226.3468,167.9062s3.8887-2.3137,7.8869,.6456,3.144,7.5189,3.144,7.5189c0,0-3.7339,1.315-7.604-1.7075-3.5035-2.7361-3.4269-6.457-3.4269-6.457Z"/></g></g><g><path class="n" d="M63.5906,192.6995c-.4192-.8673-3.384-.3018-6.6221,1.2631s-5.5232,3.5368-5.104,4.4041,3.384,.3018,6.6221-1.2632,5.5233-3.5367,5.1041-4.4041Z"/><g><path class="g" d="M58.423,174.5367c1.7459,3.6124,1.0826,14.5052,.6077,20.0311-.1299,1.512-1.8296,2.3334-3.0951,1.4958-4.6249-3.0611-13.5723-9.3092-15.3182-12.9215-2.3763-4.9168-.3168-10.8291,4.6001-13.2054s10.8291-.3167,13.2054,4.6001Z"/><path class="g" d="M45.2176,169.9367c-.2965,.1433-.5816,.3009-.857,.4689,4.7176-1.7356,10.0726,.36,12.3055,4.9802,1.7459,3.6124,1.0826,14.5052,.6078,20.031-.0321,.3728-.1602,.703-.353,.9774,1.0229,.059,2.012-.6873,2.1099-1.8264,.4749-5.5259,1.1381-16.4187-.6077-20.0311-2.3763-4.9168-8.2886-6.9764-13.2054-4.6001Z"/><circle class="n" cx="49.5203" cy="178.8394" r="5.3934"/></g></g></svg>