<?xml version="1.0" encoding="UTF-8"?><svg id="a" xmlns="http://www.w3.org/2000/svg" width="100mm" height="100mm" viewBox="0 0 283.4646 283.4646"><defs><style>.b{fill:#fff;}.c{fill:#2ba0da;}.d{fill:#f5f5f5;}.e{fill:none;stroke:#12293b;stroke-miterlimit:10;stroke-width:2.126px;}.f{fill:#c29b5a;}.g{fill:#e1e1e1;}.h{opacity:.3;}.i{fill:#ffc19d;}.j{fill:#ff9c6a;}.k{fill:#12293b;}</style></defs><g><path class="f" d="M41.8966,137.5028l-17.2134,8.6343c-1.2869,.5483-2.1222,1.8121-2.1222,3.2109v8.052c0,7.1938,2.0077,14.3224,6.1381,20.616,3.1005,4.7243,7.2127,10.7628,14.0549,14.215h3.0885c7.6165-2.3229,13.3018-8.515,16.7776-13.811,4.1306-6.2935,6.1381-13.4221,6.1381-20.6159v-8.4562c0-1.3989-.8352-2.6626-2.1221-3.2109l-19.6084-8.3549c-.8741-.3724-4.257-.6517-5.1312-.2793Z"/><path class="h" d="M41.8966,137.5028l-17.2134,8.6343c-1.2869,.5483-2.1222,1.8121-2.1222,3.2109v8.052c0,7.1938,2.0077,14.3224,6.1381,20.616,3.1005,4.7243,7.2127,10.7628,14.0549,14.215h3.0885c7.6165-2.3229,13.3018-8.515,16.7776-13.811,4.1306-6.2935,6.1381-13.4221,6.1381-20.6159v-8.4562c0-1.3989-.8352-2.6626-2.1221-3.2109l-19.6084-8.3549c-.8741-.3724-4.257-.6517-5.1312-.2793Z"/><path class="f" d="M41.2029,137.7821l-19.6083,8.3549c-1.2869,.5483-2.1222,1.8121-2.1222,3.2109v8.052c0,7.1938,2.0077,14.3224,6.1381,20.616,3.4758,5.296,8.858,10.7491,17.1435,14.215,7.6165-2.3229,13.3018-8.515,16.7776-13.811,4.1306-6.2935,6.1381-13.4221,6.1381-20.6159v-8.4562c0-1.3989-.8352-2.6626-2.1221-3.2109l-19.6084-8.3549c-.8741-.3724-1.8622-.3724-2.7363,0Z"/><g><circle class="k" cx="42.5711" cy="162.3226" r="12.8538" transform="translate(-55.8108 26.3743) rotate(-21.1966)"/><circle class="b" cx="42.5711" cy="157.6956" r="5.3364"/><path class="b" d="M32.8253,170.7006s2.4844-5.9272,9.5493-5.9272,9.9425,5.9272,9.9425,5.9272c0,0-3.1515,4.6562-10.1236,4.4758-6.3116-.1633-9.3682-4.4758-9.3682-4.4758Z"/></g></g><g><g><g><g><path class="k" d="M203.0736,250.8026H70.3841c-3.5911,0-6.5022-3.0112-6.5022-6.7258V41.2529c0-3.7146,2.911-6.7259,6.5021-6.7259H203.0738c3.5912,0,6.5025,3.0114,6.5025,6.7261V244.0762c.0001,3.7149-2.9113,6.7264-6.5026,6.7264Z"/><path class="c" d="M139.2701,240.9637c0,3.3505-2.7665,6.0669-6.179,6.0669s-6.1791-2.7164-6.1791-6.0669,2.7662-6.0671,6.1791-6.0671,6.179,2.7165,6.179,6.0671Z"/></g><path class="c" d="M151.6567,45.9559h-29.7552c-1.1461,0-2.0752-.9609-2.0752-2.1465h0c0-1.1855,.9291-2.1465,2.0752-2.1465h29.7552c1.1461,0,2.0751,.961,2.0751,2.1465h0c0,1.1856-.9291,2.1465-2.0751,2.1465Z"/></g><rect class="b" x="68.35" y="49.9569" width="136.506" height="180.6162"/><rect class="d" x="199.033" y="49.9569" width="5.8231" height="180.6163"/><path class="g" d="M201.9446,114.8468h0c-1.0026,0-1.8153-.8127-1.8153-1.8153v-39.9534c0-1.0025,.8127-1.8153,1.8153-1.8153h0c1.0025,0,1.8153,.8127,1.8153,1.8153v39.9534c0,1.0025-.8127,1.8153-1.8153,1.8153Z"/></g><path class="g" d="M187.0552,91.0604H86.4031c-1.5988,0-2.8949-1.2961-2.8949-2.8949h0c0-1.5989,1.2961-2.8949,2.8949-2.8949h100.6521c1.5988,0,2.8949,1.2961,2.8949,2.8949h0c0,1.5988-1.2961,2.8949-2.8949,2.8949Z"/><path class="f" d="M171.5746,69.9347h-63.3161c-1.5989,0-2.8949-1.2961-2.8949-2.8949h0c0-1.5988,1.2961-2.8949,2.8949-2.8949h63.3161c1.5988,0,2.8949,1.2961,2.8949,2.8949h0c0,1.5989-1.2961,2.8949-2.8949,2.8949Z"/><path class="g" d="M172.763,102.714H100.6952c-1.5988,0-2.8949-1.2961-2.8949-2.8949h0c0-1.5988,1.2961-2.8949,2.8949-2.8949h72.0678c1.5989,0,2.895,1.2961,2.895,2.8949h0c0,1.5988-1.2961,2.8949-2.895,2.8949Z"/><path class="g" d="M140.2258,153.5165h-55.4478c-1.5989,0-2.8949-1.2961-2.8949-2.8949h0c0-1.5989,1.2961-2.8949,2.8949-2.8949h55.4478c1.5988,0,2.8949,1.2961,2.8949,2.8949h0c0,1.5988-1.2961,2.8949-2.8949,2.8949Z"/><path class="g" d="M185.4301,141.3918H84.778c-1.5989,0-2.8949-1.2961-2.8949-2.8949h0c0-1.5989,1.2961-2.8949,2.8949-2.8949h100.652c1.5988,0,2.8949,1.2961,2.8949,2.8949h0c0,1.5988-1.2961,2.8949-2.8949,2.8949Z"/><rect class="g" x="94.4348" y="174.6565" width="93.8902" height="5.7899" rx="2.8949" ry="2.8949"/><path class="g" d="M185.4301,192.821H84.778c-1.5989,0-2.8949-1.2961-2.8949-2.8949h0c0-1.5988,1.2961-2.8949,2.8949-2.8949h100.652c1.5988,0,2.8949,1.2961,2.8949,2.8949h0c0,1.5988-1.2961,2.8949-2.8949,2.8949Z"/><path class="g" d="M185.4301,205.3882H84.778c-1.5989,0-2.8949-1.2961-2.8949-2.8949h0c0-1.5989,1.2961-2.8949,2.8949-2.8949h100.652c1.5988,0,2.8949,1.2961,2.8949,2.8949h0c0,1.5988-1.2961,2.8949-2.8949,2.8949Z"/><path class="f" d="M89.3084,177.5515c0,1.6608-1.3464,3.0072-3.0073,3.0072s-3.0073-1.3464-3.0073-3.0072,1.3464-3.0073,3.0073-3.0073,3.0073,1.3464,3.0073,3.0073Z"/><path class="g" d="M185.4301,130.0843H97.3297c-1.5989,0-2.8949-1.2961-2.8949-2.8949h0c0-1.5989,1.2961-2.8949,2.8949-2.8949h88.1003c1.5988,0,2.8949,1.2961,2.8949,2.8949h0c0,1.5988-1.2961,2.8949-2.8949,2.8949Z"/><circle class="f" cx="86.3011" cy="127.1893" r="3.0073"/><path class="f" d="M182.6169,223.8021h-22.5852c-2.5481,0-4.6138-2.0656-4.6138-4.6138h0c0-2.5481,2.0656-4.6138,4.6138-4.6138h22.5852c2.5481,0,4.6138,2.0656,4.6138,4.6138h0c0,2.5481-2.0657,4.6138-4.6138,4.6138Z"/></g><g><g><path class="f" d="M62.6518,64.5306l-23.413,11.7439c-1.7504,.7458-2.8864,2.4647-2.8864,4.3674v10.952c0,9.7846,2.7307,19.4807,8.3488,28.0408,4.2172,6.4257,9.8104,14.6391,19.1169,19.3346h4.2009c10.3596-3.1595,18.0925-11.5816,22.8201-18.785,5.6181-8.5601,8.3487-18.256,8.3487-28.0408v-11.5017c0-1.9027-1.136-3.6215-2.8865-4.3674l-26.6703-11.3639c-1.1889-.5066-5.7903-.8865-6.9792-.38Z"/><path class="h" d="M62.6518,64.5306l-23.413,11.7439c-1.7504,.7458-2.8864,2.4647-2.8864,4.3674v10.952c0,9.7846,2.7307,19.4807,8.3488,28.0408,4.2172,6.4257,9.8104,14.6391,19.1169,19.3346h4.2009c10.3596-3.1595,18.0925-11.5816,22.8201-18.785,5.6181-8.5601,8.3487-18.256,8.3487-28.0408v-11.5017c0-1.9027-1.136-3.6215-2.8865-4.3674l-26.6703-11.3639c-1.1889-.5066-5.7903-.8865-6.9792-.38Z"/><path class="f" d="M61.7083,64.9106l-26.6703,11.3639c-1.7504,.7458-2.8864,2.4647-2.8864,4.3674v10.952c0,9.7846,2.7307,19.4807,8.3487,28.0408,4.7276,7.2034,12.0482,14.6204,23.3178,19.3346,10.3596-3.1595,18.0925-11.5816,22.8201-18.785,5.6181-8.5601,8.3487-18.256,8.3487-28.0408v-11.5017c0-1.9027-1.136-3.6215-2.8865-4.3674l-26.6703-11.3639c-1.1889-.5066-2.5329-.5066-3.7218,0Z"/><path class="k" d="M94.9011,89.177c.0051-.0002,.0108,.043,.0172,.1278l.0211,.3767c.013,.3567,.0306,.8405,.0528,1.4504,.0211,.6301,.0543,1.4015,.0076,2.2966-.0144,.4489-.0299,.9276-.0461,1.4342l-.0262,.7832c-.0246,.2673-.0499,.5414-.0757,.822-.1104,1.1223-.1878,2.3577-.4212,3.6651-.1072,.6545-.1911,1.3367-.3278,2.03l-.46,2.1316c-.6997,2.8985-1.6665,6.0492-3.0764,9.1964-1.4149,3.1448-3.0841,5.9842-4.7743,8.4439-.8866,1.2008-1.7035,2.3615-2.5808,3.3595-.4305,.5047-.822,1.0133-1.2428,1.4632-.4215,.4481-.8264,.8786-1.2133,1.2901-.7535,.8408-1.5274,1.5097-2.1727,2.1306-.3288,.304-.625,.5976-.9158,.8476-.2935,.2435-.563,.4672-.8076,.6702l-1.1229,.9192-.2965,.2332c-.0678,.0512-.104,.0755-.1072,.0716-.0032-.004,.0268-.036,.0884-.0949l.278-.2555,1.0859-.9597,.7888-.6877c.2846-.2556,.5745-.5543,.897-.8631,.6326-.6302,1.3938-1.3071,2.1347-2.1537,.381-.4137,.7796-.8467,1.1946-1.2975,.4145-.4518,.7998-.9619,1.2243-1.4676,.8653-.9999,1.6706-2.1605,2.5468-3.3592,1.6692-2.4554,3.3215-5.2822,4.7284-8.409,1.4018-3.1292,2.3706-6.2592,3.0812-9.1394,.1607-.7246,.3174-1.4314,.4698-2.1184,.1405-.6891,.2286-1.3673,.3406-2.0181,.2429-1.2999,.3316-2.5288,.4548-3.6458,.0292-.2792,.0577-.5521,.0856-.8181,.0125-.2668,.0247-.5268,.0365-.7799l.0685-1.4288c.0621-.892,.0456-1.6615,.0419-2.2906,.0009-.6095,.0016-1.093,.0021-1.4495l.0079-.3776c.0035-.0851,.0077-.1289,.0127-.1291Z"/></g><g><path class="d" d="M74.1343,103.8961h-2.8442v-15.4809c0-3.6437-2.9645-6.6083-6.6083-6.6083s-6.6083,2.9645-6.6083,6.6083v15.4809h-2.8442v-15.4809c0-5.2119,4.2405-9.4525,9.4525-9.4525s9.4525,4.2405,9.4525,9.4525v15.4809Z"/><rect class="b" x="51.9432" y="93.3874" width="25.4771" height="19.9675" rx="3.2609" ry="3.2609"/><path class="f" d="M66.6371,103.8915c.4983-.5022,.8066-1.1912,.8066-1.956,0-1.5474-1.2545-2.8019-2.8019-2.8019s-2.8019,1.2545-2.8019,2.8019c0,1.2806,.8643,2.3486,2.0375,2.683l-.6024,2.6624h2.6671l-.536-2.6624c.4726-.1347,.8949-.3883,1.231-.727"/></g></g><circle class="e" cx="141.7323" cy="142.0649" r="137.4803"/><g><g><g><g><path class="i" d="M225.2872,64.6238v19.681c.0424,3.4037,.5425,8.7446-4.842,8.5659h0c-4.6601-.5072-5.8963-4.9186-5.9325-8.0951-.0171-1.5067-.0346-2.7632-.0465-2.9178,0,0-5.1013-.4161-5.5319-5.4546-.2081-2.4348-.2283-7.4849-.1936-12.0537,.0372-4.9068,3.8422-8.9601,8.7361-9.3175l.4865-.0355c5.2693-.0767,7.3932,4.3578,7.324,9.6273Z"/><path class="j" d="M214.4661,81.8578s3.1925-.0458,6.4244-2.4208c0,0-1.3328,3.8005-6.3981,3.7139l-.0263-1.2931Z"/></g><g><g><path class="k" d="M217.3549,66.4143c.1001,.1019,.6819-.3664,1.5262-.3891,.8429-.0353,1.4745,.3914,1.5632,.2828,.0436-.0484-.0606-.2346-.3358-.4279-.271-.1926-.7293-.374-1.255-.356-.5258,.0186-.9625,.2299-1.2111,.4406-.2539,.2118-.3366,.4041-.2875,.4495Z"/><path class="k" d="M217.3418,68.8024c.0137,.3607,.3301,.6466,.7072,.6394,.376-.0073,.6707-.3048,.6572-.6655-.0135-.3606-.3301-.6469-.7065-.6399-.3768,.0073-.6715,.3054-.6579,.666Z"/><path class="k" d="M215.2402,72.2864c.0005-.0442-.4873-.0924-1.2752-.1352-.1994-.006-.3895-.0316-.4328-.1642-.057-.1396,.0102-.3589,.0893-.5962,.1511-.4925,.3091-1.0088,.4752-1.5498,.6561-2.2048,1.1155-4.0119,1.0265-4.0375-.0892-.0256-.6931,1.7407-1.3491,3.9456-.1571,.5433-.3074,1.0614-.4501,1.5568-.0583,.2303-.1684,.4949-.0458,.7843,.064,.1439,.2171,.2406,.3464,.2654,.1299,.0295,.2413,.0235,.3397,.0222,.7887-.0152,1.2762-.0471,1.2759-.0914Z"/></g><path class="k" d="M217.714,62.8221c.0816,.1873,.7573,.0463,1.5666,.0879,.81,.0244,1.4745,.2201,1.5683,.0399,.0414-.0861-.0845-.2585-.3595-.4255-.2728-.1668-.6993-.3132-1.1848-.3334-.4853-.0193-.9204,.0919-1.2035,.2361-.2855,.1441-.4227,.306-.3871,.395Z"/><path class="k" d="M209.6967,64.0866c.0886,.1527,.7474-.0168,1.5456-.0414,.7983-.039,1.4608,.0776,1.5451-.082,.0369-.0761-.0947-.2129-.3728-.3342-.2759-.1212-.7021-.2138-1.1809-.1951-.4785,.0196-.9016,.1461-1.1738,.2892-.2745,.1433-.4022,.2905-.3632,.3635Z"/></g><path class="k" d="M202.0495,59.8265c.0548-.2028,.2023-.3698,.3833-.4766,.3944-.2329,.8489-.2019,1.2881-.2089,1.3373-.0214,2.6643-.4296,3.7892-1.1519,.5268-.7595,1.1199-1.4733,1.7635-2.1369,1.5272-1.5748,2.784-2.6466,4.0838-3.1698,1.6814-.6769,4.4934-.9513,6.2465-.4913,1.7532,.46,3.3277,1.8823,3.5713,3.6785,.9833-.8313,2.4594-.8243,3.6567-.3428l.03-.0132c1.3336,.4754,2.0912,1.8843,2.4847,3.2443,.3935,1.3599,.5613,2.8142,1.2815,4.0331,.1506,.2549,.3295,.5603,.198,.8255-.1017,.205-.3623,.2896-.5888,.2564-.2265-.0333-.4274-.1585-.6208-.281,.1488,.3561,.2975,.7123,.4463,1.0684-.4825,.0841-.9821,.0453-1.4507-.0968-.2833,1.2718-.621,2.7242-.9485,3.5862-.5576-.0016-1.0678,.0382-1.4115,.3473-.4672,.42-.676,1.21-1.4521,.9101-.395-.1527-.7554-.9814-.8877-1.3838-.8773-2.6706-1.1685-5.5311-.8515-8.3239-.5522-.5889-1.219-1.07-1.9519-1.4088l.0597,.0538c-1.4082-.4891-3.001-.9702-4.3371-.3091-1.0363,.5128-1.6455,1.5882-2.4203,2.4463-1.4685,1.6264-3.4492,2.5101-5.6384,2.6043-.0745,1.4188,.0447,3.4241-.0298,4.8428l-1.1935-2.2727-.001,.0113c-.0978-.1663-.1786-.334-.2568-.5021l-.0267-.0509v-.0064c-.1242-.2699-.2422-.5402-.3991-.8072l-.0136,.0121c-.7688,.6782-1.9014-.3587-1.2952-1.1853,.1202-.164,.2641-.3102,.4285-.4307-.3513,.33-.8752,.4879-1.3358,.3463-.4607-.1416-.8181-.6077-.7781-1.0881,.0274-.3279,.2616-.6209,.5577-.7506-.621,.0478-1.256-.0874-1.7973-.3961-.3548-.2024-.703-.5356-.5826-.9819Z"/><path class="b" d="M221.589,56.4481c-.01,.013,.2112,.1333,.5056,.4624,.2917,.3276,.619,.8977,.7737,1.6734,.0793,.3857,.129,.817,.1287,1.281,.0021,.4642-.0352,.9612-.0708,1.4851-.0339,.5237-.0714,1.0772-.0379,1.6528,.0169,.2874,.0514,.5798,.1137,.8719,.0635,.2872,.1389,.5988,.3556,.8458,.1727,.2012,.4613,.2904,.7113,.2391,.2519-.0447,.4759-.1788,.64-.3615,.3244-.3786,.4052-.8586,.4857-1.2816l-.1058,.0128c.1728,.3802,.3503,.756,.6132,1.0559,.2585,.3018,.6165,.5014,.9805,.534,.1812,.0163,.364-.0127,.5197-.0911,.1588-.0772,.2741-.209,.3531-.3478,.0754-.1416,.1148-.2969,.1071-.4468-.0086-.1495-.067-.2915-.1619-.3919l-.0534,.0476c.3886,.4427,.7989,.6805,1.0827,.8123,.1433,.066,.2579,.1054,.3355,.1304,.0782,.0232,.1193,.0329,.1202,.0297,.0011-.0034-.038-.0192-.1136-.0483-.075-.0308-.1864-.0758-.3254-.1463-.2753-.1409-.6725-.385-1.0451-.8243l-.0534,.0477c.1695,.1796,.1794,.4952,.0334,.7489-.0735,.125-.1795,.2422-.3192,.3077-.1389,.0681-.3054,.0935-.4709,.0768-.3343-.0333-.6682-.2204-.9101-.5075-.2481-.2866-.4198-.6524-.5906-1.0332l-.0725-.1616-.0333,.1744c-.0807,.4226-.1667,.8834-.4625,1.2246-.1469,.1639-.3523,.2849-.5728,.3233-.2209,.0426-.454-.0301-.6046-.2026-.1895-.2136-.2669-.5088-.3284-.7913-.0611-.285-.0956-.5714-.113-.8541-.0346-.566,0-1.1156,.031-1.639,.0324-.5235,.0664-1.0229,.06-1.493-.004-.4701-.0592-.9071-.1451-1.2977-.1676-.7858-.5135-1.3629-.821-1.6865-.3104-.3252-.5397-.4317-.5397-.4317Z"/><path class="b" d="M205.9967,61.3523c-.0012,.0016,.0124,.0132,.0404,.0344l.1259,.0918c.055,.0413,.125,.0894,.2134,.1369,.0872,.05,.1862,.1106,.3067,.1614,.4681,.2225,1.2188,.4434,2.1573,.3881,.9297-.0523,2.0456-.3816,3.042-1.1233,1.007-.7241,1.8907-1.7907,2.6133-3.0121,.3666-.6103,.6653-1.236,.9948-1.8139,.3272-.5781,.6886-1.1125,1.1262-1.5344,.4325-.4241,.9347-.7376,1.4523-.8815,.2579-.0767,.5179-.094,.7659-.0882,.2487,.0132,.4841,.0635,.7012,.1347,.4345,.1457,.785,.3858,1.0509,.6326,.2669,.2492,.4459,.5123,.5688,.7379,.2292,.4633,.2419,.7607,.2602,.7558,.002-.0002,.0007-.0181-.0041-.0529l-.0238-.1543c-.0246-.1351-.0828-.3307-.1914-.5692-.1186-.2329-.2957-.5055-.5642-.765-.2677-.2571-.6234-.5084-1.0693-.6637-.2228-.0761-.4657-.1306-.7235-.1467-.2566-.0089-.5295,.0076-.7967,.0848-.5377,.145-1.0572,.4658-1.5018,.8976-.4503,.4299-.8201,.9736-1.151,1.5553-.3335,.582-.6325,1.2061-.9958,1.8107-.7172,1.2122-1.5881,2.267-2.5759,2.9845-.9779,.7351-2.0676,1.065-2.9833,1.128-.9231,.065-1.6647-.1397-2.1332-.3467-.4721-.2104-.6962-.3971-.7054-.3828Z"/><path class="b" d="M205.538,59.1375c-.0042,.0071,.0601,.0514,.1807,.1259,.1193,.0768,.3023,.1713,.5353,.2718,.2324,.1026,.5207,.1983,.8474,.2783,.328,.0742,.6953,.1291,1.0837,.1437,.3888,.0102,.7589-.0211,1.091-.0741,.3312-.059,.625-.136,.8635-.2234,.239-.0856,.4276-.1681,.5516-.2371,.1251-.0667,.1921-.1068,.1884-.1141-.0097-.0199-.2882,.1233-.7659,.272-.2383,.0761-.5289,.1434-.8547,.1954-.3267,.0461-.6893,.0735-1.07,.0635-.3806-.0144-.7405-.0649-1.0636-.1319-.3217-.0728-.6074-.1584-.8403-.2496-.4674-.179-.7361-.3397-.7471-.3205Z"/><path class="k" d="M209.6589,66.4143c.1002,.102,.6819-.3664,1.5263-.3891,.8429-.0352,1.4744,.3915,1.5631,.2828,.0437-.0484-.0605-.2346-.3357-.4278-.271-.1925-.7293-.374-1.2551-.356-.5256,.0186-.9624,.23-1.211,.4407-.254,.2118-.3367,.404-.2876,.4494Z"/><path class="k" d="M210.5195,68.8024c.0136,.3607,.3301,.6465,.7071,.6393,.3761-.0073,.6708-.3048,.6572-.6654-.0135-.3606-.3301-.6469-.7064-.6398-.3768,.0071-.6715,.3053-.6579,.6659Z"/><g><path class="i" d="M225.1553,68.3886c.0832-.0435,3.3863-1.2764,3.5277,2.1753,.1414,3.4518-3.3531,2.8817-3.3631,2.783-.0101-.0988-.1646-4.9583-.1646-4.9583Z"/><path class="j" d="M226.3206,71.996c.0148-.0117,.0619,.0397,.1654,.0821,.101,.0413,.2727,.0656,.4499-.0092,.3591-.1489,.6425-.7403,.6338-1.3631-.0041-.3145-.0823-.611-.2036-.854-.1158-.2482-.2861-.4179-.4712-.4431-.1844-.0347-.31,.0805-.3481,.1794-.0423,.0984-.0176,.1664-.0356,.1731-.0094,.0091-.0764-.0547-.0544-.1985,.0114-.0691,.0485-.1523,.1268-.2218,.0801-.0706,.2005-.1101,.3289-.1015,.2671,.0075,.5166,.2426,.6501,.5095,.1483,.2675,.2435,.6004,.2481,.9535,.0064,.6966-.3232,1.362-.8162,1.5267-.2402,.0733-.4457,.0084-.5536-.0688-.1105-.0809-.1318-.1574-.1201-.1641Z"/></g></g><path class="k" d="M217.7011,73.0024c.0285,.0051,.0293,.2028-.0906,.4947-.12,.2876-.3822,.6613-.7942,.9211-.4088,.2642-.8624,.3477-1.1765,.316-.3174-.028-.4889-.1332-.4783-.1596,.0118-.039,.1946,0,.4798-.0192,.2844-.0155,.6735-.1149,1.0389-.3504,.3678-.2321,.6211-.545,.7711-.7893,.149-.2465,.2105-.4229,.2498-.4133Z"/></g><g><path class="c" d="M235.0902,209.5515l1.0317,11.6734,3.648,9.0119c.263,.6496-.1141,1.3727-.8213,1.5749h0c-.396,.1133-.8225,.0417-1.1499-.1965-2.0836-1.5161-9.594-7.0888-9.6779-7.8148-.1085-.94-2.0229-12.4182-2.0229-12.4182l8.9924-1.8307Z"/><path class="k" d="M238.9484,231.8118l-11.0341-9.3411,.108,.8648c.0744,.4729,.0826,.7298,.4134,1.0254,.8849,.7906,3.471,3.2115,9.2455,7.4524,.3359,.2467,.8628,.1256,1.2671-.0014h0Z"/><path class="b" d="M230.0854,218.8304c.3332,.1709,.4844,.6023,.3167,.9222-.168,.3199-.6332,.4684-.9695,.3031-.3364-.1653-.5349-.6778-.3301-.9781,.205-.3003,.7614-.4465,1.0458-.2103"/><path class="k" d="M235.5415,227.0051c.0737,.0252,.2843-.6127,.9842-1.0144,.687-.4213,1.39-.3253,1.3976-.3989,.0075-.0296-.1596-.1046-.4539-.1141-.2919-.0111-.7068,.0689-1.0899,.2954-.3822,.2277-.6376,.5452-.7524,.7977-.1175,.2539-.1174,.4279-.0857,.4343Z"/><path class="k" d="M236.6002,228.4768c.0647,.0444,.4196-.374,1.0411-.6104,.6159-.2496,1.1818-.1928,1.1935-.2674,.0291-.063-.5952-.2506-1.299,.0301-.7068,.2734-1.0035,.8227-.9355,.8477Z"/><path class="k" d="M233.6728,225.1698c.0643,.0493,.6068-.5966,1.5389-1.0441,.9249-.4612,1.7989-.5082,1.7926-.5862,.0132-.0641-.9257-.134-1.9188,.3581-.9981,.4823-1.476,1.2455-1.4126,1.2722Z"/><path class="k" d="M233.0437,221.6458c.041,.0666,.6952-.2707,1.5826-.3898,.8857-.1306,1.616,.0117,1.6345-.0633,.0278-.0604-.7228-.3293-1.6751-.1912-.9533,.1302-1.5872,.5942-1.542,.6443Z"/><path class="k" d="M232.6487,218.2263c.0459,.0634,.6904-.3934,1.6358-.447,.9442-.0731,1.6509,.293,1.6868,.224,.0176-.0264-.1343-.1591-.4374-.2857-.3008-.1271-.7602-.228-1.2688-.1948-.5086,.0351-.9479,.1963-1.2265,.3623-.281,.1659-.4112,.3174-.3898,.3413Z"/><path class="k" d="M234.189,217.1308c.0158-.0014,.0263-.1608-.0328-.4422-.0593-.2793-.1933-.6858-.5028-1.1168-.1583-.203-.3291-.4674-.6923-.5863-.1807-.0603-.4336-.0047-.5631,.1642-.1287,.1646-.1532,.3605-.1366,.5455,.0965,.7381,.8524,1.3859,1.749,1.4039,.8986,.0029,1.6494-.5541,1.9291-1.2275,.0585-.1731,.0887-.3811-.0297-.5683-.117-.1891-.3777-.243-.5519-.1967-.3622,.0884-.5719,.3108-.7712,.4803-.3907,.3653-.6165,.731-.7435,.9893-.1274,.2602-.1598,.4166-.145,.4215,.047,.0261,.2485-.6034,1.0215-1.2788,.1963-.1572,.421-.3538,.6832-.4033,.1278-.0249,.2444,.0122,.3013,.1055,.0581,.0893,.0486,.2381-.0036,.3745-.2384,.5521-.9259,1.0598-1.6855,1.0462-.7556-.0078-1.4195-.5783-1.503-1.1716-.0179-.1431,.0064-.2913,.0782-.3846,.0707-.0917,.1901-.1269,.3093-.0948,.2515,.0672,.4407,.2958,.596,.4863,.6188,.8032,.6398,1.4709,.6934,1.4537Z"/></g><g><path class="c" d="M205.6822,210.1539l.4598,9.8855s-10.5347,3.7593-10.639,5.594l20.4221-.1496-.044-15.4304-10.1989,.1006Z"/><path class="g" d="M212.4499,219.1613c.3961,.0987,.6727,.5144,.5841,.8904-.0886,.3761-.5359,.6442-.9338,.5519-.3978-.092-.7461-.5815-.6133-.946,.1328-.3644,.6764-.6521,1.0391-.4729"/><path class="k" d="M215.9251,225.4838l-.0692-1.5552-19.5544,.7249s-.9061,.3786-.7984,.9799l20.4221-.1495Z"/><path class="k" d="M205.8102,219.9442c.004,.0937,.5031,.1325,.9962,.4304,.5014,.2858,.7578,.69,.8492,.6521,.0917-.0189-.0616-.5781-.6655-.9289-.6003-.3557-1.2023-.2394-1.1799-.1536Z"/><path class="k" d="M203.6751,220.7926c-.022,.0909,.4112,.2472,.7532,.6412,.3542,.3845,.4433,.8126,.5426,.8078,.0938,.014,.1583-.5355-.2769-1.0177-.4304-.4858-1.0174-.5208-1.0189-.4313Z"/><path class="k" d="M202.4785,223.2114c.0907,.0193,.2257-.4501-.0347-.9615-.2565-.5133-.7283-.7125-.7699-.634-.0558,.0774,.2493,.3507,.4562,.7737,.2173,.4182,.2492,.8133,.3484,.8218Z"/><path class="k" d="M205.9713,217.6803c.0425,.0851,.4989-.0475,1.0629-.0157,.5646,.0212,1.0047,.1958,1.056,.1149,.0572-.0681-.3739-.412-1.0387-.4407-.6644-.0336-1.1298,.2682-1.0802,.3415Z"/></g><g><g><path class="k" d="M202.1274,139.1752c.0116,.5723,2.3722,79.5749,2.3722,79.5749h12.6233l2.5575-67.5811s2.9859,35.3351,2.9859,36.0984,2.6347,31.8627,2.6347,31.8627l11.7035-.8977-.7672-71.1524-1.4301-10.432-32.6797,2.5273Z"/><path class="c" d="M220.9932,148.6685c.0059,.0157-.1773,.0872-.5125,.2025-.3352,.1154-.8227,.2746-1.4254,.4658l-.1148,.0365-.0083-.1117c-.0701-.9505-.1496-2.2213-.2237-3.6142-.0803-1.5101-.139-2.8776-.1691-3.868-.015-.4952-.0228-.8961-.0226-1.1734,0-.2773,.0084-.431,.0257-.4317,.0172-.0008,.0417,.1516,.0713,.4275,.0297,.276,.0644,.6758,.102,1.17,.0751,.9885,.1618,2.3547,.2421,3.8648,.0741,1.3929,.1298,2.6647,.1608,3.617l-.1229-.0751c.61-.172,1.1064-.3074,1.4516-.3959,.3454-.0884,.5397-.13,.5456-.1143Z"/><path class="c" d="M220.0349,140.4527c-.008-.0103,.0406-.0633,.1676-.1033,.1245-.04,.3348-.0512,.5574,.0454,.2178,.0846,.4586,.335,.4225,.6495-.0257,.2968-.2675,.6199-.6718,.6991-.4052,.0659-.7666-.1414-.9305-.3962-.1787-.266-.1142-.5711,.0101-.7501,.1243-.1881,.2954-.2876,.4174-.3283,.1241-.0414,.1984-.0346,.2011-.0218,.0188,.0331-.2846,.0904-.4619,.4232-.0836,.1594-.109,.3836,.0303,.5705,.1296,.1862,.4135,.3316,.6846,.2839,.2687-.0481,.4655-.2858,.4917-.5001,.0358-.2204-.1112-.4019-.2786-.4916-.3541-.1904-.6317-.046-.6399-.0802Z"/><path class="c" d="M225.8295,141.2631c-.0686,.0063-.1642-.3362-.2136-.7648-.0493-.4288-.0337-.7815,.035-.7877,.0686-.0063,.1642,.336,.2136,.7649,.0493,.4286,.0337,.7813-.035,.7876Z"/><path class="c" d="M226.7049,141.1837c-.069,.0002-.1268-.3645-.1293-.8148-.0025-.4503,.0514-.8156,.1205-.8159,.0689-.0003,.1269,.3644,.1293,.8147,.0024,.4503-.0515,.8156-.1205,.8159Z"/><path class="c" d="M211.4887,141.7289c-.0686,.0067-.1753-.4039-.2384-.917-.063-.5132-.0586-.9346,.01-.9414s.1753,.4038,.2384,.917c.063,.5131,.0586,.9345-.01,.9414Z"/><path class="c" d="M212.5495,141.8046c-.0612,.0216-.2847-.398-.3085-.961-.0276-.5629,.157-.9974,.2199-.9803,.0702,.0151,.0031,.4452,.0298,.9712,.0213,.5261,.1274,.95,.0589,.9701Z"/></g><path class="c" d="M208.5569,140.7491c.0152,.0027-.0004,.1261-.0421,.3483-.0379,.2226-.1228,.5404-.2539,.926-.2593,.7713-.7629,1.8073-1.5632,2.8154-.8042,1.0061-1.735,1.7708-2.4657,2.2426-.365,.2369-.6732,.4128-.8963,.5177-.2212,.108-.3467,.1616-.3543,.1496-.0204-.0305,.4578-.2837,1.154-.78,.6964-.4941,1.5902-1.2592,2.3794-2.2463,.7849-.9891,1.3011-1.9941,1.5955-2.7438,.2967-.7501,.4077-1.2368,.4467-1.2296Z"/><path class="c" d="M235.8509,146.0729c.0013,.0123-.1341,.0375-.3827,.0563-.2485,.0194-.6115,.0233-1.0569-.0183-.8857-.0777-2.1219-.3915-3.2334-1.1244-1.1117-.7334-1.8111-1.6967-2.1547-2.43-.1755-.3681-.2781-.679-.3305-.8968-.053-.2178-.0659-.3407-.0523-.3433,.0399-.0092,.1473,.4753,.5272,1.1812,.3728,.7022,1.0704,1.6193,2.1436,2.3275,1.0732,.7076,2.2596,1.0334,3.1205,1.1451,.867,.1167,1.4172,.0659,1.4191,.1027Z"/></g><g><g><path class="i" d="M195.9987,112.4238l1.7261,2.1577v-3.7129h5.4371s.6041,8.5028,.4747,10.3151c-.0453,.6343-.3232,1.681-.6653,2.7736-.7092,2.265-3.568,2.9734-5.2704,1.3196-.5718-.5554-1.1536-1.1872-1.7021-1.8925-2.4165-3.1069-6.4312-10.6751-6.4312-10.6751l4.1874-2.5294,2.2439,2.2439Z"/><path class="j" d="M195.655,112.0251c-.0266,.0244,.2537,.3789,.7104,.9485,.4581,.5685,1.0941,1.352,1.8203,2.1994,.7276,.8467,1.4124,1.5932,1.9451,2.099,.5293,.5097,.9035,.7741,.9236,.7485,.0241-.0294-.3034-.3382-.7945-.8752-.495-.5334-1.1545-1.2942-1.8803-2.1388-1.4381-1.6996-2.6629-3.0384-2.7247-2.9813Z"/></g><g><polygon class="i" points="208.4027 86.2967 214.1367 84.0479 224.6995 83.4501 229.6638 85.3378 222.8607 89.1157 216.9951 88.9004 208.4027 86.2967"/><path class="c" d="M201.6398,140.2556c.5188,.0893,35.1271,1.5592,35.1271,1.5592l-1.2156-31.118-.0998-6.11-1.966-18.5088s-5.1729-1.7786-7.8121-2.628c0,0-2.7779,2.8952-8.0597,2.8169-5.1638-.0765-6.2425-1.2407-6.2425-1.2407l-7.2192,2.7677s-5.1333,1.8405-6.0166,4.112c-.8599,2.2109-2.4354,14.838-2.4354,14.838h7.483l-.1415,22.306-1.4017,11.2055Z"/><g><path class="k" d="M199.308,95.1482c.006-.001,.0248,.0697,.0553,.2065l.1382,.601c.1302,.522,.3398,1.2807,.6888,2.2077,.3447,.9295,.8319,2.0194,1.4272,3.2447,.5634,1.2482,1.0733,2.6843,1.606,4.2406l.0054,.016v.0178c-.0126,1.8638-.0262,3.9045-.0405,6.0359-.0503,4.7587-.0957,9.0654-.1289,12.2096-.0271,1.5448-.0491,2.8026-.0648,3.6989-.0121,.4201-.0218,.7547-.029,1.0052-.0092,.2298-.0177,.3503-.0254,.35-.0077-.0002-.0144-.1213-.0199-.3515-.0033-.2508-.0077-.586-.0132-1.0066-.0016-.8967-.0038-2.155-.0066-3.7005,.0163-3.1438,.0385-7.45,.0631-12.2081,.0193-2.1309,.0377-4.1709,.0546-6.0342l.0053,.0337c-.5228-1.5527-1.0234-2.9945-1.5676-4.2327-.5815-1.228-1.0587-2.335-1.3874-3.2747-.3339-.9386-.5252-1.7076-.6346-2.2368-.0515-.2655-.0883-.4703-.1057-.6099-.0193-.1392-.0265-.2118-.0205-.2128Z"/><path class="k" d="M235.9989,91.5073c.0161,.0017,.0103,.238-.0065,.6642-.0174,.4672-.0401,1.0749-.0673,1.8065-.0619,1.5651-.1444,3.6528-.2355,5.9604-.1045,2.308-.1989,4.3955-.2697,5.9605-.0422,.7313-.0771,1.3386-.104,1.8055-.0292,.4262-.0527,.6615-.0682,.6609-.0155-.0006-.0217-.237-.0192-.6642,.0085-.4676,.0194-1.0759,.0326-1.8082,.0381-1.5267,.1075-3.6352,.204-5.9638,.0966-2.3278,.2029-4.4348,.3014-5.9591,.0494-.7622,.0974-1.3787,.1387-1.8042,.0437-.4256,.079-.6598,.0937-.6584Z"/><g class="h"><path d="M199.3269,96.2787c-.1682,3.4147,1.1189,6.7226,3.3981,9.2708-.7042-3.2103-2.4622-6.1987-3.3981-9.2708Z"/></g></g></g><g><g><g><path class="g" d="M195.399,92.6089c2.1332,3.2421,10.7703,16.3759,13.3243,20.2596,.2818,.4284-.0694,.9881-.578,.9242l-15.3443-1.9304c-.1639-.0206-.3121-.1078-.4097-.2411l-14.6563-20.017c-.3027-.4134,.018-.9917,.529-.9539l15.7878,1.1679c.5482,.0406,1.0452,.3316,1.3473,.7907Z"/><path class="k" d="M195.399,92.6089s-.0315-.0689-.1223-.184c-.0919-.1128-.2449-.2759-.4963-.4182-.2454-.1517-.611-.2335-1.0223-.2483-.4156-.0342-.8924-.0734-1.4278-.1174-2.1615-.1696-5.268-.4133-9.1013-.7141-.9611-.0737-1.9676-.1509-3.0162-.2314-.5245-.0401-1.0595-.0809-1.6046-.1225-.1418-.0081-.2608-.0261-.4231-.0261-.1615,.0034-.322,.0727-.4415,.1832-.2462,.2159-.3087,.6219-.1165,.9014,1.3366,1.8332,2.7642,3.7912,4.2662,5.8513,3.0088,4.1146,6.3154,8.6363,9.7863,13.3829,.2228,.3006,.4211,.5836,.6624,.896,.0755,.0811,.1693,.1452,.2727,.1844,.1082,.0427,.2146,.047,.2976,.0589l.5413,.068c.7205,.0905,1.4362,.1803,2.1468,.2695,1.4211,.1781,2.8214,.3537,4.1974,.5262,2.7518,.3435,5.4062,.675,7.9354,.9907,.1645,.0176,.3011,.0439,.4872,.0542,.188,.0023,.3793-.0766,.5085-.2116,.1329-.1325,.208-.317,.21-.5045,.0072-.184-.1002-.3808-.1846-.4916-.342-.5181-.6792-1.0293-1.0117-1.5332-.6651-1.0073-1.3109-1.9853-1.9353-2.9311-1.2495-1.8897-2.4137-3.6504-3.4773-5.2588-2.1272-3.2032-3.8508-5.7987-5.0502-7.6047-.5954-.8866-1.0603-1.5789-1.3837-2.0604l-.3653-.5323c-.0835-.1191-.1281-.179-.1318-.1766-.0037,.0024,.0336,.067,.11,.1909,.0836,.1328,.1977,.3139,.344,.5462,.314,.4878,.7655,1.1889,1.3437,2.0868,1.1832,1.8166,2.8837,4.4274,4.9822,7.6495,1.0556,1.6136,2.211,3.3801,3.4512,5.2759,.6211,.948,1.2632,1.9284,1.9247,2.9381,.331,.5048,.6667,1.0171,1.007,1.5363,.0983,.1376,.1415,.2305,.1454,.3645-.0021,.1248-.0529,.2516-.144,.3411-.0884,.0917-.2139,.1426-.3415,.1412-.13-.0071-.3071-.0364-.459-.0536-2.5286-.3205-5.1824-.6568-7.9335-1.0056-1.3759-.1737-2.776-.3505-4.1969-.5299-.7106-.0896-1.4263-.1798-2.1467-.2706l-.5413-.0682c-.0968-.0131-.1756-.0173-.2378-.0439-.0672-.0254-.128-.0673-.177-.1198-.2138-.2901-.4283-.5812-.6434-.8732-3.4768-4.7424-6.7888-9.2601-9.8026-13.371-1.5064-2.0517-2.9381-4.0018-4.2784-5.8275-.1359-.1947-.0936-.4774,.0802-.6331,.0844-.0779,.1936-.127,.309-.1297,.1136-.0013,.2679,.0166,.3988,.0239l1.6051,.115c1.049,.0747,2.0559,.1464,3.0174,.215,3.836,.2666,6.9444,.4826,9.1074,.6329,.536,.0353,1.0134,.0667,1.4295,.094,.4181,.0082,.7554,.0773,1.0033,.2178,.4948,.2746,.6279,.5757,.6433,.5569Z"/></g><path class="k" d="M177.735,91.6042c-.0006,.0077,.1097,.0239,.3216,.0478,.2338,.0237,.543,.0549,.9312,.094,.8367,.0743,2.0112,.1785,3.4676,.3078,2.9745,.2428,7.095,.5793,11.7918,.9628l-.0939-.0545c.738,1.0967,1.4998,2.2352,2.2639,3.4114,3.1115,4.7832,5.8296,9.1799,7.8828,12.308,1.0205,1.5679,1.8689,2.822,2.4598,3.6852,.2903,.4134,.5209,.7419,.6924,.9861,.1606,.2237,.2485,.3387,.2558,.3338,.0073-.005-.0663-.1297-.2132-.3627l-.6521-1.0124c-.5779-.9012-1.3913-2.1694-2.3907-3.7278-2.0131-3.1514-4.7061-7.5619-7.8207-12.3499-.7649-1.1772-1.5291-2.3162-2.2707-3.4124l-.0339-.0501-.0601-.0045c-4.6995-.3487-8.8223-.6546-11.7986-.8754-1.4588-.0979-2.6353-.1768-3.4735-.2331-.3895-.0215-.6999-.0385-.9345-.0514-.2131-.0093-.3246-.0103-.3252-.0027Z"/><g><polygon class="b" points="187.2486 94.4664 187.248 94.4664 187.242 94.4644 187.2486 94.4664"/><path class="b" d="M186.8684,94.6951c.0382-.1823,.2104-.2583,.3795-.2287,.1818,.054,.2749,.0966,.4115,.2313,.1384,.1363,.1969,.3747,.0749,.5257-.1532,.1896-.4683,.1197-.653-.0394-.1413-.1218-.2514-.3062-.2131-.4888Z"/></g></g><path class="i" d="M194.0357,106.0497s.6054-1.4437-.9314-1.63c-1.5368-.1862-5.5714,0-5.5714,0,0,0-2.2058,.2329-1.7402,1.8163,0,0-1.3039,1.1643-.6054,2.4217,.6986,1.2574,.978,.8849,.978,.8849,0,0-.1862,1.5369,.978,1.7697,0,0,1.2623,1.4902,2.4242,1.3971,1.1618-.0931,6.0983-2.4682,6.4243-2.934,.326-.4657,.7917-.7306,.5123-1.2501,0,0,.6054-1.3628-.6986-1.5699,0,0-.0931-1.1385-1.7697-.9056Z"/><path class="j" d="M187.0337,106.5713c.0006,.0353,.3973,.0612,1.0383,.0745,.6409,.0134,1.5261,.0142,2.5035-.0007,.9756-.0325,1.8628,.0055,2.5148-.1497,.6629-.1536,.9229-.5426,.8918-.5508-.0271-.0329-.3066,.2774-.9291,.374-.6098,.1023-1.5053,.0395-2.4814,.0709-.9774,.0149-1.8621,.0427-2.5024,.0756s-1.036,.0709-1.0355,.1062Z"/><path class="j" d="M188.1342,108.8993c-.0037,.0136,.1112,.0681,.334,.1152,.2219,.0481,.5531,.0851,.9602,.0595,.4068-.0238,.8862-.1097,1.4005-.254,.5157-.1422,1.0638-.3403,1.6426-.518,.5782-.1786,1.1375-.3075,1.6528-.341,.5029-.0226,1.0473-.0092,1.4079-.2845,.1781-.1267,.3006-.3013,.336-.4796,.0342-.1753-.0013-.3289-.0582-.4362-.1217-.2221-.2865-.2347-.2824-.2223-.0128,.0198,.1191,.0666,.1915,.2627,.0799,.1884,.038,.5333-.2883,.7257-.3135,.2141-.7792,.1896-1.3193,.199-.5429,.0219-1.1271,.1501-1.7147,.3317-.5742,.1884-1.1213,.3682-1.6336,.5363-.5008,.1538-.9602,.2544-1.3507,.3001-.7839,.0965-1.2697-.039-1.2783,.0053Z"/><path class="j" d="M189.7843,110.8685c.0093,.0334,.4057-.0412,1.0369-.2007,.6311-.1593,1.4959-.4063,2.4397-.715,.944-.3093,1.7875-.6216,2.3906-.8663,.6032-.2446,.9671-.4189,.9548-.4512-.0262-.0678-1.543,.46-3.4249,1.0745-1.8804,.6171-3.416,1.0885-3.397,1.1587Z"/><path class="j" d="M189.3887,112.6957c.0046,.031,.3371,.0179,.8602-.0991,.5233-.114,1.2273-.3539,1.9662-.6922,.7401-.3367,1.3859-.6806,1.8536-.9285,.4666-.2498,.7517-.4129,.7368-.4459-.0325-.0761-1.2403,.4556-2.6957,1.1415-1.4531,.6969-2.7305,.9574-2.7211,1.0242Z"/></g><g><path class="i" d="M238.4513,98.809s-3.1372,12.5696-7.0574,17.2091c-3.7963,4.4931-9.7463,2.4279-11.8064-3.3856-2.0601-5.8135-5.7314-19.0915-5.7314-19.0915l4.5083-3.4469,7.7892,15.0955,3.5101-10.2907,8.7875,3.9102Z"/><g><g><path class="i" d="M214.0653,93.8894l-3.3058-4.7913s-1.0975-.255-1.4084-.4369c-.3749-.2192-.7435-2.1225-.7356-2.4938,.008-.3713-.641-1.24-.3784-1.4845,.2626-.2444,1.1491-.2626,1.1011-.6197-.0102-.0764-.6572-.8703-.1441-1.4532,.1853-.2105,.9322-.3958,.9322-.3958l-.0533-1.8283s.9874-2.159,1.9965-1.3774c0,0,3.805,2.9228,4.1882,3.3899,.3833,.4672,1.8475,6.5537,2.107,7.6957"/><path class="j" d="M218.3645,90.0941c.0076-.0017-.0097-.1128-.0509-.3227-.0494-.2311-.1145-.5351-.1957-.9153-.1781-.7934-.4442-1.9407-.8048-3.3544-.1824-.7064-.3832-1.4802-.6366-2.3047-.0673-.2058-.1322-.4148-.2201-.6268-.082-.2409-.2843-.4018-.4486-.5515-.3463-.3049-.7111-.6041-1.0874-.9092-.7528-.6096-1.5522-1.2383-2.3858-1.8861-.2149-.152-.392-.3487-.6966-.4597-.3074-.1005-.6342,.0286-.858,.2041-.4586,.3654-.7556,.855-1.0137,1.3694l-.0115,.0228,.0009,.0294c.0051,.1769,.0107,.3676,.0162,.5593,.0126,.4279,.0251,.8519,.0373,1.2689l.0887-.1168c-.2302,.0607-.4506,.1289-.6702,.2257-.1086,.0524-.2198,.1002-.3248,.2117-.0789,.1003-.1529,.2111-.1842,.3381-.0769,.2518-.0238,.5099,.0578,.7277,.041,.1111,.0937,.2149,.1494,.3141l.0841,.1437,.017,.0302c-.0045-.0056-.0015-.0191-.0034-.007-.0002,.0111,.0015,.0223-.0052,.0311-.0096,.0415-.0987,.0975-.188,.1333-.0917,.0383-.1934,.0684-.2952,.0999-.1023,.0315-.2067,.0615-.3126,.1033-.1049,.0501-.2158,.0742-.3171,.2228-.0757,.1561-.033,.2815-.0086,.3892,.0306,.1094,.0699,.2104,.1119,.307,.0828,.194,.1747,.3771,.2425,.558,.0329,.0926,.0573,.1729,.0574,.2567,.0017,.1139,.0168,.2106,.0299,.3122,.0287,.1998,.0656,.394,.1053,.5856,.084,.3819,.176,.7521,.3104,1.1049,.0742,.1754,.1303,.3503,.2903,.5092,.1829,.138,.3462,.1628,.5157,.2264,.3353,.1044,.6611,.186,.9788,.26l-.0529-.0359c1.0205,1.4503,1.854,2.6349,2.4484,3.4797,.2836,.3937,.5098,.7076,.6789,.9421,.1577,.214,.2442,.3242,.2515,.3191,.0073-.005-.065-.125-.2091-.3484-.1593-.2413-.3724-.5642-.6398-.9692-.5788-.8555-1.3904-2.0553-2.384-3.5241l-.0186-.0277-.0343-.0084c-.3116-.0766-.6362-.1618-.9613-.267-.1524-.0544-.3469-.1094-.4457-.1928-.0965-.0931-.1699-.2719-.2319-.4337-.1249-.3359-.2133-.7022-.2927-1.0767-.0374-.1879-.0724-.3791-.0987-.572-.0119-.0948-.0255-.1961-.026-.2828,.0009-.118-.0337-.2334-.0686-.3311-.0735-.1991-.1652-.3829-.2434-.5698-.04-.0931-.0752-.1868-.1004-.2785-.0263-.0887-.0354-.1896-.0098-.2251,.0148-.0318,.1168-.0899,.2034-.1211,.0922-.0361,.1935-.0651,.2963-.0962,.1032-.0316,.2087-.0618,.3171-.1064,.1023-.0496,.2346-.0913,.3121-.257,.0196-.0409,.0231-.0841,.0219-.1281,.0031-.016-.0058-.0547-.0212-.0854l-.023-.0414-.0818-.1407c-.0515-.0925-.0986-.1863-.134-.2833-.0715-.1916-.1085-.3997-.0505-.5816,.0219-.0933,.0783-.1733,.1372-.2505,.0497-.0552,.1488-.1084,.2449-.1517,.1972-.0869,.4158-.1549,.631-.2112l.0915-.0239-.0028-.093-.0366-1.269c-.0056-.1916-.0112-.3824-.0164-.5593l-.0105,.0521c.2395-.4829,.5401-.9653,.9401-1.2811,.1995-.154,.4375-.2393,.6515-.1692,.2038,.0662,.4136,.2662,.6237,.4195,.8348,.6444,1.6367,1.2687,2.3914,1.8721,.3771,.3017,.7435,.5981,1.0868,.8956,.1726,.155,.3389,.285,.4015,.477,.0841,.1975,.1511,.4053,.2192,.6068,.2592,.8145,.4694,1.5858,.6616,2.288,.3654,1.3912,.6626,2.5231,.8755,3.3337l.2376,.9048c.0558,.2064,.0882,.3139,.096,.3122Z"/></g><path class="j" d="M210.1262,82.2142c.0016,.0402,.3862,.0096,.9863,.0676,.3034,.0227,.6297,.1359,1.0402,.2377,.4215,.0929,.8852,.045,1.3458,.0116,.925-.1259,1.7058,.2653,2.1196,.6873,.4253,.4229,.4683,.8286,.5112,.8138,.0202,.0102,.0397-.4329-.3898-.9269-.2102-.2398-.5187-.4778-.91-.639-.3869-.1758-.8802-.2101-1.3469-.1693-.4706,.035-.9073,.0836-1.2869,.0106-.379-.0821-.7555-.1903-1.0702-.1913-.6273-.0166-1.0012,.0738-.9992,.0978Z"/><path class="j" d="M211.4725,82.1142c.0561,.0287,.2097-.1936,.19-.5096-.0181-.3161-.1971-.5185-.2494-.4834-.0579,.0331,.0027,.2425,.0152,.4974,.0179,.2544-.0172,.4697,.0441,.4956Z"/><path class="j" d="M209.2203,84.1322c-.0033,.0598,1.3019,.1163,2.8657-.2245,.3911-.0846,.7483-.1937,1.0536-.1334,.3036,.0551,.5364,.2585,.6821,.4502,.2878,.4032,.3346,.7409,.3764,.727,.0188,.0006,.0404-.3463-.2402-.8215-.1454-.2264-.3976-.4827-.7754-.5673-.3789-.084-.77,.0373-1.146,.1159-1.5357,.3351-2.8184,.3842-2.8163,.4537Z"/><path class="j" d="M208.7147,85.8613c.0002,.0303,.2717,.0573,.7044,.0034,.4331-.0482,1.0136-.1973,1.6476-.3216,.3182-.058,.621-.1073,.8867-.0886,.2674,.0151,.4896,.1017,.6385,.2308,.3132,.2639,.2765,.5633,.3115,.5588,.0134,.0025,.046-.0635,.0394-.1939-.0084-.128-.073-.318-.2376-.486-.1606-.1718-.4333-.2977-.7331-.325-.3025-.033-.6233,.0146-.9486,.0734-.6523,.1281-1.2166,.3005-1.6325,.3887-.4145,.0938-.6772,.1255-.6762,.16Z"/><path class="j" d="M209.8482,87.233c-.04,.0298,.2827,.3681,.8762,.3666l-.1172-.1011,.0351,.3063c.0859,.6767,.2074,1.2173,.2715,1.2077,.064-.0095,.0468-.5623-.0386-1.2347l-.0423-.3038-.015-.1075-.1023,.0063c-.4967,.0306-.8376-.1909-.8674-.1396Z"/></g></g><path class="c" d="M233.4855,86.0781s6.4262,1.557,6.4125,10.0784c-.0136,8.4882-1.9407,12.7309-1.9407,12.7309l-11.8457-6.4469,2.6432-6.6363,4.7307-9.7262Z"/><path class="k" d="M237.9573,108.8875c-.0038,.007-.0883-.03-.2462-.1073l-.6872-.349c-.6205-.3271-1.4745-.7773-2.5248-1.3309-2.1569-1.1621-5.1144-2.7554-8.4467-4.5506l-.0956-.0515,.0386-.1009c.2031-.531,.4178-1.0921,.6354-1.661,.757-1.9664,1.4777-3.8384,2.1352-5.5461,.33-.8501,.6439-1.6588,.9385-2.4176,.2839-.7624,.5962-1.4629,.9377-2.0681,.6663-1.2198,1.4547-2.0815,2.1377-2.4738,.3361-.203,.6316-.2945,.8328-.3338,.1013-.0185,.1787-.0289,.2316-.0298,.0525-.0028,.0794-.0021,.0798,.0022,.0104,.031-.4477,.0241-1.0928,.444-.6475,.4063-1.3954,1.261-2.034,2.476-.3275,.604-.6239,1.293-.8985,2.0557-.2878,.7613-.5945,1.5727-.9169,2.4257-.6517,1.7098-1.3663,3.5842-2.1168,5.553-.2182,.5688-.4333,1.1297-.637,1.6604l-.0569-.1523c3.3169,1.8235,6.2608,3.4419,8.4078,4.6223,1.0352,.5814,1.877,1.0541,2.4885,1.3975,.2721,.1583,.4925,.2865,.6662,.3876,.1507,.0907,.2277,.1415,.2239,.1485Z"/></g></g></svg>