<?xml version="1.0" encoding="UTF-8"?><svg id="a" xmlns="http://www.w3.org/2000/svg" width="100mm" height="100mm" viewBox="0 0 283.4646 283.4646"><defs><style>.b{fill:none;stroke:#12293b;stroke-miterlimit:10;stroke-width:2.126px;}.c{fill:#c29b5a;}.d{fill:#12293b;}</style></defs><circle class="b" cx="141.7323" cy="143.0907" r="137.4803"/><g><path class="d" d="M157.563,134.4577c-5.6121-5.6666-11.2071-11.3502-16.84-16.996-9.9013-9.9239-19.8258-19.8248-29.7404-29.7349-.2402-.8632,.5192-1.1687,.955-1.6069,4.935-4.9618,9.8779-9.9158,14.8448-14.8457,5.7525-5.7095,11.531-11.3928,17.2982-17.0875,15.2698,15.25,30.5395,30.5002,45.8107,45.7488,.3676,.3671,.7521,.7174,1.1285,1.0754,.0519,.8045-.6137,1.147-1.0686,1.6026-10.2519,10.2672-20.511,20.5273-30.7757,30.7818-.4582,.4578-.8216,1.0948-1.6126,1.0624Z"/><path class="d" d="M159.2582,233.712c-21.4926-.0006-42.9853-.0283-64.4776,.0463-1.9392,.0067-2.6606-.4178-2.4296-2.4226,.1867-1.6202,.127-3.2853,.0119-4.9189-.1007-1.4285,.4763-1.7669,1.7998-1.739,3.5059,.0736,7.0161-.0423,10.521,.0518,1.4896,.04,1.9544-.4671,1.8648-1.9152-.1103-1.7841,.0609-3.5857-.0512-5.3696-.0947-1.5067,.4642-1.9296,1.9216-1.8321,1.9316,.1291,3.8821-.0411,5.8175,.0555,1.3156,.0657,1.653-.4424,1.608-1.6794-.0841-2.3102-.0559-4.6264-.0089-6.9388,.0449-2.2071,.9404-3.1113,3.1673-3.1126,26.7911-.0159,53.5822-.018,80.3733-.0041,2.3487,.0012,3.2101,.8935,3.259,3.2726,.0475,2.3123,.0657,4.6282-.0115,6.9389-.0399,1.1935,.3944,1.5583,1.549,1.5185,2.087-.072,4.1811,.046,6.2669-.0421,1.2091-.0511,1.5572,.4093,1.5191,1.5459-.065,1.938,.0634,3.8846-.0482,5.8184-.0823,1.4277,.4829,1.7764,1.8111,1.7479,3.5059-.0751,7.0163,.0396,10.521-.0596,1.4858-.042,1.9686,.4217,1.8578,1.9003-.128,1.7067-.166,3.4447,.0103,5.1428,.1874,1.8051-.5896,2.0355-2.1512,2.0279-12.0893-.0588-24.1791-.0324-36.2687-.0324-9.4776,0-18.9553,0-28.4329-.0006Z"/><path class="d" d="M135.1103,122.3618c.0438,1.2843-.9089,1.9923-1.6619,2.7928-12.3716,13.1535-24.7547,26.2962-37.1308,39.4455-12.6317,13.4208-25.2589,26.8459-37.8874,40.2697-2.7984,2.9747-3.4171,2.9906-6.2773,.134-3.6961-3.6916-7.4022-7.3734-11.0793-11.0839-1.9342-1.9517-1.93-3.0033,.0446-4.8617,27.006-25.4156,54.0237-50.8188,81.0242-76.2403,1.4321-1.3484,2.7974-1.6465,4.2762-.1739,2.5908,2.5801,5.169,5.1728,7.7551,7.7577,.5449,.5447,.9475,1.1518,.9365,1.9601Z"/><path class="c" d="M157.563,134.4577c.791,.0324,1.1544-.6046,1.6126-1.0624,10.2647-10.2545,20.5238-20.5146,30.7757-30.7818,.4549-.4555,1.1205-.7981,1.0686-1.6026,2.4213-.6151,4.6518-2.0275,7.2989-1.6994,4.3863,.5437,7.3672,3.0092,8.5587,7.1257,1.095,3.7828,.2269,7.3199-2.7282,10.2524-9.3709,9.2995-18.6705,18.6708-28.0204,27.9915-1.8445,1.8387-3.5463,3.8287-5.6583,5.3931-4.0924,3.0314-9.4686,2.6628-13.0176-.9173-3.5642-3.5953-3.9429-8.993-.9034-13.0076,.4008-.5294,.9604-.9565,1.0135-1.6916Z"/><path class="c" d="M144.0806,54.1867c-5.7672,5.6947-11.5457,11.378-17.2982,17.0875-4.9669,4.9298-9.9099,9.8839-14.8448,14.8457-.4358,.4382-1.1952,.7437-.955,1.6069-2.4263,1.025-4.4038,3.0081-7.3341,2.9745-4.6131-.0529-8.0416-2.1508-9.8454-6.35-1.4432-3.3596-.4113-8.0369,2.482-10.9227,10.823-10.795,21.6504-21.5857,32.5013-32.3526,5.5403-5.4974,13.9196-3.674,16.6132,3.6637,.9309,2.5358,.5998,5.1368-.5893,7.5979-.2875,.595-.4888,1.2316-.7298,1.8491Z"/></g></svg>