<?xml version="1.0" encoding="UTF-8"?><svg xmlns="http://www.w3.org/2000/svg" width="100mm" height="100mm" viewBox="0 0 283.4646 283.4646"><defs><style>.b{fill:#c29b5a;stroke:#fff;stroke-width:.677px;}.b,.c{stroke-miterlimit:10;}.d{fill:#fff;}.c{fill:none;stroke:#12293b;stroke-width:2.126px;}.e{fill:#ffaf10;mix-blend-mode:multiply;opacity:.43;}.f{isolation:isolate;}</style></defs><g class="f"><g id="a"><path class="b" d="M278.7896,141.5776c0,7.4634-.5953,14.7864-1.7397,21.9258-9.5966,59.8751-57.8556,106.8361-118.3658,114.4681-5.6903,.7174-11.4899,1.0874-17.3759,1.0874-70.9631,0-129.3677-53.7661-136.7009-122.7834v-.0022c-.5154-4.8298,22.1614-14.8681,22.1614-19.8325,0-27.0925-1.5735-68.5063-1.5735-68.5063C49.5845,29.5604,92.4729,4.0963,141.3081,4.0963c75.9298,0,137.4814,61.5514,137.4814,137.4813Z"/><path class="e" d="M277.0498,163.5033c-9.5966,59.8751-57.8556,106.8361-118.3658,114.4681L4.6072,156.2754l94.5594-24.4167,62.3024-54.0943,115.5807,85.7388Z"/><path class="d" d="M176.4658,147.3834c0,2.8756,7.2996,5.9386,7.4972,14.6875,.0968,4.3103-3.0565,10.0636-6.8032,12.6867-3.8558,2.6969-8.3093,2.1984-8.3093,2.1984h-39.8086c-1.0413,0-8.7489,2.394-2.3077,12.0978,4.2893,7.5814,7.5878,14.7336,9.6473,20.6555,2.9408,8.1345,1.4157,18.6988,.5069,21.6061-4.2408,13.5746-13.5388,15.2659-18.8378,14.1299-2.1499-.4585-3.9526-6.1129-4.0347-7.9391-.5344-11.7297-2.1562-19.5636-4.4513-25.0876-2.8947-6.9608-6.8578-10.2551-11.0628-13.0592-8.0674-5.3768-8.9614-11.6498-18.3729-33.1551-5.0109-11.4499-10.274-13.6795-14.1027-14.2833-.9698-.1513-.427-.3976-11.6161-.6712-3.8811-.0945-.5679,5.2697-.5679,5.2697-12.1252-.2692-31.5269-.2966-49.235-.2462-.5154-4.8298-.7783-9.7313-.7783-14.6957,0-27.0925,7.8359-52.3547,21.3663-73.6432,12.7731,.0105,25.6705,.0779,34.6696,.2461,0,0-4.4343,11.7593-1.5629,11.8095,4.6427,.08,6.069,.1411,6.4329,.1726,50.129-9.0833,72.2021-6.6768,85.743-5.3661,9.5062,.9192,17.6305,6.0013,19.9022,11.3784,1.0476,2.4801,.099,8.6352,.099,10.192,0,3.1217,6.7693,3.9673,8.8688,10.3686,1.8153,5.5325-2.5117,10.798-3.7572,13.5009-1.3273,2.8673,8.1641,7.5079,8.3745,13.8397,.2168,6.5212-7.4993,11.8476-7.4993,13.3074Z"/><circle class="c" cx="141.3092" cy="141.5776" r="137.4803"/></g></g></svg>