<?xml version="1.0" encoding="UTF-8"?><svg id="a" xmlns="http://www.w3.org/2000/svg" width="100mm" height="100mm" viewBox="0 0 283.4646 283.4646"><defs><style>.b{fill:#2ba0da;}.c{fill:none;stroke:#12293b;stroke-miterlimit:10;stroke-width:2.126px;}.d{fill:#c29b5a;}.e{fill:#12293b;}</style></defs><g><path class="b" d="M163.4424,102.3578c0,34.7674-28.1816,62.949-62.9497,62.949s-62.9484-28.1816-62.9484-62.949,28.1816-62.9484,62.9484-62.9484,62.9497,28.1816,62.9497,62.9484Z"/><g><path class="e" d="M82.791,105.8599c0,5.0653-2.8933,9.1768-6.4644,9.1768-3.5681,0-6.4631-4.1115-6.4631-9.1768,0-5.0682,2.895-9.1753,6.4631-9.1753,3.571,0,6.4644,4.1072,6.4644,9.1753Z"/><path class="e" d="M131.1187,105.8599c0,5.0653-2.892,9.1768-6.4644,9.1768-3.5696,0-6.4644-4.1115-6.4644-9.1768,0-5.0682,2.8948-9.1753,6.4644-9.1753,3.5723,0,6.4644,4.1072,6.4644,9.1753Z"/></g><g><path class="e" d="M86.6049,99.8286c-.7642,0-1.4745-.5008-1.7017-1.2734-1.8992-6.4538-8.3593-11.3791-16.0708-12.2534-.9716-.1079-1.672-.9872-1.5626-1.963,.1108-.9731,.9815-1.6811,1.9632-1.5612,9.1091,1.0327,16.7754,6.973,19.0765,14.7776,.2755,.9404-.2614,1.9254-1.2017,2.2038-.1676,.0505-.3381,.0697-.5029,.0697Z"/><path class="e" d="M114.3803,99.8286c-.1661,0-.3338-.0192-.5029-.0697-.9417-.2784-1.4772-1.2634-1.1988-2.2038,2.2954-7.8046,9.9602-13.7449,19.0737-14.7776,.9886-.1158,1.8507,.5881,1.9602,1.5612,.1108,.9758-.5881,1.8515-1.561,1.963-7.7116,.8743-14.1704,5.7997-16.0708,12.2534-.2274,.7726-.9347,1.2734-1.7003,1.2734Z"/></g><path class="e" d="M113.1629,135.5578c-.6989,0-1.3991-.2544-1.9488-.7671-2.635-2.458-6.2344-3.892-10.1349-4.0404-4.3252-.1904-8.436,1.2961-11.2869,4.0163-1.1434,1.0909-2.9531,1.0476-4.044-.0944-1.0894-1.1428-1.0483-2.9539,.0953-4.0448,3.9616-3.7798,9.6021-5.8167,15.4572-5.593,5.2685,.2003,10.1746,2.1776,13.8124,5.5696,1.1562,1.0774,1.2173,2.8884,.1421,4.0426-.5625,.6051-1.3267,.9113-2.0923,.9113Z"/></g><g><path class="d" d="M241.1256,181.1055c0,34.7667-28.1858,62.9497-62.9526,62.9497s-62.9441-28.183-62.9441-62.9497,28.1774-62.9484,62.9441-62.9484,62.9526,28.1809,62.9526,62.9484Z"/><g><path class="e" d="M210.7607,188.6224c-.1917,0-.3849-.0262-.5753-.0838l-13.372-3.9027c-.8041-.2351-1.3865-.9367-1.466-1.7734-.0823-.8339,.3537-1.6343,1.098-2.0199,0-.0015,10.4034-5.3799,13.5141-7.0389,1.0044-.5363,2.2443-.1556,2.777,.8465,.5327,.9993,.1535,2.2429-.848,2.7755-1.7457,.9332-5.7897,3.0355-9.0056,4.7045l8.453,2.4686c1.0867,.3168,1.7117,1.4574,1.3921,2.5447-.2586,.8957-1.0781,1.4787-1.9674,1.4787Z"/><path class="e" d="M145.588,188.6224c-.8878,0-1.7046-.583-1.9687-1.4787-.3183-1.0873,.3067-2.2279,1.3949-2.5447l8.453-2.4686c-3.2173-1.6691-7.2599-3.7713-9.01-4.7045-1-.5327-1.3777-1.7763-.8451-2.7755,.5312-1.0022,1.7699-1.3828,2.7755-.8465,3.115,1.659,13.5155,7.0389,13.5155,7.0389,.7458,.3856,1.1833,1.186,1.1008,2.0199-.0809,.8366-.6633,1.5383-1.4686,1.7734l-13.3693,3.9027c-.1932,.0576-.3834,.0838-.578,.0838Z"/></g><g><path class="e" d="M218.9269,162.6503c-.1052,0-.2102-.0086-.3168-.0249-10.2342-1.5817-15.3719-9.8792-15.585-10.2322-.5881-.9694-.2813-2.2301,.6889-2.8189,.9687-.593,2.2272-.2797,2.814,.6854h0c.0454,.0689,4.4119,7.027,12.7101,8.3089,1.1193,.1734,1.8877,1.2217,1.7145,2.3417-.1592,1.015-1.0298,1.7401-2.0256,1.7401Z"/><path class="e" d="M137.4262,162.6503c-.9958,0-1.8693-.7251-2.0285-1.7401-.1705-1.12,.5937-2.1683,1.7145-2.3417,8.3636-1.2912,12.6633-8.2335,12.7074-8.3045,.5837-.9694,1.8436-1.2828,2.8182-.6897,.9673,.5888,1.2784,1.8494,.6903,2.8189-.2173,.353-5.3579,8.6505-15.5865,10.2322-.1066,.0163-.216,.0249-.3154,.0249Z"/></g><path class="e" d="M156.0183,217.6243c-.7642,0-1.5326-.2833-2.1251-.8515l-5.5383-5.2948c-1.2301-1.1747-1.2727-3.1235-.0993-4.353,1.1775-1.2329,3.1249-1.2698,4.3536-.0979l3.4091,3.2606,8.9487-8.5554c1.1889-1.1385,3.064-1.1385,4.2529,0l8.9416,8.554,8.9502-8.5553c1.1904-1.1364,3.0654-1.1386,4.2542,0l8.9588,8.5588,3.4176-3.2641c1.2301-1.1719,3.179-1.1286,4.3508,.1008,1.1776,1.2288,1.1308,3.179-.0979,4.353l-5.5454,5.2939c-1.1904,1.135-3.064,1.1357-4.2515-.0006l-8.9573-8.5589-8.9516,8.5589c-1.1889,1.1356-3.0682,1.1363-4.2557-.0015l-8.9431-8.5554-8.9431,8.5554c-.5996,.5696-1.3609,.8529-2.1293,.8529Z"/></g><circle class="c" cx="142.4887" cy="141.7323" r="137.4803"/></svg>