<?xml version="1.0" encoding="utf-8"?>
<!-- Generator: Adobe Illustrator 26.1.0, SVG Export Plug-In . SVG Version: 6.00 Build 0)  -->
<svg version="1.1" id="Lag_1" xmlns="http://www.w3.org/2000/svg" xmlns:xlink="http://www.w3.org/1999/xlink" x="0px" y="0px"
	 viewBox="0 0 2255.9 2255.9" style="enable-background:new 0 0 2255.9 2255.9;" xml:space="preserve">
<style type="text/css">
	.st0{fill:#ADDDF6;}
	.st1{fill:#688EC9;}
	.st2{fill:#0F0F10;}
	.st3{fill:#EC5A26;}
	.st4{fill:#2D5B98;}
	.st5{fill:#E87C24;}
	.st6{fill:#982D21;}
	.st7{fill:#F0AF66;}
	.st8{fill:#027980;}
	.st9{fill:#005459;}
	.st10{fill:#B05726;}
	.st11{fill:#F7A593;}
	.st12{fill:#9EBDE3;}
	.st13{fill:#FFFFFF;}
	.st14{fill:#D87661;}
	.st15{fill:#BD4A31;}
	.st16{fill:#803220;}
	.st17{clip-path:url(#SVGID_00000119826253461057741550000016665745597850794939_);}
	.st18{fill:#1D3666;}
	.st19{fill:#F2775E;}
	.st20{fill:#2458A7;}
	.st21{fill:#F7A58E;}
	.st22{opacity:0.8;fill:#0E0E0E;enable-background:new    ;}
	.st23{fill:#595A5A;}
	.st24{fill:#DC3E26;}
	.st25{fill:#A34C39;}
</style>
<g>
	<g id="a">
		<rect x="367.6" y="395.6" class="st0" width="711.7" height="1352.8"/>
		<rect x="1114.3" y="395.6" class="st0" width="706.8" height="1352.8"/>
	</g>
	<g id="b">
		<g>
			<g>
				<g>
					<path class="st1" d="M1515.5,1743.9h309.9v211.2c0,85.5-69.4,155-155,155l0,0c-85.5,0-155-69.4-155-155L1515.5,1743.9
						L1515.5,1743.9L1515.5,1743.9z"/>
					<rect x="1498.3" y="1903.6" class="st2" width="17.2" height="327.9"/>
					<rect x="1825.4" y="1903.6" class="st2" width="17.2" height="327.9"/>
					<rect x="1693.9" y="1903.6" class="st2" width="17.2" height="327.9"/>
				</g>
				<rect x="1498.3" y="2110.1" class="st2" width="327.9" height="17.2"/>
			</g>
			<g>
				<path d="M1852.9,1367.8c22.8,23.6-10.6,52.6-10.3,90.4c0.3,37.8,45.9,51.6,9.1,107.2c-22.7,34.2-52.4-1.4-67.4,47.8
					s4,54-18.5,74.5c-39.2,35.8-116.8-16.3-101.7-65.5s61.5-52.6,34.2-86.6s-37.8-48.8-4.5-74c41.2-31.2,84.6-15.9,82.5-51.3
					C1774.2,1374.9,1822.7,1336.7,1852.9,1367.8L1852.9,1367.8z"/>
				<path class="st2" d="M1716.3,1741.8l-7.8-0.2c6-185.7,103.3-331,104.2-332.4l6.5,4.4C1818.2,1415,1722.2,1558.5,1716.3,1741.8
					L1716.3,1741.8z"/>
			</g>
			<g>
				<path class="st3" d="M1457.4,1243.5c-30.6,31.5,14.1,70.3,13.8,120.9c-0.4,50.6-59.1,49.4-9.8,123.9
					c30.4,45.8,45.5,28.3,36.9,106c-7.6,68.4,61,23.2,85.2,72.7c31.3,63.8,139.3-18.9,119.1-84.8c-20.2-65.8-68.7-66.2-32.1-111.7
					c36.5-45.4,25.7-92.1-18.9-125.9c-55.2-41.8-94.5,3.1-91.7-44.3S1497.8,1201.8,1457.4,1243.5L1457.4,1243.5z"/>
				<path class="st2" d="M1640.3,1744.1c-7.9-245.5-136.4-437.5-137.7-439.4l8.7-5.9c1.3,1.9,131.5,196.4,139.5,445L1640.3,1744.1z"
					/>
			</g>
		</g>
		<path class="st4" d="M19.5,2255.9h2216.9c6.8,0,12.2-5.5,12.2-12.2l0,0c0-6.8-5.5-12.2-12.2-12.2H19.5c-6.8,0-12.2,5.5-12.2,12.2
			l0,0C7.3,2250.5,12.8,2255.9,19.5,2255.9z"/>
	</g>
	<g id="c">
		<g>
			<g>
				<polygon class="st2" points="1165.9,2231.5 1220.2,2231.5 1225.8,2113.4 1160.3,2113.4 				"/>
				<polygon class="st2" points="222.6,2231.5 276.9,2231.5 282.5,2113.4 217,2113.4 				"/>
				<path class="st5" d="M269.9,1908.6c6,18.6,12.5,37.6,19.6,57.1h901.1c0,0,116.3-473.3,0-559.9c-3-2.2-6.6-4.4-10.7-6.5
					c-156.6-80.5-784.6-99.4-912,4.2c-1,0.8-1.9,1.6-2.8,2.4C218.2,1449,177.3,1621.1,269.9,1908.6L269.9,1908.6z"/>
				<path class="st6" d="M850.9,1965.7h339.5l-33.1-331.7C1098.1,1659.7,940.5,1795.3,850.9,1965.7z"/>
				<path class="st6" d="M269.9,1908.6c6,18.6,12.5,37.6,19.6,57.1h327.3c-56.3-104.4-192.8-262.5-325.3-335.3L269.9,1908.6
					L269.9,1908.6z"/>
				<path class="st5" d="M157,1629.4h124.9c21,0,38.8,15.6,41.5,36.4l39.8,301.3h730.1l39.8-301.3c2.8-20.8,20.5-36.4,41.5-36.4
					h124.9c26.1,0,45.8,23.6,41.2,49.2l-69.4,501.7H185.1l-69.4-501.7C111.2,1652.9,130.9,1629.4,157,1629.4L157,1629.4z"/>
				<path class="st7" d="M370.5,1802.5c-58.8,19.7-47.3,144.1,0,163.3h713.2c53.3-13.7,57.8-178.4-19.1-166
					C594.6,1888.1,571.8,1747.1,370.5,1802.5z"/>
			</g>
			<g>
				<path class="st8" d="M914.1,1676.3c0.2,32.1-1.5,62.4-5,88.9H574.7l-19.8-326.5c19.9-119.3,74.2-148.2,160.3-148.2
					c77,0,128.3,62.8,159.5,146.9C901.7,1510.1,913.6,1598.6,914.1,1676.3L914.1,1676.3z"/>
				<path class="st9" d="M914.1,1682.6l-121-7.3c67.2-22,72.5-125.1,4.2-189.3l77.4-48.6C901.7,1510.1,913.6,1605,914.1,1682.6
					L914.1,1682.6z"/>
				<polygon class="st2" points="937.2,1832.7 477.7,1832.7 477.7,1676.3 891.6,1676.3 				"/>
				<g>
					<path class="st2" d="M419,1783l123.4,448.4h96.2c-30.5-190.8-23.6-314.9-52.3-473.3C561.2,1628.1,389.1,1662.5,419,1783
						L419,1783z"/>
					<g>
						<path class="st10" d="M577,2231.5c0-0.3,0-0.6,0-0.9c0-33.2-27-60.2-60.2-60.2s-60.2,26.9-60.2,60.2c0,0.3,0,0.6,0,0.9H577
							L577,2231.5z"/>
						<path class="st10" d="M505.2,2171.5l21.9-6.7c14.4-28.4,76-24.9,67.5,9.7c24.2,3.6,36.9-8.4,36.9-8.4l7.2,65.4H508.2
							L505.2,2171.5z"/>
					</g>
				</g>
				<g>
					<path class="st2" d="M960.9,1783l-123.4,448.4h-96.2c30.5-190.8,23.6-314.9,52.3-473.3C818.7,1628.1,990.8,1662.5,960.9,1783
						L960.9,1783z"/>
					<g>
						<path class="st10" d="M802.9,2231.5c0-0.3,0-0.6,0-0.9c0-33.2,27-60.2,60.2-60.2c33.2,0,60.2,26.9,60.2,60.2
							c0,0.3,0,0.6,0,0.9H802.9L802.9,2231.5z"/>
						<path class="st10" d="M874.7,2171.5l-21.9-6.7c-14.4-28.4-76-24.9-67.5,9.7c-24.2,3.6-36.9-8.4-36.9-8.4l-7.2,65.4h130.5
							L874.7,2171.5z"/>
					</g>
				</g>
				<path class="st8" d="M766.8,1301c-45.1,27.4-51.6,108.7-28.4,141.1l128.8,95.9L736,1605.6l21.3,69.7c0,0,136.9-11.1,203.9-79.8
					C1025.5,1529.5,868.7,1335.7,766.8,1301L766.8,1301z"/>
				<path class="st2" d="M764.2,1599.8c-1.7,0-3.2-1.4-3.3-3.1c0-0.7-0.9-15.9,27.6-21.7c21-4.2,60.5-29,73-37.1
					c-15-11.5-69.2-53.8-83.9-75.6c-1-1.5-0.6-3.6,0.9-4.6s3.6-0.6,4.6,0.9c16.1,23.9,85.5,76.3,86.2,76.8c0.9,0.7,1.3,1.7,1.3,2.8
					c0,1.1-0.6,2.1-1.5,2.7c-2.2,1.4-53,35.4-79.2,40.7c-22.3,4.5-22.3,14.6-22.3,14.7c0.1,1.8-1.2,3.4-3.1,3.5
					C764.3,1599.7,764.2,1599.7,764.2,1599.8L764.2,1599.8z"/>
				<path class="st8" d="M675.2,1424.4c38.6-48.5,11.9-123.4-37.3-121.2c-160.3,56.4-209.7,213.1-159,283.4
					c43.5,60.2,234.8,83.4,234.8,83.4v-66l-132.9-28.7C580.9,1575.3,649.4,1469.1,675.2,1424.4L675.2,1424.4z"/>
				<g>
					<path class="st11" d="M815.7,1653.3c2.5-22.1-10.4-49.7-43.7-55.8c-58.1-10.5-79.1,21.3-84.6,44.1c-1.4,5.9,4,12.2,9,11.7
						c5-0.6,8.5-3.4,9.3-7.9c1-5.4,3.9-12.2,10.1-15.7c-6,11.8-3.5,23.6,12.8,23.6L815.7,1653.3L815.7,1653.3z"/>
					<g>
						<path class="st12" d="M684.6,1653.2l-45.7-229.1h-9.7c3.1,15.8,48,245,49.5,252.2h136.9l15-23.1H684.6L684.6,1653.2z"/>
						<polygon class="st13" points="629.2,1424.1 289.2,1424.1 339.5,1676.3 678.6,1676.3 						"/>
					</g>
				</g>
				<g>
					<g>
						<path class="st11" d="M728.3,1317.4c0,26.1-78.2,43.4-103.7,16c-3.9-4.1-6.5-9.2-7.5-15.5l-14.7-66l93.3-35.2l2.8,8.6
							L728.3,1317.4L728.3,1317.4z"/>
						<path class="st14" d="M617.1,1317.9l-14.7-66l88.3-23.8C713.5,1296.1,631.9,1350.5,617.1,1317.9z"/>
					</g>
					<path class="st11" d="M702.6,1191.3c4.9,64.9-46.4,122.1-89.4,124.9c-43,2.9-102.3-45.2-107.2-110.1
						c-4.9-64.9,35.1-120.8,89.4-124.9S697.7,1126.4,702.6,1191.3z"/>
					<path class="st2" d="M630.6,1086.2c-59.5-37.7-92.3-2.2-121.9,35.3c-20.8,26.4-35.5,45.3-61.4,49.3
						c49.8,62.8,149.3,21.4,180.7-41.6c3.1,35.8,45.3,65.5,74.5,62.1C712.1,1151.4,684.5,1070.9,630.6,1086.2L630.6,1086.2z"/>
					<circle class="st11" cx="691.2" cy="1192.2" r="25.9"/>
					<g>
						<path class="st15" d="M579.8,1272.7c-1.2,0-2.3-0.2-3.4-0.8c-6.1-3.3-4.7-37-4.1-47.3c0-0.7,0.7-1.3,1.4-1.2
							c0.7,0,1.3,0.7,1.2,1.4c-1.1,20.2-0.4,43.2,2.7,44.8c4.1,2.2,12.4-3.6,15.3-6.1c0.6-0.5,1.4-0.4,1.9,0.2
							c0.5,0.6,0.4,1.4-0.2,1.9C593.6,1266.4,586,1272.7,579.8,1272.7L579.8,1272.7z"/>
						<path class="st2" d="M613.6,1211.8c1.8,5,5.2,8.4,7.7,7.5s3.1-5.7,1.3-10.7c-1.8-5-5.2-8.4-7.7-7.5S611.8,1206.8,613.6,1211.8
							z"/>
						<path class="st2" d="M534.3,1242.1c1.7,4.7,4.9,7.8,7.2,7s2.9-5.3,1.2-10s-4.9-7.8-7.2-7
							C533.2,1232.9,532.7,1237.4,534.3,1242.1z"/>
						<path class="st16" d="M617,1281.4c-0.4,0-0.8-0.2-1.1-0.6c-0.4-0.6-0.3-1.4,0.3-1.9c0.4-0.3,10.7-7.5,25.8-3.2
							c0.7,0.2,1.1,0.9,0.9,1.6c-0.2,0.7-0.9,1.1-1.6,0.9c-13.9-3.9-23.4,2.8-23.5,2.8C617.6,1281.3,617.3,1281.4,617,1281.4
							L617,1281.4z"/>
						<path class="st16" d="M632.2,1194c-0.4,0-0.8-0.2-1-0.5l0,0c-0.3-0.4-8.7-9.9-22.2-4.4c-0.7,0.3-1.5-0.1-1.7-0.7
							c-0.3-0.7,0-1.5,0.7-1.7c15.4-6.2,25.2,5.1,25.3,5.2c0.5,0.6,0.4,1.4-0.2,1.9C632.8,1193.9,632.5,1194,632.2,1194L632.2,1194z
							"/>
						<path class="st16" d="M525,1236c-0.7,0-1.3-0.6-1.3-1.3c0-10.7,8.3-15,8.7-15.2c0.7-0.3,1.5-0.1,1.8,0.6
							c0.3,0.7,0.1,1.4-0.6,1.8c-0.3,0.2-7.2,3.8-7.2,12.8C526.3,1235.4,525.7,1236,525,1236L525,1236z"/>
					</g>
				</g>
			</g>
		</g>
	</g>
	<g id="d">
		<g>
			<defs>
				<rect id="SVGID_1_" x="367.6" width="1881.1" height="1228.1"/>
			</defs>
			<clipPath id="SVGID_00000073694625191151377650000008720012864431831474_">
				<use xlink:href="#SVGID_1_"  style="overflow:visible;"/>
			</clipPath>
			<g style="clip-path:url(#SVGID_00000073694625191151377650000008720012864431831474_);">
				<g>
					<path class="st18" d="M964,810.1l17.1,158.2c11.7,53.7,71.3,53.5,86.6,11.4c34-93.4,16.9-135,11.4-187.4
						C1068.5,694.6,953.4,712.4,964,810.1L964,810.1z"/>
					<g>
						<g>
							<g>
								<path class="st13" d="M1955.3,809.4l53.9-22.9c19.6-12.2,41.7,23.2,22.1,35.4l-47.8,32.8
									C1971,862.5,1942.8,817.2,1955.3,809.4L1955.3,809.4z"/>
								<g>
									<path class="st18" d="M2080.1,830.9l-45.7-3.4c-9-39.8-45.3-18.7-42.6-37.3c2.6-18.7,28.4-50.3,28.4-50.3l118.4,77.8
										C2138.5,817.8,2144.6,850.7,2080.1,830.9L2080.1,830.9z"/>
									<path class="st18" d="M2080.1,830.9c-18.3-0.4-37.5,1.1-47.6,6.5c-10.9,5.8-21.9-16.8-5.4-22.5S2068.2,815.2,2080.1,830.9
										L2080.1,830.9z"/>
								</g>
							</g>
							<path class="st18" d="M1415.3,737.4c74.9,47.2,193.6,100.8,278.1,188c33.2-40.1,130.1-71.4,252.1-119.6
								c26.4-2.4,52.7,43.4,32.3,64.7c0,0-227.9,183.2-309.3,173.6c-81.4-9.6-301.9-140.3-336.3-171.1
								C1286.8,832.5,1276,680,1415.3,737.4L1415.3,737.4z"/>
							<path class="st18" d="M1949.2,810.7l23.9-9.8c11.8,0.1,31.8,32.3,23.3,47.9l-22.6,15.4L1949.2,810.7L1949.2,810.7z"/>
						</g>
						<g>
							<g>
								<path class="st13" d="M1836.1,530.9l33.9-55c9.8-23.5,52.3-5.6,42.4,17.8l-22.2,60C1884,568.6,1829.8,545.8,1836.1,530.9
									L1836.1,530.9z"/>
								<path class="st18" d="M1422.8,634.1c86.2,20.5,187.9,55.8,280.2,92.8c3.2-51.9,58.5-89.6,128.9-200.4
									c19.9-17.5,68.1,4.1,64.2,33.3c0,0-53.4,249.7-124.8,289.8c-71.4,40.1-389.4-54.8-431.9-72.9
									C1305.1,762.2,1272.5,624.8,1422.8,634.1L1422.8,634.1z"/>
								<path class="st18" d="M1837.7,528.3l13.5-22c9.6-6.9,44.7,7.5,47.1,25l-9.2,25.7L1837.7,528.3z"/>
								<path class="st2" d="M1430.9,860.2c-4.9,0-6.2-6.3-6.8-9.1c-1.6-7.4-2.4-20.4-2.4-38.4c0-1.7,0.9-3.3,2.4-4.1
									c1.5-0.8,3.3-0.8,4.8,0.2c34.8,22.4,166.8,32.2,168.1,32.3c2.6,0.2,4.5,2.4,4.3,5c-0.2,2.6-2.4,4.5-5,4.3
									c-5.2-0.4-121.1-9-165.2-29.8c0.3,23.5,2.2,30,2.9,31.5c1,0.8,1.6,2.1,1.6,3.5C1435.5,858.2,1433.5,860.2,1430.9,860.2
									L1430.9,860.2z M1430.9,850.9L1430.9,850.9L1430.9,850.9L1430.9,850.9z"/>
							</g>
							<g>
								<path class="st18" d="M1965.9,468.8l-43.3,26c-33.4-30.1-52.6,12-62.1-6.5c-9.5-18.5-6.4-63.3-6.4-63.3l156.1-5.3
									C2010.2,419.8,2036.6,445.6,1965.9,468.8L1965.9,468.8z"/>
								<path class="st18" d="M1965.9,468.8c-16.7,11.3-33.1,24.8-38.7,36.2c-6.1,12.2-30.4-1.2-19.2-16.8
									C1919.1,472.5,1945.2,462.2,1965.9,468.8L1965.9,468.8z"/>
							</g>
						</g>
					</g>
					<path class="st18" d="M1025.9,667c-40.7,12.4-101.1,137.2-16.4,187.8c65.1,38.9,228,22.9,336.4,27.2l80.5-246.8
						C1301.9,596,1118.1,629.1,1025.9,667L1025.9,667z"/>
					<path class="st2" d="M1373.9,622.2l-28.3,261.8h-73.4l-45-266.5C1278.4,610.2,1327.5,610.8,1373.9,622.2L1373.9,622.2z"/>
					<g>
						<path class="st11" d="M872.9,789.4c5.3,17.2,15.6,30.3,29.5,28.7l43.2-7.4l85.3-14.9c27.4-4-1.9-112.3-29.4-108.3l-110.1,30.8
							C868.3,720.8,863.8,760.8,872.9,789.4L872.9,789.4z"/>
						<path class="st18" d="M951.5,701.4c0,0,15.2,8,16.7,57.7c1.2,41.7-8.3,49-8.3,49s4.4,10.2,23.1,5.1
							c34.8,4.9,68.1,3.5,88.2-24.6c21.2-29.5,4.1-132-50.9-119.2c-23.7,11.5-39.9,17.9-39.9,17.9S958.3,685.3,951.5,701.4
							L951.5,701.4z"/>
						<path class="st19" d="M872.9,789.4c5.3,17.2,15.6,30.3,29.5,28.7l43.2-7.4c0.7-38.6-29.3-67.4-29.3-67.4L872.9,789.4
							L872.9,789.4z"/>
					</g>
					<g>
						<g>
							<path class="st11" d="M724,788.9c30.2,54.5,114.8,84.3,162.3,57.9c47.4-26.3,39.8-98.8,9.6-153.3
								c-30.2-54.5-93.2-77.3-140.7-50.9S693.7,734.4,724,788.9L724,788.9z"/>
							<path class="st2" d="M892.8,689.5C824.7,733.1,768,778.4,725,792.3c0,0,10,29.5,30.9,34.6c92.9-29.3,139.9-131.7,139.9-131.7
								L892.8,689.5L892.8,689.5z"/>
						</g>
						<path class="st11" d="M887.1,728.9c3.5,12.6,12,16.1,23.2,9.6c8.9-5.2,14.1-18.2,10.6-30.8c-3.5-12.6-13.3-17.5-23.2-14.8
							S883.6,716.3,887.1,728.9z"/>
						<path class="st16" d="M821.4,823.5c-3.2,0-6.2-1.5-8.4-4.2c-1.9-2.4-2.7-5-2.2-7.7c0.9-5.9,7-10.1,7.3-10.3
							c0.6-0.4,1.4-0.3,1.8,0.3s0.3,1.4-0.3,1.8c0,0-5.4,3.8-6.1,8.5c-0.3,2,0.3,3.8,1.7,5.7c2.2,2.8,5.3,3.8,8.6,2.9
							c3.7-1.1,8.5-5.3,9.5-13.7c0.1-0.7,0.8-1.3,1.5-1.2c0.7,0.1,1.2,0.8,1.2,1.5c-1.1,9.7-6.6,14.6-11.4,15.9
							C823.4,823.4,822.4,823.5,821.4,823.5L821.4,823.5z"/>
						<path class="st11" d="M803.7,770.9c3.5,6.6,12.6,8.7,20.3,4.7c7.7-4.1,11.1-12.7,7.6-19.4s-12.6-8.7-20.3-4.7
							C808.5,758,807.1,763,803.7,770.9z"/>
						<path class="st11" d="M742.8,804.5c3.5,6.6,11.2,10,18.6,6.9s9.1-11.1,6.2-18.1c-6-1.3-8.2-1.4-16.3-3.4
							C743,787.9,738.5,796.3,742.8,804.5L742.8,804.5z"/>
						<path class="st2" d="M815.6,769.6c2.8,2.5,6.3,3.2,7.7,1.6s0.2-4.9-2.6-7.4c-2.8-2.5-6.3-3.2-7.7-1.6S812.8,767.1,815.6,769.6
							z"/>
						<path class="st2" d="M755.3,805.4c3,2.3,6.5,2.9,7.8,1.2c1.3-1.7,0-4.9-3-7.3c-3-2.3-6.5-2.9-7.8-1.2
							C751,799.8,752.3,803.1,755.3,805.4z"/>
						<path class="st13" d="M881,777.2c0,0-5.9,34.6-41,51.1c26,14.8,38.2,6.6,38.2,6.6S894.9,808.6,881,777.2L881,777.2z"/>
						<path class="st15" d="M890.5,777c-0.6,0-1.2-0.4-1.3-1.1c-0.3-1.8-2.5-4.3-5.8-5.5c-2-0.7-5.9-1.4-9.7,1.9
							c-0.6,0.5-1.4,0.4-1.9-0.1s-0.4-1.4,0.1-1.9c3.5-3,8-3.9,12.4-2.4c3.9,1.4,7,4.4,7.5,7.5c0.1,0.7-0.3,1.4-1.1,1.6
							C890.7,777,890.6,777,890.5,777L890.5,777z"/>
						<g>
							<path class="st18" d="M899.1,683.3c-82.8,6-129,20-196,61.7c0,0-16.5-129.3,89.2-148.8C882.3,579.5,899.1,683.3,899.1,683.3z
								"/>
							<path class="st18" d="M710.9,757c34.6-35.8,181.8-59.8,208.6-53.7c7.7,0.4-0.3-38.2-26.5-43.5
								c-15.8-3.2-123.3,9.6-190.6,57.5C682.3,731.5,701.5,764.9,710.9,757L710.9,757z"/>
							
								<ellipse transform="matrix(0.946 -0.3242 0.3242 0.946 -151.127 298.6312)" class="st18" cx="820.6" cy="602.8" rx="41.7" ry="27"/>
							<path class="st20" d="M702.4,719.9c-0.8,0-1.6-0.4-2.2-1.1c-0.9-1.2-0.6-2.8,0.6-3.7c43.6-31.6,93.5-45.7,127.7-51.9
								c37.1-6.8,64.3-6.1,64.5-6.1c1.5,0,2.6,1.3,2.6,2.7c0,1.5-1.2,2.6-2.7,2.6c-0.3,0-27-0.7-63.6,6c-33.6,6.2-82.7,20-125.4,51
								C703.4,719.7,702.9,719.9,702.4,719.9L702.4,719.9z"/>
						</g>
						<path class="st15" d="M827.6,711.1c0,0,1.9,13.6-15.6,15.7s-17.5-2.1-17.5-2.1s0.4,26.1-27.6,30.4c-14.2,2.2-20.1-11-20.1-11
							c-10.4,38.5-59.5,63.2-78.7,33.1c-11.5-36.4,25.7-39.5,39.9-35.3C713.5,736.6,783.9,708.1,827.6,711.1L827.6,711.1z"/>
					</g>
					<g>
						<path class="st18" d="M994.2,924.5c-37.5,16.6-93,28.1-122.1,45.9l-17.6,53c27.9,24.6,132.6,9.4,181.8-9.1
							C1095.8,984.8,1053.7,895.1,994.2,924.5L994.2,924.5z"/>
						<g>
							<path class="st21" d="M869.5,976.7c17.7,8.1,20.9,34.1,6.7,47.3c-9,8.4-25.1,3.2-29.6,1.5c-0.7-0.3-1.2-0.5-1.2-0.5
								s-1.2,1.3-3.5,2.9c-3.1,2.5-8.2,5.7-14.3,7.1c-10.3,2.3-40.8-22.9-42.9-45.1c-2.1-22.2,40.1-25.2,43.4-26
								C831.5,963.1,869.5,976.7,869.5,976.7L869.5,976.7z"/>
							<path class="st22" d="M821.5,992.5c26.4,17.3,36.2,17.3,44.4,16c-9,8.8-20.8,5.3-20.8,5.3s1.2,7,1.4,11.7
								c-0.7-0.3-1.2-0.5-1.2-0.5s-1.2,1.3-3.5,2.9C841.8,1026.6,841.8,1014,821.5,992.5L821.5,992.5z"/>
							<g>
								<g>
									
										<rect x="773.3" y="949.8" transform="matrix(0.3569 -0.9341 0.9341 0.3569 -399.1677 1347.9557)" class="st2" width="12.2" height="28.2"/>
									<path class="st2" d="M858.1,1005.2c7.2,2.7,14.7-16.8,7.5-19.6l-75.1-28.7c-6.3-2.4-13.8,17.1-7.5,19.6L858.1,1005.2
										L858.1,1005.2z"/>
								</g>
								<path class="st23" d="M682.9,961.4c41.3,15.8,78.7,18.7,83.3,6.6c0.9-2.3,0.5-5-1-8.1c-1.2-2.8-3.6-5.8-6.7-9
									c-0.8-0.8-1.7-1.6-2.6-2.4c-11.7-10.5-31.8-22.1-56-31.4c-24.2-9.3-47.2-14.1-62.8-14c-1.3,0.1-2.5-0.1-3.6,0.1
									c-4.4,0.3-8.2,1-11,2.2c-3.2,1.3-5.2,3-6.1,5.3C611.7,922.7,641.4,945.5,682.9,961.4L682.9,961.4z M684.3,957.8
									c-34.7-13.2-59.6-32.4-55.7-42.5c0.2-0.5,0.3-0.8,0.6-1.2c1.2-1.8,3.3-3.2,6.3-4c4.4-1.2,10.4-1.6,17.6-0.9
									c12.4,1,28.5,5,45.3,11.4c16.8,6.4,31.3,14.1,41.2,21.6c5.8,4.4,10,8.7,12.5,12.4c1.7,2.6,2.4,5,2.1,7.2
									c0,0.5-0.1,0.8-0.3,1.3C750.1,973.3,718.8,971,684.3,957.8L684.3,957.8z"/>
								<path class="st2" d="M765.2,959.9c1.5,3.1,1.9,5.7,1,8.1l5.2-13.5c4.7-12.3-25.1-34.9-66.5-50.7
									c-41.5-15.8-78.8-18.9-83.5-6.6l-5.2,13.5c0.9-2.3,3-4,6.1-5.3c2.8-1.2,6.6-1.9,11-2.2c1.1-0.1,2.3,0,3.6-0.1
									c15.7-0.1,38.6,4.8,62.8,14c24.2,9.3,44.4,20.9,56,31.4c0.9,0.9,1.9,1.6,2.6,2.4C761.6,954,764,957.1,765.2,959.9
									L765.2,959.9z"/>
								<path class="st2" d="M684.3,957.8c34.5,13.2,65.8,15.5,69.7,5.4c0.2-0.5,0.3-0.8,0.3-1.3c0.3-2.2-0.4-4.6-2.1-7.2
									c-4.4,1.3-10.8,1.6-18.3,0.8c-12.4-1.2-28-5-44.5-11.3c-16.5-6.3-30.8-13.9-40.8-21.3c-6.1-4.5-10.7-8.9-13.1-12.8
									c-3,0.8-5.1,2.2-6.3,4c-0.3,0.4-0.5,0.7-0.6,1.2C624.7,925.4,649.6,944.5,684.3,957.8z"/>
								<path class="st13" d="M688.2,948.8c35.4,13.5,59.8,8,64.4,6.2c-11-16.2-36.9-27.8-53.7-34.2c-40.8-15.6-59.5-11.8-64-10.2
									C637.1,915,652.3,935.1,688.2,948.8L688.2,948.8z"/>
								<path class="st21" d="M790.6,979.4c0,0,22.1-1.1,35.5,17.4s9.5,31.4,0.8,31.1C818.3,1027.6,793.6,985.6,790.6,979.4
									L790.6,979.4z"/>
							</g>
							<path class="st21" d="M859.7,1013.2c-27.2,2-45.3-33-45.3-33s-16.8-3.6-21.2-10c-5.8-8.6,5.1-13.7,5.1-13.7
								c2.9-1.2,63,16,61.8,17.3c0,0,14.5,6.2,12.9,22.2C871.6,1012.2,859.7,1013.2,859.7,1013.2L859.7,1013.2z"/>
							<path class="st24" d="M858.9,1013.6C858.9,1013.6,858.9,1013.5,858.9,1013.6c0-0.5-0.4-0.8-0.8-0.8
								c-26,0.4-42.9-32.5-43-32.8c-0.2-0.4-0.7-0.5-1-0.3c-0.4,0.2-0.5,0.7-0.3,1c0.2,0.3,17.5,34.1,44.4,33.7
								C858.6,1014.3,858.9,1014,858.9,1013.6L858.9,1013.6z"/>
						</g>
						<path class="st18" d="M860.2,973.9c0,0,8.4-7.3,17.4-4.5c9,2.8,19.3,23.8,16,37.5c-3.5,14.6-7.4,25.2-20.2,26.7
							c-12.8,1.6-15.3-5.2-15.3-5.2s15.5-2.1,15.6-28C873.8,979.6,864.6,974.4,860.2,973.9L860.2,973.9z"/>
					</g>
					<g>
						<g>
							<path class="st18" d="M1139.1,822.2l76.2,81.8c-14,18.4-36.6,119.8-19.8,146.2l46.5,6.8c37.7-1.9,82-137.6,61.4-177.6
								c-29-96-96.6-200.4-96.6-200.4C1156.6,654.9,1028.1,748.6,1139.1,822.2L1139.1,822.2z"/>
							<path class="st18" d="M1254,1045.1c0,0,6.3,11.4-2,17.6c-8.4,6.2-67.4,2-62.9-20.4C1191.9,1027.7,1246.4,1033.8,1254,1045.1z
								"/>
						</g>
						<g>
							<path class="st11" d="M1243.9,1057.5l-8.7,34.4c-6.8,16.8-45.4-8.9-43.3-23.8l7.2-21.4
								C1206.2,1040.9,1238.5,1049.3,1243.9,1057.5L1243.9,1057.5z"/>
							<g>
								<path class="st25" d="M1194.2,1094.5c0,0,21.6,40.5-36.8,23.9C1129.6,1091.1,1185.3,1077.1,1194.2,1094.5z"/>
								<path class="st11" d="M1234.9,1090.1c0,0,4.4,23.8-9.4,36.2s-25.3,20.9-25.3,20.9s-5.4-1.3-4.3-8.6
									c1.1-7.3,13.6-16.6,14.3-19.2c3.5-14.2-2.8-17.8-14.9-17.2c-10.2,0.5-23.5,51.4-33.7,49.2c-6.1-1.3-4.6-21.4-1.3-31.3
									c-18.7-7.9-20.9-35.5,31.2-53.1C1229.7,1051.2,1234.9,1090.1,1234.9,1090.1L1234.9,1090.1z"/>
								<path class="st24" d="M1160.2,1120.8c-0.1,0-0.2,0-0.3-0.1c-0.4-0.2-0.7-0.6-0.5-1.1l7.8-22c0.2-0.4,0.6-0.7,1.1-0.5
									c0.4,0.2,0.7,0.6,0.5,1.1l-7.8,22C1160.9,1120.6,1160.5,1120.8,1160.2,1120.8L1160.2,1120.8z"/>
							</g>
						</g>
						<path class="st2" d="M1196.5,886.4c-1.2,0-2.4-0.5-3.3-1.4l-56.6-58.8c-5.5-1.9-27.8-10.7-38.2-30.1c-1.2-2.3-0.3-5.1,1.9-6.3
							c2.3-1.2,5.1-0.3,6.3,1.9c9.7,18.3,33.6,25.9,33.9,26c0.8,0.2,1.4,0.7,2,1.2l57.4,59.6c1.8,1.8,1.7,4.8-0.1,6.6
							C1198.9,886,1197.7,886.4,1196.5,886.4L1196.5,886.4z"/>
					</g>
					<path class="st2" d="M1335.3,630.3c-0.1,0-0.1,0-0.2,0c-2.6-0.1-4.6-2.3-4.4-4.8l0,0c0-0.2,0.9-24-11.6-37
						c-5.4-5.6-12.7-8.5-21.7-8.5c-9.4,0-16.9,2.9-22.2,8.6c-11.1,12.1-9.6,32.8-9.5,33c0.2,2.6-1.7,4.8-4.2,5
						c-2.6,0.2-4.8-1.7-5-4.3c-0.1-1-1.9-25,12-40.1c7.1-7.7,16.8-11.6,29-11.6s21.2,3.8,28.4,11.4c15.2,15.9,14.2,42.7,14.2,43.8
						C1339.8,628.4,1337.8,630.3,1335.3,630.3L1335.3,630.3z"/>
					<g>
						<path class="st2" d="M1291.8,495.2c-2.6,0-4.7-2.1-4.7-4.7v-837.3c0-2.6,2.1-4.6,4.7-4.6s4.7,2.1,4.7,4.6v837.3
							C1296.4,493.1,1294.3,495.2,1291.8,495.2z"/>
						<path class="st2" d="M1294.5,585.2c-5.1,0-10.3-1.3-14.8-4c-8.6-5.1-13-14-12.2-24.3c1.4-16,7.3-32.8,12.6-45
							c-3.9-3.3-6.2-8.1-6.2-13.3c0-9.8,8-17.8,17.8-17.8s17.8,8,17.8,17.8c0,4.5-1.7,8.6-4.8,11.8c5.6,10.4,12,25.7,14.6,44.6
							c2.1,15.4-5.4,22.9-10.1,26C1304.9,583.8,1299.7,585.2,1294.5,585.2L1294.5,585.2z M1291.7,490c-4.7,0-8.5,3.8-8.5,8.5
							c0,3.2,1.8,6,4.8,7.5c2.2,1.1,3.2,3.8,2.2,6.1c-5.3,11.8-12,29.2-13.4,45.6c-0.8,9.1,4.4,13.7,7.6,15.5
							c6.1,3.6,14.2,3.6,19.6,0c5-3.3,7.1-9.2,6-17c-2.7-19.6-9.8-35.1-15.3-44.7c-1.2-2.1-0.6-4.9,1.5-6.2c2.5-1.7,3.9-4.2,3.9-6.9
							C1300.1,493.8,1296.3,490,1291.7,490L1291.7,490z"/>
					</g>
				</g>
			</g>
		</g>
	</g>
</g>
</svg>
